<svg width="500" height="501" viewBox="0 0 500 501" fill="none" xmlns="http://www.w3.org/2000/svg">
<path d="M449.9 399.353H416.78V399.603H449.9V399.353Z" fill="#EBEBEB"/>
<path d="M331.22 402.073H322.53V402.323H331.22V402.073Z" fill="#EBEBEB"/>
<path d="M415.78 390.073H396.59V390.323H415.78V390.073Z" fill="#EBEBEB"/>
<path d="M95.65 391.753H52.46V392.003H95.65V391.753Z" fill="#EBEBEB"/>
<path d="M110.89 391.753H104.56V392.003H110.89V391.753Z" fill="#EBEBEB"/>
<path d="M225.15 395.973H131.47V396.223H225.15V395.973Z" fill="#EBEBEB"/>
<path d="M237 338.663H43.92C42.4056 338.663 40.9532 338.061 39.8824 336.991C38.8115 335.92 38.21 334.467 38.21 332.953V61.523C38.2231 60.0173 38.8305 58.5778 39.9 57.5177C40.9694 56.4577 42.4142 55.863 43.92 55.863H237C238.514 55.863 239.967 56.4646 241.038 57.5355C242.108 58.6063 242.71 60.0587 242.71 61.573V332.953C242.71 334.467 242.108 335.92 241.038 336.991C239.967 338.061 238.514 338.663 237 338.663ZM43.92 56.063C42.4727 56.0657 41.0855 56.6418 40.0621 57.6652C39.0387 58.6885 38.4626 60.0758 38.46 61.523V332.953C38.4626 334.4 39.0387 335.788 40.0621 336.811C41.0855 337.834 42.4727 338.41 43.92 338.413H237C238.447 338.41 239.834 337.834 240.858 336.811C241.881 335.788 242.457 334.4 242.46 332.953V61.523C242.457 60.0758 241.881 58.6885 240.858 57.6652C239.834 56.6418 238.447 56.0657 237 56.063H43.92Z" fill="#EBEBEB"/>
<path d="M453.31 338.663H260.21C258.696 338.66 257.246 338.058 256.175 336.988C255.105 335.917 254.503 334.467 254.5 332.953V61.523C254.516 60.0182 255.124 58.5801 256.193 57.5206C257.262 56.4611 258.705 55.8656 260.21 55.863H453.31C454.812 55.8682 456.252 56.4653 457.317 57.5248C458.382 58.5842 458.987 60.0208 459 61.523V332.953C459 334.464 458.401 335.913 457.335 336.984C456.268 338.054 454.821 338.658 453.31 338.663ZM260.21 56.063C258.763 56.0657 257.375 56.6418 256.352 57.6652C255.329 58.6885 254.753 60.0758 254.75 61.523V332.953C254.753 334.4 255.329 335.788 256.352 336.811C257.375 337.834 258.763 338.41 260.21 338.413H453.31C454.757 338.41 456.145 337.834 457.168 336.811C458.191 335.788 458.767 334.4 458.77 332.953V61.523C458.767 60.0758 458.191 58.6885 457.168 57.6652C456.145 56.6418 454.757 56.0657 453.31 56.063H260.21Z" fill="#EBEBEB"/>
<path d="M500 383.263H0V383.513H500V383.263Z" fill="#EBEBEB"/>
<path d="M114.64 104.433C110.243 104.433 105.945 105.737 102.29 108.179C98.634 110.622 95.7847 114.094 94.1022 118.156C92.4197 122.218 91.9794 126.688 92.8372 131C93.6949 135.312 95.8121 139.273 98.9211 142.382C102.03 145.491 105.991 147.608 110.303 148.466C114.615 149.324 119.085 148.883 123.147 147.201C127.209 145.518 130.681 142.669 133.124 139.013C135.566 135.358 136.87 131.06 136.87 126.663C136.87 120.767 134.528 115.113 130.359 110.944C126.19 106.775 120.536 104.433 114.64 104.433ZM127.55 142.433V137.933C127.55 130.803 121.77 130.023 114.64 130.023C107.51 130.023 101.73 130.803 101.73 137.933V142.433C98.4743 139.77 96.1219 136.165 94.9952 132.113C93.8685 128.06 94.0226 123.758 95.4365 119.797C96.8503 115.835 99.4547 112.408 102.893 109.985C106.331 107.561 110.434 106.261 114.64 106.261C118.846 106.261 122.95 107.561 126.387 109.985C129.825 112.408 132.43 115.835 133.844 119.797C135.257 123.758 135.412 128.06 134.285 132.113C133.158 136.165 130.806 139.77 127.55 142.433Z" fill="#F0F0F0"/>
<path d="M114.64 128.433C117.788 128.433 120.34 125.433 120.34 121.733C120.34 118.033 117.788 115.033 114.64 115.033C111.492 115.033 108.94 118.033 108.94 121.733C108.94 125.433 111.492 128.433 114.64 128.433Z" fill="#F0F0F0"/>
<path d="M96.4901 172.383C93.015 172.383 89.6181 173.414 86.7287 175.344C83.8393 177.275 81.5873 180.019 80.2575 183.229C78.9277 186.44 78.5797 189.973 79.2577 193.381C79.9356 196.789 81.609 199.92 84.0662 202.377C86.5234 204.834 89.6541 206.508 93.0623 207.185C96.4706 207.863 100.003 207.515 103.214 206.186C106.424 204.856 109.168 202.604 111.099 199.714C113.03 196.825 114.06 193.428 114.06 189.953C114.061 187.645 113.608 185.36 112.725 183.228C111.843 181.095 110.549 179.158 108.917 177.526C107.285 175.894 105.348 174.6 103.215 173.718C101.083 172.835 98.7977 172.382 96.4901 172.383ZM106.69 202.383V198.863C106.69 193.233 102.12 192.613 96.4901 192.613C90.8601 192.613 86.2801 193.233 86.2801 198.863V202.423C83.7058 200.318 81.8456 197.468 80.9545 194.264C80.0635 191.06 80.1851 187.659 81.3027 184.527C82.4203 181.395 84.4793 178.685 87.1974 176.769C89.9154 174.853 93.1595 173.825 96.4851 173.825C99.8106 173.825 103.055 174.853 105.773 176.769C108.491 178.685 110.55 181.395 111.667 184.527C112.785 187.659 112.907 191.06 112.016 194.264C111.124 197.468 109.264 200.318 106.69 202.423V202.383Z" fill="#F0F0F0"/>
<path d="M96.49 180.763C93.56 180.763 91.98 183.133 91.98 186.053C91.98 188.973 93.56 191.353 96.49 191.353C99.42 191.353 100.99 188.983 100.99 186.053C100.99 183.123 99.41 180.763 96.49 180.763Z" fill="#F0F0F0"/>
<path d="M169.9 70.7531C167.153 70.7531 164.467 71.5677 162.183 73.0939C159.899 74.6202 158.119 76.7895 157.067 79.3276C156.016 81.8656 155.741 84.6585 156.277 87.3529C156.813 90.0473 158.136 92.5222 160.078 94.4648C162.021 96.4073 164.496 97.7302 167.19 98.2662C169.885 98.8021 172.677 98.527 175.215 97.4757C177.754 96.4244 179.923 94.6441 181.449 92.3599C182.975 90.0757 183.79 87.3902 183.79 84.6431C183.79 80.9592 182.327 77.4262 179.722 74.8213C177.117 72.2165 173.584 70.7531 169.9 70.7531ZM178 94.493V91.6831C178 87.2231 174.39 86.743 169.94 86.743C165.49 86.743 161.88 87.2231 161.88 91.6831V94.493C159.847 92.8304 158.379 90.5798 157.675 88.0497C156.972 85.5196 157.068 82.8339 157.951 80.3607C158.833 77.8874 160.459 75.7477 162.606 74.2348C164.752 72.7218 167.314 71.9097 169.94 71.9097C172.566 71.9097 175.128 72.7218 177.274 74.2348C179.421 75.7477 181.047 77.8874 181.929 80.3607C182.812 82.8339 182.908 85.5196 182.205 88.0497C181.501 90.5798 180.033 92.8304 178 94.493Z" fill="#F0F0F0"/>
<path d="M169.9 77.3831C167.59 77.3831 166.34 79.2531 166.34 81.5631C166.34 83.8731 167.59 85.7531 169.9 85.7531C172.21 85.7531 173.46 83.8731 173.46 81.5631C173.46 79.2531 172.21 77.3831 169.9 77.3831Z" fill="#F0F0F0"/>
<path d="M403.3 178.273C400.553 178.273 397.867 179.088 395.583 180.614C393.299 182.14 391.519 184.31 390.467 186.848C389.416 189.386 389.141 192.178 389.677 194.873C390.213 197.567 391.536 200.042 393.478 201.985C395.421 203.927 397.896 205.25 400.59 205.786C403.285 206.322 406.077 206.047 408.615 204.996C411.153 203.944 413.323 202.164 414.849 199.88C416.375 197.596 417.19 194.91 417.19 192.163C417.19 188.479 415.727 184.946 413.122 182.341C410.517 179.736 406.984 178.273 403.3 178.273ZM411.37 202.013V199.203C411.37 194.743 407.76 194.263 403.3 194.263C398.84 194.263 395.24 194.743 395.24 199.203V202.013C393.205 200.349 391.735 198.097 391.031 195.565C390.327 193.033 390.423 190.345 391.306 187.869C392.189 185.394 393.816 183.252 395.965 181.738C398.113 180.224 400.677 179.411 403.305 179.411C405.933 179.411 408.497 180.224 410.645 181.738C412.793 183.252 414.421 185.394 415.304 187.869C416.187 190.345 416.283 193.033 415.579 195.565C414.875 198.097 413.404 200.349 411.37 202.013Z" fill="#F0F0F0"/>
<path d="M403.3 184.863C400.99 184.863 399.74 186.733 399.74 189.043C399.74 191.353 400.99 193.233 403.3 193.233C405.61 193.233 406.87 191.353 406.87 189.043C406.87 186.733 405.62 184.863 403.3 184.863Z" fill="#F0F0F0"/>
<path d="M346.67 73.1931C343.125 73.1911 339.66 74.2404 336.711 76.2083C333.763 78.1761 331.465 80.9742 330.107 84.2484C328.749 87.5227 328.393 91.1261 329.083 94.6029C329.773 98.0797 331.479 101.274 333.985 103.781C336.491 106.288 339.684 107.996 343.16 108.688C346.637 109.38 350.24 109.026 353.515 107.67C356.79 106.314 359.59 104.017 361.559 101.07C363.529 98.1228 364.58 94.6577 364.58 91.1131C364.58 86.3621 362.693 81.8056 359.335 78.4452C355.976 75.0849 351.421 73.1957 346.67 73.1931ZM357.07 103.863V100.193C357.07 94.4431 352.41 93.8131 346.67 93.8131C340.93 93.8131 336.27 94.4431 336.27 100.193V103.863C333.649 101.718 331.756 98.8148 330.849 95.5516C329.943 92.2883 330.067 88.8246 331.206 85.635C332.345 82.4454 334.442 79.686 337.211 77.7349C339.979 75.7838 343.283 74.7365 346.67 74.7365C350.057 74.7365 353.361 75.7838 356.129 77.7349C358.898 79.686 360.995 82.4454 362.134 85.635C363.273 88.8246 363.397 92.2883 362.491 95.5516C361.584 98.8148 359.691 101.718 357.07 103.863Z" fill="#F0F0F0"/>
<path d="M346.67 81.743C343.67 81.743 342.07 84.163 342.07 87.143C342.07 90.123 343.69 92.543 346.67 92.543C349.65 92.543 351.26 90.123 351.26 87.143C351.26 84.163 349.65 81.743 346.67 81.743Z" fill="#F0F0F0"/>
<path d="M384.2 112.353C379.453 112.353 374.813 113.761 370.866 116.398C366.919 119.035 363.843 122.783 362.027 127.169C360.21 131.554 359.735 136.38 360.661 141.035C361.587 145.691 363.873 149.967 367.229 153.324C370.586 156.68 374.862 158.966 379.518 159.892C384.173 160.818 388.999 160.343 393.384 158.526C397.77 156.71 401.518 153.633 404.155 149.687C406.792 145.74 408.2 141.1 408.2 136.353C408.2 133.201 407.579 130.08 406.373 127.169C405.167 124.257 403.399 121.611 401.171 119.382C398.942 117.154 396.296 115.386 393.384 114.18C390.473 112.974 387.352 112.353 384.2 112.353ZM398.14 153.353V148.493C398.14 140.793 391.9 139.953 384.2 139.953C376.5 139.953 370.26 140.793 370.26 148.493V153.353C366.75 150.478 364.215 146.588 363.001 142.216C361.788 137.844 361.956 133.204 363.482 128.932C365.009 124.659 367.819 120.963 371.528 118.349C375.237 115.736 379.663 114.333 384.2 114.333C388.737 114.333 393.163 115.736 396.872 118.349C400.581 120.963 403.391 124.659 404.918 128.932C406.444 133.204 406.612 137.844 405.399 142.216C404.185 146.588 401.65 150.478 398.14 153.353Z" fill="#F0F0F0"/>
<path d="M384.2 123.803C380.2 123.803 378.04 127.043 378.04 131.043C378.04 135.043 380.2 138.283 384.2 138.283C388.2 138.283 390.36 135.033 390.36 131.043C390.36 127.053 388.2 123.803 384.2 123.803Z" fill="#F0F0F0"/>
<path d="M95.5101 238.333H94.3101V263.733H95.5101V238.333Z" fill="#E0E0E0"/>
<path d="M94.9101 240.983C94.7144 240.983 94.5206 240.945 94.3399 240.87C94.1591 240.795 93.9948 240.685 93.8565 240.547C93.7181 240.408 93.6084 240.244 93.5335 240.063C93.4586 239.882 93.4201 239.689 93.4201 239.493V234.373C93.4174 234.176 93.454 233.98 93.5277 233.797C93.6014 233.614 93.7107 233.447 93.8493 233.307C93.988 233.166 94.1531 233.054 94.3352 232.978C94.5173 232.902 94.7127 232.863 94.9101 232.863C95.1061 232.862 95.3004 232.899 95.4818 232.974C95.6632 233.048 95.828 233.158 95.9666 233.297C96.1052 233.435 96.2149 233.6 96.2893 233.781C96.3638 233.963 96.4014 234.157 96.4001 234.353V239.473C96.4027 239.67 96.3661 239.866 96.2924 240.049C96.2187 240.233 96.1094 240.399 95.9708 240.54C95.8322 240.68 95.667 240.792 95.4849 240.868C95.3028 240.944 95.1074 240.983 94.9101 240.983Z" fill="#E0E0E0"/>
<path d="M80.28 242.863C79.9992 243.141 79.6201 243.297 79.225 243.297C78.83 243.297 78.4509 243.141 78.17 242.863L74.55 239.243C74.2722 238.962 74.1163 238.583 74.1163 238.188C74.1163 237.793 74.2722 237.414 74.55 237.133C74.8309 236.855 75.21 236.699 75.605 236.699C76.0001 236.699 76.3792 236.855 76.66 237.133L80.28 240.753C80.5579 241.034 80.7138 241.413 80.7138 241.808C80.7138 242.203 80.5579 242.582 80.28 242.863Z" fill="#E0E0E0"/>
<path d="M90.36 263.733H89.16V257.173C89.171 255.737 88.8974 254.312 88.355 252.982C87.8127 251.652 87.0123 250.442 86 249.423L77 240.423L77.85 239.573L86.85 248.573C87.9831 249.7 88.8812 251.04 89.4923 252.516C90.1034 253.992 90.4154 255.575 90.41 257.173L90.36 263.733Z" fill="#E0E0E0"/>
<path d="M109.18 242.863C109.461 243.141 109.84 243.297 110.235 243.297C110.63 243.297 111.009 243.141 111.29 242.863L114.91 239.243C115.188 238.962 115.344 238.583 115.344 238.188C115.344 237.793 115.188 237.414 114.91 237.133C114.629 236.855 114.25 236.699 113.855 236.699C113.46 236.699 113.081 236.855 112.8 237.133L109.18 240.753C108.902 241.034 108.746 241.413 108.746 241.808C108.746 242.203 108.902 242.582 109.18 242.863Z" fill="#E0E0E0"/>
<path d="M100.29 263.733H99.09V257.173C99.0868 255.576 99.3998 253.993 100.011 252.517C100.622 251.041 101.519 249.701 102.65 248.573L111.65 239.573L112.5 240.423L103.5 249.423C102.479 250.438 101.669 251.646 101.118 252.976C100.567 254.307 100.286 255.733 100.29 257.173V263.733Z" fill="#E0E0E0"/>
<path d="M120.72 284.503H69.11L65.51 261.873H124.32L120.72 284.503Z" fill="#E0E0E0"/>
<path d="M124.32 257.933H65.51V261.873H124.32V257.933Z" fill="#F0F0F0"/>
<path d="M106.34 266.883H83.48V380.643H106.34V266.883Z" fill="#F0F0F0"/>
<path d="M117.42 377.483H72.41V383.883H117.42V377.483Z" fill="#EBEBEB"/>
<path d="M403.9 238.333H402.7V263.733H403.9V238.333Z" fill="#E0E0E0"/>
<path d="M403.3 240.983C403.104 240.983 402.911 240.945 402.73 240.87C402.549 240.795 402.385 240.685 402.246 240.547C402.108 240.408 401.998 240.244 401.923 240.063C401.849 239.882 401.81 239.689 401.81 239.493V234.373C401.807 234.176 401.844 233.98 401.918 233.797C401.991 233.614 402.101 233.447 402.239 233.307C402.378 233.166 402.543 233.054 402.725 232.978C402.907 232.902 403.103 232.863 403.3 232.863C403.496 232.862 403.691 232.899 403.873 232.974C404.055 233.048 404.221 233.157 404.36 233.296C404.499 233.434 404.61 233.599 404.686 233.781C404.761 233.962 404.8 234.157 404.8 234.353V239.473C404.801 239.671 404.763 239.867 404.689 240.05C404.614 240.233 404.504 240.4 404.364 240.54C404.225 240.681 404.059 240.792 403.876 240.868C403.694 240.944 403.498 240.983 403.3 240.983Z" fill="#E0E0E0"/>
<path d="M388.67 242.863C388.389 243.141 388.01 243.297 387.615 243.297C387.22 243.297 386.841 243.141 386.56 242.863L382.94 239.243C382.662 238.962 382.506 238.583 382.506 238.188C382.506 237.793 382.662 237.414 382.94 237.133C383.221 236.855 383.6 236.699 383.995 236.699C384.39 236.699 384.769 236.855 385.05 237.133L388.67 240.753C388.948 241.034 389.104 241.413 389.104 241.808C389.104 242.203 388.948 242.582 388.67 242.863Z" fill="#E0E0E0"/>
<path d="M398.76 263.733H397.56V257.173C397.564 255.733 397.283 254.307 396.732 252.976C396.181 251.646 395.371 250.438 394.35 249.423L385.35 240.423L386.2 239.573L395.2 248.573C396.334 249.699 397.234 251.039 397.847 252.515C398.46 253.991 398.773 255.575 398.77 257.173L398.76 263.733Z" fill="#E0E0E0"/>
<path d="M417.57 242.863C417.851 243.141 418.23 243.297 418.625 243.297C419.02 243.297 419.399 243.141 419.68 242.863L423.3 239.243C423.578 238.962 423.734 238.583 423.734 238.188C423.734 237.793 423.578 237.414 423.3 237.133C423.019 236.855 422.64 236.699 422.245 236.699C421.85 236.699 421.471 236.855 421.19 237.133L417.57 240.753C417.292 241.034 417.136 241.413 417.136 241.808C417.136 242.203 417.292 242.582 417.57 242.863Z" fill="#E0E0E0"/>
<path d="M408.68 263.733H407.48V257.173C407.477 255.576 407.79 253.993 408.401 252.517C409.012 251.041 409.909 249.701 411.04 248.573L420.04 239.573L420.89 240.423L411.89 249.423C410.869 250.438 410.059 251.646 409.508 252.976C408.957 254.307 408.676 255.733 408.68 257.173V263.733Z" fill="#E0E0E0"/>
<path d="M429.11 284.503H377.5L373.9 261.873H432.71L429.11 284.503Z" fill="#E0E0E0"/>
<path d="M432.71 257.933H373.9V261.873H432.71V257.933Z" fill="#F0F0F0"/>
<path d="M414.73 266.883H391.87V380.643H414.73V266.883Z" fill="#F0F0F0"/>
<path d="M425.81 377.483H380.8V383.883H425.81V377.483Z" fill="#F0F0F0"/>
<path d="M134.7 312.503C134.7 312.503 121.49 333.293 122 358.943C122 358.943 129.09 327.983 134.7 312.503Z" fill="#F0F0F0"/>
<path d="M110.31 301.643C110.31 301.643 126.88 325.953 123.31 356.493C123.3 356.493 117.43 317.913 110.31 301.643Z" fill="#F0F0F0"/>
<path d="M123.05 363.863C123.05 363.863 127.35 332.283 107.96 322.753C108 322.783 118.24 330.713 123.05 363.863Z" fill="#F5F5F5"/>
<path d="M125 373.013C124.95 372.643 120 335.833 127.45 304.153L128.45 304.403C121.03 335.883 125.97 372.493 126.02 372.863L125 373.013Z" fill="#E0E0E0"/>
<path d="M124.83 304.713L124.48 304.793C124.227 304.861 124.01 305.026 123.877 305.253C123.744 305.479 123.706 305.749 123.77 306.003L124.27 307.573C124.318 307.73 124.407 307.871 124.527 307.983C124.647 308.095 124.794 308.174 124.954 308.211C125.114 308.249 125.281 308.243 125.438 308.196C125.595 308.149 125.737 308.062 125.85 307.943L126.42 307.363C126.535 307.261 126.673 307.187 126.821 307.147C126.97 307.107 127.126 307.102 127.277 307.132C127.428 307.162 127.57 307.226 127.692 307.32C127.814 307.414 127.912 307.535 127.98 307.673L128.84 309.823C128.899 309.946 128.983 310.056 129.086 310.146C129.189 310.235 129.31 310.303 129.44 310.344C129.57 310.385 129.707 310.399 129.843 310.385C129.979 310.371 130.111 310.33 130.23 310.263L132.01 309.123C132.13 309.047 132.232 308.944 132.306 308.823C132.381 308.702 132.428 308.566 132.442 308.424C132.456 308.283 132.439 308.14 132.39 308.006C132.341 307.873 132.262 307.752 132.16 307.653L131.86 307.353C131.749 307.217 131.675 307.055 131.647 306.882C131.619 306.709 131.636 306.531 131.698 306.367C131.76 306.203 131.864 306.058 131.999 305.947C132.135 305.835 132.297 305.762 132.47 305.733L134.05 305.643C134.312 305.613 134.552 305.48 134.717 305.274C134.881 305.068 134.958 304.805 134.93 304.543L134.71 303.213C134.677 303.069 134.613 302.935 134.521 302.819C134.43 302.703 134.315 302.609 134.183 302.543C134.051 302.477 133.906 302.441 133.759 302.437C133.611 302.434 133.465 302.463 133.33 302.523L133.22 302.583C133.047 302.649 132.86 302.665 132.678 302.631C132.497 302.597 132.328 302.513 132.192 302.388C132.055 302.264 131.955 302.104 131.904 301.927C131.852 301.749 131.851 301.561 131.9 301.383L132.38 300.183C132.435 300.047 132.458 299.901 132.447 299.755C132.435 299.609 132.39 299.468 132.314 299.342C132.238 299.217 132.134 299.111 132.01 299.033C131.886 298.955 131.746 298.907 131.6 298.893L129.91 298.723C129.782 298.715 129.653 298.733 129.532 298.777C129.411 298.82 129.3 298.888 129.206 298.976C129.112 299.064 129.038 299.171 128.987 299.289C128.936 299.407 128.91 299.534 128.91 299.663C128.882 299.854 128.798 300.033 128.67 300.178C128.543 300.323 128.375 300.428 128.189 300.479C128.003 300.531 127.806 300.528 127.621 300.47C127.437 300.412 127.273 300.302 127.15 300.153L126.91 299.773C126.837 299.649 126.736 299.543 126.615 299.465C126.495 299.386 126.357 299.336 126.214 299.318C126.071 299.301 125.926 299.317 125.79 299.364C125.654 299.412 125.531 299.49 125.43 299.593L124.22 300.793C124.04 300.979 123.939 301.229 123.939 301.488C123.939 301.747 124.04 301.997 124.22 302.183L125.22 303.073C125.337 303.194 125.421 303.342 125.466 303.504C125.51 303.666 125.513 303.836 125.474 304C125.436 304.163 125.356 304.314 125.244 304.439C125.131 304.564 124.989 304.658 124.83 304.713Z" fill="#E0E0E0"/>
<path d="M127 355.423L128.31 344.863H116.31L117.67 355.433C114.891 356.394 112.481 358.197 110.775 360.591C109.068 362.986 108.151 365.853 108.15 368.793C108.386 373.921 110.183 378.855 113.3 382.933H131.3C134.413 378.852 136.21 373.92 136.45 368.793C136.455 365.86 135.548 362.998 133.855 360.602C132.162 358.207 129.767 356.397 127 355.423Z" fill="#F0F0F0"/>
<path d="M245.18 424.573C352.263 424.573 439.07 419.505 439.07 413.253C439.07 407.001 352.263 401.933 245.18 401.933C138.098 401.933 51.29 407.001 51.29 413.253C51.29 419.505 138.098 424.573 245.18 424.573Z" fill="#F5F5F5"/>
<path d="M250 88.913C226.15 88.913 202.835 95.9855 183.004 109.236C163.173 122.487 147.717 141.32 138.589 163.355C129.462 185.39 127.074 209.637 131.727 233.029C136.38 256.421 147.865 277.908 164.73 294.773C181.595 311.638 203.082 323.123 226.474 327.776C249.866 332.429 274.113 330.041 296.148 320.914C318.183 311.786 337.016 296.33 350.267 276.499C363.517 256.668 370.59 233.353 370.59 209.503C370.59 177.521 357.885 146.848 335.27 124.233C312.655 101.618 281.982 88.913 250 88.913ZM250 320.063C233.075 320.051 216.378 316.155 201.194 308.677C186.01 301.199 172.744 290.338 162.417 276.928C152.089 263.519 144.976 247.919 141.623 231.329C138.271 214.738 138.769 197.6 143.08 181.233C143.528 181.064 143.932 180.797 144.263 180.451C144.594 180.105 144.842 179.688 144.99 179.233C145.14 178.343 146.99 177.233 149.05 176.783C151.11 176.333 153.43 176.723 154.12 177.623C154.889 178.834 155.24 180.264 155.12 181.693C155.091 182.28 154.911 182.85 154.597 183.348C154.284 183.845 153.847 184.253 153.33 184.533C152.5 184.773 151.59 187.443 151.33 190.453C151.33 190.783 151.33 190.943 151.26 191.273C150.98 194.273 151.92 197.673 153.35 198.913C154.78 200.153 155.59 202.063 155.14 203.083C154.69 204.103 156.54 205.393 159.29 206.083C162.04 206.773 164.29 207.653 164.29 208.083C164.29 208.513 165.17 209.083 166.29 209.423C166.87 209.649 167.381 210.021 167.776 210.503C168.17 210.985 168.433 211.56 168.54 212.173C168.69 213.343 169.46 213.913 170.23 213.433C170.561 213.189 170.964 213.063 171.375 213.074C171.786 213.085 172.182 213.232 172.5 213.493C172.751 213.912 172.907 214.38 172.957 214.866C173.007 215.351 172.95 215.842 172.79 216.303C172.676 216.756 172.464 217.178 172.169 217.539C171.873 217.9 171.501 218.192 171.08 218.393C170.46 218.523 169.95 219.803 169.95 221.243C169.95 222.683 171.16 225.123 172.64 226.713C174.12 228.303 174.96 230.823 174.49 232.233C174.02 233.643 174.98 235.813 176.63 237.093C178.28 238.373 179.63 242.353 179.63 245.913V252.913C179.63 256.473 180.28 260.043 181.07 260.853C181.505 261.443 181.817 262.114 181.989 262.827C182.161 263.54 182.188 264.28 182.07 265.003C181.83 266.463 183.19 269.003 185.07 270.693C186.95 272.383 188.93 272.563 189.41 271.103C189.65 270.411 189.696 269.667 189.543 268.951C189.39 268.235 189.043 267.575 188.54 267.043C187.59 266.273 186.87 263.123 186.95 260.043C187.269 256.489 188.894 253.179 191.51 250.753C192.97 249.513 193.7 248.883 195.17 247.593C197.61 245.433 199.36 241.763 199.04 239.533C198.771 237.103 199.452 234.663 200.94 232.723C202.32 231.193 202.25 227.463 200.8 224.513C199.35 221.563 196.64 218.913 194.8 218.573C192.96 218.233 191.45 217.113 191.45 216.083C191.424 215.57 191.202 215.087 190.83 214.733C190.458 214.379 189.964 214.182 189.45 214.183C188.026 213.98 186.732 213.244 185.83 212.123C184.96 211.013 181.64 210.123 178.48 210.123H177C173.85 210.123 171.22 209.313 171.15 208.383C171.019 207.831 170.737 207.325 170.336 206.923C169.936 206.521 169.432 206.237 168.88 206.103C168.346 205.988 167.859 205.714 167.483 205.318C167.106 204.922 166.858 204.422 166.77 203.883C166.713 203.362 166.512 202.868 166.188 202.456C165.865 202.044 165.432 201.731 164.94 201.553C163.94 201.193 163.56 199.893 164.1 198.633C164.983 197.073 166.373 195.862 168.04 195.203C169.66 194.563 171.58 194.823 172.28 195.803C172.98 196.783 173.94 197.563 174.41 197.533C174.88 197.503 175.27 196.533 175.27 195.273C175.27 194.013 177.44 191.383 180.13 189.273L180.42 189.043C183.1 186.903 185.12 183.913 184.88 182.493C184.64 181.073 187.03 179.923 190.22 180.013H191.12C194.31 180.113 196.94 178.143 196.94 175.583C196.94 173.023 196.35 170.993 195.62 171.083C194.89 171.173 193.78 170.083 193.14 168.673C192.5 167.263 190.28 166.773 188.2 167.563C186.12 168.353 184.12 169.513 183.72 170.123C183.32 170.733 182.03 170.863 180.85 170.453C179.67 170.043 179.98 168.603 181.56 167.233C183.313 165.595 184.606 163.526 185.31 161.233C185.79 159.323 183.57 158.033 180.41 158.473L178.12 158.793C174.97 159.263 171.78 160.793 171 162.103C170.22 163.413 167.05 164.753 164 165.203C158.389 165.964 152.827 167.046 147.34 168.443C155.704 147.561 170.236 129.726 188.998 117.316C207.76 104.906 229.859 98.5112 252.349 98.9849C274.839 99.4586 296.649 106.778 314.872 119.967C333.094 133.156 346.863 151.587 354.34 172.803C351.69 172.103 349.08 170.803 348.27 169.613C347.46 168.423 344.18 165.913 341.17 164.413L338 162.783C334.497 161.142 330.733 160.127 326.88 159.783L325.56 159.733C322.48 159.643 318.56 157.903 316.92 155.733C314.572 153.111 311.482 151.266 308.06 150.443C304.24 149.643 302.32 149.273 298.46 148.613C295.22 148.053 291.46 148.373 290.19 149.273C288.92 150.173 287.82 151.663 287.82 152.553C287.82 153.443 286.42 154.493 284.71 154.903C283 155.313 281.39 155.173 281.15 154.543C280.91 153.913 278.83 153.233 276.53 153.043C274.23 152.853 271.69 152.683 270.87 152.633C268.542 152.004 266.286 151.133 264.14 150.033C261.26 148.683 257.22 148.563 255.14 149.763C252.761 151.382 250.971 153.73 250.04 156.453C249.3 158.913 249.17 162.033 249.74 163.363C250.026 164.024 250.482 164.598 251.062 165.027C251.641 165.455 252.324 165.723 253.04 165.803C253.627 165.822 254.205 165.654 254.69 165.324C255.175 164.993 255.543 164.516 255.74 163.963C255.895 163.415 256.161 162.905 256.52 162.463C256.88 162.021 257.325 161.657 257.83 161.393C258.74 160.993 259.62 162.783 259.78 165.343C259.818 166.68 259.471 168.001 258.782 169.147C258.092 170.294 257.089 171.219 255.89 171.813C253.58 172.813 251.49 172.473 251.24 171.033C251.154 170.361 250.885 169.725 250.461 169.196C250.038 168.667 249.477 168.264 248.84 168.033C247.77 167.833 246.9 169.033 246.9 170.653C246.885 171.484 246.638 172.293 246.188 172.991C245.737 173.689 245.101 174.247 244.35 174.603C242.864 175.199 241.604 176.249 240.75 177.603C240.17 178.828 240.064 180.224 240.45 181.523C240.87 182.523 240.13 183.393 238.81 183.413C237.49 183.433 236.68 185.203 237.01 187.353C237.34 189.503 238.69 191.233 240.01 191.223C240.641 191.22 241.255 191.019 241.765 190.647C242.275 190.276 242.654 189.753 242.85 189.153C243.009 188.573 243.366 188.066 243.859 187.721C244.352 187.376 244.95 187.214 245.55 187.263C246.864 187.34 248.169 187.012 249.29 186.323C250.12 185.703 251.47 186.203 252.29 187.443C253.123 188.711 253.444 190.247 253.19 191.743C252.86 192.873 253.47 193.293 254.54 192.683C255.61 192.073 256.08 190.143 255.59 188.393C255.1 186.643 255.09 184.963 255.59 184.653C256.09 184.343 257.43 185.653 258.59 187.483C259.75 189.313 261.7 190.363 262.93 189.763C264.16 189.163 266.05 189.873 267.12 191.313C268.185 192.755 268.715 194.523 268.62 196.313C268.37 197.633 265.95 199.313 263.23 200.163C260.51 201.013 257.01 200.953 255.45 200.163C253.82 199.277 252.508 197.903 251.7 196.233C251.21 194.903 248.91 193.723 246.61 193.623C244.31 193.523 240.3 195.623 237.72 198.163L235.13 200.753C232.55 203.333 230.24 207.343 230 209.683C229.76 212.023 229.14 214.263 228.65 214.683C228.16 215.103 227.76 217.243 227.76 219.473C227.76 221.703 229.37 225.223 231.34 227.293C233.8 229.587 236.982 230.952 240.34 231.153C243.34 231.153 246.6 231.873 247.68 232.703C248.76 233.533 249.68 235.883 249.77 237.943C249.86 240.003 250.93 242.263 252.17 242.943C253.41 243.623 254.11 247.593 253.72 251.693C253.72 252.163 253.66 252.393 253.61 252.863C253.23 256.963 253.61 261.663 254.61 263.293C255.723 265.758 256.384 268.404 256.56 271.103C256.72 273.763 258.67 276.323 260.9 276.753C263.13 277.183 266.76 275.213 268.97 272.423C271.18 269.633 272.97 264.773 272.86 261.633C272.75 258.493 273.98 254.633 275.54 252.993C277.1 251.353 278.44 246.993 278.54 243.293C278.64 239.593 279.96 234.823 281.54 232.753C283.12 230.683 284.16 227.753 283.92 226.303C283.68 224.853 281.8 223.083 279.76 222.423C277.72 221.763 275.97 219.903 275.89 218.283C275.76 216.523 275.197 214.822 274.25 213.333C273.315 211.837 272.848 210.096 272.91 208.333C272.99 206.703 273.53 205.383 274.1 205.383C274.67 205.383 276.28 207.303 277.68 209.613C279.08 211.923 280.14 214.873 280.06 216.173C279.98 217.473 280.51 218.783 281.25 219.073C281.99 219.363 284.45 218.163 286.74 216.443C289.03 214.723 289.48 210.783 287.74 207.623C286 204.463 285.83 201.763 287.3 201.683C287.984 201.626 288.669 201.79 289.253 202.15C289.838 202.509 290.292 203.047 290.55 203.683C291.39 205.557 292.653 207.21 294.24 208.513C295.867 209.924 297.644 211.151 299.54 212.173C300.75 212.743 301.6 214.833 301.44 216.843C301.28 218.853 303.06 222.543 305.39 224.953C307.72 227.363 310.51 226.333 311.62 222.803L312.82 218.963C313.92 215.463 315.82 212.863 317.13 213.103C318.44 213.343 320.13 215.723 321.01 218.333C321.701 220.61 322.766 222.755 324.16 224.683C325.02 225.563 325.66 224.873 325.58 223.153C325.5 221.433 325.76 219.993 326.15 219.973C326.78 220.092 327.339 220.451 327.71 220.973C328.18 221.543 329.65 221.223 330.97 220.293C332.29 219.363 333.3 216.123 333.23 213.063C333.16 210.003 334.03 207.223 335.23 206.913C335.923 206.614 336.537 206.157 337.023 205.579C337.509 205.001 337.854 204.317 338.03 203.583C338.169 202.641 338.117 201.681 337.876 200.76C337.635 199.839 337.212 198.976 336.63 198.223C335.48 196.773 335.1 194.513 335.79 193.273C336.48 192.033 337.56 191.103 338.17 191.183C338.78 191.263 340.35 189.053 341.64 186.403C342.64 184.333 343.15 183.323 344.15 181.333C345.44 178.803 347.1 177.333 347.85 177.983C348.712 178.871 349.202 180.055 349.22 181.293C349.22 181.876 349.341 182.452 349.575 182.986C349.809 183.519 350.151 183.999 350.58 184.393C351.33 184.923 352.68 183.953 353.58 182.323C354.328 181.136 355.359 180.154 356.58 179.463C361.211 195.918 361.965 213.221 358.785 230.016C355.605 246.812 348.576 262.641 338.25 276.264C327.923 289.886 314.581 300.93 299.27 308.529C283.958 316.129 267.094 320.076 250 320.063Z" fill="#0149AD"/>
<path d="M209.59 143.533L209.3 143.353C206.53 141.683 201.73 141.763 198.62 143.453C196.7 144.453 195.73 145.033 193.82 146.103C190.73 147.823 188.21 150.103 188.21 151.103C188.373 152.698 188.817 154.252 189.52 155.693C190.248 157.281 190.498 159.046 190.24 160.773C189.92 162.033 190.97 163.133 192.57 163.253C194.581 163.601 196.396 164.667 197.68 166.253C198.723 167.671 200.096 168.814 201.68 169.583C202.68 169.863 204.43 167.853 205.68 165.093C207.097 162.079 209.288 159.494 212.03 157.603C213.164 156.915 214.083 155.924 214.685 154.742C215.288 153.561 215.549 152.235 215.44 150.913C215 148.583 212.36 145.213 209.59 143.533Z" fill="#0149AD"/>
<path d="M285.84 249.553C285.308 249.214 284.699 249.015 284.07 248.973C283.66 248.973 282.72 250.223 281.99 251.673C281.148 253.602 280.693 255.678 280.65 257.783C280.578 259.451 280.921 261.111 281.65 262.613C281.859 262.955 282.195 263.201 282.585 263.297C282.974 263.392 283.386 263.33 283.73 263.123C284.3 262.673 285.23 259.563 285.8 256.233C286.37 252.903 286.42 249.863 285.84 249.553Z" fill="#0149AD"/>
<path d="M238.18 172.293C239.247 172.444 240.335 172.291 241.32 171.853C242.23 171.423 242.97 169.483 242.97 167.533C242.97 165.583 242.43 163.993 241.77 164.013C241.11 164.033 240.37 164.883 240.13 165.913C240.022 166.404 239.784 166.857 239.441 167.224C239.098 167.592 238.662 167.861 238.18 168.003C237.732 168.133 237.34 168.409 237.068 168.788C236.796 169.167 236.659 169.627 236.68 170.093C236.665 170.571 236.802 171.042 237.072 171.437C237.341 171.833 237.729 172.132 238.18 172.293Z" fill="#0149AD"/>
<path d="M344 251.313C345.033 249.633 345.647 247.73 345.79 245.763C345.605 243.599 344.997 241.492 344 239.563C343 237.633 341.77 235.903 341.23 235.773C340.69 235.643 340.23 236.233 340.23 237.103C340.251 237.287 340.235 237.473 340.183 237.651C340.131 237.829 340.045 237.995 339.929 238.139C339.812 238.283 339.669 238.403 339.506 238.491C339.343 238.579 339.164 238.634 338.98 238.653C338.244 238.629 337.538 238.354 336.98 237.873C336.6 237.463 335.21 237.513 333.9 238.003C332.42 238.61 331.146 239.631 330.23 240.943C329.224 242.401 327.98 243.678 326.55 244.723C325.22 245.663 324.26 248.483 324.41 250.973C324.56 253.463 325.72 255.243 326.97 254.973L331.22 253.893C332.29 253.601 333.426 253.661 334.46 254.063C335.904 254.532 337.432 254.682 338.94 254.503C339.956 254.342 340.928 253.977 341.798 253.428C342.668 252.88 343.417 252.16 344 251.313Z" fill="#0149AD"/>
<path d="M344.67 204.053C345.28 204.053 346.58 202.693 347.56 201.053C348.621 198.957 349.048 196.598 348.79 194.263C348.49 192.153 347.69 190.023 347.01 189.543C346.676 189.304 346.29 189.146 345.883 189.084C345.476 189.021 345.061 189.055 344.67 189.183C344.06 189.473 343.88 190.583 344.25 191.633C344.62 192.683 344.25 195.133 343.43 197.143C342.61 199.153 342.28 201.573 342.74 202.453C342.922 202.847 343.19 203.195 343.524 203.472C343.858 203.748 344.249 203.947 344.67 204.053Z" fill="#0149AD"/>
<path d="M349.61 247.693C349.16 248.503 348.42 249.913 347.97 250.813C346.963 252.459 345.812 254.012 344.53 255.453C343.09 257.113 342.15 259.053 342.46 259.723C342.77 260.393 344.01 260.543 345.22 260.053C346.43 259.563 347.85 257.643 348.38 255.803C348.96 253.842 349.884 252 351.11 250.363C352.11 249.213 352.32 247.833 351.65 247.273C351.499 247.139 351.318 247.042 351.123 246.989C350.928 246.937 350.723 246.931 350.525 246.972C350.327 247.013 350.141 247.099 349.982 247.224C349.823 247.349 349.696 247.51 349.61 247.693Z" fill="#0149AD"/>
<g opacity="0.7">
<path d="M250 88.913C226.15 88.913 202.835 95.9855 183.004 109.236C163.173 122.487 147.717 141.32 138.589 163.355C129.462 185.39 127.074 209.637 131.727 233.029C136.38 256.421 147.865 277.908 164.73 294.773C181.595 311.638 203.082 323.123 226.474 327.776C249.866 332.429 274.113 330.041 296.148 320.914C318.183 311.786 337.016 296.33 350.267 276.499C363.517 256.668 370.59 233.353 370.59 209.503C370.59 177.521 357.885 146.848 335.27 124.233C312.655 101.618 281.982 88.913 250 88.913ZM250 320.063C233.075 320.051 216.378 316.155 201.194 308.677C186.01 301.199 172.744 290.338 162.417 276.928C152.089 263.519 144.976 247.919 141.623 231.329C138.271 214.738 138.769 197.6 143.08 181.233C143.528 181.064 143.932 180.797 144.263 180.451C144.594 180.105 144.842 179.688 144.99 179.233C145.14 178.343 146.99 177.233 149.05 176.783C151.11 176.333 153.43 176.723 154.12 177.623C154.889 178.834 155.24 180.264 155.12 181.693C155.091 182.28 154.911 182.85 154.597 183.348C154.284 183.845 153.847 184.253 153.33 184.533C152.5 184.773 151.59 187.443 151.33 190.453C151.33 190.783 151.33 190.943 151.26 191.273C150.98 194.273 151.92 197.673 153.35 198.913C154.78 200.153 155.59 202.063 155.14 203.083C154.69 204.103 156.54 205.393 159.29 206.083C162.04 206.773 164.29 207.653 164.29 208.083C164.29 208.513 165.17 209.083 166.29 209.423C166.87 209.649 167.381 210.021 167.776 210.503C168.17 210.985 168.433 211.56 168.54 212.173C168.69 213.343 169.46 213.913 170.23 213.433C170.561 213.189 170.964 213.063 171.375 213.074C171.786 213.085 172.182 213.232 172.5 213.493C172.751 213.912 172.907 214.38 172.957 214.866C173.007 215.351 172.95 215.842 172.79 216.303C172.676 216.756 172.464 217.178 172.169 217.539C171.873 217.9 171.501 218.192 171.08 218.393C170.46 218.523 169.95 219.803 169.95 221.243C169.95 222.683 171.16 225.123 172.64 226.713C174.12 228.303 174.96 230.823 174.49 232.233C174.02 233.643 174.98 235.813 176.63 237.093C178.28 238.373 179.63 242.353 179.63 245.913V252.913C179.63 256.473 180.28 260.043 181.07 260.853C181.505 261.443 181.817 262.114 181.989 262.827C182.161 263.54 182.188 264.28 182.07 265.003C181.83 266.463 183.19 269.003 185.07 270.693C186.95 272.383 188.93 272.563 189.41 271.103C189.65 270.411 189.696 269.667 189.543 268.951C189.39 268.235 189.043 267.575 188.54 267.043C187.59 266.273 186.87 263.123 186.95 260.043C187.269 256.489 188.894 253.179 191.51 250.753C192.97 249.513 193.7 248.883 195.17 247.593C197.61 245.433 199.36 241.763 199.04 239.533C198.771 237.103 199.452 234.663 200.94 232.723C202.32 231.193 202.25 227.463 200.8 224.513C199.35 221.563 196.64 218.913 194.8 218.573C192.96 218.233 191.45 217.113 191.45 216.083C191.424 215.57 191.202 215.087 190.83 214.733C190.458 214.379 189.964 214.182 189.45 214.183C188.026 213.98 186.732 213.244 185.83 212.123C184.96 211.013 181.64 210.123 178.48 210.123H177C173.85 210.123 171.22 209.313 171.15 208.383C171.019 207.831 170.737 207.325 170.336 206.923C169.936 206.521 169.432 206.237 168.88 206.103C168.346 205.988 167.859 205.714 167.483 205.318C167.106 204.922 166.858 204.422 166.77 203.883C166.713 203.362 166.512 202.868 166.188 202.456C165.865 202.044 165.432 201.731 164.94 201.553C163.94 201.193 163.56 199.893 164.1 198.633C164.983 197.073 166.373 195.862 168.04 195.203C169.66 194.563 171.58 194.823 172.28 195.803C172.98 196.783 173.94 197.563 174.41 197.533C174.88 197.503 175.27 196.533 175.27 195.273C175.27 194.013 177.44 191.383 180.13 189.273L180.42 189.043C183.1 186.903 185.12 183.913 184.88 182.493C184.64 181.073 187.03 179.923 190.22 180.013H191.12C194.31 180.113 196.94 178.143 196.94 175.583C196.94 173.023 196.35 170.993 195.62 171.083C194.89 171.173 193.78 170.083 193.14 168.673C192.5 167.263 190.28 166.773 188.2 167.563C186.12 168.353 184.12 169.513 183.72 170.123C183.32 170.733 182.03 170.863 180.85 170.453C179.67 170.043 179.98 168.603 181.56 167.233C183.313 165.595 184.606 163.526 185.31 161.233C185.79 159.323 183.57 158.033 180.41 158.473L178.12 158.793C174.97 159.263 171.78 160.793 171 162.103C170.22 163.413 167.05 164.753 164 165.203C158.389 165.964 152.827 167.046 147.34 168.443C155.704 147.561 170.236 129.726 188.998 117.316C207.76 104.906 229.859 98.5112 252.349 98.9849C274.839 99.4586 296.649 106.778 314.872 119.967C333.094 133.156 346.863 151.587 354.34 172.803C351.69 172.103 349.08 170.803 348.27 169.613C347.46 168.423 344.18 165.913 341.17 164.413L338 162.783C334.497 161.142 330.733 160.127 326.88 159.783L325.56 159.733C322.48 159.643 318.56 157.903 316.92 155.733C314.572 153.111 311.482 151.266 308.06 150.443C304.24 149.643 302.32 149.273 298.46 148.613C295.22 148.053 291.46 148.373 290.19 149.273C288.92 150.173 287.82 151.663 287.82 152.553C287.82 153.443 286.42 154.493 284.71 154.903C283 155.313 281.39 155.173 281.15 154.543C280.91 153.913 278.83 153.233 276.53 153.043C274.23 152.853 271.69 152.683 270.87 152.633C268.542 152.004 266.286 151.133 264.14 150.033C261.26 148.683 257.22 148.563 255.14 149.763C252.761 151.382 250.971 153.73 250.04 156.453C249.3 158.913 249.17 162.033 249.74 163.363C250.026 164.024 250.482 164.598 251.062 165.027C251.641 165.455 252.324 165.723 253.04 165.803C253.627 165.822 254.205 165.654 254.69 165.324C255.175 164.993 255.543 164.516 255.74 163.963C255.895 163.415 256.161 162.905 256.52 162.463C256.88 162.021 257.325 161.657 257.83 161.393C258.74 160.993 259.62 162.783 259.78 165.343C259.818 166.68 259.471 168.001 258.782 169.147C258.092 170.294 257.089 171.219 255.89 171.813C253.58 172.813 251.49 172.473 251.24 171.033C251.154 170.361 250.885 169.725 250.461 169.196C250.038 168.667 249.477 168.264 248.84 168.033C247.77 167.833 246.9 169.033 246.9 170.653C246.885 171.484 246.638 172.293 246.188 172.991C245.737 173.689 245.101 174.247 244.35 174.603C242.864 175.199 241.604 176.249 240.75 177.603C240.17 178.828 240.064 180.224 240.45 181.523C240.87 182.523 240.13 183.393 238.81 183.413C237.49 183.433 236.68 185.203 237.01 187.353C237.34 189.503 238.69 191.233 240.01 191.223C240.641 191.22 241.255 191.019 241.765 190.647C242.275 190.276 242.654 189.753 242.85 189.153C243.009 188.573 243.366 188.066 243.859 187.721C244.352 187.376 244.95 187.214 245.55 187.263C246.864 187.34 248.169 187.012 249.29 186.323C250.12 185.703 251.47 186.203 252.29 187.443C253.123 188.711 253.444 190.247 253.19 191.743C252.86 192.873 253.47 193.293 254.54 192.683C255.61 192.073 256.08 190.143 255.59 188.393C255.1 186.643 255.09 184.963 255.59 184.653C256.09 184.343 257.43 185.653 258.59 187.483C259.75 189.313 261.7 190.363 262.93 189.763C264.16 189.163 266.05 189.873 267.12 191.313C268.185 192.755 268.715 194.523 268.62 196.313C268.37 197.633 265.95 199.313 263.23 200.163C260.51 201.013 257.01 200.953 255.45 200.163C253.82 199.277 252.508 197.903 251.7 196.233C251.21 194.903 248.91 193.723 246.61 193.623C244.31 193.523 240.3 195.623 237.72 198.163L235.13 200.753C232.55 203.333 230.24 207.343 230 209.683C229.76 212.023 229.14 214.263 228.65 214.683C228.16 215.103 227.76 217.243 227.76 219.473C227.76 221.703 229.37 225.223 231.34 227.293C233.8 229.587 236.982 230.952 240.34 231.153C243.34 231.153 246.6 231.873 247.68 232.703C248.76 233.533 249.68 235.883 249.77 237.943C249.86 240.003 250.93 242.263 252.17 242.943C253.41 243.623 254.11 247.593 253.72 251.693C253.72 252.163 253.66 252.393 253.61 252.863C253.23 256.963 253.61 261.663 254.61 263.293C255.723 265.758 256.384 268.404 256.56 271.103C256.72 273.763 258.67 276.323 260.9 276.753C263.13 277.183 266.76 275.213 268.97 272.423C271.18 269.633 272.97 264.773 272.86 261.633C272.75 258.493 273.98 254.633 275.54 252.993C277.1 251.353 278.44 246.993 278.54 243.293C278.64 239.593 279.96 234.823 281.54 232.753C283.12 230.683 284.16 227.753 283.92 226.303C283.68 224.853 281.8 223.083 279.76 222.423C277.72 221.763 275.97 219.903 275.89 218.283C275.76 216.523 275.197 214.822 274.25 213.333C273.315 211.837 272.848 210.096 272.91 208.333C272.99 206.703 273.53 205.383 274.1 205.383C274.67 205.383 276.28 207.303 277.68 209.613C279.08 211.923 280.14 214.873 280.06 216.173C279.98 217.473 280.51 218.783 281.25 219.073C281.99 219.363 284.45 218.163 286.74 216.443C289.03 214.723 289.48 210.783 287.74 207.623C286 204.463 285.83 201.763 287.3 201.683C287.984 201.626 288.669 201.79 289.253 202.15C289.838 202.509 290.292 203.047 290.55 203.683C291.39 205.557 292.653 207.21 294.24 208.513C295.867 209.924 297.644 211.151 299.54 212.173C300.75 212.743 301.6 214.833 301.44 216.843C301.28 218.853 303.06 222.543 305.39 224.953C307.72 227.363 310.51 226.333 311.62 222.803L312.82 218.963C313.92 215.463 315.82 212.863 317.13 213.103C318.44 213.343 320.13 215.723 321.01 218.333C321.701 220.61 322.766 222.755 324.16 224.683C325.02 225.563 325.66 224.873 325.58 223.153C325.5 221.433 325.76 219.993 326.15 219.973C326.78 220.092 327.339 220.451 327.71 220.973C328.18 221.543 329.65 221.223 330.97 220.293C332.29 219.363 333.3 216.123 333.23 213.063C333.16 210.003 334.03 207.223 335.23 206.913C335.923 206.614 336.537 206.157 337.023 205.579C337.509 205.001 337.854 204.317 338.03 203.583C338.169 202.641 338.117 201.681 337.876 200.76C337.635 199.839 337.212 198.976 336.63 198.223C335.48 196.773 335.1 194.513 335.79 193.273C336.48 192.033 337.56 191.103 338.17 191.183C338.78 191.263 340.35 189.053 341.64 186.403C342.64 184.333 343.15 183.323 344.15 181.333C345.44 178.803 347.1 177.333 347.85 177.983C348.712 178.871 349.202 180.055 349.22 181.293C349.22 181.876 349.341 182.452 349.575 182.986C349.809 183.519 350.151 183.999 350.58 184.393C351.33 184.923 352.68 183.953 353.58 182.323C354.328 181.136 355.359 180.154 356.58 179.463C361.211 195.918 361.965 213.221 358.785 230.016C355.605 246.812 348.576 262.641 338.25 276.264C327.923 289.886 314.581 300.93 299.27 308.529C283.958 316.129 267.094 320.076 250 320.063Z" fill="white"/>
<path d="M209.59 143.533L209.3 143.353C206.53 141.683 201.73 141.763 198.62 143.453C196.7 144.453 195.73 145.033 193.82 146.103C190.73 147.823 188.21 150.103 188.21 151.103C188.373 152.698 188.817 154.252 189.52 155.693C190.248 157.281 190.498 159.046 190.24 160.773C189.92 162.033 190.97 163.133 192.57 163.253C194.581 163.601 196.396 164.667 197.68 166.253C198.723 167.671 200.096 168.814 201.68 169.583C202.68 169.863 204.43 167.853 205.68 165.093C207.097 162.079 209.288 159.494 212.03 157.603C213.164 156.915 214.083 155.924 214.685 154.742C215.288 153.561 215.549 152.235 215.44 150.913C215 148.583 212.36 145.213 209.59 143.533Z" fill="white"/>
<path d="M285.84 249.553C285.308 249.214 284.699 249.015 284.07 248.973C283.66 248.973 282.72 250.223 281.99 251.673C281.148 253.602 280.693 255.678 280.65 257.783C280.578 259.451 280.921 261.111 281.65 262.613C281.859 262.955 282.195 263.201 282.585 263.297C282.974 263.392 283.386 263.33 283.73 263.123C284.3 262.673 285.23 259.563 285.8 256.233C286.37 252.903 286.42 249.863 285.84 249.553Z" fill="white"/>
<path d="M238.18 172.293C239.247 172.444 240.335 172.291 241.32 171.853C242.23 171.423 242.97 169.483 242.97 167.533C242.97 165.583 242.43 163.993 241.77 164.013C241.11 164.033 240.37 164.883 240.13 165.913C240.022 166.404 239.784 166.857 239.441 167.224C239.098 167.592 238.662 167.861 238.18 168.003C237.732 168.133 237.34 168.409 237.068 168.788C236.796 169.167 236.659 169.627 236.68 170.093C236.665 170.571 236.802 171.042 237.072 171.437C237.341 171.833 237.729 172.132 238.18 172.293Z" fill="white"/>
<path d="M344 251.313C345.033 249.633 345.647 247.73 345.79 245.763C345.605 243.599 344.997 241.492 344 239.563C343 237.633 341.77 235.903 341.23 235.773C340.69 235.643 340.23 236.233 340.23 237.103C340.251 237.287 340.235 237.473 340.183 237.651C340.131 237.829 340.045 237.995 339.929 238.139C339.812 238.283 339.669 238.403 339.506 238.491C339.343 238.579 339.164 238.634 338.98 238.653C338.244 238.629 337.538 238.354 336.98 237.873C336.6 237.463 335.21 237.513 333.9 238.003C332.42 238.61 331.146 239.631 330.23 240.943C329.224 242.401 327.98 243.678 326.55 244.723C325.22 245.663 324.26 248.483 324.41 250.973C324.56 253.463 325.72 255.243 326.97 254.973L331.22 253.893C332.29 253.601 333.426 253.661 334.46 254.063C335.904 254.532 337.432 254.682 338.94 254.503C339.956 254.342 340.928 253.977 341.798 253.428C342.668 252.88 343.417 252.16 344 251.313Z" fill="white"/>
<path d="M344.67 204.053C345.28 204.053 346.58 202.693 347.56 201.053C348.621 198.957 349.048 196.598 348.79 194.263C348.49 192.153 347.69 190.023 347.01 189.543C346.676 189.304 346.29 189.146 345.883 189.084C345.476 189.021 345.061 189.055 344.67 189.183C344.06 189.473 343.88 190.583 344.25 191.633C344.62 192.683 344.25 195.133 343.43 197.143C342.61 199.153 342.28 201.573 342.74 202.453C342.922 202.847 343.19 203.195 343.524 203.472C343.858 203.748 344.249 203.947 344.67 204.053Z" fill="white"/>
<path d="M349.61 247.693C349.16 248.503 348.42 249.913 347.97 250.813C346.963 252.459 345.812 254.012 344.53 255.453C343.09 257.113 342.15 259.053 342.46 259.723C342.77 260.393 344.01 260.543 345.22 260.053C346.43 259.563 347.85 257.643 348.38 255.803C348.96 253.842 349.884 252 351.11 250.363C352.11 249.213 352.32 247.833 351.65 247.273C351.499 247.139 351.318 247.042 351.123 246.989C350.928 246.937 350.723 246.931 350.525 246.972C350.327 247.013 350.141 247.099 349.982 247.224C349.823 247.349 349.696 247.51 349.61 247.693Z" fill="white"/>
</g>
<path d="M269.59 391.483L270.64 405.493H264.42L261.36 391.983L269.59 391.483Z" fill="#B55B52"/>
<path d="M270.91 404.723H263.27C263.195 404.722 263.121 404.735 263.051 404.763C262.981 404.79 262.918 404.831 262.864 404.883C262.81 404.935 262.767 404.997 262.737 405.066C262.707 405.134 262.691 405.208 262.69 405.283L261.36 412.633C261.366 412.961 261.484 413.276 261.693 413.529C261.901 413.781 262.189 413.955 262.51 414.023H262.76C265.91 413.913 268.69 413.693 272.63 413.623C277.27 413.553 276.2 414.123 281.63 414.113C284.93 414.113 284.81 410.333 283.38 410.173C276.84 409.483 275.8 407.563 272.9 405.313C272.318 404.907 271.62 404.7 270.91 404.723Z" fill="#263238"/>
<path d="M261 262.353L271.78 402.543L262.57 403.003C262.57 403.003 253.29 370.003 251.57 349.903C251.45 348.513 251.37 347.193 251.33 345.903C251.18 340.045 250.511 334.212 249.33 328.473L248.9 326.473L242.9 298.313C242.9 298.313 233.77 283.023 238.95 261.683L261 262.353Z" fill="#263238"/>
<path opacity="0.4" d="M246 313.223C249.05 297.873 247.52 279.653 247.52 279.653L243 281.463L240 289.943C240 289.943 240 290.623 240 291.753C240.73 294.035 241.678 296.242 242.83 298.343L246 313.223Z" fill="black"/>
<path d="M227.45 391.483L225.4 405.493H219.18L219.21 391.983L227.45 391.483Z" fill="#B55B52"/>
<path d="M225.92 404.723H218.29C218.215 404.722 218.141 404.735 218.071 404.763C218.001 404.79 217.938 404.831 217.884 404.883C217.83 404.935 217.787 404.997 217.757 405.066C217.727 405.134 217.711 405.208 217.71 405.283L216.37 412.633C216.377 412.962 216.496 413.279 216.706 413.531C216.917 413.784 217.208 413.957 217.53 414.023C217.613 414.033 217.697 414.033 217.78 414.023C220.93 413.913 223.71 413.693 227.64 413.623C232.29 413.553 231.22 414.123 236.69 414.113C239.99 414.113 239.86 410.333 238.43 410.173C231.89 409.483 230.86 407.563 227.95 405.313C227.357 404.897 226.643 404.689 225.92 404.723Z" fill="#263238"/>
<path d="M252.34 262.353L242.66 308.193L227.37 402.773L218.2 402.373C218.2 402.373 216.2 371.883 218.93 351.583C219.15 349.983 219.4 348.443 219.68 346.983C221.03 340.217 221.7 333.333 221.68 326.433V324.433L221.4 298.333C221.4 298.333 219.5 278.533 224.77 261.703L252.34 262.353Z" fill="#263238"/>
<path opacity="0.4" d="M261 262.353L238.89 261.713C238.89 261.823 238.84 261.933 238.82 262.043L224.74 261.713C223.121 267.104 222.059 272.646 221.57 278.253L241.82 281.133C242.932 281.293 244.065 281.042 245.005 280.427C245.946 279.812 246.63 278.876 246.93 277.793L248.93 270.463L250.93 277.763C251.226 278.825 251.914 279.735 252.855 280.311C253.796 280.886 254.919 281.083 256 280.863L262.31 279.573L261 262.353Z" fill="black"/>
<path d="M288.74 230.723L294.46 231.013C295.639 230.44 296.855 229.946 298.1 229.533C299.1 229.313 301.32 228.773 302.18 229.323C302.725 229.856 303.152 230.497 303.434 231.205C303.717 231.913 303.848 232.672 303.82 233.433C303.53 234.843 301.18 237.263 299.76 237.553C298.34 237.843 294.07 235.243 294.07 235.243L288.22 235.183L288.74 230.723Z" fill="#B55B52"/>
<path d="M287.62 229.883L292.5 230.473L291.16 235.793L286.28 235.733L287.62 229.883Z" fill="#0149AD"/>
<path opacity="0.8" d="M287.62 229.883L292.5 230.473L291.16 235.793L286.28 235.733L287.62 229.883Z" fill="white"/>
<path d="M255.92 190.773C255.92 190.773 260.19 192.773 266.65 210.993C272.32 226.993 289.85 229.613 289.85 229.613L288.35 236.343C288.35 236.343 264.35 236.753 259.95 218.523C255.55 200.293 255.92 190.773 255.92 190.773Z" fill="#263238"/>
<path opacity="0.4" d="M260 218.523C260.712 221.61 262.156 224.481 264.21 226.893C263.914 218.861 262.802 210.88 260.89 203.073L257.7 203.913L257.48 206.303C258 209.803 258.83 213.863 260 218.523Z" fill="black"/>
<path d="M221.38 240.863L219.26 275.033L241.8 278.233C242.912 278.393 244.045 278.142 244.985 277.527C245.926 276.913 246.61 275.976 246.91 274.893L248.91 267.563L250.91 274.863C251.2 275.932 251.887 276.85 252.831 277.43C253.775 278.01 254.905 278.208 255.99 277.983L264.55 276.243L263 240.863C263 240.863 264.24 208.703 259.42 195.093C258.952 193.762 258.158 192.571 257.109 191.627C256.061 190.684 254.792 190.019 253.42 189.693C241.61 187 229.262 187.945 218 192.403C217.3 192.679 216.711 193.179 216.326 193.825C215.94 194.471 215.78 195.226 215.87 195.973L221.38 240.863Z" fill="#263238"/>
<path opacity="0.4" d="M220.44 233.263C222.164 221.836 222.063 210.208 220.14 198.813L218.02 199.233L217 205.083L220.44 233.263Z" fill="black"/>
<path d="M217.52 261.563L218.92 268.203C220.036 269.392 221.072 270.655 222.02 271.983C222.63 273.063 224.02 275.473 223.57 276.613C223.12 277.753 220.13 279.553 218.62 279.613C216.62 279.673 212.71 277.613 211.88 276.073C211.05 274.533 213.18 268.913 213.18 268.913L211.43 262.193L217.52 261.563Z" fill="#B55B52"/>
<path d="M218.14 258.123L219.34 265.683L211.47 266.983L209.59 259.323L218.14 258.123Z" fill="#0149AD"/>
<path opacity="0.8" d="M218.14 258.123L219.34 265.683L211.47 266.983L209.59 259.323L218.14 258.123Z" fill="white"/>
<path d="M210 264.703C210 264.703 205.43 251.863 206.39 230.863C207.35 209.863 213.81 189.123 220.39 193.143C226.97 197.163 219 220.863 218.31 231.643C217.62 242.423 219.31 263.233 219.31 263.233L210 264.703Z" fill="#263238"/>
<path d="M245.43 225.893C245.949 225.893 246.37 225.472 246.37 224.953C246.37 224.434 245.949 224.013 245.43 224.013C244.911 224.013 244.49 224.434 244.49 224.953C244.49 225.472 244.911 225.893 245.43 225.893Z" fill="#0149AD"/>
<path d="M248.86 245.023C248.836 245.257 248.726 245.474 248.551 245.631C248.377 245.789 248.15 245.876 247.915 245.876C247.68 245.876 247.453 245.789 247.279 245.631C247.104 245.474 246.994 245.257 246.97 245.023C246.956 244.891 246.971 244.757 247.012 244.631C247.053 244.504 247.121 244.388 247.21 244.289C247.299 244.191 247.408 244.112 247.529 244.058C247.651 244.004 247.782 243.976 247.915 243.976C248.048 243.976 248.179 244.004 248.301 244.058C248.422 244.112 248.531 244.191 248.62 244.289C248.709 244.388 248.777 244.504 248.818 244.631C248.859 244.757 248.874 244.891 248.86 245.023Z" fill="#0149AD"/>
<path d="M248.86 264.353C249.379 264.353 249.8 263.932 249.8 263.413C249.8 262.894 249.379 262.473 248.86 262.473C248.341 262.473 247.92 262.894 247.92 263.413C247.92 263.932 248.341 264.353 248.86 264.353Z" fill="#0149AD"/>
<path d="M258.49 210.623H251.14V215.063H258.49V210.623Z" fill="#0149AD"/>
<path opacity="0.4" d="M258.49 212.073H251.14V215.063H258.49V212.073Z" fill="white"/>
<path opacity="0.4" d="M258.49 213.443H251.14V215.063H258.49V213.443Z" fill="white"/>
<path d="M231.2 187.803C234.809 186.458 238.73 186.187 242.49 187.023L244.81 188.333L245.62 190.913L242.69 193.213L235.76 193.923L230 191.553L230.32 189.013L231.2 187.803Z" fill="#263238"/>
<path d="M243.64 189.133C242.871 188.244 242.318 187.19 242.023 186.052C241.728 184.914 241.7 183.724 241.94 182.573L231.57 174.173C232.76 183.173 232.86 185.793 230.77 189.823C230.77 189.823 234.52 193.823 239.77 192.893C245.02 191.963 243.64 189.133 243.64 189.133Z" fill="#B55B52"/>
<path opacity="0.2" d="M241.94 182.573L231.57 174.173C231.84 176.173 232.05 177.903 232.19 179.373C233.05 181.267 234.427 182.881 236.162 184.029C237.897 185.177 239.92 185.812 242 185.863C241.721 184.786 241.7 183.659 241.94 182.573Z" fill="black"/>
<path d="M238.17 156.393C238.17 156.393 241.86 152.933 244.26 153.993C246.66 155.053 241.95 155.753 241.95 155.753C241.95 155.753 250.33 154.983 247.36 162.543L238.17 156.393Z" fill="#263238"/>
<path d="M229.83 167.543C231.29 174.243 231.83 178.233 235.77 181.163C241.72 185.593 249.58 181.163 250.14 174.163C250.64 167.833 248.14 157.973 241.14 156.313C239.59 155.936 237.969 155.962 236.432 156.389C234.896 156.817 233.494 157.631 232.362 158.754C231.229 159.878 230.404 161.273 229.964 162.806C229.524 164.34 229.485 165.96 229.85 167.513L229.83 167.543Z" fill="#B55B52"/>
<path d="M240.71 167.863C240.8 168.413 241.16 168.813 241.52 168.753C241.88 168.693 242.1 168.213 242.01 167.653C241.92 167.093 241.56 166.713 241.2 166.763C240.84 166.813 240.62 167.303 240.71 167.863Z" fill="#263238"/>
<path d="M246.93 166.863C247.02 167.413 247.37 167.813 247.74 167.753C248.11 167.693 248.32 167.203 248.23 166.663C248.14 166.123 247.78 165.663 247.42 165.763C247.06 165.863 246.84 166.333 246.93 166.863Z" fill="#263238"/>
<path d="M244.65 167.453C245.572 169.03 246.706 170.474 248.02 171.743C247.684 172.07 247.281 172.32 246.839 172.477C246.398 172.634 245.927 172.694 245.46 172.653L244.65 167.453Z" fill="#A02724"/>
<path d="M238.17 165.603C238.114 165.613 238.056 165.613 238 165.603C237.927 165.559 237.874 165.49 237.85 165.408C237.826 165.327 237.833 165.239 237.87 165.163C238.106 164.701 238.449 164.301 238.869 163.997C239.29 163.692 239.777 163.492 240.29 163.413C240.333 163.409 240.377 163.414 240.419 163.427C240.46 163.44 240.499 163.461 240.532 163.488C240.566 163.516 240.593 163.551 240.613 163.589C240.634 163.628 240.646 163.67 240.65 163.713C240.654 163.756 240.649 163.8 240.636 163.842C240.623 163.883 240.602 163.922 240.575 163.955C240.547 163.989 240.513 164.016 240.474 164.036C240.436 164.057 240.393 164.069 240.35 164.073C239.945 164.138 239.56 164.298 239.23 164.542C238.899 164.786 238.632 165.105 238.45 165.473C238.417 165.515 238.374 165.549 238.326 165.572C238.277 165.594 238.224 165.605 238.17 165.603Z" fill="#263238"/>
<path d="M249 163.993C248.945 163.997 248.89 163.986 248.841 163.961C248.792 163.936 248.75 163.899 248.72 163.853C248.5 163.516 248.205 163.234 247.858 163.029C247.511 162.825 247.122 162.703 246.72 162.673C246.677 162.676 246.634 162.67 246.594 162.656C246.553 162.641 246.516 162.619 246.484 162.59C246.453 162.561 246.427 162.526 246.409 162.487C246.391 162.448 246.381 162.406 246.38 162.363C246.38 162.276 246.413 162.193 246.472 162.129C246.532 162.066 246.613 162.028 246.7 162.023C247.22 162.041 247.728 162.182 248.182 162.436C248.636 162.69 249.023 163.049 249.31 163.483C249.358 163.553 249.378 163.638 249.365 163.722C249.352 163.806 249.307 163.881 249.24 163.933C249.209 163.963 249.17 163.984 249.128 163.995C249.086 164.005 249.042 164.005 249 163.993Z" fill="#263238"/>
<path d="M251.77 174.173C251.18 173.963 250.87 175.513 249.3 173.893C248.815 173.439 248.205 173.141 247.548 173.039C246.892 172.938 246.22 173.037 245.62 173.323C244.22 172.383 242.26 173.463 240.62 173.883C238.98 174.303 238.25 174.183 237.55 173.883C234.81 172.693 234.7 172.593 234.32 171.693C233.32 169.343 231.53 164.073 232.95 161.603C232.95 161.603 243.89 157.783 237.95 153.153C236.45 151.993 226.69 147.903 232 154.733C232 154.733 223.28 155.223 228.14 157.643C228.14 157.643 221.61 160.143 225.84 162.463C225.84 162.463 222.45 165.713 229.56 171.663L232.29 172.043L232.9 172.193L231.9 175.933C232.32 179.023 235.9 181.723 235.9 181.723C236.9 183.673 237.99 182.943 237.99 182.943C238.14 183.19 238.342 183.401 238.581 183.563C238.82 183.725 239.092 183.832 239.377 183.879C239.662 183.925 239.954 183.91 240.232 183.833C240.511 183.756 240.769 183.619 240.99 183.433C242.23 185.853 244.22 182.943 244.22 182.943C244.69 184.773 247.48 180.873 247.48 180.873C248.27 182.343 250.1 176.223 250.1 176.223C251.62 175.933 252.38 174.393 251.77 174.173Z" fill="#263238"/>
<path d="M227.51 174.363C228.643 175.66 230.242 176.458 231.96 176.583C234.24 176.713 234.91 174.583 233.87 172.663C232.94 170.953 230.64 168.813 228.54 169.563C228.083 169.736 227.677 170.02 227.358 170.39C227.039 170.76 226.819 171.205 226.716 171.682C226.614 172.16 226.633 172.655 226.771 173.124C226.91 173.592 227.164 174.018 227.51 174.363Z" fill="#B55B52"/>
<path d="M247.59 174.863C245.376 174.615 243.144 174.555 240.92 174.683C241.57 176.003 242.71 177.053 245.22 176.963C247.73 176.873 247.59 174.863 247.59 174.863Z" fill="#263238"/>
<path d="M244 175.953C244.959 175.873 245.921 176.07 246.77 176.523C246.311 176.817 245.775 176.97 245.23 176.963C244.271 177.044 243.309 176.846 242.46 176.393C242.92 176.1 243.455 175.947 244 175.953Z" fill="#FF5652"/>
<path d="M247.36 174.863C247.318 175.034 247.228 175.189 247.101 175.31C246.973 175.43 246.813 175.511 246.64 175.543C245.187 175.583 243.733 175.513 242.29 175.333C242.063 175.328 241.84 175.27 241.64 175.162C241.44 175.054 241.269 174.9 241.14 174.713C243.214 174.623 245.292 174.673 247.36 174.863Z" fill="white"/>
<path d="M230.62 196.543L233.37 205.513L239.78 214.773L245.04 220.243L247.01 212.223L246.37 195.493L246.27 191.893L244.8 189.823L242.46 191.873L240.47 192.643L237.56 192.663L229.9 190.333L230.62 196.543Z" fill="#0149AD"/>
<path opacity="0.8" d="M230.62 196.543L233.37 205.513L239.78 214.773L245.04 220.243L247.01 212.223L246.37 195.493L246.27 191.893L244.8 189.823L242.46 191.873L240.47 192.643L237.56 192.663L229.9 190.333L230.62 196.543Z" fill="white"/>
<path d="M236.8 195.493C237.537 196.953 238.557 198.251 239.8 199.313C239.8 199.313 238.52 208.463 240.49 214.873L245.06 220.243L246.39 213.603C246.39 213.603 244.39 202.963 241.61 198.943C242.314 197.559 242.826 196.086 243.13 194.563L241.49 193.213C241.49 193.213 239.21 194.843 237.85 193.713L236.8 195.493Z" fill="#0149AD"/>
<path d="M230.44 188.633C230.44 188.633 234.66 192.233 238.91 192.233C243.16 192.233 243.62 187.803 243.62 187.803L245.41 189.733C245.503 191.978 244.999 194.207 243.95 196.193L239.52 193.193L236.52 197.513C236.52 197.513 231.82 195.253 229.52 191.203L230.44 188.633Z" fill="#0149AD"/>
<path opacity="0.5" d="M230.44 188.633C230.44 188.633 234.66 192.233 238.91 192.233C243.16 192.233 243.62 187.803 243.62 187.803L245.41 189.733C245.503 191.978 244.999 194.207 243.95 196.193L239.52 193.193L236.52 197.513C236.52 197.513 231.82 195.253 229.52 191.203L230.44 188.633Z" fill="white"/>
<path d="M231.2 187.803C231.2 187.803 227.74 198.483 244.8 218.863C244.8 218.863 247.86 193.863 242.49 187.023L246.22 188.493L250.11 194.363L247.26 196.193L250.78 197.763C250.78 197.763 250.28 205.853 245.33 221.413C245.33 221.413 234.11 212.743 226.78 201.033L230.19 198.313L225.63 197.593L227.63 189.483L231.2 187.803Z" fill="#263238"/>
<path opacity="0.3" d="M231.2 187.803C231.2 187.803 227.74 198.483 244.8 218.863C244.8 218.863 247.86 193.863 242.49 187.023L246.22 188.493L250.11 194.363L247.26 196.193L250.78 197.763C250.78 197.763 250.28 205.853 245.33 221.413C245.33 221.413 234.11 212.743 226.78 201.033L230.19 198.313L225.63 197.593L227.63 189.483L231.2 187.803Z" fill="black"/>
<path d="M327.57 157.863C327.57 157.863 321.36 151.263 325.12 149.863C328.88 148.463 330.76 144.303 332.02 147.133C333.28 149.963 332.18 154.683 333.15 154.893C334.12 155.103 332.52 145.633 335.15 146.173C337.78 146.713 338 147.653 341.85 148.493C345.7 149.333 337.21 155.773 338.15 156.643C339.09 157.513 345.15 150.383 345.59 153.523C346.03 156.663 349.37 158.243 347.9 159.613C346.43 160.983 338.78 161.353 338.78 161.353L330 157.543L327.57 157.863Z" fill="#0149AD"/>
<path opacity="0.1" d="M327.58 155.453C326.33 155.853 324.81 153.783 324.19 152.833C325.042 154.67 326.183 156.358 327.57 157.833L330 157.543L338.73 161.363C340.74 161.252 342.743 161.032 344.73 160.703C341.98 160.963 339.57 159.573 342.15 159.253C344.73 158.933 344.57 157.943 343.82 156.443C343.07 154.943 340.76 158.233 340.17 157.443C339.58 156.653 342.45 153.973 342.5 153.933C340.68 155.253 338.64 157.143 338.13 156.673C337.62 156.203 340.41 153.603 341.93 151.483C340.58 153.383 337.8 155.073 336.99 154.413C336.18 153.753 337.94 152.513 338.61 151.183C339.28 149.853 337.87 149.363 336.2 148.713C334.53 148.063 336.26 153.533 334.8 153.313C333.34 153.093 333.8 148.003 333.8 147.973C333.36 150.583 333.91 155.023 333.25 154.883C332.41 154.703 333.12 151.143 332.51 148.353C332.51 148.443 332.82 153.973 331.14 154.413C329.46 154.853 329.21 149.883 327.21 151.563C325.21 153.243 329.19 154.943 327.58 155.453Z" fill="black"/>
<path d="M339.5 189.523C339.377 189.574 339.243 189.598 339.11 189.591C338.976 189.585 338.846 189.549 338.728 189.485C338.61 189.422 338.508 189.333 338.429 189.226C338.35 189.118 338.295 188.994 338.27 188.863C337 184.213 338.57 177.213 339.6 173.173L328.16 181.173C328.77 183.863 328.97 187.173 327.42 189.433C327.181 189.762 326.87 190.033 326.512 190.225C326.154 190.417 325.756 190.526 325.35 190.543L324.22 190.653C324.22 190.653 323.92 195.763 330.64 195.763C337.36 195.763 339.5 189.523 339.5 189.523Z" fill="#71403E"/>
<path opacity="0.2" d="M328.53 186.153C336.38 187.603 338.7 177.023 338.7 177.023L338.55 176.023L337.18 176.853L328.31 182.003C328.588 183.368 328.663 184.766 328.53 186.153Z" fill="black"/>
<path d="M341.12 168.413C339.59 174.843 339.01 178.683 335.12 181.413C329.3 185.523 321.8 181.063 321.39 174.293C321.01 168.193 323.59 158.703 330.39 157.293C331.901 156.976 333.469 157.049 334.944 157.505C336.42 157.96 337.755 158.784 338.824 159.898C339.894 161.013 340.662 162.381 341.056 163.874C341.451 165.367 341.459 166.936 341.08 168.433L341.12 168.413Z" fill="#71403E"/>
<path d="M327.11 166.673C326.198 168.174 325.08 169.541 323.79 170.733C324.103 171.058 324.484 171.311 324.906 171.474C325.327 171.636 325.779 171.704 326.23 171.673L327.11 166.673Z" fill="#561616"/>
<path d="M333.26 165.863C333.284 165.873 333.309 165.878 333.335 165.878C333.361 165.878 333.386 165.873 333.41 165.863C333.444 165.847 333.474 165.824 333.499 165.796C333.524 165.769 333.543 165.736 333.555 165.7C333.567 165.665 333.572 165.628 333.57 165.59C333.567 165.553 333.557 165.516 333.54 165.483C333.333 165.064 333.026 164.702 332.646 164.43C332.265 164.157 331.824 163.983 331.36 163.923C331.322 163.919 331.284 163.922 331.248 163.933C331.212 163.944 331.178 163.963 331.15 163.987C331.121 164.011 331.097 164.041 331.08 164.075C331.063 164.108 331.052 164.145 331.05 164.183C331.046 164.221 331.049 164.259 331.06 164.295C331.071 164.331 331.09 164.365 331.114 164.394C331.138 164.423 331.168 164.446 331.202 164.463C331.235 164.48 331.272 164.491 331.31 164.493C331.67 164.545 332.013 164.683 332.309 164.895C332.605 165.108 332.845 165.388 333.01 165.713C333.034 165.759 333.07 165.797 333.114 165.823C333.158 165.85 333.209 165.863 333.26 165.863Z" fill="#2E353A"/>
<path d="M323.51 164.413C323.559 164.413 323.607 164.401 323.651 164.378C323.694 164.355 323.731 164.323 323.76 164.283C323.968 163.968 324.246 163.704 324.572 163.514C324.898 163.323 325.263 163.21 325.64 163.183C325.679 163.178 325.716 163.166 325.75 163.146C325.784 163.125 325.813 163.099 325.836 163.066C325.858 163.034 325.874 162.998 325.882 162.959C325.889 162.921 325.889 162.881 325.88 162.843C325.869 162.783 325.84 162.729 325.797 162.686C325.754 162.643 325.7 162.614 325.64 162.603C325.17 162.628 324.712 162.763 324.304 162.998C323.896 163.232 323.548 163.559 323.29 163.953C323.267 163.983 323.25 164.017 323.24 164.054C323.231 164.09 323.229 164.128 323.235 164.166C323.24 164.203 323.253 164.239 323.273 164.271C323.293 164.303 323.319 164.331 323.35 164.353C323.371 164.373 323.396 164.389 323.424 164.399C323.451 164.409 323.481 164.414 323.51 164.413Z" fill="#2E353A"/>
<path d="M343.09 175.343C342.579 175.988 341.946 176.525 341.227 176.925C340.508 177.325 339.717 177.579 338.9 177.673C336.71 177.903 335.96 175.853 336.9 173.973C337.71 172.273 339.83 170.123 341.9 170.763C342.345 170.914 342.745 171.172 343.064 171.516C343.384 171.86 343.613 172.278 343.731 172.732C343.849 173.186 343.853 173.663 343.741 174.118C343.629 174.574 343.405 174.995 343.09 175.343Z" fill="#71403E"/>
<path d="M329.49 156.863C329.874 156.54 330.341 156.331 330.838 156.26C331.334 156.19 331.841 156.26 332.3 156.463C332.3 156.463 332.89 155.623 335.17 156.863C337.45 158.103 342.12 160.923 342.17 162.623C342.17 162.623 343.53 164.353 342.12 165.503C342.12 165.503 337.02 163.663 335.12 162.053C333.22 160.443 330.38 157.293 330.38 157.293L329.49 156.863Z" fill="#0149AD"/>
<path opacity="0.2" d="M329.49 156.863C329.874 156.54 330.341 156.331 330.838 156.26C331.334 156.19 331.841 156.26 332.3 156.463C332.3 156.463 332.89 155.623 335.17 156.863C337.45 158.103 342.12 160.923 342.17 162.623C342.17 162.623 343.53 164.353 342.12 165.503C342.12 165.503 337.02 163.663 335.12 162.053C333.22 160.443 330.38 157.293 330.38 157.293L329.49 156.863Z" fill="black"/>
<path d="M340.35 171.683C340.35 171.683 332.55 165.153 330.48 158.623C330.48 158.623 328.04 157.353 323.62 163.173C323.62 163.173 323.08 159.983 325.01 159.113C325.221 158.412 325.632 157.788 326.194 157.319C326.756 156.85 327.443 156.556 328.17 156.473C329.401 156.279 330.662 156.493 331.76 157.083L342.15 165.483C342.509 165.952 342.704 166.527 342.704 167.118C342.704 167.709 342.509 168.284 342.15 168.753C342.15 168.753 343.43 170.863 340.35 171.683Z" fill="#0149AD"/>
<path opacity="0.1" d="M331.67 159.063C331.67 159.063 336.88 166.553 341.12 168.413C341.12 168.413 335.17 160.963 331.67 159.063Z" fill="black"/>
<path d="M326.21 172.973C326.967 172.534 327.822 172.294 328.697 172.277C329.572 172.259 330.436 172.464 331.21 172.873C331.917 173.302 332.738 173.508 333.564 173.463C334.39 173.419 335.183 173.126 335.84 172.623C335.84 172.623 335.2 174.973 333.1 174.773C333.1 174.773 333.1 181.683 331.35 179.683C331.35 179.683 330.45 183.973 329.07 181.493C329.07 181.493 328.58 184.853 327.07 180.833C327.07 180.833 326.14 183.133 325.41 178.833C325.41 178.833 324.36 182.113 323.87 175.313C323.87 175.313 322.73 175.773 322.29 174.173C322.669 174.27 323.07 174.221 323.415 174.036C323.759 173.85 324.022 173.543 324.15 173.173C324.64 171.863 326.21 172.973 326.21 172.973Z" fill="#263238"/>
<path opacity="0.4" d="M326.21 172.973C326.967 172.534 327.822 172.294 328.697 172.277C329.572 172.259 330.436 172.464 331.21 172.873C331.917 173.302 332.738 173.508 333.564 173.463C334.39 173.419 335.183 173.126 335.84 172.623C335.84 172.623 335.2 174.973 333.1 174.773C333.1 174.773 333.1 181.683 331.35 179.683C331.35 179.683 330.45 183.973 329.07 181.493C329.07 181.493 328.58 184.853 327.07 180.833C327.07 180.833 326.14 183.133 325.41 178.833C325.41 178.833 324.36 182.113 323.87 175.313C323.87 175.313 322.73 175.773 322.29 174.173C322.669 174.27 323.07 174.221 323.415 174.036C323.759 173.85 324.022 173.543 324.15 173.173C324.64 171.863 326.21 172.973 326.21 172.973Z" fill="white"/>
<path d="M324.87 174.993C327.157 174.738 329.462 174.678 331.76 174.813C331.09 176.173 329.92 177.253 327.32 177.173C324.72 177.093 324.87 174.993 324.87 174.993Z" fill="#263238"/>
<path d="M328.59 176.123C327.597 176.037 326.601 176.239 325.72 176.703C326.196 177.012 326.753 177.172 327.32 177.163C328.31 177.245 329.303 177.04 330.18 176.573C329.705 176.271 329.153 176.114 328.59 176.123Z" fill="#FF5652"/>
<path d="M325.11 174.963C325.159 175.138 325.254 175.297 325.386 175.422C325.518 175.547 325.682 175.634 325.86 175.673C327.36 175.711 328.861 175.635 330.35 175.443C330.584 175.439 330.813 175.379 331.019 175.268C331.224 175.156 331.399 174.997 331.53 174.803C329.389 174.711 327.244 174.765 325.11 174.963Z" fill="white"/>
<path d="M331.22 167.413C331.14 167.903 330.8 168.263 330.48 168.193C330.16 168.123 329.96 167.723 330.04 167.193C330.12 166.663 330.46 166.333 330.79 166.413C331.12 166.493 331.3 166.923 331.22 167.413Z" fill="#2E353A"/>
<path d="M325.6 166.663C325.52 167.153 325.19 167.513 324.86 167.443C324.53 167.373 324.34 166.963 324.42 166.443C324.5 165.923 324.84 165.593 325.17 165.663C325.5 165.733 325.68 166.163 325.6 166.663Z" fill="#2E353A"/>
<path d="M328.14 165.463C327.97 165.293 327.755 165.175 327.52 165.123C327.284 165.088 327.043 165.126 326.83 165.233L321.69 164.323L321.36 166.173C321.277 166.52 321.267 166.88 321.328 167.231C321.39 167.583 321.522 167.918 321.718 168.216C321.913 168.514 322.167 168.769 322.465 168.966C322.762 169.162 323.097 169.296 323.448 169.359C323.799 169.421 324.159 169.412 324.506 169.331C324.854 169.249 325.181 169.098 325.467 168.886C325.754 168.674 325.994 168.405 326.174 168.097C326.353 167.789 326.467 167.447 326.51 167.093L326.67 166.223C326.702 166.055 326.798 165.907 326.938 165.809C327.079 165.712 327.252 165.674 327.42 165.703C327.59 165.732 327.741 165.828 327.84 165.968C327.94 166.109 327.979 166.283 327.95 166.453L327.8 167.313C327.717 167.66 327.707 168.02 327.768 168.371C327.83 168.723 327.962 169.058 328.158 169.356C328.353 169.654 328.607 169.909 328.905 170.106C329.202 170.302 329.537 170.436 329.888 170.499C330.239 170.561 330.599 170.552 330.946 170.471C331.294 170.389 331.621 170.238 331.907 170.026C332.194 169.814 332.434 169.545 332.614 169.237C332.793 168.929 332.907 168.587 332.95 168.233L333.28 166.373L328.14 165.463ZM325.94 166.983C325.894 167.246 325.797 167.497 325.654 167.722C325.511 167.947 325.325 168.141 325.107 168.295C324.889 168.448 324.642 168.557 324.382 168.615C324.122 168.673 323.853 168.679 323.59 168.633C323.327 168.587 323.076 168.49 322.851 168.347C322.626 168.204 322.432 168.018 322.278 167.8C322.125 167.581 322.016 167.335 321.958 167.075C321.9 166.815 321.894 166.546 321.94 166.283L322.17 164.993L326.17 165.703L325.94 166.983ZM332.38 168.123C332.334 168.386 332.237 168.637 332.094 168.862C331.951 169.087 331.765 169.281 331.547 169.435C331.329 169.588 331.082 169.697 330.822 169.755C330.562 169.813 330.293 169.819 330.03 169.773C329.767 169.727 329.516 169.63 329.291 169.487C329.066 169.344 328.872 169.158 328.718 168.94C328.565 168.721 328.456 168.475 328.398 168.215C328.34 167.955 328.334 167.686 328.38 167.423L328.61 166.133L332.61 166.843L332.38 168.123Z" fill="#0149AD"/>
<path opacity="0.6" d="M328.14 165.463C327.97 165.293 327.755 165.175 327.52 165.123C327.284 165.088 327.043 165.126 326.83 165.233L321.69 164.323L321.36 166.173C321.277 166.52 321.267 166.88 321.328 167.231C321.39 167.583 321.522 167.918 321.718 168.216C321.913 168.514 322.167 168.769 322.465 168.966C322.762 169.162 323.097 169.296 323.448 169.359C323.799 169.421 324.159 169.412 324.506 169.331C324.854 169.249 325.181 169.098 325.467 168.886C325.754 168.674 325.994 168.405 326.174 168.097C326.353 167.789 326.467 167.447 326.51 167.093L326.67 166.223C326.702 166.055 326.798 165.907 326.938 165.809C327.079 165.712 327.252 165.674 327.42 165.703C327.59 165.732 327.741 165.828 327.84 165.968C327.94 166.109 327.979 166.283 327.95 166.453L327.8 167.313C327.717 167.66 327.707 168.02 327.768 168.371C327.83 168.723 327.962 169.058 328.158 169.356C328.353 169.654 328.607 169.909 328.905 170.106C329.202 170.302 329.537 170.436 329.888 170.499C330.239 170.561 330.599 170.552 330.946 170.471C331.294 170.389 331.621 170.238 331.907 170.026C332.194 169.814 332.434 169.545 332.614 169.237C332.793 168.929 332.907 168.587 332.95 168.233L333.28 166.373L328.14 165.463ZM325.94 166.983C325.894 167.246 325.797 167.497 325.654 167.722C325.511 167.947 325.325 168.141 325.107 168.295C324.889 168.448 324.642 168.557 324.382 168.615C324.122 168.673 323.853 168.679 323.59 168.633C323.327 168.587 323.076 168.49 322.851 168.347C322.626 168.204 322.432 168.018 322.278 167.8C322.125 167.581 322.016 167.335 321.958 167.075C321.9 166.815 321.894 166.546 321.94 166.283L322.17 164.993L326.17 165.703L325.94 166.983ZM332.38 168.123C332.334 168.386 332.237 168.637 332.094 168.862C331.951 169.087 331.765 169.281 331.547 169.435C331.329 169.588 331.082 169.697 330.822 169.755C330.562 169.813 330.293 169.819 330.03 169.773C329.767 169.727 329.516 169.63 329.291 169.487C329.066 169.344 328.872 169.158 328.718 168.94C328.565 168.721 328.456 168.475 328.398 168.215C328.34 167.955 328.334 167.686 328.38 167.423L328.61 166.133L332.61 166.843L332.38 168.123Z" fill="white"/>
<path d="M337.34 168.863L333.15 166.473L332.86 166.983L338.95 170.453C338.49 169.973 337.94 169.443 337.34 168.863Z" fill="#0149AD"/>
<path opacity="0.6" d="M337.34 168.863L333.15 166.473L332.86 166.983L338.95 170.453C338.49 169.973 337.94 169.443 337.34 168.863Z" fill="white"/>
<path d="M298.7 252.533L296.17 257.933C295.057 258.739 293.998 259.618 293 260.563C292.31 261.373 290.72 263.163 290.81 264.223C291.038 264.986 291.423 265.693 291.939 266.299C292.456 266.905 293.093 267.397 293.81 267.743C295.26 268.163 298.63 267.173 299.59 266.013C300.55 264.853 300.24 259.643 300.24 259.643L303.04 254.233L298.7 252.533Z" fill="#71403E"/>
<path d="M298.99 249.473L296.4 255.713L301.92 258.353L305.03 252.163L298.99 249.473Z" fill="#0149AD"/>
<path opacity="0.8" d="M298.99 249.473L296.4 255.713L301.92 258.353L305.03 252.163L298.99 249.473Z" fill="white"/>
<path d="M303.4 256.333C308.841 246.729 312.802 236.359 315.15 225.573C319.15 207.373 323.94 188.883 317.93 190.103C306.93 192.333 306.77 219.103 304.88 228.503C302.99 237.903 296.88 253.263 296.88 253.263L303.4 256.333Z" fill="#263238"/>
<path opacity="0.2" d="M303.4 256.333C308.841 246.729 312.802 236.359 315.15 225.573C319.15 207.373 324.94 189.203 318.84 189.823C306.95 191.023 306.77 219.133 304.84 228.503C302.91 237.873 296.84 253.263 296.84 253.263L303.4 256.333Z" fill="black"/>
<path d="M303.06 391.483L302.51 405.493H308.73L311.31 391.983L303.06 391.483Z" fill="#71403E"/>
<path d="M302.21 404.723H309.85C310.003 404.72 310.151 404.777 310.263 404.882C310.375 404.986 310.442 405.13 310.45 405.283L312.03 412.633C312.039 412.957 311.934 413.274 311.733 413.528C311.532 413.782 311.247 413.957 310.93 414.023C310.847 414.033 310.763 414.033 310.68 414.023C307.52 413.913 304.74 413.693 300.8 413.623C296.16 413.553 297.25 414.123 291.8 414.113C288.5 414.113 288.5 410.333 289.92 410.173C296.44 409.483 297.4 407.563 300.23 405.313C300.807 404.903 301.503 404.695 302.21 404.723Z" fill="#263238"/>
<path d="M307.17 262.353L301.51 401.263L310.73 401.713C310.73 401.713 318.64 369.973 319.65 349.903C319.72 348.513 319.76 347.193 319.75 345.903C319.704 340.062 320.182 334.228 321.18 328.473L321.54 326.473L326.54 298.313C326.54 298.313 335.14 283.023 329.21 261.683L307.17 262.353Z" fill="#0149AD"/>
<path opacity="0.2" d="M323.91 313.223C320.32 297.873 321.22 279.653 321.22 279.653L325.8 281.463L329.15 289.943C329.15 289.943 329.15 290.623 329.15 291.753C328.504 294.03 327.633 296.238 326.55 298.343L323.91 313.223Z" fill="black"/>
<path d="M301.14 399.183L301.05 402.433L310.83 403.023L311.71 399.813L301.14 399.183Z" fill="#0149AD"/>
<path opacity="0.4" d="M301.14 399.183L301.05 402.433L310.83 403.023L311.71 399.813L301.14 399.183Z" fill="white"/>
<path d="M342.17 391.483L344.21 405.493H350.43L350.4 391.983L342.17 391.483Z" fill="#71403E"/>
<path d="M343.69 404.723H351.33C351.405 404.722 351.479 404.735 351.549 404.763C351.618 404.79 351.682 404.831 351.736 404.883C351.79 404.935 351.833 404.997 351.863 405.066C351.893 405.134 351.909 405.208 351.91 405.283L353.24 412.633C353.233 412.961 353.116 413.276 352.907 413.529C352.699 413.781 352.41 413.955 352.09 414.023C352.004 414.033 351.916 414.033 351.83 414.023C348.68 413.913 345.91 413.693 341.97 413.623C337.33 413.553 338.4 414.123 332.97 414.113C329.67 414.113 329.79 410.333 331.22 410.173C337.76 409.483 338.8 407.563 341.7 405.313C342.282 404.905 342.98 404.698 343.69 404.723Z" fill="#263238"/>
<path d="M317.28 262.353C317.28 262.353 324.8 296.683 326.95 308.193C331.29 331.373 342.17 401.283 342.17 401.283L351.34 400.883C351.34 400.883 353.44 371.883 350.68 351.583C350.47 349.983 350.22 348.443 349.94 346.983C348.58 340.218 347.91 333.333 347.94 326.433C347.94 326.433 347.94 324.943 347.94 324.433C347.94 317.913 347.87 304.853 348.21 298.333C348.7 289.153 350.12 278.533 344.84 261.703L317.28 262.353Z" fill="#0149AD"/>
<path d="M341.41 399.823L341.92 403.053L351.66 402.473L351.84 399.203L341.41 399.823Z" fill="#0149AD"/>
<path opacity="0.4" d="M341.41 399.823L341.92 403.053L351.66 402.473L351.84 399.203L341.41 399.823Z" fill="white"/>
<path d="M308.24 261.033C308.24 261.033 313.36 266.543 321.12 262.473C321.12 262.473 325.31 265.613 337.69 262.473L344.19 191.193V189.953H339.33L330.7 191.733L326.21 189.663L323.4 189.103L313.79 202.863L308.6 251.133L308.24 261.033Z" fill="#0149AD"/>
<path opacity="0.8" d="M308.24 261.033C308.24 261.033 313.36 266.543 321.12 262.473C321.12 262.473 325.31 265.613 337.69 262.473L344.19 191.193V189.953H339.33L330.7 191.733L326.21 189.663L323.4 189.103L313.79 202.863L308.6 251.133L308.24 261.033Z" fill="white"/>
<path d="M327.19 193.463L327.83 196.223L328.58 198.533C328.58 198.533 319.77 215.953 319.21 249.533L321.82 252.193L326.56 249.193C326.56 249.193 326.21 229.993 330.63 198.853L331.82 197.473L333.75 194.713L333.2 193.103C332.889 193.358 332.531 193.548 332.145 193.661C331.76 193.775 331.355 193.81 330.956 193.764C330.557 193.718 330.171 193.593 329.821 193.395C329.472 193.197 329.165 192.931 328.92 192.613L327.19 193.463Z" fill="#0149AD"/>
<path opacity="0.8" d="M322.86 216.573C322.81 216.783 322.77 216.993 322.72 217.203L328.32 217.903C328.32 217.693 328.37 217.473 328.39 217.263L322.86 216.573Z" fill="white"/>
<path d="M303.54 278.093C303.54 278.093 315.44 289.683 314.29 251.713C312.76 201.523 325.46 188.613 325.46 188.613C325.46 188.613 303.29 184.913 305.54 237.333C306 247.863 307.17 262.353 303.54 278.093Z" fill="#263238"/>
<path d="M340.71 188.313C340.71 188.313 333.84 208.063 334.71 240.253C335.46 266.953 333.63 279.963 352.78 278.303C350.168 266.723 349.178 254.836 349.84 242.983C350.86 222.553 366.45 185.863 340.71 188.313Z" fill="#263238"/>
<path opacity="0.2" d="M352 194.723C350.88 193.213 348.46 193.513 347.36 195.183C345.04 198.703 341.27 203.253 338.69 223.643L334.9 223.853C334.83 226.853 334.7 236.613 334.73 238.013C337.686 237.649 340.62 237.128 343.52 236.453C350.67 234.413 357.51 202.113 352 194.723Z" fill="black"/>
<path d="M305.4 254.803H310.6C310.6 254.803 311.31 258.253 304.39 257.853L305.4 254.803Z" fill="#263238"/>
<path d="M337.69 254.803L346.46 253.753C346.46 253.753 347.88 256.753 342.76 257.213C337.64 257.673 337.69 254.803 337.69 254.803Z" fill="#263238"/>
<g opacity="0.1">
<path d="M305.4 254.803H310.6C310.6 254.803 311.31 258.253 304.39 257.853L305.4 254.803Z" fill="white"/>
<path d="M337.69 254.803L346.46 253.753C346.46 253.753 347.88 256.753 342.76 257.213C337.64 257.673 337.69 254.803 337.69 254.803Z" fill="white"/>
</g>
<path d="M325.46 188.613L326.87 188.233L330.65 190.773L339.54 188.183L340.71 188.313L341.46 190.773L333.2 196.493L330.65 192.793L326.87 195.143L324.04 189.273L325.46 188.613Z" fill="#0149AD"/>
<path opacity="0.5" d="M325.46 188.613L326.87 188.233L330.65 190.773L339.54 188.183L340.71 188.313L341.46 190.773L333.2 196.493L330.65 192.793L326.87 195.143L324.04 189.273L325.46 188.613Z" fill="white"/>
<path d="M340.71 188.313C340.71 188.313 335.56 203.133 334.77 227.993C338.61 210.413 344.19 202.553 344.19 202.553L340.24 200.123L344.19 197.293C342.88 194.443 342.98 189.963 343.08 188.203C342.33 188.203 341.55 188.233 340.71 188.313Z" fill="#263238"/>
<path opacity="0.1" d="M340.71 188.313C340.71 188.313 335.56 203.133 334.77 227.993C338.61 210.413 344.19 202.553 344.19 202.553L340.24 200.123L344.19 197.293C342.88 194.443 342.98 189.963 343.08 188.203C342.33 188.203 341.55 188.233 340.71 188.313Z" fill="white"/>
<path d="M313.47 230.493L307.77 230.783C306.596 230.215 305.387 229.724 304.15 229.313C303.15 229.093 300.93 228.553 300.08 229.103C299.537 229.633 299.112 230.271 298.831 230.975C298.55 231.68 298.42 232.435 298.45 233.193C298.801 234.115 299.337 234.955 300.025 235.662C300.713 236.368 301.538 236.927 302.45 237.303C303.94 237.613 308.12 235.003 308.12 235.003L313.95 234.943L313.47 230.493Z" fill="#71403E"/>
<path d="M318.25 228.823L311.09 229.663L312.11 235.553H318.83L318.25 228.823Z" fill="#0149AD"/>
<path opacity="0.8" d="M318.25 228.823L311.09 229.663L312.11 235.553H318.83L318.25 228.823Z" fill="white"/>
<path d="M348.07 192.403C345.85 195.783 342.23 205.773 339.76 225.313L314.65 228.383L315.1 236.303C315.1 236.303 335.32 236.793 343.1 234.553C349.91 232.553 357.76 199.053 352.51 191.963C351.45 190.523 349.13 190.803 348.07 192.403Z" fill="#263238"/>
<path d="M314.3 207.063H306.95V211.503H314.3V207.063Z" fill="#0149AD"/>
<path opacity="0.4" d="M314.3 208.503H306.95V211.493H314.3V208.503Z" fill="white"/>
<path opacity="0.4" d="M314.3 209.883H306.95V211.503H314.3V209.883Z" fill="#263238"/>
<path opacity="0.4" d="M311.22 209.283C311.22 209.402 311.185 209.518 311.119 209.616C311.053 209.715 310.959 209.792 310.85 209.837C310.74 209.883 310.619 209.895 310.503 209.871C310.387 209.848 310.28 209.791 310.196 209.707C310.112 209.623 310.055 209.516 310.032 209.4C310.008 209.284 310.02 209.163 310.066 209.053C310.111 208.944 310.188 208.85 310.287 208.784C310.385 208.718 310.501 208.683 310.62 208.683C310.779 208.683 310.932 208.746 311.044 208.859C311.157 208.971 311.22 209.124 311.22 209.283Z" fill="white"/>
<path d="M322.87 188.673C320.87 189.763 318.57 192.003 316.4 195.473L317.67 198.653L313.16 200.213C312.714 209.34 313.244 218.488 314.74 227.503C317.03 197.193 325.46 188.613 325.46 188.613C324.598 188.523 323.727 188.543 322.87 188.673Z" fill="#263238"/>
<path opacity="0.1" d="M322.87 188.673C320.87 189.763 318.57 192.003 316.4 195.473L317.67 198.653L313.16 200.213C312.714 209.34 313.244 218.488 314.74 227.503C317.03 197.193 325.46 188.613 325.46 188.613C324.598 188.523 323.727 188.543 322.87 188.673Z" fill="white"/>
<path d="M161 201.563C164.02 200.912 167.161 201.102 170.08 202.113C170.08 202.113 171.82 206.323 168.08 206.513C164.34 206.703 160.98 202.893 160.98 202.893L161 201.563Z" fill="#0149AD"/>
<path d="M156.09 176.273C156.09 176.273 166.44 164.373 174.43 172.173C174.43 172.173 180.64 177.893 179.38 183.803C178.12 189.713 172.21 187.413 176.24 197.963C176.24 197.963 173.57 203.273 161.08 199.223L157.83 194.013L159.55 199.223C159.55 199.223 152 198.333 152.06 190.813C152.12 183.293 148.83 176.193 156.09 176.273Z" fill="#263238"/>
<path d="M160.07 204.003C160.07 204.003 162.47 203.913 162.45 200.943C162.398 198.745 162.228 196.552 161.94 194.373L169.06 195.003C169.06 195.003 168.11 203.763 171.37 204.203C171.37 204.203 168.52 208.573 160.07 204.003Z" fill="#FFB573"/>
<path opacity="0.1" d="M169.06 195.003L161.94 194.373C161.94 194.373 162.12 195.693 162.26 197.373C163.991 199.536 166.508 200.927 169.26 201.243C168.925 199.18 168.858 197.083 169.06 195.003Z" fill="black"/>
<path d="M157.37 184.803C158.32 191.193 158.58 193.913 162.11 196.933C167.41 201.463 175.04 198.933 176.02 192.373C176.91 186.483 175.21 177.033 168.71 175.023C166.49 174.333 164.087 174.549 162.026 175.625C159.965 176.7 158.414 178.547 157.71 180.763C157.288 182.066 157.172 183.448 157.37 184.803Z" fill="#FFB573"/>
<path d="M156.29 190.013C156.751 191.175 157.654 192.106 158.8 192.603C160.32 193.243 161.29 191.933 161.04 190.393C160.79 188.853 159.76 186.983 158.15 186.993C157.87 187.002 157.594 187.067 157.339 187.183C157.084 187.299 156.855 187.465 156.664 187.67C156.473 187.876 156.325 188.117 156.228 188.38C156.132 188.643 156.088 188.923 156.1 189.203C156.109 189.483 156.173 189.759 156.29 190.013Z" fill="#FFB573"/>
<path d="M171.67 186.283C172.24 187.435 172.963 188.505 173.82 189.463C173.57 189.675 173.277 189.831 172.961 189.921C172.646 190.011 172.315 190.032 171.99 189.983L171.67 186.283Z" fill="#ED893E"/>
<path d="M164.65 183.373C164.608 183.387 164.562 183.387 164.52 183.373C164.467 183.333 164.432 183.274 164.423 183.208C164.413 183.143 164.43 183.076 164.47 183.023C164.751 182.635 165.121 182.32 165.549 182.104C165.977 181.888 166.451 181.778 166.93 181.783C166.997 181.793 167.059 181.826 167.103 181.878C167.147 181.929 167.171 181.995 167.17 182.063C167.163 182.128 167.13 182.189 167.08 182.231C167.03 182.274 166.966 182.296 166.9 182.293C166.512 182.294 166.13 182.385 165.783 182.558C165.436 182.732 165.133 182.983 164.9 183.293C164.869 183.327 164.83 183.353 164.786 183.367C164.742 183.381 164.695 183.383 164.65 183.373Z" fill="#263238"/>
<path d="M175.73 182.513L175.61 182.463C175.294 182.226 174.927 182.067 174.538 181.997C174.149 181.928 173.749 181.95 173.37 182.063C173.339 182.076 173.306 182.083 173.273 182.083C173.239 182.083 173.206 182.076 173.176 182.063C173.145 182.05 173.117 182.031 173.094 182.007C173.07 181.983 173.052 181.954 173.04 181.923C173.027 181.892 173.021 181.858 173.022 181.824C173.023 181.79 173.03 181.757 173.044 181.726C173.058 181.695 173.078 181.667 173.104 181.645C173.129 181.622 173.158 181.604 173.19 181.593C173.646 181.445 174.132 181.409 174.605 181.487C175.078 181.565 175.526 181.756 175.91 182.043C175.967 182.082 176.006 182.141 176.019 182.209C176.032 182.276 176.018 182.346 175.98 182.403C175.953 182.443 175.915 182.474 175.871 182.494C175.827 182.513 175.778 182.52 175.73 182.513Z" fill="#263238"/>
<path d="M167.9 185.743C167.9 186.263 168.26 186.653 168.61 186.633C168.96 186.613 169.19 186.153 169.14 185.633C169.09 185.113 168.78 184.713 168.44 184.743C168.1 184.773 167.86 185.213 167.9 185.743Z" fill="#263238"/>
<path d="M173.81 185.233C173.86 185.753 174.17 186.153 174.51 186.123C174.85 186.093 175.09 185.653 175.05 185.123C175.01 184.593 174.69 184.203 174.35 184.233C174.01 184.263 173.76 184.703 173.81 185.233Z" fill="#263238"/>
<path d="M174.2 184.273L175.43 183.803C175.43 183.803 174.86 184.863 174.2 184.273Z" fill="#263238"/>
<path d="M168.29 184.783L169.52 184.313C169.52 184.313 169 185.343 168.29 184.783Z" fill="#263238"/>
<path d="M170.75 193.023C171.052 193.026 171.353 192.999 171.65 192.943C171.691 192.936 171.727 192.913 171.751 192.879C171.776 192.846 171.786 192.804 171.78 192.763C171.773 192.722 171.75 192.686 171.716 192.662C171.683 192.638 171.641 192.627 171.6 192.633C170.947 192.768 170.271 192.748 169.626 192.574C168.982 192.4 168.387 192.078 167.89 191.633C167.861 191.601 167.82 191.582 167.777 191.58C167.734 191.579 167.692 191.594 167.66 191.623C167.628 191.652 167.609 191.693 167.607 191.736C167.606 191.779 167.621 191.821 167.65 191.853C168.495 192.627 169.605 193.046 170.75 193.023Z" fill="#263238"/>
<path d="M159.55 175.633C159.55 175.633 164.18 177.633 163.44 182.293C163.44 182.293 168.04 179.393 173.02 181.013C172.518 179.227 171.469 177.643 170.02 176.483C170.02 176.483 175.63 180.663 176.46 183.373C177.29 186.083 176.26 173.983 168.46 173.643C166.946 173.045 165.288 172.915 163.699 173.269C162.111 173.624 160.665 174.448 159.55 175.633Z" fill="#263238"/>
<path d="M162.41 176.693C162.41 176.693 163.24 178.833 162.12 182.953C161 187.073 159.69 187.953 162.12 192.073C164.55 196.193 161.73 196.853 161.73 196.853C161.73 196.853 162.99 195.413 159.85 191.853C158.949 190.919 158.261 189.8 157.833 188.575C157.405 187.349 157.247 186.045 157.37 184.753C157.37 184.753 155.82 181.603 158.95 177.043C162.08 172.483 162.41 176.693 162.41 176.693Z" fill="#263238"/>
<path d="M158.8 192.603C159.884 193.126 160.795 193.95 161.423 194.977C162.051 196.004 162.369 197.19 162.34 198.393L160.05 196.053L157.83 194.053L158.8 192.603Z" fill="#263238"/>
<path d="M190.55 307.943C190.46 332.793 185.55 407.553 185.55 407.553H178.47C178.47 407.553 172.73 343.313 177.97 322.383L169.17 281.973L189.51 284.593C189.51 284.593 190.57 302.083 190.55 307.943Z" fill="#FFB573"/>
<path d="M185.14 405.673H178.27C178.122 405.68 177.98 405.732 177.863 405.824C177.747 405.915 177.662 406.041 177.62 406.183L174.8 412.783C174.763 412.913 174.752 413.049 174.769 413.184C174.785 413.318 174.829 413.448 174.897 413.564C174.966 413.681 175.057 413.783 175.166 413.864C175.274 413.944 175.398 414.002 175.53 414.033C175.603 414.043 175.677 414.043 175.75 414.033C178.61 413.933 181.15 413.733 184.75 413.673C188.94 413.603 187.85 414.123 192.75 414.113C195.75 414.113 196.44 410.723 195.19 410.573C189.47 409.943 188.96 408.223 186.85 406.193C186.366 405.81 185.755 405.624 185.14 405.673Z" fill="#263238"/>
<path opacity="0.1" d="M189.86 331.163H176.62C175.98 337.573 175.77 345.433 175.81 353.653C180.253 353.408 184.647 352.605 188.89 351.263C189.25 344.353 189.59 337.503 189.86 331.163Z" fill="black"/>
<path d="M164.56 309.723L152.2 407.863H145.27C145.27 407.863 143.95 342.563 150.27 322.263L150.86 281.613L168.29 284.613L164.56 309.723Z" fill="#FFB573"/>
<path d="M152 405.673H145.1C144.956 405.677 144.817 405.729 144.706 405.822C144.595 405.914 144.519 406.042 144.49 406.183L142.13 412.783C142.101 412.918 142.098 413.058 142.123 413.194C142.148 413.33 142.2 413.46 142.275 413.577C142.35 413.693 142.448 413.793 142.562 413.871C142.676 413.95 142.805 414.005 142.94 414.033C143.016 414.043 143.094 414.043 143.17 414.033C146.01 413.933 148.55 413.733 152.09 413.673C156.28 413.603 155.23 414.123 160.15 414.113C163.15 414.113 163.6 410.723 162.34 410.573C156.57 409.943 155.95 408.223 153.69 406.193C153.206 405.824 152.607 405.64 152 405.673Z" fill="#263238"/>
<path opacity="0.1" d="M149.31 325.923C147.9 332.263 146.96 341.123 146.31 350.703C150.462 351.982 154.776 352.656 159.12 352.703L162.12 328.703L149.31 325.923Z" fill="black"/>
<path d="M196.19 261.663C196.616 263.345 197.226 264.975 198.01 266.523L201.36 269.663L201.87 273.983L196.13 275.203L193.74 271.203L193.5 267.863C192.742 266.381 192.075 264.855 191.5 263.293L196.19 261.663Z" fill="#FFB573"/>
<path d="M191.13 264.383C189 259.863 186 247.663 184.38 237.033C181.69 219.573 178.6 206.683 182.31 207.973C185.975 213.47 188.461 219.667 189.61 226.173C191.31 235.363 193.61 253.363 196.69 262.053L191.13 264.383Z" fill="#0149AD"/>
<path opacity="0.1" d="M191.13 264.383C189 259.863 186 247.663 184.38 237.033C181.69 219.573 178.6 206.683 182.31 207.973C185.975 213.47 188.461 219.667 189.61 226.173C191.31 235.363 193.61 253.363 196.69 262.053L191.13 264.383Z" fill="black"/>
<path opacity="0.1" d="M181.31 218.133C182.05 223.133 183.25 229.683 184.38 237.033C184.84 240.033 185.38 243.093 186.03 246.113C186.388 241.895 186.989 237.702 187.83 233.553C189.83 223.383 183.44 211.403 183.44 211.403H182.51L181.41 213.573L181.31 218.133Z" fill="black"/>
<path d="M158.93 203.533L160.92 202.893L166.12 206.513H168.02L169.62 205.803L171.48 203.943L173.34 204.703L174.66 209.813V211.373L175.23 213.253L176.87 219.573L178.1 227.733V233.873L177.64 240.473L175.9 237.033L171 227.873L166.92 216.323L165.73 212.293L162.61 209.013L160.18 204.863L158.93 203.533Z" fill="#0149AD"/>
<path opacity="0.8" d="M158.93 203.533L160.92 202.893L166.12 206.513H168.02L169.62 205.803L171.48 203.943L173.34 204.703L174.66 209.813V211.373L175.23 213.253L176.87 219.573L178.1 227.733V233.873L177.64 240.473L175.9 237.033L171 227.873L166.92 216.323L165.73 212.293L162.61 209.013L160.18 204.863L158.93 203.533Z" fill="white"/>
<path d="M151 268.953C151 268.953 148 277.893 146.92 303.023C145.84 328.153 143.42 347.863 143.42 347.863C143.42 347.863 173.14 355.563 191.07 347.863C191.07 347.863 194.66 303.363 188.18 268.973L175.18 264.403L151 268.953Z" fill="#263238"/>
<path d="M150 208.623L156.22 252.293C156.22 252.293 152.37 258.893 149.07 272.503C149.07 272.503 168.22 278.873 173.81 276.083C175.6 275.183 177.66 269.083 177.66 269.083C177.66 269.083 180.88 275.553 183.03 276.083C184.79 276.523 189.63 273.083 189.63 273.083C189.63 273.083 187.63 261.593 184.85 251.603L186.19 232.393C186.19 232.393 188.94 226.963 183.78 212.393L182.33 207.973C182.142 207.386 181.733 206.895 181.19 206.603C178.274 205.108 175.169 204.015 171.96 203.353C171.96 203.353 178.96 222.933 177.32 239.303C177.32 239.303 170.45 212.153 159.46 202.893C156.709 203.17 154.042 204 151.62 205.333C151.052 205.657 150.594 206.143 150.305 206.73C150.017 207.316 149.91 207.976 150 208.623Z" fill="#0149AD"/>
<path d="M166.35 207.473C166.35 207.473 167.88 205.323 171.14 206.373C171.455 207.848 171.569 209.358 171.48 210.863C171.48 210.863 174.53 215.123 178.1 231.213V234.333L177.64 240.473L175.9 237.033L174.16 231.213C174.16 231.213 171.73 216.273 169.53 211.513L166.35 207.473Z" fill="#263238"/>
<path d="M159.44 202.863L161 201.563C161 201.563 165.13 206.083 167.88 205.933C170.63 205.783 170.08 202.113 170.08 202.113L171.98 203.353L172.83 204.133L172.62 209.013C172.62 209.013 170.21 206.193 168.79 206.603C167.37 207.013 166.15 210.043 166.15 210.043C166.15 210.043 162.92 208.263 159.44 202.863Z" fill="#0149AD"/>
<path opacity="0.5" d="M159.44 202.863L161 201.563C161 201.563 165.13 206.083 167.88 205.933C170.63 205.783 170.08 202.113 170.08 202.113L171.98 203.353L172.83 204.133L172.62 209.013C172.62 209.013 170.21 206.193 168.79 206.603C167.37 207.013 166.15 210.043 166.15 210.043C166.15 210.043 162.92 208.263 159.44 202.863Z" fill="white"/>
<path d="M177.78 241.343C177.78 241.343 179.2 232.823 178.93 214.033L175.23 212.033L177.55 211.393C176.394 208.757 175.058 206.205 173.55 203.753C173.03 203.613 172.55 203.493 171.95 203.373C171.95 203.373 178.95 222.953 177.31 239.323C177.31 239.323 170.44 212.173 159.45 202.913C159.45 202.913 158.94 202.913 158.11 203.093C160.71 205.833 162.191 209.447 162.26 213.223H165.21L162.81 215.423L177.78 241.343Z" fill="#0149AD"/>
<path opacity="0.2" d="M177.78 241.343C177.78 241.343 179.2 232.823 178.93 214.033L175.23 212.033L177.55 211.393C176.394 208.757 175.058 206.205 173.55 203.753C173.03 203.613 172.55 203.493 171.95 203.373C171.95 203.373 178.95 222.953 177.31 239.323C177.31 239.323 170.44 212.173 159.45 202.913C159.45 202.913 158.94 202.913 158.11 203.093C160.71 205.833 162.191 209.447 162.26 213.223H165.21L162.81 215.423L177.78 241.343Z" fill="black"/>
<path opacity="0.2" d="M152.07 223.283C153.457 218.481 154.477 213.58 155.12 208.623L151.35 206.973L150.01 207.583C149.954 207.914 149.954 208.252 150.01 208.583L152.07 223.283Z" fill="black"/>
<path d="M164.152 218.646L157.333 219.762L158.008 223.887L164.827 222.771L164.152 218.646Z" fill="#0149AD"/>
<path opacity="0.7" d="M164.152 218.646L157.333 219.762L158.008 223.887L164.827 222.771L164.152 218.646Z" fill="white"/>
<path d="M162.06 221.093C162.096 221.289 162.073 221.492 161.992 221.675C161.912 221.858 161.779 222.013 161.61 222.119C161.442 222.226 161.245 222.279 161.045 222.273C160.845 222.267 160.652 222.201 160.491 222.084C160.329 221.967 160.206 221.804 160.137 221.617C160.069 221.429 160.058 221.225 160.106 221.031C160.155 220.838 160.26 220.663 160.409 220.53C160.557 220.396 160.742 220.31 160.94 220.283C161.195 220.248 161.454 220.313 161.663 220.463C161.871 220.614 162.014 220.84 162.06 221.093Z" fill="#0149AD"/>
<path opacity="0.2" d="M176 248.733C176.72 247.903 176 243.383 176 243.383L155.06 244.383L155.79 249.523C159.787 249.865 163.812 249.602 167.73 248.743C167.73 248.743 175.28 249.563 176 248.733Z" fill="black"/>
<path d="M164.18 247.863C166.071 247.753 167.951 247.516 169.81 247.153L173.37 247.543H178.66V241.183L173.18 240.023L169.18 242.153C167.556 242.409 165.914 242.542 164.27 242.553L164.18 247.863Z" fill="#FFB573"/>
<path d="M164.76 248.273C156.56 248.793 142.29 247.563 142.31 232.643C142.31 224.963 145.07 204.223 153.16 205.053C161.25 205.883 149.6 214.253 149.6 231.583C149.6 241.513 158.87 241.863 164.83 241.803L164.76 248.273Z" fill="#0149AD"/>
<path opacity="0.1" d="M164.76 248.273C156.56 248.793 142.29 247.563 142.31 232.643C142.31 224.963 145.07 204.223 153.16 205.053C161.25 205.883 149.6 214.253 149.6 231.583C149.6 241.513 158.87 241.863 164.83 241.803L164.76 248.273Z" fill="black"/>
</svg>
