<svg width="125" height="125" viewBox="0 0 125 125" fill="none" xmlns="http://www.w3.org/2000/svg">
<mask id="mask0_772_5287" style="mask-type:alpha" maskUnits="userSpaceOnUse" x="0" y="0" width="125" height="125">
<rect width="125" height="125" fill="#D9D9D9"/>
</mask>
<g mask="url(#mask0_772_5287)">
<path d="M103.906 109.375C93.0556 109.375 82.3351 107.01 71.7448 102.279C61.1545 97.5478 51.5191 90.842 42.8385 82.1615C34.158 73.4809 27.4523 63.8455 22.7214 53.2552C17.9905 42.6649 15.625 31.9444 15.625 21.0938C15.625 19.5313 16.1458 18.2292 17.1875 17.1875C18.2292 16.1458 19.5313 15.625 21.0938 15.625H42.1875C43.4028 15.625 44.4878 16.0373 45.4427 16.862C46.3976 17.6866 46.9618 18.6632 47.1354 19.7917L50.5208 38.0208C50.6944 39.4097 50.651 40.5816 50.3906 41.5365C50.1302 42.4913 49.6528 43.316 48.9583 44.0104L36.3281 56.7708C38.0642 59.9826 40.1259 63.0859 42.513 66.0807C44.9002 69.0755 47.526 71.9618 50.3906 74.7396C53.0816 77.4306 55.9028 79.9262 58.8542 82.2266C61.8056 84.5269 64.9306 86.632 68.2292 88.5417L80.4688 76.3021C81.25 75.5208 82.27 74.9349 83.5286 74.5443C84.7873 74.1536 86.0243 74.0451 87.2396 74.2188L105.208 77.8646C106.424 78.2118 107.422 78.8411 108.203 79.7526C108.984 80.6641 109.375 81.684 109.375 82.8125V103.906C109.375 105.469 108.854 106.771 107.813 107.813C106.771 108.854 105.469 109.375 103.906 109.375ZM31.3802 46.875L39.974 38.2812L37.7604 26.0417H26.1719C26.6059 29.6007 27.2135 33.1163 27.9948 36.5885C28.776 40.0608 29.9045 43.4896 31.3802 46.875ZM77.9948 93.4896C81.3802 94.9653 84.8307 96.1372 88.3464 97.0052C91.862 97.8733 95.3993 98.4375 98.9583 98.6979V87.2396L86.7188 84.7656L77.9948 93.4896Z" fill="#004DD6"/>
</g>
</svg>
