<svg width="117" height="117" viewBox="0 0 117 117" fill="none" xmlns="http://www.w3.org/2000/svg">
<mask id="mask0_772_5290" style="mask-type:alpha" maskUnits="userSpaceOnUse" x="0" y="0" width="117" height="117">
<rect width="117" height="117" fill="#D9D9D9"/>
</mask>
<g mask="url(#mask0_772_5290)">
<path d="M58.5 58.5C61.1813 58.5 63.4766 57.5453 65.3859 55.6359C67.2953 53.7266 68.25 51.4313 68.25 48.75C68.25 46.0687 67.2953 43.7734 65.3859 41.8641C63.4766 39.9547 61.1813 39 58.5 39C55.8187 39 53.5234 39.9547 51.6141 41.8641C49.7047 43.7734 48.75 46.0687 48.75 48.75C48.75 51.4313 49.7047 53.7266 51.6141 55.6359C53.5234 57.5453 55.8187 58.5 58.5 58.5ZM58.5 94.3313C68.4125 85.2313 75.7656 76.9641 80.5594 69.5297C85.3531 62.0953 87.75 55.4937 87.75 49.725C87.75 40.8687 84.9266 33.6172 79.2797 27.9703C73.6328 22.3234 66.7062 19.5 58.5 19.5C50.2937 19.5 43.3672 22.3234 37.7203 27.9703C32.0734 33.6172 29.25 40.8687 29.25 49.725C29.25 55.4937 31.6469 62.0953 36.4406 69.5297C41.2344 76.9641 48.5875 85.2313 58.5 94.3313ZM58.5 107.25C45.4187 96.1188 35.6484 85.7797 29.1891 76.2328C22.7297 66.6859 19.5 57.85 19.5 49.725C19.5 37.5375 23.4203 27.8281 31.2609 20.5969C39.1016 13.3656 48.1812 9.75 58.5 9.75C68.8187 9.75 77.8984 13.3656 85.7391 20.5969C93.5797 27.8281 97.5 37.5375 97.5 49.725C97.5 57.85 94.2703 66.6859 87.8109 76.2328C81.3516 85.7797 71.5812 96.1188 58.5 107.25Z" fill="#004DD6"/>
</g>
</svg>
