<svg width="134" height="134" viewBox="0 0 134 134" fill="none" xmlns="http://www.w3.org/2000/svg">
<mask id="mask0_772_5284" style="mask-type:alpha" maskUnits="userSpaceOnUse" x="0" y="0" width="134" height="134">
<rect width="133.622" height="133.622" fill="#D9D9D9"/>
</mask>
<g mask="url(#mask0_772_5284)">
<path d="M22.2704 111.351C19.2082 111.351 16.5868 110.261 14.4062 108.08C12.2256 105.9 11.1353 103.278 11.1353 100.216V33.4054C11.1353 30.3432 12.2256 27.7218 14.4062 25.5412C16.5868 23.3606 19.2082 22.2703 22.2704 22.2703H111.351C114.414 22.2703 117.035 23.3606 119.216 25.5412C121.396 27.7218 122.487 30.3432 122.487 33.4054V100.216C122.487 103.278 121.396 105.9 119.216 108.08C117.035 110.261 114.414 111.351 111.351 111.351H22.2704ZM66.8109 72.3784L22.2704 44.5405V100.216H111.351V44.5405L66.8109 72.3784ZM66.8109 61.2432L111.351 33.4054H22.2704L66.8109 61.2432ZM22.2704 44.5405V33.4054V100.216V44.5405Z" fill="#004DD6"/>
</g>
</svg>
