<svg width="479" height="479" viewBox="0 0 479 479" fill="none" xmlns="http://www.w3.org/2000/svg">
<path d="M479 366.339H0V366.579H479V366.339Z" fill="#EBEBEB"/>
<path d="M431.004 381.753H399.275V381.993H431.004V381.753Z" fill="#EBEBEB"/>
<path d="M317.309 384.359H308.984V384.599H317.309V384.359Z" fill="#EBEBEB"/>
<path d="M398.317 372.863H379.933V373.103H398.317V372.863Z" fill="#EBEBEB"/>
<path d="M91.6327 374.473H50.2567V374.712H91.6327V374.473Z" fill="#EBEBEB"/>
<path d="M106.233 374.473H100.168V374.712H106.233V374.473Z" fill="#EBEBEB"/>
<path d="M215.694 378.515H125.948V378.755H215.694V378.515Z" fill="#EBEBEB"/>
<path d="M227.046 323.612H42.0658C40.6166 323.61 39.2277 323.032 38.204 322.007C37.1802 320.981 36.6052 319.591 36.6052 318.142V58.1123C36.6178 56.6715 37.1984 55.2938 38.2208 54.2786C39.2432 53.2633 40.6249 52.6925 42.0658 52.69H227.046C228.497 52.69 229.888 53.2663 230.914 54.2922C231.94 55.318 232.516 56.7094 232.516 58.1602V318.142C232.516 319.593 231.94 320.984 230.914 322.01C229.888 323.036 228.497 323.612 227.046 323.612ZM42.0658 52.8816C40.6802 52.8841 39.3522 53.4363 38.3733 54.417C37.3944 55.3977 36.8447 56.7267 36.8447 58.1123V318.142C36.8447 319.528 37.3944 320.857 38.3733 321.837C39.3522 322.818 40.6802 323.37 42.0658 323.373H227.046C228.432 323.37 229.761 322.818 230.742 321.838C231.722 320.858 232.274 319.529 232.277 318.142V58.1123C232.274 56.7258 231.722 55.3968 230.742 54.4164C229.761 53.436 228.432 52.8841 227.046 52.8816H42.0658Z" fill="#EBEBEB"/>
<path d="M434.271 323.612H249.281C247.831 323.61 246.441 323.033 245.416 322.007C244.391 320.982 243.814 319.592 243.811 318.142V58.1123C243.826 56.6706 244.409 55.293 245.433 54.278C246.457 53.263 247.839 52.6924 249.281 52.69H434.271C435.71 52.695 437.089 53.267 438.11 54.2819C439.13 55.2969 439.709 56.6731 439.722 58.1123V318.142C439.722 319.59 439.148 320.978 438.127 322.003C437.105 323.029 435.718 323.607 434.271 323.612ZM249.281 52.8816C247.895 52.8841 246.566 53.436 245.585 54.4164C244.605 55.3968 244.053 56.7258 244.05 58.1123V318.142C244.053 319.529 244.605 320.858 245.585 321.838C246.566 322.818 247.895 323.37 249.281 323.373H434.271C435.657 323.37 436.986 322.818 437.967 321.838C438.947 320.858 439.499 319.529 439.502 318.142V58.1123C439.499 56.7258 438.947 55.3968 437.967 54.4164C436.986 53.436 435.657 52.8841 434.271 52.8816H249.281Z" fill="#EBEBEB"/>
<path d="M201.784 103.186H54.97V224.201H201.784V103.186Z" fill="#EBEBEB"/>
<path d="M83.9112 115.046H64.8566V134.101H83.9112V115.046Z" fill="#F5F5F5"/>
<path d="M193.641 164.067H174.586V183.122H193.641V164.067Z" fill="#F5F5F5"/>
<path d="M107.507 125.086H88.4521V144.141H107.507V125.086Z" fill="#F5F5F5"/>
<path d="M172.153 170.064H153.098V189.119H172.153V170.064Z" fill="#F5F5F5"/>
<path d="M97.9747 170.505H70.5471V206.947H97.9747V170.505Z" fill="#F5F5F5"/>
<path d="M129.292 170.783H101.864V207.225H129.292V170.783Z" fill="#F5F5F5"/>
<path d="M184.108 116.397H156.681V152.839H184.108V116.397Z" fill="#F5F5F5"/>
<path d="M430.228 77.0807H332.78V281.393H430.228V77.0807Z" fill="#EBEBEB"/>
<path d="M432.48 74.4174H330.529V84.0357H432.48V74.4174Z" fill="#E0E0E0"/>
<path d="M432.48 87.9731H330.529V92.7823H432.48V87.9731Z" fill="#E0E0E0"/>
<path d="M432.48 95.1102H330.529V99.9194H432.48V95.1102Z" fill="#E0E0E0"/>
<path d="M432.48 102.247H330.529V107.057H432.48V102.247Z" fill="#E0E0E0"/>
<path d="M432.48 109.384H330.529V114.194H432.48V109.384Z" fill="#E0E0E0"/>
<path d="M432.48 116.512H330.529V121.321H432.48V116.512Z" fill="#E0E0E0"/>
<path d="M432.48 123.649H330.529V128.458H432.48V123.649Z" fill="#E0E0E0"/>
<path d="M432.48 130.786H330.529V135.595H432.48V130.786Z" fill="#E0E0E0"/>
<path d="M432.48 137.923H330.529V142.732H432.48V137.923Z" fill="#E0E0E0"/>
<path d="M432.48 145.06H330.529V149.87H432.48V145.06Z" fill="#E0E0E0"/>
<path d="M432.48 152.188H330.529V156.997H432.48V152.188Z" fill="#E0E0E0"/>
<path d="M432.48 159.325H330.529V164.134H432.48V159.325Z" fill="#E0E0E0"/>
<path d="M432.48 166.462H330.529V171.271H432.48V166.462Z" fill="#E0E0E0"/>
<path d="M432.48 173.599H330.529V178.408H432.48V173.599Z" fill="#E0E0E0"/>
<path d="M432.48 180.736H330.529V185.545H432.48V180.736Z" fill="#E0E0E0"/>
<path d="M432.48 187.873H330.529V192.683H432.48V187.873Z" fill="#E0E0E0"/>
<path d="M432.48 195.001H330.529V199.81H432.48V195.001Z" fill="#E0E0E0"/>
<path d="M432.48 202.138H330.529V206.947H432.48V202.138Z" fill="#E0E0E0"/>
<path d="M432.48 209.275H330.529V214.084H432.48V209.275Z" fill="#E0E0E0"/>
<path d="M432.48 216.412H330.529V221.221H432.48V216.412Z" fill="#E0E0E0"/>
<path d="M432.48 223.549H330.529V228.358H432.48V223.549Z" fill="#E0E0E0"/>
<path d="M432.48 230.677H330.529V235.486H432.48V230.677Z" fill="#E0E0E0"/>
<path d="M432.48 237.814H330.529V242.623H432.48V237.814Z" fill="#E0E0E0"/>
<path d="M432.48 244.951H330.529V249.76H432.48V244.951Z" fill="#E0E0E0"/>
<path d="M432.48 252.088H330.529V256.897H432.48V252.088Z" fill="#E0E0E0"/>
<path d="M432.48 259.225H330.529V264.034H432.48V259.225Z" fill="#E0E0E0"/>
<path d="M432.48 266.362H330.529V271.171H432.48V266.362Z" fill="#E0E0E0"/>
<path d="M432.48 273.49H330.529V278.299H432.48V273.49Z" fill="#E0E0E0"/>
<path d="M69.7136 335.568C69.5699 334.61 66.2169 311.455 72.9325 303.466C73.6064 302.619 74.4611 301.933 75.4341 301.459C76.4071 300.985 77.4737 300.735 78.556 300.726C92.1117 300.4 93.9702 311.264 93.9894 311.408L92.3895 311.657C92.3225 311.264 90.7226 302.077 78.5943 302.335C77.7487 302.349 76.9168 302.551 76.1594 302.928C75.402 303.304 74.7381 303.844 74.2162 304.51C67.9701 311.944 71.3422 335.099 71.3422 335.329L69.7136 335.568Z" fill="#EBEBEB"/>
<path d="M68.8898 334.514L67.2803 334.467C67.2803 334.256 67.8168 313.151 57.4129 308.792C47.2294 304.519 42.6406 313.295 42.449 313.678L41.0024 312.95C41.0599 312.844 46.4342 302.412 58.0452 307.298C69.4646 312.088 68.9185 333.604 68.8898 334.514Z" fill="#EBEBEB"/>
<path d="M68.976 336.172C68.976 335.836 68.8802 302.46 62.3754 292.698C56.1292 283.328 46.0894 287.735 45.6199 287.908L44.9493 286.432C45.0739 286.375 56.704 281.24 63.7166 291.778C70.4992 301.942 70.595 334.754 70.595 336.143L68.976 336.172Z" fill="#EBEBEB"/>
<path d="M80.472 301.521C80.472 301.521 74.5324 303.686 76.2855 308.859C78.0387 314.032 96.758 322.492 96.758 322.492C96.758 322.492 104.594 315.307 97.3999 303.619C90.2053 291.931 80.6061 297.833 80.472 301.521Z" fill="#E0E0E0"/>
<path d="M62.0401 290.945C62.0401 290.945 66.2457 290.494 65.8721 287.927C65.4985 285.359 49.5669 278.778 40.1306 289.441C40.1306 289.441 46.1756 299.816 54.9126 299.979C63.6495 300.141 62.0401 290.945 62.0401 290.945Z" fill="#E0E0E0"/>
<path d="M57.7291 308.045C57.7291 308.045 60.6031 305.698 57.4992 304.558C54.3953 303.418 39.0098 303.743 38.8469 318.928C38.8469 318.928 56.7424 321.898 58.9649 316.102C61.1875 310.306 57.7291 308.045 57.7291 308.045Z" fill="#E0E0E0"/>
<path d="M83.6334 366.569H55.8706L52.872 336.172H86.6223L83.6334 366.569Z" fill="#EBEBEB"/>
<path d="M88.1073 332.819H51.3967V339.525H88.1073V332.819Z" fill="#E0E0E0"/>
<path d="M415.964 339.046C415.964 339.046 410.551 327.234 416.73 315.594C422.909 303.954 424.71 301.224 420.763 298.829C416.816 296.434 415.015 308.141 415.015 308.141C415.015 308.141 411.691 300.094 414.44 291.673C417.19 283.252 418.905 269.533 415.149 268.068C411.394 266.602 414.44 285.177 411.183 291.51C409.527 287.063 408.458 282.419 408.003 277.695C407.562 270.932 408.261 260.126 405.301 257.357C402.341 254.589 400.444 256.505 403.385 271.43C405.127 280.351 406.088 289.406 406.259 298.494C406.259 298.494 399.84 278.912 395.529 278.376C391.218 277.839 391.218 284.124 394.916 289.651C398.614 295.179 405.713 304.979 406.882 310.076C406.882 310.076 399.831 295.332 393.47 299.854C387.109 304.376 398.997 313.266 404.276 316.485C409.555 319.704 413.233 339.86 413.233 339.86L415.964 339.046Z" fill="#E0E0E0"/>
<path d="M411.691 343.922C411.691 343.922 416.96 332.033 410.637 320.489C404.314 308.945 402.485 306.225 406.403 303.782C410.321 301.339 412.266 313.007 412.266 313.007C412.266 313.007 415.485 304.912 412.639 296.539C409.794 288.166 407.916 274.505 411.681 272.934C415.446 271.363 412.639 290.034 415.925 296.319C417.527 291.848 418.542 287.189 418.943 282.457C419.307 275.693 418.483 264.906 421.405 262.09C424.327 259.273 426.243 261.132 423.522 276.134C421.88 285.076 421.021 294.144 420.955 303.236C420.955 303.236 427.143 283.558 431.445 282.926C435.746 282.294 435.823 288.626 432.202 294.183C428.58 299.739 421.577 309.693 420.476 314.78C420.476 314.78 427.345 299.94 433.735 304.366C440.124 308.792 428.379 317.864 423.129 321.16C417.88 324.455 414.46 344.66 414.46 344.66L411.691 343.922Z" fill="#EBEBEB"/>
<path d="M435.995 335.415H392.464L395.98 366.569H432.47L435.995 335.415Z" fill="#EBEBEB"/>
<path d="M320.834 335.185L317.96 334.773C318.478 331.19 321.466 324.417 329.13 324.417C338.212 324.417 342.725 329.657 343.184 334.85L340.31 335.099C339.965 331.209 336.383 327.291 329.121 327.291C322.089 327.291 320.93 334.859 320.834 335.185Z" fill="#E0E0E0"/>
<path d="M354.46 332.656H307.777C305.221 332.656 303.15 334.728 303.15 337.283V361.425C303.15 363.98 305.221 366.052 307.777 366.052H354.46C357.015 366.052 359.087 363.98 359.087 361.425V337.283C359.087 334.728 357.015 332.656 354.46 332.656Z" fill="#EBEBEB"/>
<path d="M343.213 366.569C303.686 366.569 301.77 339.448 301.77 339.132L303.379 335.99C303.437 336.996 306.55 363.657 343.261 363.657C358.359 363.657 371.407 363.657 372.729 360.783C373.888 358.235 368.217 351.72 359.145 341.268V337.264C370.708 350.58 377.27 357.746 375.344 361.971C373.285 366.387 364.548 366.569 343.213 366.569Z" fill="#E0E0E0"/>
<path d="M239.5 409.602C342.085 409.602 425.247 404.747 425.247 398.758C425.247 392.769 342.085 387.913 239.5 387.913C136.915 387.913 53.7534 392.769 53.7534 398.758C53.7534 404.747 136.915 409.602 239.5 409.602Z" fill="#F5F5F5"/>
<path d="M318.746 88.2126C320.016 88.2126 321.234 88.7173 322.133 89.6156C323.031 90.5139 323.536 91.7322 323.536 93.0026V249.377C323.536 250.647 323.031 251.866 322.133 252.764C321.234 253.662 320.016 254.167 318.746 254.167H108.781C107.511 254.167 106.292 253.662 105.394 252.764C104.496 251.866 103.991 250.647 103.991 249.377V92.926C103.991 91.6556 104.496 90.4372 105.394 89.5389C106.292 88.6406 107.511 88.136 108.781 88.136H318.746M318.746 86.9385H108.781C107.996 86.9385 107.22 87.0936 106.495 87.395C105.771 87.6963 105.114 88.138 104.561 88.6945C104.008 89.251 103.57 89.9113 103.274 90.6376C102.977 91.3638 102.827 92.1415 102.832 92.926V249.377C102.832 250.955 103.459 252.468 104.574 253.584C105.69 254.699 107.203 255.326 108.781 255.326H318.746C320.324 255.326 321.837 254.699 322.952 253.584C324.068 252.468 324.695 250.955 324.695 249.377V92.926C324.695 91.3482 324.068 89.835 322.952 88.7193C321.837 87.6036 320.324 86.9768 318.746 86.9768V86.9385Z" fill="#0149AD"/>
<path opacity="0.7" d="M318.746 87.015H108.781C105.495 87.015 102.832 89.6785 102.832 92.9641V249.377C102.832 252.662 105.495 255.326 108.781 255.326H318.746C322.031 255.326 324.695 252.662 324.695 249.377V92.9641C324.695 89.6785 322.031 87.015 318.746 87.015Z" fill="white"/>
<path d="M299.94 104.47H297.191V106.759H299.94V104.47Z" fill="#0149AD"/>
<path d="M299.931 232.794H297.191V228.291H299.931V232.794ZM299.931 223.789H297.191V219.286H299.931V223.789ZM299.931 214.793H297.191V210.291H299.931V214.793ZM299.931 205.788H297.191V201.295H299.931V205.788ZM299.931 196.792H297.191V192.29H299.931V196.792ZM299.931 187.787H297.191V183.294H299.931V187.787ZM299.931 178.792H297.191V174.289H299.931V178.792ZM299.931 169.796H297.191V165.293H299.931V169.796ZM299.931 160.791H297.191V156.288H299.931V160.791ZM299.931 151.795H297.191V147.292H299.931V151.795ZM299.931 142.79H297.191V138.297H299.931V142.79ZM299.931 133.794H297.191V129.292H299.931V133.794ZM299.931 124.789H297.191V120.296H299.931V124.789ZM299.931 115.793H297.191V111.291H299.931V115.793Z" fill="#0149AD"/>
<path d="M299.94 237.249H297.191V239.538H299.94V237.249Z" fill="#0149AD"/>
<path d="M133.871 232.794H131.121V228.291H133.871V232.794Z" fill="#0149AD"/>
<path d="M133.871 237.249H131.121V239.538H133.871V237.249Z" fill="#0149AD"/>
<path d="M167.085 232.794H164.335V228.291H167.085V232.794ZM167.085 223.789H164.335V219.286H167.085V223.789ZM167.085 214.793H164.335V210.291H167.085V214.793ZM167.085 205.788H164.335V201.295H167.085V205.788Z" fill="#0149AD"/>
<path d="M167.085 237.249H164.335V239.538H167.085V237.249Z" fill="#0149AD"/>
<path d="M200.299 232.794H197.549V228.291H200.299V232.794ZM200.299 223.789H197.549V219.286H200.299V223.789ZM200.299 214.793H197.549V210.291H200.299V214.793ZM200.299 205.788H197.549V201.295H200.299V205.788ZM200.299 196.792H197.549V192.29H200.299V196.792Z" fill="#0149AD"/>
<path d="M200.299 237.249H197.549V239.538H200.299V237.249Z" fill="#0149AD"/>
<path d="M233.513 232.794H230.763V228.291H233.513V232.794ZM233.513 223.789H230.763V219.286H233.513V223.789ZM233.513 214.793H230.763V210.291H233.513V214.793ZM233.513 205.788H230.763V201.295H233.513V205.788ZM233.513 196.792H230.763V192.29H233.513V196.792ZM233.513 187.787H230.763V183.294H233.513V187.787ZM233.513 178.792H230.763V174.289H233.513V178.792ZM233.513 169.796H230.763V165.293H233.513V169.796Z" fill="#0149AD"/>
<path d="M233.513 237.249H230.763V239.538H233.513V237.249Z" fill="#0149AD"/>
<path d="M266.726 232.794H263.977V228.291H266.726V232.794ZM266.726 223.789H263.977V219.286H266.726V223.789ZM266.726 214.793H263.977V210.291H266.726V214.793ZM266.726 205.788H263.977V201.295H266.726V205.788ZM266.726 196.792H263.977V192.29H266.726V196.792ZM266.726 187.787H263.977V183.294H266.726V187.787ZM266.726 178.792H263.977V174.289H266.726V178.792ZM266.726 169.796H263.977V165.293H266.726V169.796ZM266.726 160.791H263.977V156.288H266.726V160.791ZM266.726 151.795H263.977V147.292H266.726V151.795Z" fill="#0149AD"/>
<path d="M266.726 237.249H263.977V239.538H266.726V237.249Z" fill="#0149AD"/>
<g opacity="0.7">
<path d="M299.94 104.47H297.191V106.759H299.94V104.47Z" fill="white"/>
<path d="M299.931 232.794H297.191V228.291H299.931V232.794ZM299.931 223.789H297.191V219.286H299.931V223.789ZM299.931 214.793H297.191V210.291H299.931V214.793ZM299.931 205.788H297.191V201.295H299.931V205.788ZM299.931 196.792H297.191V192.29H299.931V196.792ZM299.931 187.787H297.191V183.294H299.931V187.787ZM299.931 178.792H297.191V174.289H299.931V178.792ZM299.931 169.796H297.191V165.293H299.931V169.796ZM299.931 160.791H297.191V156.288H299.931V160.791ZM299.931 151.795H297.191V147.292H299.931V151.795ZM299.931 142.79H297.191V138.297H299.931V142.79ZM299.931 133.794H297.191V129.292H299.931V133.794ZM299.931 124.789H297.191V120.296H299.931V124.789ZM299.931 115.793H297.191V111.291H299.931V115.793Z" fill="white"/>
<path d="M299.94 237.249H297.191V239.538H299.94V237.249Z" fill="white"/>
<path d="M133.871 232.794H131.121V228.291H133.871V232.794Z" fill="white"/>
<path d="M133.871 237.249H131.121V239.538H133.871V237.249Z" fill="white"/>
<path d="M167.085 232.794H164.335V228.291H167.085V232.794ZM167.085 223.789H164.335V219.286H167.085V223.789ZM167.085 214.793H164.335V210.291H167.085V214.793ZM167.085 205.788H164.335V201.295H167.085V205.788Z" fill="white"/>
<path d="M167.085 237.249H164.335V239.538H167.085V237.249Z" fill="white"/>
<path d="M200.299 232.794H197.549V228.291H200.299V232.794ZM200.299 223.789H197.549V219.286H200.299V223.789ZM200.299 214.793H197.549V210.291H200.299V214.793ZM200.299 205.788H197.549V201.295H200.299V205.788ZM200.299 196.792H197.549V192.29H200.299V196.792Z" fill="white"/>
<path d="M200.299 237.249H197.549V239.538H200.299V237.249Z" fill="white"/>
<path d="M233.513 232.794H230.763V228.291H233.513V232.794ZM233.513 223.789H230.763V219.286H233.513V223.789ZM233.513 214.793H230.763V210.291H233.513V214.793ZM233.513 205.788H230.763V201.295H233.513V205.788ZM233.513 196.792H230.763V192.29H233.513V196.792ZM233.513 187.787H230.763V183.294H233.513V187.787ZM233.513 178.792H230.763V174.289H233.513V178.792ZM233.513 169.796H230.763V165.293H233.513V169.796Z" fill="white"/>
<path d="M233.513 237.249H230.763V239.538H233.513V237.249Z" fill="white"/>
<path d="M266.726 232.794H263.977V228.291H266.726V232.794ZM266.726 223.789H263.977V219.286H266.726V223.789ZM266.726 214.793H263.977V210.29H266.726V214.793ZM266.726 205.788H263.977V201.295H266.726V205.788ZM266.726 196.792H263.977V192.29H266.726V196.792ZM266.726 187.787H263.977V183.294H266.726V187.787ZM266.726 178.791H263.977V174.289H266.726V178.791ZM266.726 169.796H263.977V165.293H266.726V169.796ZM266.726 160.791H263.977V156.288H266.726V160.791ZM266.726 151.795H263.977V147.292H266.726V151.795Z" fill="white"/>
<path d="M266.726 237.249H263.977V239.538H266.726V237.249Z" fill="white"/>
</g>
<path d="M298.561 99.8715C297.793 99.8717 297.038 100.064 296.364 100.432C295.691 100.8 295.12 101.33 294.704 101.976C294.289 102.621 294.042 103.36 293.986 104.126C293.93 104.891 294.067 105.658 294.384 106.357L266.975 135.346C266.281 135.075 265.53 134.977 264.789 135.062C264.048 135.146 263.339 135.411 262.723 135.832C262.107 136.253 261.604 136.818 261.257 137.478C260.909 138.138 260.728 138.873 260.729 139.619C260.719 139.772 260.719 139.926 260.729 140.079L234.94 153.893C234.135 153.216 233.118 152.84 232.066 152.83C230.85 152.832 229.684 153.317 228.824 154.177C227.964 155.037 227.48 156.202 227.477 157.419C227.486 157.85 227.553 158.279 227.678 158.693L201.055 179.903C200.379 179.513 199.614 179.305 198.833 179.299C197.713 179.303 196.633 179.716 195.797 180.461C194.96 181.205 194.425 182.23 194.292 183.342L169.202 190.22C168.621 189.46 167.815 188.901 166.899 188.622C165.982 188.344 165.002 188.361 164.096 188.67C163.19 188.979 162.403 189.565 161.848 190.345C161.293 191.125 160.997 192.06 161.001 193.018C161.005 193.45 161.073 193.879 161.203 194.292L134.58 215.55C133.904 215.159 133.138 214.951 132.357 214.946C131.447 214.945 130.557 215.213 129.799 215.717C129.041 216.222 128.45 216.94 128.101 217.781C127.752 218.621 127.66 219.547 127.837 220.44C128.014 221.332 128.453 222.153 129.096 222.796C129.74 223.44 130.56 223.878 131.453 224.055C132.346 224.232 133.271 224.141 134.112 223.791C134.953 223.442 135.671 222.851 136.175 222.094C136.68 221.336 136.948 220.446 136.946 219.535C136.938 219.103 136.87 218.675 136.745 218.261L163.377 197.051C164.053 197.442 164.819 197.65 165.6 197.655C166.717 197.649 167.793 197.236 168.627 196.493C169.461 195.751 169.996 194.73 170.131 193.621L195.221 186.733C195.801 187.498 196.608 188.061 197.526 188.341C198.444 188.622 199.427 188.606 200.336 188.297C201.244 187.987 202.032 187.399 202.588 186.617C203.144 185.834 203.439 184.896 203.431 183.936C203.423 183.504 203.355 183.075 203.23 182.662L229.853 161.452C230.529 161.842 231.295 162.05 232.076 162.055C233.293 162.055 234.462 161.572 235.324 160.712C236.186 159.851 236.671 158.684 236.674 157.466C236.674 157.304 236.674 157.16 236.626 156.997L262.415 143.192C263.211 143.855 264.209 144.228 265.244 144.249C266.28 144.271 267.292 143.94 268.115 143.311C268.938 142.682 269.523 141.792 269.773 140.787C270.024 139.782 269.926 138.721 269.495 137.78L296.913 108.781C297.437 108.992 297.996 109.103 298.561 109.107C299.743 109.053 300.858 108.545 301.676 107.689C302.493 106.834 302.949 105.696 302.949 104.513C302.949 103.33 302.493 102.192 301.676 101.336C300.858 100.481 299.743 99.9734 298.561 99.9194V99.8715Z" fill="#0149AD"/>
<path d="M193.372 174.155C193.116 174.154 192.866 174.226 192.65 174.364C192.434 174.501 192.262 174.698 192.156 174.931H164.987C164.512 174.931 164.056 174.742 163.72 174.406C163.384 174.07 163.195 173.614 163.195 173.139V144.658H162.046V173.158C162.048 173.937 162.359 174.682 162.911 175.232C163.462 175.781 164.208 176.09 164.987 176.09H192.156C192.258 176.307 192.417 176.492 192.616 176.626C192.815 176.76 193.046 176.839 193.285 176.854C193.524 176.869 193.763 176.819 193.977 176.71C194.191 176.601 194.371 176.437 194.5 176.234C194.628 176.032 194.7 175.798 194.708 175.559C194.716 175.319 194.659 175.082 194.544 174.871C194.429 174.661 194.259 174.485 194.053 174.363C193.847 174.24 193.612 174.175 193.372 174.174V174.155Z" fill="#0149AD"/>
<path d="M178.562 136.716H146.67C145.299 136.716 144.189 137.827 144.189 139.197V148.212C144.189 149.583 145.299 150.693 146.67 150.693H178.562C179.932 150.693 181.043 149.583 181.043 148.212V139.197C181.043 137.827 179.932 136.716 178.562 136.716Z" fill="#0149AD"/>
<g opacity="0.4">
<path d="M193.372 174.155C193.116 174.154 192.866 174.226 192.65 174.364C192.434 174.501 192.262 174.698 192.156 174.931H164.987C164.512 174.931 164.056 174.742 163.72 174.406C163.384 174.07 163.195 173.614 163.195 173.139V144.658H162.046V173.159C162.048 173.937 162.359 174.682 162.911 175.232C163.462 175.781 164.208 176.09 164.987 176.09H192.156C192.258 176.307 192.417 176.492 192.616 176.626C192.815 176.761 193.046 176.839 193.285 176.854C193.524 176.869 193.763 176.819 193.977 176.71C194.191 176.601 194.371 176.437 194.5 176.234C194.628 176.032 194.7 175.798 194.708 175.559C194.716 175.319 194.659 175.082 194.544 174.871C194.429 174.661 194.259 174.485 194.053 174.363C193.847 174.24 193.612 174.175 193.372 174.174V174.155Z" fill="white"/>
<path d="M178.562 136.716H146.67C145.299 136.716 144.189 137.827 144.189 139.197V148.212C144.189 149.583 145.299 150.693 146.67 150.693H178.562C179.932 150.693 181.043 149.583 181.043 148.212V139.197C181.043 137.827 179.932 136.716 178.562 136.716Z" fill="white"/>
</g>
<path d="M232.65 145.204V104.135H231.51V145.204C231.231 145.334 231.005 145.555 230.869 145.831C230.733 146.106 230.695 146.42 230.761 146.721C230.828 147.021 230.995 147.289 231.235 147.482C231.474 147.675 231.773 147.779 232.08 147.779C232.388 147.779 232.686 147.675 232.926 147.482C233.166 147.289 233.333 147.021 233.399 146.721C233.466 146.42 233.428 146.106 233.291 145.831C233.155 145.555 232.929 145.334 232.65 145.204Z" fill="#0149AD"/>
<path d="M248.026 97.1412H216.134C214.764 97.1412 213.653 98.2521 213.653 99.6224V108.637C213.653 110.008 214.764 111.118 216.134 111.118H248.026C249.397 111.118 250.507 110.008 250.507 108.637V99.6224C250.507 98.2521 249.397 97.1412 248.026 97.1412Z" fill="#0149AD"/>
<g opacity="0.4">
<path d="M232.65 145.204V104.135H231.51V145.204C231.231 145.334 231.005 145.555 230.869 145.831C230.733 146.106 230.695 146.42 230.761 146.721C230.828 147.021 230.995 147.289 231.235 147.482C231.474 147.675 231.773 147.779 232.08 147.779C232.388 147.779 232.686 147.675 232.926 147.482C233.166 147.289 233.333 147.021 233.399 146.721C233.466 146.42 233.428 146.106 233.291 145.831C233.155 145.555 232.929 145.334 232.65 145.204Z" fill="white"/>
<path d="M248.026 97.1412H216.134C214.764 97.1412 213.653 98.2521 213.653 99.6224V108.637C213.653 110.008 214.764 111.118 216.134 111.118H248.026C249.397 111.118 250.507 110.008 250.507 108.637V99.6224C250.507 98.2521 249.397 97.1412 248.026 97.1412Z" fill="white"/>
</g>
<path d="M308.965 245.555H119.453C119.453 244.593 119.834 243.671 120.513 242.991C121.192 242.31 122.113 241.926 123.074 241.924H305.334C306.297 241.924 307.22 242.306 307.901 242.987C308.582 243.668 308.965 244.592 308.965 245.555Z" fill="#0149AD"/>
<path opacity="0.4" d="M308.965 245.555H119.453C119.453 244.593 119.834 243.671 120.513 242.991C121.192 242.31 122.113 241.926 123.074 241.924H305.334C306.297 241.924 307.22 242.306 307.901 242.987C308.582 243.668 308.965 244.592 308.965 245.555Z" fill="white"/>
<path opacity="0.2" d="M165.6 196.304C167.415 196.304 168.886 194.833 168.886 193.018C168.886 191.203 167.415 189.732 165.6 189.732C163.785 189.732 162.314 191.203 162.314 193.018C162.314 194.833 163.785 196.304 165.6 196.304Z" fill="white"/>
<path opacity="0.4" d="M198.842 187.184C200.657 187.184 202.128 185.712 202.128 183.898C202.128 182.083 200.657 180.612 198.842 180.612C197.028 180.612 195.557 182.083 195.557 183.898C195.557 185.712 197.028 187.184 198.842 187.184Z" fill="white"/>
<path opacity="0.6" d="M232.075 160.704C233.89 160.704 235.361 159.233 235.361 157.419C235.361 155.604 233.89 154.133 232.075 154.133C230.261 154.133 228.79 155.604 228.79 157.419C228.79 159.233 230.261 160.704 232.075 160.704Z" fill="white"/>
<path opacity="0.8" d="M265.318 142.905C267.133 142.905 268.604 141.434 268.604 139.619C268.604 137.804 267.133 136.333 265.318 136.333C263.503 136.333 262.032 137.804 262.032 139.619C262.032 141.434 263.503 142.905 265.318 142.905Z" fill="white"/>
<path d="M298.561 107.756C300.375 107.756 301.847 106.285 301.847 104.47C301.847 102.655 300.375 101.184 298.561 101.184C296.746 101.184 295.275 102.655 295.275 104.47C295.275 106.285 296.746 107.756 298.561 107.756Z" fill="white"/>
<path d="M414.68 242.374L418.761 253.104C418.761 253.104 423.436 255.738 423.79 256.485C424.145 257.233 425.18 266.372 424.442 267.34C423.704 268.307 414.182 265.788 414.163 264.791C414.143 263.795 413.693 255.633 413.693 255.633L408.213 243.907L414.68 242.374Z" fill="#E4897B"/>
<path d="M394.936 157.716C402.034 161.969 402.791 200.605 403.931 204.217C405.071 207.829 419.106 247.614 419.106 247.614L409.238 251.446C409.238 251.446 395.204 221.892 392.176 213.529C389.149 205.165 387.118 186.226 387.118 186.226L394.936 157.716Z" fill="#0149AD"/>
<path opacity="0.2" d="M394.936 157.716C402.034 161.969 402.791 200.605 403.931 204.217C405.071 207.829 419.106 247.614 419.106 247.614L409.238 251.446C409.238 251.446 395.204 221.892 392.176 213.529C389.149 205.165 387.118 186.226 387.118 186.226L394.936 157.716Z" fill="black"/>
<path d="M385.279 152.676C374.588 146.804 360.773 148.04 360.773 148.04L348.453 165.456L331.066 227.621L333.623 229.949L334.716 225.015L381.993 229.805L382.788 236.243L385.509 234.911L387.118 158.492L385.279 152.676Z" fill="#0149AD"/>
<path opacity="0.4" d="M385.279 152.676C374.588 146.804 360.773 148.04 360.773 148.04L348.453 165.456L331.066 227.621L333.623 229.949L334.716 225.015L381.993 229.805L382.788 236.243L385.509 234.911L387.118 158.492L385.279 152.676Z" fill="black"/>
<path d="M318.267 107.363L314.856 95.8C315.251 93.3609 315.453 90.8943 315.46 88.4234C315.259 86.3158 310.306 82.2827 308.754 80.8648C307.202 79.447 300.783 84.0454 301.09 85.0417C301.396 86.038 305.142 93.8457 306.33 94.7462L308.246 95.8288L311.206 110.39L318.267 107.363Z" fill="#E4897B"/>
<path d="M351.289 148.988C340.444 143.432 332.177 134.848 329.14 129.828C326.103 124.808 317.165 98.5495 317.165 98.5495L307.729 99.9865C307.729 99.9865 313.41 132.242 316.447 139.264C319.483 146.287 347.361 171.769 347.361 171.769L351.289 148.988Z" fill="#0149AD"/>
<path opacity="0.2" d="M351.289 148.988C340.444 143.432 332.177 134.848 329.14 129.828C326.103 124.808 317.165 98.5495 317.165 98.5495L307.729 99.9865C307.729 99.9865 313.41 132.242 316.447 139.264C319.483 146.287 347.361 171.769 347.361 171.769L351.289 148.988Z" fill="black"/>
<path d="M344.238 391.391L336.469 392.215L335.003 375.45L342.782 374.626L344.238 391.391Z" fill="#E4897B"/>
<path d="M383.018 390.826H375.488L374.865 373.381H382.405L383.018 390.826Z" fill="#E4897B"/>
<path d="M374.444 389.954H383.593C383.743 389.955 383.888 390.006 384.004 390.1C384.121 390.194 384.202 390.325 384.235 390.471L385.72 397.177C385.779 397.466 385.722 397.766 385.56 398.012C385.398 398.258 385.146 398.43 384.857 398.49C384.778 398.499 384.697 398.499 384.618 398.49C381.658 398.442 379.502 398.26 375.785 398.26C373.495 398.26 366.588 398.499 363.427 398.499C360.265 398.499 359.854 395.376 361.147 395.089C366.952 393.824 371.321 392.071 373.179 390.404C373.528 390.098 373.98 389.936 374.444 389.954Z" fill="#263238"/>
<path d="M371.953 391.276C371.441 391.316 370.931 391.181 370.507 390.893C370.367 390.779 370.259 390.631 370.194 390.463C370.128 390.295 370.107 390.113 370.133 389.935C370.129 389.831 370.156 389.728 370.211 389.639C370.265 389.551 370.345 389.48 370.439 389.437C371.273 389.006 373.706 390.5 373.974 390.672C374.004 390.689 374.029 390.715 374.044 390.745C374.059 390.776 374.065 390.811 374.061 390.845C374.056 390.881 374.041 390.915 374.017 390.942C373.993 390.969 373.962 390.989 373.927 390.998C373.281 391.162 372.619 391.255 371.953 391.276ZM370.832 389.714C370.752 389.705 370.672 389.722 370.602 389.762C370.554 389.762 370.497 389.829 370.487 389.973C370.472 390.091 370.486 390.212 370.528 390.324C370.57 390.435 370.638 390.535 370.727 390.615C371.572 390.998 372.53 391.046 373.409 390.749C372.626 390.24 371.75 389.888 370.832 389.714Z" fill="#0149AD"/>
<path d="M373.879 391.008H373.792C373.016 390.586 371.512 388.929 371.666 388.134C371.692 388.001 371.764 387.882 371.869 387.796C371.974 387.71 372.105 387.664 372.24 387.664C372.376 387.647 372.513 387.658 372.644 387.698C372.774 387.737 372.895 387.804 372.997 387.894C373.869 388.603 374.051 390.768 374.061 390.874C374.06 390.906 374.051 390.937 374.036 390.965C374.021 390.993 374 391.018 373.974 391.036C373.94 391.037 373.907 391.027 373.879 391.008ZM372.365 387.99H372.279C372.049 387.99 372.03 388.124 372.02 388.172C371.924 388.661 372.882 389.916 373.658 390.5C373.608 389.642 373.297 388.82 372.767 388.143C372.655 388.047 372.513 387.993 372.365 387.99Z" fill="#0149AD"/>
<path d="M335.645 389.714H344.794C344.944 389.715 345.089 389.767 345.205 389.861C345.322 389.955 345.403 390.086 345.436 390.232L346.921 396.938C346.98 397.226 346.923 397.526 346.761 397.772C346.599 398.018 346.347 398.19 346.058 398.25C345.979 398.26 345.898 398.26 345.819 398.25C342.859 398.202 340.703 398.02 336.986 398.02C334.696 398.02 327.789 398.26 324.628 398.26C321.466 398.26 321.055 395.137 322.348 394.849C328.153 393.585 332.522 391.832 334.38 390.165C334.729 389.858 335.181 389.697 335.645 389.714Z" fill="#263238"/>
<path d="M333.154 391.036C332.642 391.077 332.132 390.942 331.707 390.653C331.568 390.539 331.46 390.391 331.395 390.223C331.329 390.056 331.308 389.874 331.334 389.695C331.33 389.591 331.357 389.488 331.412 389.4C331.466 389.311 331.546 389.241 331.64 389.197C332.474 388.766 334.907 390.26 335.175 390.433C335.205 390.45 335.23 390.475 335.245 390.506C335.26 390.537 335.266 390.571 335.262 390.605C335.257 390.641 335.242 390.675 335.218 390.703C335.194 390.73 335.163 390.749 335.128 390.759C334.482 390.922 333.82 391.015 333.154 391.036ZM332.033 389.475C331.953 389.466 331.873 389.483 331.803 389.523C331.755 389.523 331.698 389.59 331.688 389.734C331.673 389.852 331.687 389.972 331.729 390.084C331.771 390.196 331.839 390.296 331.928 390.375C332.773 390.759 333.731 390.806 334.61 390.51C333.827 390 332.951 389.649 332.033 389.475Z" fill="#0149AD"/>
<path d="M335.08 390.768H334.993C334.217 390.347 332.713 388.689 332.867 387.894C332.893 387.762 332.965 387.642 333.07 387.557C333.175 387.471 333.306 387.424 333.441 387.425C333.577 387.407 333.714 387.418 333.845 387.458C333.975 387.498 334.096 387.565 334.198 387.655C335.07 388.364 335.252 390.529 335.262 390.634C335.261 390.666 335.252 390.697 335.237 390.725C335.222 390.754 335.201 390.778 335.175 390.797C335.141 390.798 335.108 390.788 335.08 390.768ZM333.566 387.712H333.48C333.25 387.712 333.231 387.846 333.221 387.894C333.125 388.383 334.083 389.638 334.859 390.222C334.809 389.364 334.498 388.542 333.968 387.865C333.856 387.77 333.714 387.715 333.566 387.712Z" fill="#0149AD"/>
<path opacity="0.2" d="M342.782 374.626L335.003 375.45L335.769 384.101L343.539 383.277L342.782 374.626Z" fill="black"/>
<path opacity="0.2" d="M382.405 373.39H374.865L375.191 382.386H382.731L382.405 373.39Z" fill="black"/>
<path d="M379.291 220.34H339.324C335.492 241.1 323.622 314.54 332.158 379.972L345.694 378.295C345.694 378.295 344.439 291.443 356.376 259.331C357.756 276.517 359.384 294.777 360.802 304.539C364.279 328.489 371.723 380.824 371.723 380.824H385.499C385.499 380.824 382.683 330.73 381.38 307.192C379.962 281.652 379.368 225.609 379.291 220.34Z" fill="#263238"/>
<path opacity="0.2" d="M356.376 259.331C354.409 264.96 352.916 270.744 351.912 276.623C350.791 261.295 355.265 245.114 355.265 245.114L356.376 259.331Z" fill="black"/>
<path d="M330.615 383.143L347.361 380.652L346.853 376.015L329.427 378.305L330.615 383.143Z" fill="#0149AD"/>
<path opacity="0.6" d="M330.615 383.143L347.361 380.652L346.853 376.015L329.427 378.305L330.615 383.143Z" fill="white"/>
<path d="M370.075 380.939H386.323V376.082L369.462 375.766L370.075 380.939Z" fill="#0149AD"/>
<path opacity="0.6" d="M370.075 380.939H386.323V376.082L369.462 375.766L370.075 380.939Z" fill="white"/>
<path d="M338.988 220.838H379.224V225.628L338.471 225.14L338.988 220.838Z" fill="#263238"/>
<path opacity="0.2" d="M338.988 220.838H379.224V225.628L338.471 225.14L338.988 220.838Z" fill="white"/>
<path d="M366.291 218.683H364.854V227.19H366.291V218.683Z" fill="#263238"/>
<path d="M345.934 218.683H344.497V227.19H345.934V218.683Z" fill="#263238"/>
<path d="M351.289 148.988C351.289 148.988 376.676 150.76 394.935 157.716C394.935 157.716 381.725 198.555 379.253 222.381L339.017 220.838C339.017 220.838 341.853 172.766 351.289 148.988Z" fill="#0149AD"/>
<path opacity="0.7" d="M394.936 157.716C394.936 157.716 392.301 165.859 389.188 176.981C388.028 181.12 386.792 185.67 385.595 190.393C382.817 201.372 380.23 213.165 379.272 222.4L339.036 220.857C339.036 220.857 341.91 172.785 351.337 149.007C351.289 148.988 376.676 150.761 394.936 157.716Z" fill="white"/>
<path d="M380.891 153.366C376.858 156.24 368.073 153.979 368.073 153.979C368.073 153.979 362.68 151.805 364.05 150.195C367.393 150.042 369.165 148.691 370.056 146.814C370.554 145.637 370.814 144.374 370.823 143.097C370.861 142.391 370.861 141.685 370.823 140.979L382.788 134.12C380.709 139.322 377.778 149.036 380.891 153.366Z" fill="#E4897B"/>
<path opacity="0.2" d="M379.627 138.996C378.42 145.559 372.758 146.756 370.047 146.814C370.544 145.637 370.804 144.374 370.813 143.097L379.627 138.996Z" fill="black"/>
<path d="M373.428 112.872C373.428 112.872 366.521 120.775 369.022 127.098C371.522 133.421 381.907 117.135 381.907 117.135L373.428 112.872Z" fill="#263238"/>
<path d="M378.075 142.656C376.182 143.476 374.073 143.652 372.07 143.157C370.068 142.662 368.283 141.524 366.991 139.916C365.277 137.872 364.41 135.25 364.567 132.587C364.582 132.215 364.62 131.844 364.682 131.476C365.803 124.674 371.033 114.855 378.927 114.95C380.674 114.955 382.391 115.408 383.913 116.265C385.435 117.122 386.712 118.356 387.621 119.848C388.53 121.339 389.041 123.039 389.106 124.785C389.171 126.531 388.786 128.264 387.99 129.819C384.656 136.515 383.037 140.606 378.075 142.656Z" fill="#E4897B"/>
<path d="M376.695 127.357C376.504 127.922 375.977 128.248 375.613 128.085C375.249 127.922 375.143 127.347 375.373 126.791C375.603 126.236 376.101 125.91 376.465 126.063C376.829 126.217 376.935 126.782 376.695 127.357Z" fill="#263238"/>
<path d="M370.372 124.693C370.171 125.259 369.644 125.575 369.28 125.421C368.916 125.268 368.811 124.684 369.041 124.128C369.271 123.572 369.769 123.247 370.133 123.4C370.497 123.553 370.593 124.157 370.372 124.693Z" fill="#263238"/>
<path d="M372.26 125.814C370.876 127.246 369.299 128.477 367.575 129.474C367.843 129.912 368.204 130.287 368.633 130.57C369.062 130.853 369.548 131.038 370.056 131.112L372.26 125.814Z" fill="#DE5753"/>
<path d="M379.521 126.13C379.459 126.115 379.402 126.083 379.356 126.037C379.31 125.991 379.278 125.934 379.263 125.872C379.163 125.434 378.962 125.026 378.675 124.68C378.389 124.334 378.026 124.059 377.615 123.879C377.526 123.849 377.453 123.784 377.411 123.7C377.37 123.615 377.364 123.518 377.395 123.429C377.427 123.341 377.492 123.27 377.576 123.229C377.659 123.188 377.756 123.18 377.845 123.208C378.368 123.423 378.832 123.76 379.198 124.192C379.563 124.624 379.819 125.138 379.943 125.69C379.957 125.734 379.963 125.781 379.959 125.828C379.954 125.875 379.94 125.92 379.918 125.962C379.896 126.003 379.865 126.039 379.828 126.068C379.791 126.097 379.749 126.118 379.703 126.13H379.521Z" fill="#263238"/>
<path d="M369.788 134.398C370.539 134.855 371.389 135.124 372.265 135.184C373.142 135.244 374.021 135.093 374.827 134.743C374.864 134.718 374.892 134.68 374.904 134.637C374.917 134.593 374.913 134.547 374.895 134.506C374.877 134.465 374.845 134.431 374.804 134.412C374.764 134.392 374.718 134.387 374.674 134.398C373.921 134.706 373.107 134.835 372.296 134.775C371.485 134.715 370.698 134.468 369.999 134.053C369.959 134.027 369.911 134.017 369.864 134.026C369.818 134.035 369.777 134.062 369.75 134.101C369.723 134.142 369.713 134.192 369.722 134.24C369.731 134.288 369.758 134.331 369.798 134.36L369.788 134.398Z" fill="#263238"/>
<path d="M368.571 121.369C368.5 121.363 368.431 121.34 368.37 121.302C368.304 121.234 368.267 121.143 368.267 121.048C368.267 120.953 368.304 120.862 368.37 120.794C368.785 120.408 369.289 120.128 369.836 119.98C370.383 119.831 370.959 119.818 371.512 119.942C371.602 119.966 371.679 120.025 371.725 120.106C371.772 120.187 371.785 120.283 371.761 120.373C371.733 120.462 371.671 120.536 371.589 120.58C371.507 120.625 371.411 120.636 371.321 120.612C370.88 120.53 370.426 120.552 369.995 120.677C369.564 120.802 369.168 121.026 368.84 121.331C368.757 121.374 368.662 121.388 368.571 121.369Z" fill="#263238"/>
<path d="M386.505 119.118L384.723 121.915C385.111 122.394 385.304 123.001 385.263 123.616C385.222 124.23 384.951 124.807 384.503 125.23C382.357 127.27 381.926 131.821 383.095 134.273C383.095 134.273 383.679 133.219 384.465 133.909C385.25 134.599 382.309 140.117 379.253 141.947C379.253 141.947 383.085 140.807 387.444 135.624C391.458 130.834 393.815 126.36 393.7 123.707L386.505 119.118Z" fill="#263238"/>
<path d="M388.574 136.726C387.873 137.338 387.057 137.806 386.174 138.102C385.291 138.398 384.359 138.516 383.43 138.45C380.949 138.268 380.556 135.844 381.945 133.938C383.2 132.252 386.017 130.259 388.162 131.409C390.308 132.558 390.299 135.183 388.574 136.726Z" fill="#E4897B"/>
<path d="M381.907 118.466C381.907 118.466 383.095 117.355 383.19 119.855C383.286 122.356 384.79 124.051 388.201 125.814C391.611 127.577 392.694 127.73 392.694 127.73C392.694 127.73 398.241 122.49 392.445 116.522C392.445 116.522 392.713 113.446 389.063 111.444C382.788 107.995 374.176 109.423 371.148 112.91C370.497 113.591 370.049 114.442 369.856 115.364C369.663 116.287 369.733 117.246 370.056 118.131C370.056 118.131 379.962 112.872 381.907 118.466Z" fill="#263238"/>
<path d="M379.751 148.969L368.648 152.494L368.476 148.605L364.433 149.515C363.729 149.675 363.099 150.067 362.645 150.628C362.192 151.19 361.94 151.888 361.932 152.609L361.875 156.844L366.291 155.062C366.291 155.062 359.71 170.505 358.848 192.424C358.848 192.424 361.358 168.8 368.179 155.656L369.798 158.635L383.21 154.018L379.751 148.969Z" fill="#0149AD"/>
<path opacity="0.6" d="M379.751 148.969L368.648 152.494L368.476 148.605L364.433 149.515C363.729 149.675 363.099 150.067 362.645 150.628C362.192 151.19 361.94 151.888 361.932 152.609L361.875 156.844L366.291 155.062C366.291 155.062 359.71 170.505 358.848 192.424C358.848 192.424 361.358 168.8 368.179 155.656L369.798 158.635L383.21 154.018L379.751 148.969Z" fill="white"/>
<path d="M357.324 220.005H349.881V225.37H357.324V220.005Z" fill="#0149AD"/>
<path opacity="0.4" d="M357.324 220.005H349.881V225.37H357.324V220.005Z" fill="white"/>
<path d="M358.848 149.745C358.848 149.745 338.998 202.205 334.447 227.247L331.468 225.628C331.468 225.628 342.906 168.225 351.337 148.988L358.848 149.745Z" fill="#0149AD"/>
<path d="M386.476 154.985C386.476 154.985 378.065 197.214 381.907 231.826L386.476 230.811C386.476 230.811 392.004 175.573 394.936 157.716L386.476 154.985Z" fill="#0149AD"/>
<path d="M356.376 156.47L357.152 149.573L360.792 148.04C360.84 149.706 360.459 151.356 359.686 152.832C358.913 154.309 357.773 155.561 356.376 156.47Z" fill="#0149AD"/>
<path opacity="0.2" d="M356.376 156.47L357.152 149.573L360.792 148.04C360.84 149.706 360.459 151.356 359.686 152.832C358.913 154.309 357.773 155.561 356.376 156.47Z" fill="black"/>
<path d="M385.279 161.778C384.152 158.848 384.152 155.606 385.279 152.677L388.68 155.694L385.279 161.778Z" fill="#0149AD"/>
<path opacity="0.2" d="M385.279 161.778C384.152 158.848 384.152 155.606 385.279 152.677L388.68 155.694L385.279 161.778Z" fill="black"/>
<path d="M439.768 278.343L434.75 255.876C434.613 255.261 434.003 254.874 433.389 255.012L399.3 262.625C398.686 262.762 398.299 263.372 398.436 263.986L403.454 286.453C403.591 287.068 404.2 287.455 404.815 287.318L438.904 279.704C439.518 279.567 439.905 278.957 439.768 278.343Z" fill="#263238"/>
<path opacity="0.2" d="M439.768 278.343L434.75 255.876C434.613 255.261 434.003 254.874 433.389 255.012L399.3 262.625C398.686 262.762 398.299 263.372 398.436 263.986L403.454 286.453C403.591 287.068 404.2 287.455 404.815 287.318L438.904 279.704C439.518 279.567 439.905 278.957 439.768 278.343Z" fill="white"/>
<path d="M424.145 296.252L410.024 283.242C411.94 263.325 432.202 256.945 432.202 256.945L436.992 278.462C436.992 278.462 420.476 279.956 424.145 296.252Z" fill="#0149AD"/>
<path opacity="0.7" d="M424.145 296.252L410.024 283.242C411.94 263.325 432.202 256.945 432.202 256.945L436.992 278.462C436.992 278.462 420.476 279.956 424.145 296.252Z" fill="white"/>
<path d="M433.169 272.005L431.474 264.408C431.437 264.249 431.433 264.084 431.462 263.923C431.491 263.762 431.552 263.609 431.641 263.472C431.731 263.335 431.847 263.218 431.983 263.127C432.118 263.036 432.271 262.973 432.432 262.942L434.53 262.473C434.689 262.438 434.854 262.435 435.014 262.464C435.174 262.494 435.327 262.555 435.464 262.644C435.6 262.733 435.717 262.849 435.809 262.984C435.9 263.119 435.964 263.271 435.995 263.431L437.691 271.028C437.726 271.187 437.729 271.352 437.7 271.512C437.67 271.672 437.609 271.825 437.52 271.962C437.431 272.098 437.315 272.216 437.18 272.307C437.045 272.398 436.893 272.462 436.733 272.494L434.635 272.963C434.476 272.998 434.311 273.001 434.151 272.971C433.99 272.942 433.837 272.881 433.701 272.792C433.565 272.703 433.447 272.587 433.356 272.452C433.265 272.317 433.201 272.165 433.169 272.005ZM435.085 263.594C435.065 263.505 435.01 263.428 434.933 263.379C434.855 263.331 434.762 263.315 434.673 263.335L432.575 263.805C432.531 263.814 432.488 263.832 432.45 263.857C432.412 263.883 432.38 263.916 432.355 263.954C432.33 263.993 432.313 264.036 432.305 264.081C432.296 264.126 432.297 264.172 432.307 264.216L434.003 271.813C434.025 271.901 434.081 271.976 434.157 272.025C434.234 272.073 434.326 272.09 434.415 272.072L436.522 271.603C436.611 271.582 436.688 271.527 436.737 271.45C436.785 271.373 436.801 271.28 436.781 271.191L435.085 263.594Z" fill="#0149AD"/>
<g opacity="0.4">
<path d="M433.169 272.005L431.474 264.408C431.437 264.249 431.433 264.084 431.462 263.923C431.491 263.762 431.552 263.609 431.641 263.472C431.731 263.335 431.847 263.218 431.983 263.127C432.118 263.036 432.271 262.973 432.432 262.942L434.53 262.473C434.689 262.438 434.854 262.435 435.014 262.464C435.174 262.494 435.327 262.555 435.464 262.644C435.6 262.733 435.717 262.849 435.809 262.984C435.9 263.119 435.964 263.271 435.995 263.431L437.691 271.028C437.726 271.187 437.729 271.352 437.7 271.512C437.67 271.672 437.609 271.825 437.52 271.962C437.431 272.098 437.315 272.216 437.18 272.307C437.045 272.398 436.893 272.462 436.733 272.494L434.635 272.963C434.476 272.998 434.311 273.001 434.151 272.971C433.99 272.942 433.837 272.881 433.701 272.792C433.565 272.703 433.447 272.587 433.356 272.452C433.265 272.317 433.201 272.165 433.169 272.005ZM435.085 263.594C435.065 263.505 435.01 263.428 434.933 263.379C434.855 263.331 434.762 263.315 434.673 263.335L432.575 263.805C432.531 263.814 432.488 263.832 432.45 263.857C432.412 263.883 432.38 263.916 432.355 263.954C432.33 263.993 432.313 264.036 432.305 264.081C432.296 264.126 432.297 264.172 432.307 264.216L434.003 271.813C434.025 271.901 434.081 271.976 434.157 272.025C434.234 272.073 434.326 272.09 434.415 272.072L436.522 271.603C436.611 271.582 436.688 271.527 436.737 271.45C436.785 271.373 436.801 271.28 436.781 271.191L435.085 263.594Z" fill="white"/>
</g>
<path d="M114.529 223.118H119.319C119.319 223.118 122.126 224.383 123.572 224.076C125.019 223.77 134.11 218.434 133.603 217.523C133.095 216.613 113.705 218.549 113.705 218.549L114.529 223.118Z" fill="#EBB376"/>
<path d="M120.2 276.69C120.2 276.69 119.721 283.827 118.735 294.892C118.38 298.934 117.959 303.514 117.46 308.438C115.314 329.82 111.866 358.167 106.989 381.073L102.199 380.997C102.199 380.997 98.6453 346.413 104.594 323.335L103.991 306.943L103.569 295.648L102.87 276.651L120.2 276.69Z" fill="#EBB376"/>
<path d="M98.7986 280.043C98.7986 280.043 97.2849 286.298 94.6888 296.127C93.9224 299.001 93.0697 302.22 92.1309 305.659C86.3829 326.803 77.4735 357.066 68.018 380.7L63.2951 379.809C63.2951 379.809 65.6805 345.12 75.4713 323.392L78.0675 304.098L79.0255 296.903L81.6983 277.092L98.7986 280.043Z" fill="#EBB376"/>
<path opacity="0.2" d="M79.035 296.903L94.6887 296.127C93.9223 299.001 93.0697 302.22 92.1309 305.659L78.0674 304.098L79.035 296.903Z" fill="black"/>
<path opacity="0.2" d="M118.735 294.93C118.38 298.973 117.959 303.552 117.46 308.476L103.981 306.982L103.56 295.687L118.735 294.93Z" fill="black"/>
<path d="M76.5059 191.686C73.3829 192.912 74.4846 221.949 79.9547 229.805C85.4249 237.661 117.47 225.628 117.47 225.628L116.704 218.596L88.1361 218.683L76.5059 191.686Z" fill="#263238"/>
<path d="M150.751 214.803L116.704 216.843L120.756 191.935C120.807 191.676 120.943 191.441 121.142 191.267C121.342 191.094 121.594 190.992 121.858 190.977L154.133 189.061C154.231 189.056 154.33 189.072 154.422 189.11C154.513 189.148 154.595 189.206 154.661 189.279C154.728 189.353 154.776 189.44 154.804 189.535C154.832 189.63 154.838 189.73 154.822 189.828L150.751 214.803Z" fill="#263238"/>
<path opacity="0.2" d="M150.751 214.803L116.704 216.843L120.756 191.935C120.807 191.676 120.943 191.441 121.142 191.267C121.342 191.094 121.594 190.992 121.858 190.977L154.133 189.061C154.231 189.056 154.33 189.072 154.422 189.11C154.513 189.148 154.595 189.206 154.661 189.279C154.728 189.353 154.776 189.44 154.804 189.535C154.832 189.63 154.838 189.73 154.822 189.828L150.751 214.803Z" fill="white"/>
<path d="M150.31 214.832L116.263 216.872L120.315 191.964C120.364 191.704 120.5 191.468 120.7 191.294C120.9 191.12 121.152 191.019 121.417 191.006L153.692 189.09C153.79 189.083 153.889 189.098 153.981 189.135C154.072 189.171 154.154 189.228 154.221 189.301C154.287 189.374 154.336 189.461 154.364 189.555C154.392 189.65 154.398 189.75 154.382 189.847L150.31 214.832Z" fill="#263238"/>
<path d="M149.362 214.075L117.47 215.991L121.407 191.753L153.299 189.837L149.362 214.075Z" fill="#0149AD"/>
<path opacity="0.4" d="M149.362 214.075L117.47 215.991L121.407 191.753L153.299 189.837L149.362 214.075Z" fill="white"/>
<path d="M150.31 214.832L150.377 216.058C150.396 216.385 150.284 216.706 150.067 216.952C149.85 217.198 149.545 217.348 149.218 217.37L100.054 220.34C99.8912 220.35 99.7284 220.329 99.5744 220.276C99.4205 220.223 99.2785 220.141 99.1566 220.033C99.0346 219.925 98.9352 219.795 98.8639 219.648C98.7926 219.502 98.7508 219.343 98.7411 219.181L98.6644 217.964L150.31 214.832Z" fill="#263238"/>
<path opacity="0.2" d="M150.31 214.832L150.377 216.058C150.396 216.385 150.284 216.706 150.067 216.952C149.85 217.198 149.545 217.348 149.218 217.37L100.054 220.34C99.8912 220.35 99.7284 220.329 99.5744 220.276C99.4205 220.223 99.2785 220.141 99.1566 220.033C99.0346 219.925 98.9352 219.795 98.8639 219.648C98.7926 219.502 98.7508 219.343 98.7411 219.181L98.6644 217.964L150.31 214.832Z" fill="white"/>
<path opacity="0.2" d="M150.31 214.832L150.377 216.058C150.396 216.385 150.284 216.706 150.067 216.952C149.85 217.198 149.545 217.348 149.218 217.37L128.736 218.596C128.411 218.62 128.09 218.515 127.843 218.303C127.595 218.092 127.441 217.791 127.414 217.466L127.337 216.24L150.31 214.832Z" fill="white"/>
<g opacity="0.4">
<path d="M122.873 210.99L121.57 211.067L122.116 207.943L123.419 207.867L122.873 210.99Z" fill="white"/>
<path d="M125.354 210.837L124.042 210.913L124.923 205.855L126.236 205.778L125.354 210.837Z" fill="white"/>
<path d="M127.826 210.683L126.523 210.76L127.74 203.767L129.043 203.69L127.826 210.683Z" fill="white"/>
<path d="M130.307 210.53L128.995 210.607L130.384 202.646L131.696 202.569L130.307 210.53Z" fill="white"/>
<path d="M132.779 210.377L131.476 210.453L133.028 201.525L134.34 201.448L132.779 210.377Z" fill="white"/>
<path d="M135.26 210.224L133.948 210.3L135.844 199.436L137.147 199.35L135.26 210.224Z" fill="white"/>
<path d="M137.732 210.07L136.429 210.147L138.153 200.251L139.456 200.164L137.732 210.07Z" fill="white"/>
<path d="M140.213 209.917L138.9 209.994L140.462 201.065L141.765 200.979L140.213 209.917Z" fill="white"/>
<path d="M142.685 209.764L141.372 209.84L143.269 198.977L144.581 198.89L142.685 209.764Z" fill="white"/>
<path d="M145.166 209.61L143.853 209.687L146.248 195.911L147.561 195.834L145.166 209.61Z" fill="white"/>
</g>
<path d="M121.13 303.36C126.954 250.527 116.886 232.555 116.886 232.555L88.4714 227.697C87.3456 232.944 86.549 238.255 86.0859 243.6C86.0859 243.6 83.3556 253.372 82.4839 256.054C77.7252 271.343 75.6033 287.331 76.209 303.332L121.13 303.36Z" fill="#0149AD"/>
<g opacity="0.2">
<path d="M121.13 303.36H76.2089C76.2089 303.36 75.979 299.979 76.1419 294.432C76.4781 281.427 78.6123 268.531 82.4838 256.112C83.3556 253.401 86.0859 243.658 86.0859 243.658C86.1562 243.019 86.2232 242.38 86.2871 241.742C86.7277 237.042 87.4572 232.374 88.4713 227.765L116.876 232.555C116.876 232.555 126.954 250.527 121.13 303.36Z" fill="black"/>
</g>
<path opacity="0.2" d="M103.263 274.524C103.263 274.524 91.7668 289.124 76.1418 294.432C76.4781 281.427 78.6123 268.531 82.4838 256.112C83.3556 253.401 86.0859 243.658 86.0859 243.658C86.1561 243.019 86.2232 242.38 86.2871 241.742L115.583 239.5C115.583 239.5 104.968 250.143 93.5487 252.912C93.5966 252.912 94.066 268.709 103.263 274.524Z" fill="black"/>
<path d="M103.589 166.692C103.589 167.296 103.905 167.784 104.307 167.784C104.709 167.784 105.026 167.286 105.026 166.673C105.026 166.06 104.69 165.581 104.297 165.581C103.905 165.581 103.589 166.098 103.589 166.692Z" fill="#263238"/>
<path d="M102.334 165.255C102.399 165.264 102.465 165.256 102.526 165.231C102.587 165.205 102.639 165.164 102.678 165.111C102.937 164.748 103.277 164.449 103.671 164.24C104.065 164.03 104.503 163.915 104.949 163.904C105.044 163.91 105.137 163.877 105.209 163.815C105.281 163.752 105.325 163.664 105.332 163.569C105.335 163.522 105.328 163.476 105.313 163.432C105.297 163.388 105.273 163.347 105.242 163.313C105.211 163.278 105.173 163.25 105.131 163.229C105.089 163.209 105.043 163.198 104.997 163.195C104.434 163.196 103.88 163.331 103.38 163.59C102.88 163.848 102.449 164.222 102.123 164.68C102.094 164.717 102.072 164.759 102.06 164.803C102.047 164.848 102.043 164.895 102.048 164.941C102.054 164.987 102.068 165.032 102.091 165.073C102.113 165.114 102.144 165.149 102.18 165.178L102.334 165.255Z" fill="#263238"/>
<path d="M104.058 168.206C104.478 169.519 105.074 170.77 105.83 171.923C105.529 172.111 105.19 172.231 104.838 172.274C104.485 172.317 104.127 172.282 103.79 172.172L104.058 168.206Z" fill="#DE726F"/>
<path d="M89.573 178.83C89.6431 178.896 89.7202 178.953 89.803 179.002C90.8958 179.836 92.1428 180.445 93.4721 180.794C97.352 181.694 100.006 181.158 101.74 179.405C104.163 176.77 104.767 172.105 104.422 166.472C104.366 164.23 103.952 162.011 103.196 159.9C103.196 159.9 103.196 159.814 103.196 159.794C103.196 159.775 103.138 159.632 103.1 159.555C102.625 158.363 101.859 157.31 100.871 156.492C99.8838 155.673 98.7067 155.116 97.4478 154.87C96.3564 154.626 95.2418 154.501 94.1235 154.497C83.1353 154.382 81.1618 172.565 89.573 178.83Z" fill="#EBB376"/>
<path opacity="0.2" d="M89.9658 179.462C91.0871 180.217 92.3474 180.741 93.6733 181.005C97.5723 181.8 100.207 181.072 101.893 179.242C99.5891 179.883 97.1383 179.748 94.9187 178.859C94.1016 178.576 93.2308 178.483 92.3724 178.588C91.5141 178.692 90.691 178.991 89.9658 179.462Z" fill="black"/>
<path d="M88.6917 188.918C88.0115 192.041 92.0638 193.315 92.0638 193.315C98.6836 190.489 99.9099 186.963 99.9099 186.963C94.3822 184.089 95.9821 175.937 95.9821 175.937L94.8612 176.492L86.9769 178.035C86.9769 178.035 89.1611 182.231 89.4485 183.189C90.943 188.218 88.6917 188.918 88.6917 188.918Z" fill="#EBB376"/>
<path d="M103.205 159.823C103.205 159.823 103.809 167.487 96.4994 170.831C96.4994 170.831 93.3667 178.83 88.7587 178.935C82.4647 179.089 76.9274 170.15 79.1021 161.04C81.9474 149.218 99.8524 148.26 103.205 159.823Z" fill="#263238"/>
<path d="M100.216 168.608C100.216 167.411 99.2584 165.389 97.3424 165.667C95.4264 165.945 94.3343 170.716 99.086 171.779C99.8045 171.942 100.216 171.128 100.216 168.608Z" fill="#EBB376"/>
<path d="M89.803 151.642C89.803 151.642 97.1508 149.783 101.203 152.744C105.993 156.192 107.746 159.756 102.161 165.293C102.161 165.293 89.8317 161.298 85.7315 162.142C83.3349 162.625 80.9828 163.307 78.6998 164.182C77.8088 156.039 85.7027 149.975 89.803 151.642Z" fill="#263238"/>
<path d="M104.518 156.566C104.518 156.566 107.919 158.884 106.357 162.458C104.796 166.031 100.216 166.117 100.216 166.117" stroke="#263238" stroke-width="0.5" stroke-linecap="round" stroke-linejoin="round"/>
<path d="M100.216 166.769C100.216 166.769 98.3004 175.64 101.309 183.208C101.309 183.208 83.8729 189.253 77.8088 185.967C71.7447 182.681 77.3011 171.654 77.5597 165.293C77.8184 158.932 80.5774 149.534 89.803 151.642C99.0285 153.749 100.216 166.769 100.216 166.769Z" fill="#263238"/>
<path d="M116.359 396.957C115.467 396.236 114.451 395.684 113.36 395.328C113.36 395.328 110.093 392.081 108.57 382.328L104.288 381.207C103.562 381.034 102.8 381.087 102.104 381.36C101.409 381.632 100.814 382.11 100.398 382.731C100.28 382.904 100.19 383.095 100.13 383.296C99.9093 384.342 99.7558 385.401 99.6704 386.467C99.4329 390.032 99.4137 393.609 99.6129 397.177H100.379L100.686 390.471C100.801 388.182 102.602 390.864 103.052 393.345C103.502 395.826 104.614 398.423 109.624 398.538C115.41 398.614 117.834 398.384 116.359 396.957Z" fill="#263238"/>
<path d="M100.197 382.807C99.9194 380.527 99.8332 376.561 99.8332 376.561L109.337 377.615C109.337 377.615 108.187 382.127 109.135 385.518C104.345 384.254 100.197 382.807 100.197 382.807Z" fill="#263238"/>
<path d="M77.6938 396.957C76.8019 396.236 75.7857 395.684 74.6953 395.328C74.6953 395.328 71.4285 392.081 69.9053 382.328L65.623 381.207C64.8967 381.034 64.1349 381.087 63.4396 381.36C62.7444 381.632 62.1491 382.11 61.7335 382.731C61.6156 382.904 61.5251 383.095 61.4653 383.296C61.2445 384.342 61.0909 385.401 61.0055 386.467C60.768 390.032 60.7488 393.609 60.948 397.177H61.7144L62.0209 390.471C62.1359 388.182 63.9369 390.864 64.3872 393.345C64.8375 395.826 65.9487 398.423 70.9591 398.538C76.7454 398.614 79.1691 398.384 77.6938 396.957Z" fill="#263238"/>
<path d="M61.542 382.807C61.2546 380.527 61.1683 376.561 61.1683 376.561L70.6717 377.615C70.6717 377.615 69.5221 382.127 70.4705 385.518C65.6805 384.254 61.542 382.807 61.542 382.807Z" fill="#263238"/>
<path d="M76.5059 191.686C76.5059 191.686 82.5701 189.31 88.0019 187.854C92.2414 186.801 96.5506 186.052 100.897 185.612C104.999 185.153 109.129 184.989 113.255 185.124C113.14 187.117 113.054 188.956 112.977 190.757C112.872 193.085 112.795 195.24 112.747 197.243C112.651 200.998 112.661 204.217 112.747 207.072C112.895 213.3 113.649 219.498 114.998 225.58L121.13 240.458L84.3711 245.143L86.45 230.495C80.3571 212.743 77.7417 203.393 76.755 198.086C75.682 192.156 76.5059 191.686 76.5059 191.686Z" fill="#263238"/>
<path opacity="0.1" d="M76.5059 191.686C76.5059 191.686 82.5701 189.31 88.0019 187.854C92.2414 186.801 96.5506 186.052 100.897 185.612C104.999 185.153 109.129 184.989 113.255 185.124C113.14 187.117 113.054 188.956 112.977 190.757C112.872 193.085 112.795 195.24 112.747 197.243C112.651 200.998 112.661 204.217 112.747 207.072C112.895 213.3 113.649 219.498 114.998 225.58L121.13 240.458L84.3711 245.143L86.45 230.495C80.3571 212.743 77.7417 203.393 76.755 198.086C75.682 192.156 76.5059 191.686 76.5059 191.686Z" fill="white"/>
<path d="M149.448 224.172L157.783 226.653C158.773 226.35 159.79 226.138 160.819 226.021C161.701 226.021 169.279 228.895 170.294 229.853C171.31 230.811 165.504 235.917 165.188 236.166C164.872 236.415 157.026 233.292 156.652 233.139C156.279 232.986 156.144 231.807 156.144 231.807L146.919 229.47L149.448 224.172Z" fill="#EBB376"/>
<path d="M113.264 185.086C117.853 188.113 129.388 216.815 130.901 217.571C132.415 218.328 154.851 224.766 154.851 224.766L152.054 231.759C152.054 231.759 127.491 227.381 125.029 225.667C122.567 223.952 112.757 206.123 112.757 206.123C111.537 202.251 110.841 198.234 110.687 194.177C110.602 190.955 111.501 187.784 113.264 185.086Z" fill="#263238"/>
<path d="M257.28 362.181H250.46V398.528H257.28V362.181Z" fill="#0149AD"/>
<path d="M257.28 362.181H253.334V398.528H257.28V362.181Z" fill="#0149AD"/>
<path opacity="0.2" d="M257.28 362.181H253.334V398.528H257.28V362.181Z" fill="black"/>
<path opacity="0.2" d="M257.28 362.181V377.155L253.334 375.814L250.46 374.837V362.181H257.28Z" fill="black"/>
<path d="M286.02 362.181H279.2V398.528H286.02V362.181Z" fill="#0149AD"/>
<path d="M197.884 362.181H191.064V398.528H197.884V362.181Z" fill="#0149AD"/>
<path opacity="0.2" d="M197.884 362.181H191.064V398.528H197.884V362.181Z" fill="black"/>
<path d="M287.113 344.957V398.528H282.016V365.467H218.855V398.528H209.505V365.467H194.091V398.528H191.064V344.957H287.113Z" fill="#0149AD"/>
<path d="M211.958 344.957H210.262V336.536H213.653L211.958 344.957Z" fill="#263238"/>
<path opacity="0.2" d="M287.113 344.957V398.528H282.016V365.467H218.855V398.528H213.653V344.957H287.113Z" fill="black"/>
<path d="M267.33 328.987H267.387L250.871 324.992C250.502 324.877 250.118 324.816 249.731 324.81H212.532C211.506 324.808 210.516 325.19 209.757 325.882C208.998 326.573 208.525 327.524 208.432 328.546L207.685 336.478C207.6 337.403 207.831 338.329 208.341 339.106C208.851 339.882 209.609 340.462 210.492 340.751L210.75 340.818L211.067 340.895L227.19 344.832C227.527 344.925 227.875 344.973 228.224 344.976H265.366C266.392 344.975 267.381 344.592 268.139 343.901C268.898 343.21 269.371 342.261 269.466 341.24L270.213 333.307C270.302 332.366 270.064 331.422 269.539 330.635C269.013 329.848 268.234 329.266 267.33 328.987Z" fill="#263238"/>
<path opacity="0.2" d="M267.33 328.987H267.387L250.871 324.992C250.502 324.877 250.118 324.816 249.731 324.81H212.532C211.506 324.808 210.516 325.19 209.757 325.882C208.998 326.573 208.525 327.524 208.432 328.546L207.685 336.478C207.6 337.403 207.831 338.329 208.341 339.106C208.851 339.882 209.609 340.462 210.492 340.751L210.75 340.818L211.067 340.895L227.19 344.832C227.527 344.925 227.875 344.973 228.224 344.976H265.366C266.392 344.975 267.381 344.592 268.139 343.901C268.898 343.21 269.371 342.261 269.466 341.24L270.213 333.307C270.302 332.366 270.064 331.422 269.539 330.635C269.013 329.848 268.234 329.266 267.33 328.987Z" fill="white"/>
<path opacity="0.1" d="M265.366 344.957H228.186C227.612 344.956 227.045 344.837 226.521 344.605C225.996 344.373 225.525 344.035 225.139 343.611C224.752 343.188 224.458 342.688 224.275 342.145C224.092 341.601 224.024 341.025 224.076 340.454L224.823 332.522C224.919 331.5 225.392 330.551 226.15 329.86C226.909 329.169 227.898 328.786 228.924 328.786H266.123C266.696 328.786 267.264 328.906 267.788 329.137C268.313 329.369 268.784 329.707 269.17 330.131C269.557 330.555 269.851 331.054 270.034 331.598C270.217 332.141 270.285 332.717 270.233 333.288L269.485 341.22C269.39 342.245 268.914 343.197 268.151 343.889C267.389 344.58 266.395 344.961 265.366 344.957Z" fill="white"/>
<g opacity="0.1">
<path d="M255.154 337.523C255.006 338.643 254.458 339.672 253.611 340.42C252.764 341.168 251.676 341.585 250.546 341.594C250.02 341.613 249.497 341.518 249.012 341.315C248.527 341.113 248.091 340.808 247.735 340.421C247.379 340.034 247.112 339.575 246.95 339.074C246.789 338.574 246.737 338.045 246.8 337.523C246.952 336.405 247.501 335.379 248.347 334.633C249.194 333.887 250.28 333.471 251.408 333.461C251.933 333.44 252.456 333.534 252.941 333.735C253.426 333.937 253.862 334.241 254.218 334.627C254.574 335.013 254.842 335.472 255.004 335.972C255.165 336.472 255.217 337.001 255.154 337.523Z" fill="white"/>
<path d="M265.96 338.988H259.896C259.817 338.992 259.737 338.978 259.664 338.947C259.591 338.917 259.525 338.871 259.471 338.813C259.417 338.754 259.377 338.685 259.353 338.609C259.328 338.534 259.321 338.454 259.331 338.375L259.513 336.651C259.536 336.481 259.619 336.326 259.748 336.213C259.876 336.101 260.041 336.038 260.212 336.038H266.324C266.403 336.034 266.482 336.048 266.556 336.078C266.629 336.109 266.695 336.155 266.749 336.213C266.803 336.271 266.843 336.341 266.867 336.416C266.892 336.492 266.899 336.572 266.889 336.651L266.707 338.375C266.683 338.553 266.593 338.715 266.454 338.829C266.316 338.943 266.139 339 265.96 338.988Z" fill="white"/>
<path d="M233.388 342.428H231.232L231.453 340.339H233.608L233.388 342.428Z" fill="white"/>
<path d="M236.348 342.428H234.202L234.423 340.339H236.569L236.348 342.428Z" fill="white"/>
</g>
<path d="M152.734 281.872C152.507 281.871 152.288 281.793 152.111 281.652L149.764 279.669C149.57 279.505 149.448 279.271 149.427 279.017C149.405 278.764 149.485 278.513 149.649 278.318C149.813 278.124 150.047 278.002 150.301 277.981C150.554 277.959 150.806 278.039 151 278.203L153.347 280.186C153.495 280.313 153.601 280.482 153.651 280.671C153.701 280.859 153.691 281.058 153.625 281.242C153.558 281.425 153.437 281.584 153.278 281.696C153.119 281.809 152.929 281.87 152.734 281.872Z" fill="#0149AD"/>
<path d="M164.776 291.97C164.55 291.968 164.33 291.891 164.153 291.749C161.599 289.597 159.044 287.454 156.489 285.321C156.383 285.244 156.293 285.146 156.226 285.033C156.159 284.92 156.115 284.794 156.099 284.663C156.083 284.533 156.093 284.4 156.13 284.274C156.168 284.148 156.23 284.03 156.315 283.929C156.399 283.828 156.504 283.746 156.621 283.687C156.739 283.628 156.868 283.594 156.999 283.587C157.131 283.58 157.262 283.601 157.385 283.647C157.508 283.693 157.621 283.764 157.716 283.855C160.27 285.989 162.825 288.131 165.38 290.284C165.528 290.41 165.634 290.579 165.683 290.768C165.733 290.957 165.724 291.156 165.657 291.339C165.591 291.522 165.47 291.681 165.31 291.794C165.151 291.906 164.961 291.968 164.766 291.97H164.776Z" fill="#0149AD"/>
<path d="M174.356 300.103C174.128 300.103 173.907 300.022 173.733 299.873L169.183 296.041C169.087 295.959 169.007 295.859 168.95 295.747C168.892 295.635 168.857 295.512 168.847 295.386C168.837 295.26 168.851 295.134 168.89 295.013C168.929 294.893 168.991 294.782 169.073 294.686C169.154 294.589 169.254 294.51 169.367 294.453C169.479 294.395 169.602 294.36 169.728 294.35C169.854 294.34 169.98 294.354 170.1 294.393C170.221 294.432 170.332 294.494 170.428 294.575L174.969 298.407C175.065 298.489 175.145 298.588 175.203 298.7C175.261 298.811 175.296 298.934 175.307 299.059C175.317 299.184 175.303 299.311 175.265 299.431C175.227 299.551 175.165 299.662 175.084 299.758C174.995 299.865 174.884 299.951 174.758 300.011C174.632 300.07 174.495 300.102 174.356 300.103Z" fill="#0149AD"/>
<path d="M195.039 317.682C194.815 317.683 194.598 317.605 194.426 317.462C189.093 312.991 183.78 308.482 178.485 303.935L178.255 303.734C178.159 303.653 178.079 303.554 178.021 303.442C177.964 303.33 177.928 303.208 177.918 303.082C177.907 302.957 177.921 302.831 177.959 302.711C177.997 302.591 178.059 302.479 178.14 302.383C178.222 302.288 178.322 302.209 178.434 302.152C178.546 302.095 178.668 302.06 178.794 302.051C178.919 302.041 179.045 302.056 179.165 302.095C179.285 302.134 179.395 302.196 179.491 302.278L179.73 302.479C185.025 306.988 190.335 311.494 195.662 315.996C195.811 316.124 195.917 316.293 195.966 316.483C196.016 316.672 196.006 316.873 195.938 317.056C195.87 317.24 195.748 317.398 195.587 317.51C195.426 317.622 195.235 317.682 195.039 317.682Z" fill="#0149AD"/>
<path d="M204.705 325.72C204.482 325.72 204.265 325.642 204.092 325.5L199.504 321.668C199.407 321.587 199.328 321.487 199.27 321.375C199.212 321.264 199.177 321.142 199.166 321.016C199.155 320.891 199.169 320.764 199.208 320.644C199.246 320.524 199.307 320.413 199.389 320.317C199.552 320.125 199.785 320.006 200.036 319.984C200.287 319.963 200.536 320.041 200.73 320.202L205.319 324.034C205.416 324.114 205.496 324.213 205.555 324.325C205.613 324.436 205.65 324.558 205.661 324.683C205.673 324.809 205.659 324.935 205.622 325.056C205.585 325.176 205.524 325.288 205.443 325.385C205.352 325.491 205.239 325.576 205.111 325.634C204.984 325.692 204.845 325.721 204.705 325.72Z" fill="#0149AD"/>
<path d="M192.357 266.468C192.174 266.468 191.994 266.416 191.84 266.318C191.685 266.219 191.562 266.078 191.485 265.912L190.192 263.038C190.087 262.808 190.078 262.546 190.166 262.309C190.254 262.072 190.432 261.88 190.661 261.774C190.776 261.72 190.899 261.69 191.025 261.685C191.152 261.68 191.277 261.7 191.396 261.743C191.514 261.787 191.623 261.854 191.715 261.939C191.808 262.025 191.883 262.128 191.935 262.243L193.229 265.117C193.333 265.347 193.342 265.609 193.254 265.846C193.166 266.083 192.988 266.275 192.759 266.381C192.634 266.442 192.496 266.471 192.357 266.468Z" fill="#0149AD"/>
<path d="M200.912 284.765C200.729 284.766 200.549 284.714 200.395 284.615C200.24 284.517 200.117 284.376 200.04 284.21C198.009 279.746 196.208 275.875 194.445 272.388C194.389 272.275 194.356 272.152 194.348 272.026C194.339 271.9 194.356 271.773 194.396 271.654C194.437 271.534 194.5 271.423 194.584 271.328C194.667 271.233 194.768 271.156 194.881 271.1C194.994 271.044 195.118 271.01 195.244 271.002C195.37 270.994 195.496 271.01 195.616 271.051C195.735 271.091 195.846 271.155 195.941 271.238C196.036 271.321 196.114 271.422 196.17 271.536C197.913 275.051 199.743 278.931 201.784 283.415C201.887 283.646 201.895 283.909 201.805 284.146C201.715 284.383 201.535 284.575 201.305 284.679C201.181 284.735 201.047 284.765 200.912 284.765Z" fill="#0149AD"/>
<path d="M206.104 296.444C205.918 296.445 205.736 296.392 205.579 296.292C205.423 296.192 205.299 296.048 205.223 295.878C204.523 294.278 203.824 292.688 203.115 291.088C203.029 290.859 203.034 290.605 203.129 290.379C203.225 290.153 203.403 289.972 203.628 289.874C203.853 289.775 204.107 289.767 204.338 289.85C204.568 289.934 204.758 290.103 204.868 290.322C205.577 291.912 206.277 293.512 206.976 295.112C207.027 295.227 207.055 295.351 207.058 295.477C207.061 295.603 207.039 295.728 206.994 295.845C206.948 295.963 206.88 296.07 206.793 296.161C206.706 296.252 206.602 296.326 206.487 296.376C206.366 296.425 206.235 296.448 206.104 296.444Z" fill="#0149AD"/>
<path d="M217.217 320.825C217.037 320.825 216.861 320.775 216.709 320.68C216.556 320.585 216.434 320.449 216.355 320.288C213.213 313.937 210.281 307.393 207.589 301.262C207.538 301.147 207.51 301.023 207.507 300.897C207.504 300.771 207.526 300.646 207.571 300.529C207.617 300.411 207.685 300.304 207.772 300.213C207.858 300.122 207.962 300.049 208.078 299.998C208.193 299.947 208.317 299.919 208.443 299.916C208.569 299.913 208.694 299.934 208.811 299.98C208.929 300.025 209.036 300.093 209.127 300.18C209.218 300.267 209.291 300.371 209.342 300.486C212.025 306.598 214.946 313.122 218.07 319.435C218.143 319.581 218.178 319.744 218.171 319.907C218.164 320.07 218.116 320.229 218.031 320.368C217.945 320.507 217.825 320.622 217.683 320.702C217.541 320.782 217.38 320.824 217.217 320.825Z" fill="#0149AD"/>
<path d="M228.79 270.616C228.536 270.616 228.292 270.515 228.112 270.335C227.933 270.156 227.832 269.912 227.832 269.658V259.618C227.832 259.364 227.933 259.12 228.112 258.941C228.292 258.761 228.536 258.66 228.79 258.66C229.044 258.66 229.287 258.761 229.467 258.941C229.647 259.12 229.748 259.364 229.748 259.618V269.667C229.745 269.92 229.643 270.161 229.464 270.339C229.284 270.516 229.042 270.616 228.79 270.616Z" fill="#0149AD"/>
<path d="M228.847 282.121C228.593 282.121 228.349 282.02 228.17 281.841C227.99 281.661 227.889 281.417 227.889 281.163L227.832 276.134C227.832 275.88 227.933 275.636 228.112 275.457C228.292 275.277 228.536 275.176 228.79 275.176C229.044 275.176 229.287 275.277 229.467 275.457C229.647 275.636 229.748 275.88 229.748 276.134L229.805 281.173C229.805 281.427 229.704 281.671 229.524 281.85C229.345 282.03 229.101 282.131 228.847 282.131V282.121Z" fill="#0149AD"/>
<path d="M228.895 308.294C228.641 308.294 228.397 308.193 228.218 308.013C228.038 307.834 227.937 307.59 227.937 307.336C227.937 300.63 227.937 293.799 227.937 286.902C227.937 286.648 228.038 286.404 228.218 286.224C228.397 286.045 228.641 285.944 228.895 285.944C229.149 285.944 229.393 286.045 229.572 286.224C229.752 286.404 229.853 286.648 229.853 286.902C229.853 293.799 229.901 300.678 229.853 307.355C229.848 307.606 229.745 307.845 229.566 308.02C229.387 308.196 229.146 308.294 228.895 308.294Z" fill="#0149AD"/>
<path d="M228.79 320.825C228.536 320.825 228.292 320.724 228.112 320.544C227.933 320.364 227.832 320.121 227.832 319.867C227.832 317.884 227.879 315.91 227.899 313.927C227.899 313.673 228 313.429 228.179 313.25C228.359 313.07 228.603 312.969 228.857 312.969C229.111 312.969 229.354 313.07 229.534 313.25C229.714 313.429 229.815 313.673 229.815 313.927C229.815 315.91 229.815 317.884 229.748 319.867C229.748 320.121 229.647 320.364 229.467 320.544C229.287 320.724 229.044 320.825 228.79 320.825Z" fill="#0149AD"/>
<path d="M263.986 280.838C263.798 280.839 263.613 280.789 263.45 280.694C263.341 280.629 263.247 280.543 263.171 280.441C263.096 280.34 263.042 280.224 263.011 280.101C262.981 279.978 262.975 279.85 262.995 279.725C263.014 279.6 263.058 279.48 263.124 279.372L265.998 274.639C266.05 274.513 266.129 274.399 266.229 274.305C266.329 274.212 266.448 274.141 266.578 274.097C266.708 274.053 266.845 274.038 266.981 274.052C267.118 274.065 267.249 274.108 267.368 274.178C267.486 274.247 267.588 274.34 267.667 274.452C267.746 274.564 267.8 274.692 267.825 274.826C267.851 274.961 267.847 275.099 267.815 275.232C267.782 275.365 267.721 275.49 267.636 275.597L264.762 280.34C264.685 280.481 264.574 280.601 264.438 280.688C264.303 280.775 264.147 280.827 263.986 280.838Z" fill="#0149AD"/>
<path d="M250.804 302.383C250.632 302.383 250.464 302.337 250.316 302.249C250.097 302.119 249.939 301.908 249.876 301.662C249.814 301.416 249.851 301.155 249.981 300.937C252.72 296.281 256.37 290.169 260.25 284.219C260.389 284.008 260.606 283.86 260.854 283.808C261.102 283.756 261.36 283.804 261.572 283.942C261.678 284.01 261.77 284.1 261.841 284.204C261.913 284.308 261.963 284.426 261.989 284.55C262.014 284.673 262.016 284.801 261.992 284.925C261.968 285.049 261.92 285.168 261.85 285.273C258.018 291.184 254.359 297.267 251.628 301.914C251.544 302.057 251.423 302.175 251.279 302.257C251.134 302.34 250.971 302.383 250.804 302.383Z" fill="#0149AD"/>
<path d="M244.635 312.902C244.463 312.899 244.295 312.853 244.146 312.768C243.928 312.638 243.77 312.427 243.707 312.181C243.644 311.935 243.681 311.674 243.811 311.455L246.762 306.426C246.89 306.208 247.098 306.05 247.342 305.986C247.586 305.921 247.846 305.955 248.065 306.081C248.174 306.144 248.269 306.229 248.345 306.329C248.422 306.429 248.477 306.544 248.509 306.666C248.541 306.788 248.549 306.915 248.532 307.04C248.515 307.164 248.473 307.285 248.409 307.393L245.459 312.433C245.374 312.576 245.253 312.694 245.109 312.776C244.965 312.859 244.801 312.902 244.635 312.902Z" fill="#0149AD"/>
<path d="M238.954 322.338C238.778 322.337 238.605 322.287 238.456 322.195C238.348 322.129 238.254 322.042 238.18 321.94C238.105 321.838 238.052 321.722 238.023 321.599C237.993 321.476 237.988 321.349 238.009 321.224C238.029 321.1 238.073 320.98 238.14 320.873C238.932 319.595 239.717 318.318 240.496 317.041C240.636 316.849 240.842 316.715 241.074 316.667C241.306 316.618 241.548 316.657 241.753 316.776C241.958 316.895 242.111 317.086 242.183 317.312C242.256 317.538 242.242 317.782 242.144 317.999C241.359 319.292 240.573 320.585 239.768 321.878C239.683 322.018 239.564 322.134 239.421 322.214C239.278 322.295 239.118 322.338 238.954 322.338Z" fill="#0149AD"/>
<g opacity="0.7">
<path d="M152.734 281.872C152.507 281.871 152.288 281.793 152.111 281.652L149.764 279.669C149.57 279.505 149.448 279.271 149.427 279.017C149.405 278.764 149.485 278.513 149.649 278.318C149.813 278.124 150.047 278.002 150.301 277.981C150.554 277.959 150.806 278.039 151 278.203L153.347 280.186C153.495 280.313 153.601 280.482 153.651 280.671C153.701 280.859 153.691 281.058 153.625 281.242C153.558 281.425 153.437 281.584 153.278 281.696C153.119 281.809 152.929 281.87 152.734 281.872Z" fill="white"/>
<path d="M164.776 291.97C164.55 291.968 164.33 291.891 164.153 291.749C161.599 289.597 159.044 287.454 156.489 285.321C156.383 285.244 156.293 285.146 156.226 285.033C156.159 284.92 156.115 284.794 156.099 284.663C156.083 284.533 156.093 284.4 156.13 284.274C156.168 284.148 156.23 284.03 156.315 283.929C156.399 283.828 156.504 283.746 156.621 283.687C156.739 283.628 156.868 283.594 156.999 283.587C157.131 283.58 157.262 283.601 157.385 283.647C157.508 283.693 157.621 283.764 157.716 283.855C160.27 285.989 162.825 288.131 165.38 290.284C165.528 290.41 165.634 290.579 165.683 290.768C165.733 290.957 165.724 291.156 165.657 291.339C165.591 291.522 165.47 291.681 165.31 291.794C165.151 291.906 164.961 291.968 164.766 291.97H164.776Z" fill="white"/>
<path d="M174.356 300.103C174.128 300.103 173.907 300.022 173.733 299.873L169.183 296.041C169.087 295.959 169.007 295.859 168.95 295.747C168.892 295.635 168.857 295.512 168.847 295.386C168.837 295.26 168.851 295.134 168.89 295.013C168.929 294.893 168.991 294.782 169.073 294.686C169.154 294.589 169.254 294.51 169.367 294.453C169.479 294.395 169.602 294.36 169.728 294.35C169.854 294.34 169.98 294.354 170.1 294.393C170.221 294.432 170.332 294.494 170.428 294.575L174.969 298.407C175.065 298.489 175.145 298.588 175.203 298.7C175.261 298.811 175.296 298.934 175.307 299.059C175.317 299.184 175.303 299.311 175.265 299.431C175.227 299.551 175.165 299.662 175.084 299.758C174.995 299.865 174.884 299.951 174.758 300.011C174.632 300.07 174.495 300.102 174.356 300.103Z" fill="white"/>
<path d="M195.039 317.682C194.815 317.683 194.598 317.605 194.426 317.462C189.093 312.991 183.78 308.482 178.485 303.935L178.255 303.734C178.159 303.653 178.079 303.554 178.021 303.442C177.964 303.33 177.928 303.208 177.918 303.082C177.907 302.957 177.921 302.831 177.959 302.711C177.997 302.591 178.059 302.479 178.14 302.383C178.222 302.288 178.322 302.209 178.434 302.152C178.546 302.095 178.668 302.06 178.794 302.051C178.919 302.041 179.045 302.056 179.165 302.095C179.285 302.134 179.395 302.196 179.491 302.278L179.73 302.479C185.025 306.988 190.335 311.494 195.662 315.996C195.811 316.124 195.917 316.293 195.966 316.483C196.016 316.672 196.006 316.873 195.938 317.056C195.87 317.24 195.748 317.398 195.587 317.51C195.426 317.622 195.235 317.682 195.039 317.682Z" fill="white"/>
<path d="M204.705 325.72C204.482 325.72 204.265 325.642 204.092 325.5L199.504 321.668C199.407 321.587 199.328 321.487 199.27 321.375C199.212 321.264 199.177 321.142 199.166 321.016C199.155 320.891 199.169 320.764 199.208 320.644C199.246 320.524 199.307 320.413 199.389 320.317C199.552 320.125 199.785 320.006 200.036 319.984C200.287 319.963 200.536 320.041 200.73 320.202L205.319 324.034C205.416 324.114 205.496 324.213 205.555 324.325C205.613 324.436 205.65 324.558 205.661 324.683C205.673 324.809 205.659 324.935 205.622 325.056C205.585 325.176 205.524 325.288 205.443 325.385C205.352 325.491 205.239 325.576 205.111 325.634C204.984 325.692 204.845 325.721 204.705 325.72Z" fill="white"/>
<path d="M192.357 266.468C192.174 266.468 191.994 266.416 191.84 266.318C191.685 266.219 191.562 266.078 191.485 265.912L190.192 263.038C190.087 262.808 190.078 262.546 190.166 262.309C190.254 262.072 190.432 261.88 190.661 261.774C190.776 261.72 190.899 261.69 191.025 261.685C191.152 261.68 191.277 261.7 191.396 261.743C191.514 261.787 191.623 261.854 191.715 261.939C191.808 262.025 191.883 262.128 191.935 262.243L193.229 265.117C193.333 265.347 193.342 265.609 193.254 265.846C193.166 266.083 192.988 266.275 192.759 266.381C192.634 266.442 192.496 266.471 192.357 266.468Z" fill="white"/>
<path d="M200.912 284.765C200.729 284.766 200.549 284.714 200.395 284.615C200.24 284.517 200.117 284.376 200.04 284.21C198.009 279.746 196.208 275.875 194.445 272.388C194.389 272.275 194.356 272.152 194.348 272.026C194.339 271.9 194.356 271.773 194.396 271.654C194.437 271.534 194.5 271.423 194.584 271.328C194.667 271.233 194.768 271.156 194.881 271.1C194.994 271.044 195.118 271.01 195.244 271.002C195.37 270.994 195.496 271.01 195.616 271.051C195.735 271.091 195.846 271.155 195.941 271.238C196.036 271.321 196.114 271.422 196.17 271.536C197.913 275.051 199.743 278.931 201.784 283.415C201.887 283.646 201.895 283.909 201.805 284.146C201.715 284.383 201.535 284.575 201.305 284.679C201.181 284.735 201.047 284.765 200.912 284.765Z" fill="white"/>
<path d="M206.104 296.444C205.918 296.445 205.736 296.392 205.579 296.292C205.423 296.192 205.299 296.048 205.223 295.878C204.523 294.278 203.824 292.688 203.115 291.088C203.029 290.859 203.034 290.605 203.129 290.379C203.225 290.153 203.403 289.972 203.628 289.874C203.853 289.775 204.107 289.767 204.338 289.85C204.568 289.934 204.758 290.103 204.868 290.322C205.577 291.912 206.277 293.512 206.976 295.112C207.027 295.227 207.055 295.351 207.058 295.477C207.061 295.603 207.039 295.728 206.994 295.845C206.948 295.963 206.88 296.07 206.793 296.161C206.706 296.252 206.602 296.326 206.487 296.376C206.366 296.425 206.235 296.448 206.104 296.444Z" fill="white"/>
<path d="M217.217 320.825C217.037 320.825 216.861 320.775 216.709 320.68C216.556 320.585 216.434 320.449 216.355 320.288C213.213 313.937 210.281 307.393 207.589 301.262C207.538 301.147 207.51 301.023 207.507 300.897C207.504 300.771 207.526 300.646 207.571 300.529C207.617 300.411 207.685 300.304 207.772 300.213C207.858 300.122 207.962 300.049 208.078 299.998C208.193 299.947 208.317 299.919 208.443 299.916C208.569 299.913 208.694 299.934 208.811 299.98C208.929 300.025 209.036 300.093 209.127 300.18C209.218 300.267 209.291 300.371 209.342 300.486C212.025 306.598 214.946 313.122 218.07 319.435C218.143 319.581 218.178 319.744 218.171 319.907C218.164 320.07 218.116 320.229 218.031 320.368C217.945 320.507 217.825 320.622 217.683 320.702C217.541 320.782 217.38 320.824 217.217 320.825Z" fill="white"/>
<path d="M228.79 270.616C228.536 270.616 228.292 270.515 228.112 270.335C227.933 270.156 227.832 269.912 227.832 269.658V259.618C227.832 259.364 227.933 259.12 228.112 258.941C228.292 258.761 228.536 258.66 228.79 258.66C229.044 258.66 229.287 258.761 229.467 258.941C229.647 259.12 229.748 259.364 229.748 259.618V269.667C229.745 269.92 229.643 270.161 229.464 270.339C229.284 270.516 229.042 270.616 228.79 270.616Z" fill="white"/>
<path d="M228.847 282.121C228.593 282.121 228.349 282.02 228.17 281.841C227.99 281.661 227.889 281.417 227.889 281.163L227.832 276.134C227.832 275.88 227.933 275.636 228.112 275.457C228.292 275.277 228.536 275.176 228.79 275.176C229.044 275.176 229.287 275.277 229.467 275.457C229.647 275.636 229.748 275.88 229.748 276.134L229.805 281.173C229.805 281.427 229.704 281.671 229.524 281.85C229.345 282.03 229.101 282.131 228.847 282.131V282.121Z" fill="white"/>
<path d="M228.895 308.294C228.641 308.294 228.397 308.193 228.218 308.013C228.038 307.834 227.937 307.59 227.937 307.336C227.937 300.63 227.937 293.799 227.937 286.902C227.937 286.648 228.038 286.404 228.218 286.224C228.397 286.045 228.641 285.944 228.895 285.944C229.149 285.944 229.393 286.045 229.572 286.224C229.752 286.404 229.853 286.648 229.853 286.902C229.853 293.799 229.901 300.678 229.853 307.355C229.848 307.606 229.745 307.845 229.566 308.02C229.387 308.196 229.146 308.294 228.895 308.294Z" fill="white"/>
<path d="M228.79 320.825C228.536 320.825 228.292 320.724 228.112 320.544C227.933 320.364 227.832 320.121 227.832 319.867C227.832 317.884 227.879 315.91 227.899 313.927C227.899 313.673 228 313.429 228.179 313.25C228.359 313.07 228.603 312.969 228.857 312.969C229.111 312.969 229.354 313.07 229.534 313.25C229.714 313.429 229.815 313.673 229.815 313.927C229.815 315.91 229.815 317.884 229.748 319.867C229.748 320.121 229.647 320.364 229.467 320.544C229.287 320.724 229.044 320.825 228.79 320.825Z" fill="white"/>
<path d="M263.986 280.838C263.798 280.839 263.613 280.789 263.45 280.694C263.341 280.629 263.247 280.543 263.171 280.441C263.096 280.34 263.042 280.224 263.011 280.101C262.981 279.978 262.975 279.85 262.995 279.725C263.014 279.6 263.058 279.48 263.124 279.372L265.998 274.639C266.05 274.513 266.129 274.399 266.229 274.305C266.329 274.212 266.448 274.141 266.578 274.097C266.708 274.053 266.845 274.038 266.981 274.052C267.118 274.065 267.249 274.108 267.368 274.178C267.486 274.247 267.588 274.34 267.667 274.452C267.746 274.564 267.8 274.692 267.825 274.826C267.851 274.961 267.847 275.099 267.815 275.232C267.782 275.365 267.721 275.49 267.636 275.597L264.762 280.34C264.685 280.481 264.574 280.601 264.438 280.688C264.303 280.775 264.147 280.827 263.986 280.838Z" fill="white"/>
<path d="M250.804 302.383C250.632 302.383 250.464 302.337 250.316 302.249C250.097 302.119 249.939 301.908 249.876 301.662C249.814 301.416 249.851 301.155 249.981 300.937C252.72 296.281 256.37 290.169 260.25 284.219C260.389 284.008 260.606 283.86 260.854 283.808C261.102 283.756 261.36 283.804 261.572 283.942C261.678 284.01 261.77 284.1 261.841 284.204C261.913 284.308 261.963 284.426 261.989 284.55C262.014 284.673 262.016 284.801 261.992 284.925C261.968 285.049 261.92 285.168 261.85 285.273C258.018 291.184 254.359 297.267 251.628 301.914C251.544 302.057 251.423 302.175 251.279 302.257C251.134 302.34 250.971 302.383 250.804 302.383Z" fill="white"/>
<path d="M244.635 312.902C244.463 312.899 244.295 312.853 244.146 312.768C243.928 312.638 243.77 312.427 243.707 312.181C243.644 311.935 243.681 311.674 243.811 311.455L246.762 306.426C246.89 306.208 247.098 306.05 247.342 305.986C247.586 305.921 247.846 305.955 248.065 306.081C248.174 306.144 248.269 306.229 248.345 306.329C248.422 306.429 248.477 306.544 248.509 306.666C248.541 306.788 248.549 306.915 248.532 307.04C248.515 307.164 248.473 307.285 248.409 307.393L245.459 312.433C245.374 312.576 245.253 312.694 245.109 312.776C244.965 312.859 244.801 312.902 244.635 312.902Z" fill="white"/>
<path d="M238.954 322.338C238.778 322.337 238.605 322.287 238.456 322.195C238.348 322.129 238.254 322.042 238.18 321.94C238.105 321.838 238.052 321.722 238.023 321.599C237.993 321.476 237.988 321.349 238.009 321.224C238.029 321.1 238.073 320.98 238.14 320.873C238.932 319.595 239.717 318.318 240.496 317.041C240.636 316.849 240.842 316.715 241.074 316.667C241.306 316.618 241.548 316.657 241.753 316.776C241.958 316.895 242.111 317.086 242.183 317.312C242.256 317.538 242.242 317.782 242.144 317.999C241.359 319.292 240.573 320.585 239.768 321.878C239.683 322.018 239.564 322.134 239.421 322.214C239.278 322.295 239.118 322.338 238.954 322.338Z" fill="white"/>
</g>
</svg>
