<svg width="519" height="519" viewBox="0 0 519 519" fill="none" xmlns="http://www.w3.org/2000/svg">
<path d="M453.855 396.07C456.886 384.984 466.757 347.772 473.463 310.082C481.456 265.084 488.452 203.105 456.46 177.104C424.469 151.102 382.472 182.107 360.477 172.111C338.481 162.115 337.485 112.114 278.475 97.1257C219.464 82.1369 186.487 134.11 160.496 162.104C134.504 190.099 105.482 171.104 67.5115 201.102C29.9359 230.768 61.8025 365.106 89.5898 396.07H453.855Z" fill="#0149AD"/>
<path opacity="0.7" d="M453.855 396.07C456.886 384.984 466.757 347.772 473.463 310.082C481.456 265.084 488.452 203.105 456.46 177.104C424.469 151.102 382.472 182.107 360.477 172.111C338.481 162.115 337.485 112.114 278.475 97.1257C219.464 82.1369 186.487 134.11 160.496 162.104C134.504 190.099 105.482 171.104 67.5115 201.102C29.9359 230.768 61.8025 365.106 89.5898 396.07H453.855Z" fill="white"/>
<path d="M464.204 185.501H382.721C382.325 185.504 381.947 185.662 381.667 185.942C381.387 186.222 381.229 186.6 381.226 186.996V396.672C381.226 397.069 381.383 397.45 381.663 397.732C381.943 398.014 382.324 398.174 382.721 398.177H464.204C464.603 398.177 464.986 398.018 465.268 397.736C465.55 397.454 465.709 397.071 465.709 396.672V186.996C465.706 186.598 465.547 186.218 465.265 185.938C464.983 185.658 464.601 185.501 464.204 185.501ZM462.709 395.177H384.226V188.501H462.709V395.177Z" fill="white"/>
<path d="M389.914 231.64H457.021C457.218 231.64 457.413 231.601 457.595 231.525C457.777 231.45 457.943 231.339 458.082 231.199C458.221 231.059 458.33 230.893 458.405 230.71C458.479 230.528 458.517 230.332 458.516 230.135V194.708C458.517 194.511 458.479 194.316 458.405 194.134C458.33 193.952 458.22 193.787 458.081 193.648C457.942 193.509 457.777 193.399 457.595 193.324C457.413 193.25 457.218 193.212 457.021 193.213H389.914C389.717 193.212 389.522 193.25 389.339 193.324C389.157 193.399 388.991 193.508 388.851 193.647C388.711 193.786 388.6 193.952 388.524 194.134C388.448 194.316 388.409 194.511 388.409 194.708V230.135C388.409 230.534 388.568 230.917 388.85 231.199C389.132 231.482 389.515 231.64 389.914 231.64ZM391.409 196.182H455.516V228.609H391.409V196.182Z" fill="white"/>
<path d="M389.914 281.962H457.021C457.218 281.964 457.413 281.926 457.595 281.851C457.777 281.777 457.942 281.667 458.081 281.528C458.22 281.389 458.33 281.223 458.405 281.041C458.479 280.859 458.517 280.664 458.516 280.468V245.041C458.517 244.844 458.479 244.648 458.405 244.465C458.33 244.283 458.221 244.117 458.082 243.977C457.943 243.837 457.777 243.726 457.595 243.65C457.413 243.575 457.218 243.536 457.021 243.536H389.914C389.515 243.536 389.132 243.694 388.85 243.976C388.568 244.259 388.409 244.641 388.409 245.041V280.468C388.409 280.665 388.448 280.86 388.524 281.042C388.6 281.224 388.711 281.389 388.851 281.528C388.991 281.667 389.157 281.777 389.339 281.852C389.522 281.926 389.717 281.964 389.914 281.962ZM391.409 246.535H455.516V278.973H391.409V246.535Z" fill="white"/>
<path d="M389.914 332.295H457.021C457.417 332.295 457.798 332.137 458.078 331.857C458.358 331.577 458.516 331.197 458.516 330.8V295.363C458.516 294.966 458.358 294.586 458.078 294.306C457.798 294.026 457.417 293.868 457.021 293.868H389.914C389.517 293.868 389.136 294.025 388.854 294.305C388.572 294.585 388.412 294.966 388.409 295.363V330.8C388.412 331.198 388.572 331.578 388.854 331.858C389.136 332.138 389.517 332.295 389.914 332.295ZM391.409 296.868H455.516V329.295H391.409V296.868Z" fill="white"/>
<path d="M389.914 382.628H457.021C457.218 382.628 457.413 382.589 457.595 382.513C457.777 382.437 457.943 382.326 458.082 382.186C458.221 382.046 458.33 381.88 458.405 381.698C458.479 381.515 458.517 381.32 458.516 381.122V345.654C458.517 345.457 458.479 345.262 458.405 345.08C458.33 344.898 458.22 344.733 458.081 344.594C457.942 344.455 457.777 344.345 457.595 344.27C457.413 344.196 457.218 344.158 457.021 344.159H389.914C389.717 344.158 389.522 344.196 389.339 344.27C389.157 344.345 388.991 344.454 388.851 344.593C388.711 344.732 388.6 344.898 388.524 345.08C388.448 345.262 388.409 345.457 388.409 345.654V381.081C388.404 381.282 388.438 381.482 388.512 381.67C388.585 381.857 388.695 382.028 388.835 382.172C388.975 382.316 389.143 382.431 389.329 382.509C389.514 382.587 389.713 382.628 389.914 382.628ZM391.409 347.201H455.516V379.628H391.409V347.201Z" fill="white"/>
<path d="M362.137 111.066H142.663C142.273 111.066 141.899 111.218 141.62 111.489C141.341 111.76 141.179 112.13 141.168 112.519V221.841C141.168 222.039 141.207 222.234 141.283 222.416C141.359 222.598 141.47 222.763 141.609 222.902C141.749 223.041 141.915 223.151 142.098 223.225C142.28 223.3 142.476 223.337 142.673 223.336H362.137C362.334 223.337 362.529 223.3 362.711 223.225C362.893 223.15 363.058 223.04 363.197 222.901C363.337 222.762 363.447 222.597 363.521 222.415C363.596 222.233 363.634 222.038 363.632 221.841V112.519C363.624 112.129 363.463 111.758 363.183 111.486C362.903 111.214 362.528 111.063 362.137 111.066ZM360.632 114.066V215.499H144.157V114.024L360.632 114.066Z" fill="white"/>
<path d="M411.494 327.261L406.771 398.592C406.745 398.955 406.583 399.294 406.318 399.542C406.052 399.79 405.703 399.929 405.339 399.931C405.148 399.931 404.959 399.893 404.783 399.818C404.607 399.743 404.447 399.634 404.315 399.496C404.182 399.359 404.078 399.196 404.01 399.017C403.942 398.839 403.91 398.648 403.917 398.457L405.858 327.261H411.494Z" fill="#263238" stroke="#263238" stroke-linecap="round" stroke-linejoin="round"/>
<path d="M423.577 327.261L428.3 398.592C428.323 398.954 428.483 399.293 428.747 399.541C429.011 399.79 429.359 399.929 429.722 399.931C429.913 399.931 430.103 399.893 430.28 399.818C430.456 399.744 430.616 399.634 430.749 399.497C430.883 399.359 430.988 399.197 431.057 399.018C431.127 398.839 431.16 398.649 431.154 398.457L429.192 327.302L423.577 327.261Z" fill="#263238" stroke="#263238" stroke-linecap="round" stroke-linejoin="round"/>
<path d="M376.223 327.261L380.946 398.592C380.97 398.954 381.13 399.293 381.393 399.541C381.657 399.79 382.006 399.929 382.368 399.931C382.56 399.931 382.749 399.893 382.926 399.818C383.103 399.744 383.262 399.634 383.396 399.497C383.529 399.359 383.634 399.197 383.704 399.018C383.773 398.839 383.806 398.649 383.801 398.457L381.828 327.302L376.223 327.261Z" fill="#263238" stroke="#263238" stroke-linecap="round" stroke-linejoin="round"/>
<path d="M356.927 327.261L352.204 398.592C352.178 398.955 352.016 399.294 351.75 399.542C351.484 399.79 351.135 399.929 350.771 399.931C350.58 399.93 350.391 399.89 350.215 399.815C350.039 399.74 349.88 399.631 349.747 399.494C349.613 399.357 349.509 399.194 349.439 399.016C349.369 398.838 349.335 398.648 349.339 398.457L351.311 327.302L356.927 327.261Z" fill="#263238" stroke="#263238" stroke-linecap="round" stroke-linejoin="round"/>
<path d="M439.209 255.348C439.209 255.348 392.084 253.583 388.098 253.583C384.112 253.583 383.188 255.348 383.188 255.348L376.462 302.774C376.462 302.774 355.546 296.806 351.446 297.584C347.346 298.363 353.47 328.122 353.47 328.122H377.137L377.562 326.337H430.998L445.188 258.742C444.326 255.649 439.209 255.348 439.209 255.348Z" fill="white" stroke="#263238" stroke-linecap="round" stroke-linejoin="round"/>
<path d="M421.272 285.014C421.272 285.014 426.068 316.154 420.566 319.787C419.715 320.348 415.096 323.005 410.778 322.569C407.311 322.216 382.814 322.569 382.814 322.569C382.814 322.569 379.41 316.092 378.725 311.317C378.04 306.542 383.396 286.052 383.396 286.052L421.272 285.014Z" fill="white" stroke="#263238" stroke-linecap="round" stroke-linejoin="round"/>
<path d="M381.154 301.695C381.154 301.695 345.696 305.38 344.024 306.376C342.353 307.373 334.682 314.068 336.001 318.417C337.319 322.766 333.997 323.098 337.039 323.773C340.08 324.448 383.188 324.437 383.188 324.437" fill="#0149AD"/>
<path d="M381.154 301.695C381.154 301.695 345.696 305.38 344.024 306.376C342.353 307.373 334.682 314.068 336.001 318.417C337.319 322.766 333.997 323.098 337.039 323.773C340.08 324.448 383.188 324.437 383.188 324.437" stroke="#263238" stroke-linecap="round" stroke-linejoin="round"/>
<path d="M348.903 328.07H433.157V321.78H348.903V328.07Z" fill="white" stroke="#263238" stroke-linecap="round" stroke-linejoin="round"/>
<path d="M413.259 303.034H362.501C362.501 303.034 359.833 306.044 359.491 312.376C359.148 318.708 359.833 320.067 364.514 321.718C369.196 323.368 410.778 322.527 410.778 322.527" fill="#0149AD"/>
<path d="M413.259 303.034H362.501C362.501 303.034 359.833 306.044 359.491 312.376C359.148 318.708 359.833 320.067 364.514 321.718C369.196 323.368 410.778 322.527 410.778 322.527" stroke="#263238" stroke-linecap="round" stroke-linejoin="round"/>
<path d="M373.265 383.583L367.95 370.992L359.241 372.642L365.905 383.873L362.065 391.565L353.761 396.993C353.761 396.993 352.795 397.948 356.947 397.627C361.099 397.305 369.715 397.627 369.715 397.627L375.144 391.243C375.144 391.243 377.116 387.994 373.265 383.583Z" fill="white" stroke="#263238" stroke-linecap="round" stroke-linejoin="round"/>
<path d="M375.59 389.084L375.808 397.315H374.51L372.777 393.205L375.59 389.084Z" fill="#263238" stroke="#263238" stroke-linecap="round" stroke-linejoin="round"/>
<path d="M369.725 397.668L375.154 391.284C375.154 391.284 376.555 388.907 374.625 385.482C370.763 392.084 365.625 394.066 365.625 394.066L360.269 392.779L353.771 397.035C353.771 397.035 352.806 397.99 356.958 397.668C361.11 397.346 369.725 397.668 369.725 397.668Z" fill="#263238" stroke="#263238" stroke-linecap="round" stroke-linejoin="round"/>
<path d="M352.391 319.424L370.192 373.244L357.56 375.486L332.648 319.434C332.648 319.434 330.645 311.068 335.99 308.4C341.336 305.733 357.062 304.383 357.062 304.383" fill="#0149AD"/>
<path d="M352.391 319.424L370.192 373.244L357.56 375.486L332.648 319.434C332.648 319.434 330.645 311.068 335.99 308.4C341.336 305.733 357.062 304.383 357.062 304.383" stroke="#263238" stroke-linecap="round" stroke-linejoin="round"/>
<path d="M409.491 328.06C409.491 328.06 403.356 298.259 407.467 297.522C411.577 296.785 432.483 302.712 432.483 302.712L439.209 255.348C439.209 255.348 446.309 254.227 447.056 260.538C447.804 266.849 433.157 328.06 433.157 328.06H409.491Z" fill="#263238" stroke="#263238" stroke-linecap="round" stroke-linejoin="round"/>
<path d="M337.257 240.318L334.091 235.128C333.786 234.631 333.356 234.222 332.844 233.941C332.333 233.661 331.757 233.519 331.174 233.529L328.195 233.581L323.098 232.055C322.774 231.961 322.43 231.965 322.108 232.066C321.787 232.168 321.503 232.363 321.292 232.626L321.105 232.865L325.797 234.941L321.116 236.664L316.144 234.142C315.948 234.041 315.723 234.013 315.508 234.063C315.293 234.112 315.103 234.236 314.971 234.412C314.82 234.607 314.753 234.855 314.784 235.1C314.815 235.345 314.942 235.568 315.137 235.719L322.091 241.086C322.309 241.255 322.561 241.376 322.83 241.441C323.098 241.505 323.377 241.512 323.648 241.46L331.34 239.913L333.489 242.259L337.257 240.318Z" fill="white" stroke="#263238" stroke-linecap="round" stroke-linejoin="round"/>
<path d="M390.88 229.668L362.366 259.49L335.149 237.494L331.392 240.224L361.338 274.157L387.299 260.175L390.88 229.668Z" fill="white" stroke="#263238" stroke-linecap="round" stroke-linejoin="round"/>
<path d="M433.541 237.287L448.489 283.218L435.597 283.592L422.777 262.033C422.777 262.033 429.981 240.287 433.541 237.287Z" fill="white" stroke="#263238" stroke-linecap="round" stroke-linejoin="round"/>
<path d="M417.276 229.398L433.541 237.339L419.923 275.423L421.532 286.042L383.396 286.104L387.942 268.998L384.828 258.036C384.424 256.614 384.402 255.11 384.766 253.677L390.869 229.72L406.896 227.146L417.276 229.398Z" fill="white" stroke="#263238" stroke-linecap="round" stroke-linejoin="round"/>
<path d="M416.497 227.166C416.497 227.166 419.695 229.325 419.798 231.246C419.85 232.377 419.798 234.36 419.695 235.875C419.637 237.059 419.367 238.223 418.895 239.311L413.134 246.265L406.47 241.003L400.938 243.826C400.938 243.826 399.9 235.346 402.318 229.429C404.737 223.513 415.262 225.682 416.497 227.166Z" fill="white" stroke="#263238" stroke-linecap="round" stroke-linejoin="round"/>
<path d="M421.075 210.714C421.075 210.714 419.767 215.416 419.155 218.53C418.542 221.644 417.307 227.872 417.421 230.208C417.536 232.543 407.706 242.487 406.47 241.003C405.235 239.518 403.938 230.893 403.938 230.893L405.163 216.942C405.163 216.942 417.971 202.753 421.075 210.714Z" fill="white" stroke="#263238" stroke-linecap="round" stroke-linejoin="round"/>
<path d="M400.533 203.448C400.533 203.448 398.779 206.344 398.779 207.6C398.779 208.856 399.391 211.316 399.287 212.032C399.184 212.748 397.44 215.146 397.211 215.956C397.097 216.285 397.106 216.645 397.238 216.968C397.37 217.291 397.615 217.555 397.928 217.71C398.352 217.927 398.764 218.166 399.163 218.426C399.163 218.426 399.682 224.82 400.512 226.471C401.343 228.121 402.059 228.848 404.529 229.055C407 229.263 412.885 226.678 413.705 224.613C414.525 222.547 414.639 220.077 414.743 217.087C414.847 214.098 412.781 209.821 411.235 205.742C409.688 201.663 403.211 199.421 400.533 203.448Z" fill="white" stroke="#263238" stroke-linecap="round" stroke-linejoin="round"/>
<path d="M427.158 224.561C431.532 224.561 435.078 221.015 435.078 216.641C435.078 212.267 431.532 208.721 427.158 208.721C422.784 208.721 419.238 212.267 419.238 216.641C419.238 221.015 422.784 224.561 427.158 224.561Z" fill="#263238" stroke="#263238" stroke-linecap="round" stroke-linejoin="round"/>
<path d="M400.492 203.002C400.492 203.002 403.678 200.251 409.408 205.721C415.138 211.191 412.958 219.101 416.788 220.741C420.618 222.381 427.708 214.181 428.528 210.091C429.348 206.001 426.888 197.521 419.238 195.881C411.588 194.241 402.215 195.362 400.492 203.002Z" fill="#263238" stroke="#263238" stroke-linecap="round" stroke-linejoin="round"/>
<path d="M400.492 203.002C400.424 202.358 400.503 201.708 400.724 201.1C400.946 200.492 401.302 199.943 401.768 199.494C402.233 199.044 402.795 198.707 403.41 198.507C404.025 198.308 404.678 198.251 405.318 198.341C410.508 198.621 411.048 206.811 413.778 210.091C416.508 213.371 417.878 212.821 417.878 212.821C417.878 212.821 413.238 214.181 410.228 212.541C407.218 210.901 405.765 201.652 400.492 203.002Z" fill="#263238" stroke="#263238" stroke-linecap="round" stroke-linejoin="round"/>
<path d="M408.972 197.386C411.703 199.073 413.87 201.533 415.2 204.455C417.556 209.448 417.556 213.569 423.151 213.278C423.151 213.278 420.504 213.87 416.383 211.804C412.262 209.738 411.38 203.863 408.733 201.507C407.289 200.14 405.421 199.309 403.439 199.151" stroke="white" stroke-width="0.5" stroke-linecap="round" stroke-linejoin="round"/>
<path d="M428.528 210.091C428.528 210.091 428.289 217.586 422.539 219.163" stroke="white" stroke-width="0.5" stroke-linecap="round" stroke-linejoin="round"/>
<path d="M412.48 217.741C412.48 217.741 417.961 210.569 419.248 215.925C420.535 221.281 416.134 222.589 414.058 221.976C411.982 221.364 412.273 220.253 412.273 220.253" fill="white"/>
<path d="M412.48 217.741C412.48 217.741 417.961 210.569 419.248 215.925C420.535 221.281 416.134 222.589 414.058 221.976C411.982 221.364 412.273 220.253 412.273 220.253" stroke="#263238" stroke-linecap="round" stroke-linejoin="round"/>
<path d="M400.284 279.118C400.284 279.118 389.821 280.571 388.077 280.571C386.333 280.571 381.974 286.094 381.974 286.094H401.156L400.284 279.118Z" fill="white" stroke="#263238" stroke-linecap="round" stroke-linejoin="round"/>
<path d="M444.731 272.081L448.489 280.551C448.657 281.049 448.705 281.581 448.63 282.101C448.554 282.622 448.356 283.118 448.053 283.548C447.749 283.978 447.348 284.33 446.883 284.576C446.418 284.821 445.901 284.954 445.375 284.962L400.014 285.222L400.305 279.118L435.472 273.555" fill="white"/>
<path d="M444.731 272.081L448.489 280.551C448.657 281.049 448.705 281.581 448.63 282.101C448.554 282.622 448.356 283.118 448.053 283.548C447.749 283.978 447.348 284.33 446.883 284.576C446.418 284.821 445.901 284.954 445.375 284.962L400.014 285.222L400.305 279.118L435.472 273.555" stroke="#263238" stroke-linecap="round" stroke-linejoin="round"/>
<path d="M384.018 389.084L384.236 397.315H382.939L381.206 393.205L384.018 389.084Z" fill="#263238" stroke="#263238" stroke-linecap="round" stroke-linejoin="round"/>
<path d="M381.693 383.583L380.022 371.604L371.324 372.165L374.334 383.956L370.493 391.648L362.189 397.077C362.189 397.077 361.234 398.031 365.386 397.71C369.538 397.388 378.154 397.71 378.154 397.71L383.583 391.326C383.583 391.326 385.544 387.994 381.693 383.583Z" fill="white" stroke="#263238" stroke-linecap="round" stroke-linejoin="round"/>
<path d="M378.154 397.668L383.583 391.284C383.583 391.284 384.984 388.907 383.043 385.482C379.181 392.084 374.043 394.066 374.043 394.066L368.698 392.779L362.189 397.035C362.189 397.035 361.234 397.99 365.386 397.668C369.538 397.346 378.154 397.668 378.154 397.668Z" fill="#263238" stroke="#263238" stroke-linecap="round" stroke-linejoin="round"/>
<path d="M377.707 310.154L381.434 373.805L369.632 374.085L358.11 316.258C358.11 316.258 358.328 305.245 361.847 303.978C365.366 302.712 374.708 304.072 374.708 304.072" fill="#0149AD"/>
<path d="M377.707 310.154L381.434 373.805L369.632 374.085L358.11 316.258C358.11 316.258 358.328 305.245 361.847 303.978C365.366 302.712 374.708 304.072 374.708 304.072" stroke="#263238" stroke-linecap="round" stroke-linejoin="round"/>
<path d="M326.119 173.149L340.765 214.202C340.765 214.202 338.834 223.492 333.022 223.108C327.209 222.724 325.662 214.586 324.115 213.423C322.569 212.261 320.244 203.355 320.244 203.355L326.119 173.149Z" fill="white" stroke="#263238" stroke-linecap="round" stroke-linejoin="round"/>
<path d="M288.232 164.917L264.42 173.512L273.555 239.539H316.517L326.119 173.149L300.418 165.104L288.232 164.917Z" fill="white" stroke="#263238" stroke-linecap="round" stroke-linejoin="round"/>
<path d="M290.526 176.232L293.962 181.411L290.983 225.339L295.363 236.778L299.857 225.651L296.006 182.065L299.1 174.581L294.813 168.945L290.526 176.232Z" fill="#0149AD" stroke="#263238" stroke-linecap="round" stroke-linejoin="round"/>
<path d="M295.28 174.093L289.145 178.692L285.107 166.703L287.92 160.63L300.47 160.329L303.532 163.08L302.92 178.38L295.28 174.093Z" fill="white" stroke="#263238" stroke-linecap="round" stroke-linejoin="round"/>
<path d="M301.767 157.516L300.812 165.229L293.941 174.093L288.803 165.104V150.645C288.803 150.645 297.802 152.897 301.767 157.516Z" fill="white" stroke="#263238" stroke-linecap="round" stroke-linejoin="round"/>
<path d="M285.274 141.49C285.274 134.483 290.38 128.805 296.692 128.805C303.003 128.805 306.501 134.795 306.501 141.801C306.501 144.064 306.034 147.946 305.847 150.012C305.525 153.541 304.456 155.036 302.369 158.202C295.529 168.582 289.913 153.354 287.038 148.237C285.874 146.179 285.266 143.854 285.274 141.49Z" fill="white" stroke="#263238" stroke-linecap="round" stroke-linejoin="round"/>
<path d="M301.653 143.69L302.619 150.925L299.224 150.832" fill="white"/>
<path d="M301.653 143.69L302.619 150.925L299.224 150.832" stroke="#263238" stroke-linecap="round" stroke-linejoin="round"/>
<path d="M309.231 142.434L292.913 142.507C292.713 143.142 292.682 143.818 292.824 144.468C292.966 145.118 293.276 145.72 293.723 146.213C294.761 147.251 298.986 146.887 299.66 146.617C300.335 146.348 300.698 143.379 300.698 143.379H301.913C301.913 143.379 302.048 146.493 303.791 146.752C305.535 147.012 307.808 146.929 308.244 146.617C310.175 145.32 309.231 142.434 309.231 142.434Z" fill="white" stroke="#263238" stroke-linecap="round" stroke-linejoin="round"/>
<path d="M287.287 149.41C287.287 149.41 290.962 156.935 291.834 159.541C292.706 162.146 297.024 164.18 301.394 162.727C305.764 161.274 304.58 154.807 304.58 154.807C304.58 154.807 299.94 150.842 299.079 151.693C298.217 152.544 293.567 156.333 293.277 155.461C292.986 154.589 290.962 149.379 290.962 149.379L290.017 145.683L291.958 144.438C292.238 144.204 292.421 143.874 292.469 143.513C292.517 143.151 292.427 142.785 292.218 142.486L291.304 141.168C291.192 141.007 291.112 140.824 291.071 140.632C291.03 140.439 291.028 140.24 291.066 140.047C291.304 138.916 291.958 136.57 293.474 135.895C295.55 135.033 298.072 136.289 300.397 136.871C302.722 137.452 305.245 135.355 305.245 135.355L306.283 138.801C308.584 136.642 310.219 133.868 310.995 130.809C312.158 125.878 300.273 123.854 296.463 123.854C292.654 123.854 286.613 125.93 284.869 131.39C283.125 136.85 286.26 148.434 287.287 149.41Z" fill="#263238" stroke="#263238" stroke-linecap="round" stroke-linejoin="round"/>
<path d="M296.692 130.84C296.692 130.84 298.851 134.078 296.017 134.753C293.183 135.428 287.661 132.999 285.232 133.944" stroke="white" stroke-width="0.5" stroke-linecap="round" stroke-linejoin="round"/>
<path d="M291.834 137.981C291.834 137.981 287.391 137.442 285.606 139.331" stroke="white" stroke-width="0.5" stroke-linecap="round" stroke-linejoin="round"/>
<path d="M302.525 154.351C302.525 154.351 299.255 156.053 297.636 154.029" stroke="white" stroke-width="0.5" stroke-linecap="round" stroke-linejoin="round"/>
<path d="M287.837 147.116C287.837 147.116 284.63 143.587 284.63 147.438C284.63 151.288 285.595 151.288 287.516 152.628C289.436 153.967 290.09 152.306 290.09 152.306" fill="white"/>
<path d="M287.837 147.116C287.837 147.116 284.63 143.587 284.63 147.438C284.63 151.288 285.595 151.288 287.516 152.628C289.436 153.967 290.09 152.306 290.09 152.306" stroke="#263238" stroke-linecap="round" stroke-linejoin="round"/>
<path d="M330.665 386.385H330.811L330.53 384.973L316.517 239.55H273.555L259.427 386.375H259.583L268.697 387.153C268.697 387.153 278.807 353.211 278.807 350.678C278.807 348.145 281.692 324.728 281.692 324.728L296.027 274.333L308.701 324.728C308.701 324.728 311.587 348.197 311.587 350.678C311.587 353.159 321.707 387.174 321.707 387.174L330.281 386.437H330.665V386.385Z" fill="#263238" stroke="#263238" stroke-linecap="round" stroke-linejoin="round"/>
<path d="M313.31 248.103L303.75 261.752" stroke="white" stroke-width="0.5" stroke-linecap="round" stroke-linejoin="round"/>
<path d="M308.193 251.175L302.39 260.735" stroke="white" stroke-width="0.5" stroke-linecap="round" stroke-linejoin="round"/>
<path d="M280.893 250.501L289.415 259.708" stroke="white" stroke-width="0.5" stroke-linecap="round" stroke-linejoin="round"/>
<path d="M280.208 253.905L292.488 266.195" stroke="white" stroke-width="0.5" stroke-linecap="round" stroke-linejoin="round"/>
<path d="M276.108 240.941H313.995" stroke="white" stroke-width="0.5" stroke-linecap="round" stroke-linejoin="round"/>
<path d="M259.583 386.375C259.583 386.375 254.113 390.682 250.957 391.866C247.802 393.049 241.906 396.194 241.906 396.194C241.906 396.194 241.906 398.166 247.023 398.166H267.109L266.766 386.375H259.583Z" fill="#263238" stroke="#263238" stroke-linecap="round" stroke-linejoin="round"/>
<path d="M267.036 396.018C259.015 396.384 250.98 396.256 242.975 395.634L241.937 396.194C241.937 396.194 241.937 398.166 247.054 398.166H267.14L267.036 396.018Z" fill="white" stroke="#263238" stroke-linecap="round" stroke-linejoin="round"/>
<path d="M329.835 386.375C329.835 386.375 335.316 390.682 338.461 391.866C341.606 393.049 347.522 396.194 347.522 396.194C347.522 396.194 347.522 398.166 342.395 398.166H322.32L322.683 386.375H329.835Z" fill="#263238" stroke="#263238" stroke-linecap="round" stroke-linejoin="round"/>
<path d="M322.382 396.018C330.403 396.384 338.438 396.256 346.443 395.634L347.481 396.194C347.481 396.194 347.481 398.166 342.353 398.166H322.32L322.382 396.018Z" fill="white" stroke="#263238" stroke-linecap="round" stroke-linejoin="round"/>
<path d="M264.42 173.512L248.601 215.748H263.777L269.444 204.227L264.42 173.512Z" fill="white" stroke="#263238" stroke-linecap="round" stroke-linejoin="round"/>
<path d="M333.624 209.209C327.292 206.593 306.978 205.296 305.919 205.296C304.861 205.296 271.842 202.576 269.133 202.182C266.423 201.787 263.32 207.994 263.32 207.994L277.644 207.6L295.072 211.088C295.072 211.088 330.364 223.865 333.022 223.097C333.384 222.977 333.711 222.77 333.976 222.495" fill="white"/>
<path d="M333.624 209.209C327.292 206.593 306.978 205.296 305.919 205.296C304.861 205.296 271.842 202.576 269.133 202.182C266.423 201.787 263.32 207.994 263.32 207.994L277.644 207.6L295.072 211.088C295.072 211.088 330.364 223.865 333.022 223.097C333.384 222.977 333.711 222.77 333.976 222.495" stroke="#263238" stroke-linecap="round" stroke-linejoin="round"/>
<path d="M259.832 207.226L314.431 201.808L314.825 206.448L267.576 220.783C267.576 220.783 259.064 222.713 252.473 221.551C245.881 220.388 248.995 213.807 250.542 209.936" fill="white"/>
<path d="M259.832 207.226L314.431 201.808L314.825 206.448L267.576 220.783C267.576 220.783 259.064 222.713 252.473 221.551C245.881 220.388 248.995 213.807 250.542 209.936" stroke="#263238" stroke-linecap="round" stroke-linejoin="round"/>
<path d="M314.441 201.808L324.894 201.414L327.987 207.61L314.825 206.458L314.441 201.808Z" fill="white" stroke="#263238" stroke-linecap="round" stroke-linejoin="round"/>
<path d="M384.06 292.882L392.976 399.038C393 399.197 393.055 399.348 393.14 399.484C393.224 399.62 393.335 399.737 393.466 399.829C393.598 399.92 393.746 399.984 393.903 400.016C394.06 400.047 394.221 400.047 394.378 400.014C394.645 399.948 394.879 399.788 395.037 399.563C395.196 399.338 395.267 399.063 395.239 398.789L389.167 292.913L384.06 292.882Z" fill="#263238" stroke="#263238" stroke-linecap="round" stroke-linejoin="round"/>
<path d="M443.984 292.882L452.931 399.391C452.953 399.55 453.008 399.703 453.092 399.839C453.176 399.976 453.287 400.094 453.419 400.186C453.55 400.277 453.699 400.341 453.857 400.372C454.014 400.403 454.176 400.401 454.333 400.367C454.6 400.301 454.834 400.141 454.992 399.916C455.151 399.69 455.222 399.416 455.194 399.142L449.101 292.882H443.984Z" fill="#263238" stroke="#263238" stroke-linecap="round" stroke-linejoin="round"/>
<path d="M196.691 292.882L192.03 398.115C192.004 398.391 192.078 398.667 192.238 398.893C192.398 399.12 192.633 399.282 192.902 399.35C193.056 399.389 193.217 399.395 193.374 399.367C193.53 399.339 193.679 399.278 193.81 399.187C193.941 399.097 194.051 398.979 194.133 398.842C194.214 398.706 194.265 398.553 194.282 398.395L201.829 292.882H196.691Z" fill="#263238" stroke="#263238" stroke-linecap="round" stroke-linejoin="round"/>
<path d="M141.459 292.882L136.767 397.72C136.744 397.997 136.82 398.273 136.981 398.5C137.143 398.726 137.38 398.887 137.649 398.955C137.803 398.993 137.964 398.998 138.12 398.969C138.276 398.94 138.424 398.879 138.554 398.789C138.685 398.698 138.795 398.581 138.877 398.445C138.959 398.31 139.011 398.158 139.03 398L146.545 292.841L141.459 292.882Z" fill="#263238" stroke="#263238" stroke-linecap="round" stroke-linejoin="round"/>
<path d="M455.651 286.997H138.137V296.11H455.651V286.997Z" fill="#0149AD" stroke="#263238" stroke-linecap="round" stroke-linejoin="round"/>
<path d="M455.651 286.997H138.137V290.121H455.651V286.997Z" fill="#263238" stroke="#263238" stroke-linecap="round" stroke-linejoin="round"/>
<path d="M455.64 286.997H376.192V296.11H455.64V286.997Z" fill="#263238" stroke="#263238" stroke-linecap="round" stroke-linejoin="round"/>
<path d="M458.474 283.966H135.303V287.443H458.474V283.966Z" fill="#0149AD" stroke="#263238" stroke-linecap="round" stroke-linejoin="round"/>
<path d="M458.464 283.966H379.503V287.443H458.464V283.966Z" fill="#263238" stroke="#263238" stroke-linecap="round" stroke-linejoin="round"/>
<path d="M207.289 283.654H250.656C250.822 283.655 250.984 283.608 251.122 283.517C251.261 283.427 251.369 283.298 251.435 283.146L263.444 255.763C263.5 255.635 263.522 255.495 263.509 255.356C263.497 255.216 263.45 255.083 263.373 254.966C263.295 254.85 263.19 254.754 263.067 254.689C262.943 254.623 262.806 254.589 262.666 254.59H219.298C219.136 254.59 218.977 254.637 218.84 254.726C218.704 254.814 218.596 254.94 218.53 255.089L206.562 282.471C206.506 282.596 206.482 282.732 206.49 282.869C206.499 283.006 206.541 283.138 206.613 283.254C206.684 283.371 206.783 283.468 206.901 283.538C207.019 283.608 207.152 283.648 207.289 283.654Z" fill="white" stroke="#263238" stroke-linecap="round" stroke-linejoin="round"/>
<path d="M211.358 281.516H248.362C248.501 281.516 248.636 281.476 248.752 281.4C248.868 281.325 248.96 281.217 249.016 281.09L259.261 257.725C259.317 257.615 259.343 257.492 259.337 257.369C259.331 257.245 259.293 257.126 259.227 257.021C259.162 256.917 259.07 256.831 258.961 256.773C258.853 256.714 258.731 256.685 258.607 256.687H221.603C221.461 256.686 221.323 256.727 221.204 256.804C221.086 256.882 220.994 256.993 220.938 257.123L210.714 280.509C210.666 280.617 210.645 280.736 210.654 280.854C210.663 280.972 210.701 281.086 210.765 281.186C210.829 281.285 210.916 281.368 211.02 281.425C211.123 281.483 211.239 281.514 211.358 281.516Z" fill="#0149AD" stroke="#263238" stroke-linecap="round" stroke-linejoin="round"/>
<path d="M251.258 281.838H186.103V283.966H251.258V281.838Z" fill="white" stroke="#263238" stroke-linecap="round" stroke-linejoin="round"/>
<path d="M251.269 281.838H219.682V283.966H251.269V281.838Z" fill="white" stroke="#263238" stroke-linecap="round" stroke-linejoin="round"/>
<path d="M272.195 267.026H260.704V284.007H272.195V267.026Z" fill="white" stroke="#263238" stroke-linecap="round" stroke-linejoin="round"/>
<path d="M271.686 281.692H270.482C270.232 281.692 269.991 281.593 269.814 281.416C269.637 281.239 269.537 280.998 269.537 280.748C269.537 280.497 269.637 280.257 269.814 280.08C269.991 279.903 270.232 279.803 270.482 279.803H271.686C272.162 279.801 272.617 279.61 272.953 279.274C273.289 278.938 273.479 278.483 273.482 278.008V273.856C273.479 273.38 273.289 272.925 272.953 272.589C272.617 272.253 272.162 272.063 271.686 272.06H270.139C270.015 272.06 269.893 272.035 269.778 271.988C269.663 271.94 269.559 271.871 269.472 271.783C269.384 271.695 269.314 271.591 269.267 271.477C269.219 271.362 269.195 271.239 269.195 271.115C269.195 270.991 269.219 270.868 269.267 270.754C269.314 270.639 269.384 270.535 269.472 270.447C269.559 270.36 269.663 270.29 269.778 270.243C269.893 270.195 270.015 270.171 270.139 270.171H271.686C272.17 270.171 272.649 270.266 273.096 270.451C273.543 270.636 273.95 270.908 274.292 271.25C274.634 271.592 274.905 271.998 275.091 272.445C275.276 272.892 275.371 273.372 275.371 273.856V278.008C275.371 278.491 275.276 278.971 275.091 279.418C274.905 279.865 274.634 280.271 274.292 280.613C273.95 280.955 273.543 281.227 273.096 281.412C272.649 281.597 272.17 281.692 271.686 281.692Z" fill="white" stroke="#263238" stroke-linecap="round" stroke-linejoin="round"/>
<path d="M361.971 283.654H318.604C318.44 283.653 318.28 283.605 318.144 283.515C318.007 283.424 317.9 283.296 317.836 283.146L305.826 255.763C305.771 255.636 305.749 255.496 305.761 255.358C305.773 255.22 305.819 255.087 305.895 254.97C305.971 254.854 306.075 254.759 306.197 254.692C306.319 254.626 306.455 254.591 306.594 254.59H349.962C350.126 254.589 350.286 254.636 350.424 254.724C350.563 254.813 350.672 254.939 350.74 255.088L362.75 282.471C362.805 282.6 362.827 282.74 362.814 282.88C362.801 283.02 362.754 283.154 362.677 283.271C362.6 283.388 362.496 283.484 362.372 283.551C362.249 283.618 362.111 283.653 361.971 283.654Z" fill="white" stroke="#263238" stroke-linecap="round" stroke-linejoin="round"/>
<path d="M318.002 283.966H383.157V281.838H318.002V283.966Z" fill="white" stroke="#263238" stroke-linecap="round" stroke-linejoin="round"/>
<path d="M318.002 283.966H362.926V281.838H318.002V283.966Z" fill="white" stroke="#263238" stroke-linecap="round" stroke-linejoin="round"/>
<path d="M335.004 265.956C335.239 266.401 335.338 266.905 335.288 267.405C335.237 267.905 335.041 268.379 334.722 268.768C334.403 269.157 333.977 269.443 333.496 269.591C333.016 269.739 332.502 269.741 332.02 269.598C331.538 269.455 331.109 269.173 330.787 268.787C330.465 268.401 330.264 267.929 330.209 267.429C330.154 266.929 330.248 266.425 330.478 265.978C330.709 265.531 331.067 265.163 331.506 264.918C332.108 264.593 332.814 264.52 333.47 264.715C334.125 264.909 334.677 265.356 335.004 265.956Z" fill="white" stroke="#263238" stroke-linecap="round" stroke-linejoin="round"/>
<path d="M132.21 185.356L135.407 216.942L149.939 259.012L144.967 261.856L127.902 223.346L119.38 190.286C119.38 190.286 118.664 180.342 122.224 178.868C125.785 177.394 130.788 178.962 132.21 185.356Z" fill="white" stroke="#263238" stroke-linecap="round" stroke-linejoin="round"/>
<path d="M149.981 259.054C149.981 259.054 153.178 265.811 153.541 267.586C153.904 269.361 154.268 272.984 152.866 274.603C151.174 276.554 149.628 275.049 149.628 275.049C149.628 275.049 145.362 274.011 145.362 270.43C145.362 266.849 145.009 261.898 145.009 261.898L149.981 259.054Z" fill="white" stroke="#263238" stroke-linecap="round" stroke-linejoin="round"/>
<path d="M146.493 269.652L152.482 271.209" stroke="#263238" stroke-linecap="round" stroke-linejoin="round"/>
<path d="M147.925 265.614L149.628 268.292C149.628 268.292 145.663 275.07 147.79 273.295C149.918 271.52 153.894 269.361 153.541 267.586C152.94 265.723 152.147 263.928 151.174 262.23" fill="white"/>
<path d="M147.925 265.614L149.628 268.292C149.628 268.292 145.663 275.07 147.79 273.295C149.918 271.52 153.894 269.361 153.541 267.586C152.94 265.723 152.147 263.928 151.174 262.23" stroke="#263238" stroke-linecap="round" stroke-linejoin="round"/>
<path d="M115.218 147.396C115.218 147.396 111.564 143.452 103.136 145.984C94.7071 148.517 92.7557 162.011 93.0152 168.748C93.2747 175.484 99.7622 183.082 97.8004 186.456C95.8385 189.829 88.5206 197.697 89.0812 206.178C89.6417 214.658 96.6689 221.354 106.789 218.26C116.91 215.167 115.218 202.784 113.204 198.258C111.191 193.732 115.457 191.791 116.858 181.951C118.259 172.111 109.27 163.962 109.27 156.935C109.27 149.908 116.536 151.039 116.536 151.039L115.218 147.396Z" fill="#263238" stroke="#263238" stroke-linecap="round" stroke-linejoin="round"/>
<path d="M102.554 174.073C103.883 176.813 105.43 179.74 106.966 182.896C112.094 193.359 108.087 197.137 100.292 202.929C92.4962 208.721 94.2815 215.842 96.2849 216.942" stroke="white" stroke-width="0.5" stroke-linecap="round" stroke-linejoin="round"/>
<path d="M112.54 150.167C112.54 150.167 102.077 151.06 99.3989 157.734C97.7796 161.793 99.0252 166.339 101.413 171.633" stroke="white" stroke-width="0.5" stroke-linecap="round" stroke-linejoin="round"/>
<path d="M104.89 214.337C105.695 214.639 106.553 214.773 107.412 214.731" stroke="white" stroke-width="0.5" stroke-linecap="round" stroke-linejoin="round"/>
<path d="M115.218 149.472C115.218 149.472 105.419 151.247 103.198 158.368C100.977 165.488 114.107 176.014 114.772 183.757C115.436 191.501 106.084 196.026 102.762 202.036C100.426 206.251 100.686 210.89 103.146 213.226" stroke="white" stroke-width="0.5" stroke-linecap="round" stroke-linejoin="round"/>
<path d="M140.358 292.789C140.358 292.789 137.94 313.673 135.511 320.337C133.082 327.001 127.643 379.368 127.342 382.399C127.041 385.43 135.21 392.385 138.542 394.513C141.874 396.641 140.358 397.232 136.725 397.533C133.092 397.834 128.857 397.232 127.041 393.9C125.224 390.568 120.979 389.665 120.979 389.665L120.377 396.931H119.162L118.259 387.849C117.951 385.787 118.265 383.679 119.162 381.797C120.678 378.465 121.238 371.5 121.238 362.075C121.238 352.65 119.422 337.547 120.325 330.281C121.228 323.015 124.871 317.566 124.871 311.514C124.871 305.463 125.172 296.38 125.172 296.38L140.358 292.789Z" fill="white" stroke="#263238" stroke-linecap="round" stroke-linejoin="round"/>
<path d="M118.259 387.849C118.018 386.287 118.15 384.69 118.643 383.188C120.522 386.364 125.909 390.672 130.061 392.385C132.313 393.359 134.767 393.773 137.213 393.589C137.701 393.952 138.158 394.264 138.542 394.513C141.874 396.589 140.358 397.232 136.725 397.533C133.092 397.834 128.857 397.232 127.041 393.9C125.224 390.568 120.979 389.665 120.979 389.665L120.377 396.931H119.162L118.259 387.849Z" fill="#263238" stroke="#263238" stroke-linecap="round" stroke-linejoin="round"/>
<path d="M122.795 296.121C122.795 296.121 117.605 311.556 112.81 324.873C108.014 338.191 96.4613 368.77 95.2469 374.22C94.0324 379.669 93.4304 389.665 90.0569 394.814C86.6834 399.962 83.3929 402.381 83.995 393.298C84.597 384.216 90.0569 377.552 91.261 370.587C92.465 363.622 93.0775 338.502 97.3125 327.302C101.548 316.102 106.094 307.02 106.654 303.688C107.068 300.372 107.27 297.033 107.257 293.692L122.795 296.121Z" fill="white" stroke="#263238" stroke-linecap="round" stroke-linejoin="round"/>
<path d="M84.6177 389.406C84.6625 391.118 85.1955 392.782 86.154 394.201C87.8978 396.153 90.7108 392.364 92.1744 390.049C91.6955 391.719 90.9975 393.317 90.0984 394.803C86.7664 399.941 83.4344 402.37 84.0365 393.288C84.1366 391.981 84.3309 390.684 84.6177 389.406Z" fill="#263238" stroke="#263238" stroke-linecap="round" stroke-linejoin="round"/>
<path d="M120.408 174.28C120.408 174.28 118.592 175.796 117.377 186.093C116.163 196.39 123.74 228.474 123.74 228.474C123.74 228.474 110.723 249.795 107.693 260.393C104.662 270.991 102.845 310.694 102.845 310.694C102.845 310.694 109.208 313.123 122.225 314.026C135.241 314.929 142.206 311.608 142.206 311.608C142.206 311.608 142.808 254.943 142.808 246.214C142.808 237.484 143.42 217.627 144.324 215.209C145.227 212.79 147.957 206.427 147.957 204.009C147.957 201.59 129.75 175.796 129.75 175.796L120.408 174.28Z" fill="white" stroke="#263238" stroke-linecap="round" stroke-linejoin="round"/>
<path d="M107.661 260.393C110.049 252.089 119.931 230 123.46 226.201C128.826 227.986 138.615 229.751 142.985 228.443C142.85 231.557 142.777 243.183 142.777 246.162C142.777 254.943 142.175 311.556 142.175 311.556C142.175 311.556 135.21 314.888 122.193 313.974C109.177 313.061 102.814 310.642 102.814 310.642C102.814 310.642 104.63 270.991 107.661 260.393Z" fill="#263238" stroke="#263238" stroke-linecap="round" stroke-linejoin="round"/>
<path d="M127.124 138.594C127.124 138.594 130.373 131.515 136.798 131.515C143.223 131.515 146.078 137.224 144.656 142.216C143.234 147.209 148.932 145.787 149.648 149.005C150.365 152.223 145.009 154.351 142.154 154.351C139.3 154.351 127.124 138.594 127.124 138.594Z" fill="#263238" stroke="#263238" stroke-linecap="round" stroke-linejoin="round"/>
<path d="M136.507 137.867C138.417 136.829 140.659 136.082 141.697 137.701C143.701 140.815 137.473 143.265 139.476 146.607C141.479 149.949 146.379 149.057 146.15 150.167C145.922 151.278 142.818 151.942 142.818 151.942" stroke="white" stroke-width="0.5" stroke-linecap="round" stroke-linejoin="round"/>
<path d="M133.238 140.13C133.238 140.13 133.85 139.601 134.764 138.957" stroke="white" stroke-width="0.5" stroke-linecap="round" stroke-linejoin="round"/>
<path d="M143.597 155.067C143.143 154.729 142.785 154.278 142.559 153.759C142.04 149.929 140.919 146.161 138.801 144.043C135.598 141.028 131.513 139.118 127.145 138.594C125.851 138.403 124.531 138.524 123.294 138.947C117.782 140.877 113.049 144.687 114.066 153.873C115.187 163.994 123.065 166.526 123.065 166.526L123.626 172.754L131.494 176.408L131.774 169.661C131.774 169.661 137.109 171.903 139.04 171.623C140.971 171.343 141.573 168.81 142.414 165.156C142.722 163.489 142.875 161.797 142.87 160.101L145.227 157.755C146.566 156.395 145.247 156.063 143.597 155.067Z" fill="white" stroke="#263238" stroke-linecap="round" stroke-linejoin="round"/>
<path d="M114.045 153.873C113.007 144.687 117.761 140.877 123.273 138.947C124.51 138.524 125.83 138.403 127.124 138.594C130.102 138.992 132.969 139.988 135.552 141.521C133.975 141.199 136.663 145.839 134.193 148.787C132.029 151.524 129.271 153.731 126.127 155.243C126.127 155.243 123.325 152.991 122.474 156.084C121.622 159.177 121.913 161.419 124.166 161.99C126.418 162.561 127.28 161.99 127.28 161.99C127.28 161.99 125.785 165.53 123.128 166.993V166.485C123.128 166.485 115.218 164.004 114.045 153.873Z" fill="#263238" stroke="#263238" stroke-linecap="round" stroke-linejoin="round"/>
<path d="M135.511 174.581L134.006 182.761L117.958 174.28L119.474 166.713L135.511 174.581Z" fill="white" stroke="#263238" stroke-linecap="round" stroke-linejoin="round"/>
<path d="M127.757 243.546C129.419 243.901 131.105 244.13 132.802 244.231C134.12 244.148 135.916 242.664 137.244 243.297C138.573 243.93 140.431 247.926 140.431 247.926C140.431 247.926 142.196 248.819 141.687 249.764C141.178 250.708 138.999 251.58 138.999 251.58C138.999 251.58 136.923 253.542 135.718 253.739C134.514 253.936 127.176 248.549 127.176 248.549L127.757 243.546Z" fill="white" stroke="#263238" stroke-linecap="round" stroke-linejoin="round"/>
<path d="M128.536 247.428C128.779 247.136 128.953 246.794 129.046 246.426C129.14 246.057 129.149 245.673 129.075 245.301C129 244.928 128.843 244.578 128.615 244.274C128.387 243.97 128.094 243.722 127.757 243.546L107.589 224.654L129.553 190.504C130.533 188.698 130.771 186.582 130.216 184.604C129.662 182.626 128.358 180.941 126.582 179.908C124.806 178.875 122.698 178.575 120.704 179.07C118.711 179.566 116.988 180.819 115.903 182.563L96.8662 220.399C95.8763 221.359 95.3041 222.67 95.273 224.049C95.2419 225.428 95.7545 226.764 96.7001 227.768L96.7727 227.841C98.6827 230.789 119.692 246.203 125.837 248.217C126.314 248.368 126.826 248.374 127.306 248.233C127.787 248.093 128.215 247.813 128.536 247.428Z" fill="white" stroke="#263238" stroke-linecap="round" stroke-linejoin="round"/>
<path d="M208.337 195.144C208.337 195.144 210.942 203.209 210.942 204.777C210.923 205.909 210.837 207.039 210.683 208.161L212.977 211.721C213.111 211.95 213.153 212.222 213.093 212.48C213.033 212.739 212.876 212.965 212.655 213.112L209.115 215.188C209.115 215.188 208.596 223.492 208.077 224.53C207.558 225.568 198.735 225.319 198.735 225.319L195.871 230.779L181.027 225.059L184.93 214.378L184.12 198.258C184.12 198.258 193.234 190.203 208.337 195.144Z" fill="white" stroke="#263238" stroke-linecap="round" stroke-linejoin="round"/>
<path d="M198.175 214.762C198.175 214.762 195.59 217.191 193.649 217.357C191.708 217.523 185.397 216.06 184.909 215.416C184.421 214.773 180.062 205.711 180.218 201.341C180.373 196.971 180.55 190.504 185.231 188.407C189.912 186.311 197.365 186.944 201.247 184.525C205.13 182.107 211.275 180.155 214.513 184.359C217.752 188.563 215.323 194.386 212.738 196.815C210.153 199.244 206.915 199.929 207.237 200.967C207.558 202.005 209.5 203.23 208.368 204.849C207.237 206.469 203.178 207.963 203.178 208.565C203.178 209.167 204.154 211.482 203.022 211.804C201.891 212.126 200.749 209.541 199.618 209.541C198.486 209.541 196.078 212.665 198.175 214.762Z" fill="#263238" stroke="#263238" stroke-linecap="round" stroke-linejoin="round"/>
<path d="M191.418 207.34C190.951 207.862 190.554 208.441 190.234 209.064" stroke="white" stroke-width="0.5" stroke-linecap="round" stroke-linejoin="round"/>
<path d="M212.676 190.577C212.47 192.358 211.821 194.06 210.787 195.525C209.754 196.99 208.369 198.173 206.759 198.964C202.607 201.112 197.075 202.867 193.4 205.566" stroke="white" stroke-width="0.5" stroke-linecap="round" stroke-linejoin="round"/>
<path d="M207.237 201.019C207.237 201.019 203.552 204.133 199.607 207.34C196.916 209.424 193.923 211.086 190.732 212.271" stroke="white" stroke-width="0.5" stroke-linecap="round" stroke-linejoin="round"/>
<path d="M197.915 215.198L199.991 215.717C199.866 216.688 199.94 217.674 200.209 218.614C200.479 219.555 200.938 220.431 201.559 221.187" fill="white"/>
<path d="M197.915 215.198L199.991 215.717C199.866 216.688 199.94 217.674 200.209 218.614C200.479 219.555 200.938 220.431 201.559 221.187" stroke="#263238" stroke-linecap="round" stroke-linejoin="round"/>
<path d="M200.324 209.624L214.98 205.991" stroke="#263238" stroke-linecap="round" stroke-linejoin="round"/>
<path d="M211.212 205.7L214.555 205.846C214.555 205.846 215.707 209.624 212.229 210.06" stroke="#263238" stroke-linecap="round" stroke-linejoin="round"/>
<path d="M196.431 385.16C196.431 385.16 209.925 393.682 212.302 393.682C214.679 393.682 215.862 395.821 214.679 396.059C213.496 396.298 206.147 396.526 201.185 396.765C196.224 397.004 192.881 396.526 190.047 396.526C187.214 396.526 183.882 396.765 182.46 396.059C181.038 395.353 183.415 387.288 183.415 385.866C183.415 384.444 194.77 384.205 196.431 385.16Z" fill="#263238" stroke="#263238" stroke-linecap="round" stroke-linejoin="round"/>
<path d="M213.828 394.035C208.586 395.758 200.085 394.627 194.978 394.16C190.94 393.796 184.598 393.713 182.013 393.693C181.91 394.907 182.013 395.831 182.418 396.059C183.84 396.765 187.162 396.526 190.006 396.526C192.85 396.526 196.161 397.004 201.144 396.765C206.126 396.526 213.465 396.288 214.638 396.059C215.561 395.872 215.126 394.648 213.828 394.035Z" fill="white" stroke="#263238" stroke-linecap="round" stroke-linejoin="round"/>
<path d="M207.091 326.617L196.442 380.022L198.663 385.565C197.069 387.874 194.663 389.497 191.926 390.112C188.882 390.71 185.79 391.03 182.688 391.066C182.688 391.066 181.505 385.14 182.221 384.423C182.937 383.707 183.165 380.873 183.165 380.873L189.321 327.084L207.091 326.617Z" fill="#0149AD" stroke="#263238" stroke-linecap="round" stroke-linejoin="round"/>
<path d="M239.55 383.354C239.55 383.354 247.854 390.226 251.642 391.409C255.431 392.592 259.458 393.776 259.458 394.959C259.458 396.142 250.459 397.326 243.587 396.62C236.716 395.914 226.284 392.831 223.917 392.831C221.551 392.831 222.018 386.665 222.018 385.721C222.018 384.776 233.633 377.188 239.55 383.354Z" fill="#263238" stroke="#263238" stroke-linecap="round" stroke-linejoin="round"/>
<path d="M259.5 394.959C259.5 394.533 258.971 394.108 258.13 393.682C251.347 394.59 244.471 394.541 237.702 393.537C230.882 392.561 225.173 391.253 222.257 390.527C222.506 391.803 222.994 392.831 223.959 392.831C226.326 392.831 236.757 395.945 243.629 396.62C250.501 397.295 259.5 396.142 259.5 394.959Z" fill="white" stroke="#263238" stroke-linecap="round" stroke-linejoin="round"/>
<path d="M198.331 302.681C205.436 302.137 212.577 302.297 219.651 303.158C231.734 304.58 258.732 306.272 259.199 309.324C259.666 312.376 238.252 376.514 238.252 378.164C238.252 379.815 240.141 381.486 240.619 382.43C240.92 383.104 241.082 383.831 241.096 384.569C241.096 384.569 235.294 390.797 230.789 392.489C226.284 394.18 222.485 392.592 221.551 392.592C220.617 392.592 220.606 386.198 221.322 383.115C222.039 380.033 223.212 372.216 223.45 371.511C223.689 370.805 236.664 325.195 236.664 325.195C236.664 325.195 201.372 330.883 180.29 328.506C159.208 326.129 157.07 322.828 155.887 317.846C154.704 312.864 157.07 302.92 157.07 302.92L198.331 302.681Z" fill="#0149AD" stroke="#263238" stroke-linecap="round" stroke-linejoin="round"/>
<path d="M195.663 318.033C195.184 318.726 194.649 319.378 194.064 319.984" stroke="#263238" stroke-linecap="round" stroke-linejoin="round"/>
<path d="M202.119 305.286C200.757 308.697 199.187 312.022 197.417 315.241" stroke="#263238" stroke-linecap="round" stroke-linejoin="round"/>
<path d="M199.296 307.663C196.437 312.38 192.108 316.026 186.975 318.043" stroke="#263238" stroke-linecap="round" stroke-linejoin="round"/>
<path d="M253.085 320.742C253.895 320.431 254.673 320.109 255.41 319.777L253.085 320.742Z" fill="white"/>
<path d="M253.085 320.742C253.895 320.431 254.673 320.109 255.41 319.777" stroke="#263238" stroke-linecap="round" stroke-linejoin="round"/>
<path d="M236.664 325.195C241.223 324.315 245.729 323.174 250.158 321.78L236.664 325.195Z" fill="white"/>
<path d="M236.664 325.195C241.223 324.315 245.729 323.174 250.158 321.78" stroke="#263238" stroke-linecap="round" stroke-linejoin="round"/>
<path d="M264.057 246.504C264.555 244.522 265.385 244.677 264.721 244.023C263.808 243.11 263.071 244.19 260.424 245.674C257.777 247.158 255.14 248.975 255.14 248.975C255.198 248.424 255.427 247.905 255.794 247.49C256.464 246.396 256.822 245.14 256.832 243.857C256.832 242.819 256.002 243.027 255.67 244.023C255.338 245.02 252.369 246.826 252.203 247.656C252.037 248.487 251.445 251.746 251.445 251.746C250.501 253.168 250.501 259.801 250.501 259.801L231.266 274.25L221.551 285.668C221.551 285.668 225.817 292.54 228.184 291.595C230.55 290.65 231.733 289.695 237.422 284.952C242.238 280.935 254.31 262.406 254.31 262.406C256.413 261.086 258.402 259.593 260.258 257.943C262.398 255.521 263.663 252.451 263.849 249.224C263.805 248.312 263.874 247.399 264.057 246.504Z" fill="white" stroke="#263238" stroke-linecap="round" stroke-linejoin="round"/>
<path d="M175.059 224.582C175.059 224.582 176.886 217.731 184.65 219.101C192.414 220.471 198.351 226.865 199.722 229.149C201.092 231.432 174.602 228.235 174.602 228.235L175.059 224.582Z" fill="white" stroke="#263238" stroke-linecap="round" stroke-linejoin="round"/>
<path d="M219.817 284.412C219.817 284.412 218.011 286.363 219.817 289.436C221.052 291.564 223.232 293.193 227.405 292.477C231.308 291.792 237.173 282.097 237.173 275.278C237.173 268.458 232.149 268.012 230.322 269.34C228.495 270.669 219.817 284.412 219.817 284.412Z" fill="white" stroke="#263238" stroke-linecap="round" stroke-linejoin="round"/>
<path d="M178.422 223.782C178.422 223.782 159.945 232.554 157.34 234.162C154.735 235.771 153.074 256.428 153.074 259.988C153.074 263.548 155.679 298.394 156.385 304.29C157.091 310.186 179.844 314.244 187.432 312.106C195.019 309.968 202.41 304.58 202.41 302.681C202.41 300.781 201.694 284.682 202.171 281.599C202.649 278.516 206.905 265.489 206.905 265.489L219.838 286.125C219.838 286.125 221.198 288.657 226.004 286.664C232.875 283.82 233.446 272.828 233.446 272.828C233.446 272.828 225.869 259.562 223.731 252.929C221.592 246.297 220.617 241.314 219.703 240.131C218.79 238.948 197.428 228.993 193.639 226.388C191.494 224.772 188.993 223.693 186.346 223.239C183.699 222.786 180.982 222.972 178.422 223.782Z" fill="white" stroke="#263238" stroke-linecap="round" stroke-linejoin="round"/>
<path d="M206.853 265.489L200.697 256.479" stroke="#263238" stroke-linecap="round" stroke-linejoin="round"/>
<path d="M205.856 264.202L195.009 258.856" stroke="#263238" stroke-linecap="round" stroke-linejoin="round"/>
<path d="M173.709 332.16L183.176 399.443C183.198 399.599 183.252 399.749 183.335 399.883C183.418 400.016 183.528 400.131 183.657 400.22C183.787 400.309 183.935 400.37 184.089 400.399C184.244 400.428 184.403 400.424 184.556 400.388C184.822 400.322 185.056 400.164 185.216 399.941C185.376 399.719 185.451 399.446 185.428 399.173L178.754 331.049L173.709 332.16Z" fill="#263238" stroke="#263238" stroke-linecap="round" stroke-linejoin="round"/>
<path d="M146.514 332.689L130.695 398.768C130.658 398.922 130.655 399.081 130.683 399.236C130.712 399.39 130.773 399.537 130.862 399.667C130.951 399.797 131.066 399.907 131.2 399.99C131.334 400.073 131.483 400.127 131.639 400.149C131.91 400.189 132.186 400.129 132.415 399.98C132.645 399.831 132.812 399.603 132.885 399.339L151.257 335.212L146.514 332.689Z" fill="#263238" stroke="#263238" stroke-linecap="round" stroke-linejoin="round"/>
<path d="M175.246 331.869L165.177 399.059C165.154 399.214 165.162 399.372 165.203 399.523C165.243 399.675 165.314 399.816 165.412 399.939C165.509 400.061 165.631 400.163 165.769 400.236C165.907 400.31 166.059 400.354 166.215 400.367C166.488 400.382 166.757 400.298 166.972 400.13C167.188 399.962 167.336 399.722 167.388 399.454L180.166 333.976L175.246 331.869Z" fill="#263238" stroke="#263238" stroke-linecap="round" stroke-linejoin="round"/>
<path d="M210.89 332.16L220.357 399.443C220.379 399.599 220.433 399.749 220.516 399.883C220.599 400.016 220.709 400.131 220.839 400.22C220.969 400.309 221.116 400.37 221.27 400.399C221.425 400.428 221.584 400.424 221.738 400.388C222.004 400.322 222.237 400.164 222.397 399.941C222.557 399.719 222.632 399.446 222.609 399.173L215.904 331.029L210.89 332.16Z" fill="#263238" stroke="#263238" stroke-linecap="round" stroke-linejoin="round"/>
<path d="M131.535 262.334L143.057 337.246H224.997C224.997 337.246 226.211 315.656 222.599 308.027C218.987 300.397 174.384 316.756 172.775 316.331C171.581 316.029 173.346 277.354 175.536 262.24C175.69 261.176 175.612 260.092 175.31 259.061C175.007 258.029 174.486 257.075 173.782 256.263C173.078 255.451 172.207 254.799 171.23 254.353C170.252 253.907 169.189 253.676 168.114 253.677H138.947C137.864 253.676 136.793 253.909 135.809 254.362C134.825 254.814 133.95 255.474 133.246 256.297C132.542 257.12 132.024 258.086 131.729 259.128C131.433 260.17 131.367 261.264 131.535 262.334Z" fill="#0149AD" stroke="#263238" stroke-linecap="round" stroke-linejoin="round"/>
<path d="M222.599 308.027C218.987 300.397 174.384 316.756 172.775 316.331C171.581 316.029 173.346 277.354 175.536 262.24C175.728 261.19 175.685 260.11 175.412 259.078C175.139 258.046 174.642 257.087 173.956 256.269C173.27 255.451 172.412 254.794 171.443 254.345C170.474 253.896 169.419 253.666 168.351 253.672C167.283 253.677 166.23 253.918 165.266 254.376C164.302 254.835 163.451 255.501 162.773 256.326C162.095 257.151 161.608 258.115 161.345 259.15C161.083 260.185 161.051 261.265 161.253 262.313L172.775 337.225H224.997C224.997 337.225 226.211 315.656 222.599 308.027Z" fill="#263238" stroke="#263238" stroke-linecap="round" stroke-linejoin="round"/>
<path d="M264.057 246.504C264.057 246.504 262.739 247.822 260.756 250.137L264.057 246.504Z" fill="white"/>
<path d="M264.057 246.504C264.057 246.504 262.739 247.822 260.756 250.137" stroke="#263238" stroke-linecap="round" stroke-linejoin="round"/>
<path d="M263.849 249.182C263.849 249.182 262.24 252.452 261.254 253.936L263.849 249.182Z" fill="white"/>
<path d="M263.849 249.182C263.849 249.182 262.24 252.452 261.254 253.936" stroke="#263238" stroke-linecap="round" stroke-linejoin="round"/>
<path d="M41.8937 287.049C43.6168 287.796 47.8207 287.702 47.831 287.702C47.8414 287.702 46.928 284.952 46.8449 284.786C45.9211 282.845 42.994 279.658 40.6169 279.98C40.2234 280.044 39.8479 280.19 39.5149 280.409C39.1818 280.629 38.8988 280.916 38.6842 281.252C38.4697 281.588 38.3285 281.965 38.2698 282.36C38.2111 282.754 38.2363 283.156 38.3437 283.54C38.7382 285.18 40.4197 286.405 41.8937 287.049Z" fill="#263238"/>
<path d="M97.0634 272.714C94.676 272.454 91.8734 275.724 90.9703 277.686C90.8977 277.852 90.0257 280.634 90.0673 280.634C89.6105 281.142 89.1331 281.672 88.6244 282.315C87.6902 283.457 86.6522 284.765 85.6039 286.26C84.4747 287.862 83.4351 289.525 82.4899 291.242C81.4245 293.167 80.5284 295.182 79.8118 297.262C79.8163 297.286 79.8163 297.311 79.8118 297.335C79.8118 296.64 79.8118 294.667 79.8118 294.522C79.5316 292.394 77.7358 288.45 75.3899 288.014C74.9991 287.951 74.5994 287.97 74.2166 288.071C73.8338 288.172 73.4764 288.352 73.1673 288.599C72.8583 288.847 72.6045 289.156 72.4224 289.508C72.2403 289.859 72.1338 290.245 72.1099 290.64C71.9645 292.332 73.1479 294.024 74.3831 295.083C75.7325 296.287 79.4693 297.449 79.7703 297.543C79.0916 299.7 78.5644 301.903 78.1925 304.134C77.9538 305.421 77.767 306.719 77.5905 308.026C77.5905 307.414 77.5905 306.874 77.5905 306.802C77.3206 304.674 75.5145 300.729 73.179 300.293C72.7851 300.232 72.3827 300.254 71.9978 300.358C71.613 300.462 71.2542 300.645 70.9449 300.897C70.6357 301.148 70.3827 301.462 70.2025 301.818C70.0223 302.173 69.9189 302.563 69.8989 302.961C69.764 304.653 70.9369 306.345 72.1825 307.414C73.4281 308.483 76.5525 309.552 77.3725 309.812C77.3102 310.32 77.2376 310.85 77.1753 311.317C76.895 313.725 76.6148 316.133 76.2722 318.479C76.1477 319.31 76.0024 320.119 75.857 320.929C75.857 320.389 75.857 319.943 75.857 319.891C75.5768 317.763 73.781 313.819 71.4352 313.383C71.0412 313.323 70.6391 313.346 70.2548 313.451C69.8705 313.556 69.5126 313.741 69.2043 313.994C68.896 314.246 68.6442 314.561 68.4653 314.917C68.2863 315.273 68.1842 315.663 68.1655 316.061C68.0305 317.742 69.2035 319.434 70.4491 320.503C71.9989 321.528 73.6968 322.308 75.4834 322.818C75.3069 323.648 75.1304 324.468 74.9228 325.268C74.7671 325.807 74.6633 326.306 74.4765 326.866C74.2897 327.427 74.134 327.904 73.9679 328.444C73.6046 329.43 73.2413 330.458 72.8676 331.413C72.6081 332.087 72.3486 332.721 72.0995 333.354C72.224 332.534 72.442 330.914 72.4524 330.779C72.4231 328.893 71.9122 327.046 70.9681 325.413C70.9938 325.206 70.9938 324.997 70.9681 324.79C70.921 324.391 70.7894 324.006 70.582 323.661C70.3747 323.316 70.0962 323.02 69.7653 322.791C69.4344 322.562 69.0586 322.406 68.6628 322.334C68.267 322.262 67.8604 322.275 67.47 322.372C65.1449 322.984 63.6813 327.053 63.5671 329.191C63.5671 329.316 63.6502 330.696 63.7124 331.568C63.5983 331.06 63.4841 330.53 63.3595 330.053C63.1208 329.015 62.8405 327.977 62.5603 326.939C62.3942 326.409 62.2385 325.901 62.0724 325.351C61.9063 324.801 61.6987 324.313 61.5119 323.731C61.0552 322.475 60.5362 321.23 59.9756 319.984C60.8683 319.766 64.0446 318.946 65.3213 317.981C66.5981 317.016 67.9371 315.407 67.9267 313.715C67.9391 313.312 67.8652 312.911 67.7102 312.539C67.5552 312.166 67.3226 311.832 67.0278 311.556C66.7331 311.281 66.383 311.072 66.001 310.943C65.619 310.814 65.2139 310.768 64.8127 310.808C62.4253 311.068 60.3493 314.867 59.9237 316.964C59.9237 317.099 59.7473 318.635 59.685 319.486C59.3528 318.739 59.0103 317.991 58.647 317.244C57.609 315.106 56.4257 312.957 55.2943 310.819L54.2563 308.847C54.578 308.774 58.4083 307.902 59.7992 306.771C61.1901 305.639 62.4149 304.207 62.4046 302.504C62.4152 302.102 62.3403 301.702 62.1847 301.33C62.0291 300.959 61.7964 300.625 61.502 300.35C61.2077 300.075 60.8583 299.866 60.4771 299.736C60.0958 299.607 59.6914 299.56 59.2906 299.598C56.9032 299.857 54.8375 303.657 54.4016 305.753C54.4016 305.919 54.1628 308.13 54.1421 308.701C53.3947 307.258 52.6577 305.805 51.9934 304.352C51.0814 302.388 50.2978 300.366 49.6475 298.3C49.7929 298.3 53.7995 297.366 55.232 296.224C56.4983 295.249 57.8477 293.65 57.827 291.958C57.8393 291.555 57.7655 291.154 57.6105 290.782C57.4555 290.41 57.2228 290.075 56.9281 289.8C56.6333 289.525 56.2833 289.316 55.9013 289.187C55.5193 289.058 55.1142 289.012 54.713 289.052C52.3256 289.311 50.26 293.11 49.824 295.207C49.824 295.373 49.5749 297.761 49.5645 298.197C49.5645 298.072 49.4815 297.958 49.4399 297.833C48.85 295.745 48.4436 293.609 48.2255 291.45C48.1009 290.256 48.0386 289.114 47.9971 287.993C48.7549 287.9 52.1491 287.443 53.6335 286.581C55.1178 285.72 56.5191 284.308 56.7475 282.627C56.8015 282.232 56.7719 281.83 56.6605 281.447C56.5492 281.064 56.3587 280.709 56.1013 280.405C55.8439 280.1 55.5253 279.853 55.1664 279.68C54.8074 279.507 54.416 279.411 54.0175 279.398C51.6094 279.398 49.1389 282.948 48.4746 284.983C48.4746 285.097 48.2047 286.26 48.0386 287.111C48.0386 286.613 48.0386 286.073 48.0386 285.606C48.0386 283.789 48.1528 282.128 48.267 280.665C48.3397 279.824 48.4227 279.066 48.5057 278.36C49.2012 277.883 51.9727 275.932 52.8238 274.53C53.675 273.129 54.3393 271.188 53.7165 269.61C53.5828 269.235 53.3717 268.893 53.0969 268.605C52.8221 268.318 52.4898 268.091 52.1216 267.94C51.7535 267.789 51.3577 267.718 50.96 267.73C50.5624 267.742 50.1718 267.838 49.8136 268.012C47.6753 269.112 47.1148 273.399 47.4677 275.516C47.4677 275.693 48.3085 278.495 48.3397 278.475C48.2462 279.149 48.1528 279.876 48.0698 280.675C47.9245 282.149 47.7791 283.789 47.7272 285.637C47.6647 287.596 47.7132 289.558 47.8726 291.512C48.0255 293.704 48.3728 295.879 48.9106 298.01C48.9151 298.034 48.9151 298.058 48.9106 298.082C48.5369 297.491 47.4262 295.872 47.3224 295.757C45.9211 294.138 42.257 291.823 40.0564 292.768C39.6936 292.932 39.3695 293.172 39.1054 293.47C38.8412 293.768 38.643 294.119 38.5235 294.499C38.404 294.879 38.3659 295.28 38.4119 295.675C38.4578 296.071 38.5867 296.453 38.7901 296.795C39.6101 298.28 41.5615 299.017 43.1497 299.245C44.935 299.505 48.6926 298.415 48.9936 298.332C49.611 300.483 50.3704 302.591 51.2668 304.643C51.7858 305.836 52.3048 307.03 52.9172 308.213C52.5747 307.705 52.2633 307.258 52.2218 307.175C50.8205 305.556 47.1563 303.241 44.9558 304.186C44.5991 304.368 44.2849 304.623 44.034 304.935C43.7831 305.247 43.6012 305.608 43.5002 305.996C43.3992 306.383 43.3814 306.788 43.448 307.182C43.5146 307.577 43.6641 307.953 43.8866 308.286C44.6963 309.77 46.6581 310.507 48.2359 310.736C49.8136 310.964 53.0626 310.113 53.9137 309.864C54.1421 310.32 54.3601 310.777 54.5884 311.224C55.6264 313.393 56.7786 315.552 57.7855 317.701C58.1384 318.458 58.4602 319.216 58.8235 319.974L58.211 319.102C56.8097 317.483 53.1456 315.178 50.945 316.113C50.5828 316.279 50.2596 316.52 49.9965 316.82C49.7333 317.119 49.5361 317.471 49.4177 317.852C49.2993 318.232 49.2622 318.634 49.309 319.03C49.3557 319.426 49.4852 319.808 49.6891 320.15C50.5091 321.635 52.4605 322.372 54.0383 322.6C55.9141 322.608 57.7799 322.328 59.5708 321.77C59.8822 322.558 60.1936 323.347 60.4531 324.115C60.6296 324.655 60.8268 325.153 60.9617 325.704C61.0967 326.254 61.2628 326.742 61.4081 327.302C61.6572 328.34 61.9167 329.378 62.1347 330.416C62.2904 331.112 62.4253 331.786 62.5603 332.492C62.2073 331.734 61.5223 330.26 61.4288 330.146C60.287 328.33 57.0173 325.496 54.6922 326.088C54.3096 326.198 53.9545 326.388 53.6498 326.644C53.3451 326.901 53.0976 327.218 52.9235 327.576C52.7493 327.934 52.6523 328.325 52.6387 328.723C52.6251 329.121 52.6952 329.518 52.8446 329.887C53.4259 331.475 55.2424 332.503 56.7682 333.001C58.4602 333.509 62.1866 333.001 62.6537 333.001C62.882 334.111 63.0793 335.201 63.2661 336.229C63.8889 339.789 64.3041 342.789 64.5221 344.875C64.5221 345.249 64.6051 345.581 64.6363 345.913H57.3703L60.0068 397.367H72.3175L74.954 345.913H68.2174L68.3731 345.612C69.2969 343.682 70.5736 340.921 71.9542 337.537C72.4005 336.499 72.8468 335.326 73.2932 334.143C73.7499 334.236 77.4452 334.983 79.1579 334.589C80.7253 334.236 82.6144 333.354 83.3099 331.817C83.4874 331.46 83.5875 331.07 83.6037 330.671C83.6199 330.273 83.5517 329.875 83.4038 329.505C83.2559 329.135 83.0314 328.8 82.7451 328.522C82.4589 328.244 82.1172 328.03 81.7425 327.894C79.4693 327.126 76.0024 329.71 74.7256 331.433C74.653 331.537 73.9575 332.731 73.5319 333.509L74.0821 332.056C74.4454 331.07 74.7775 330.063 75.1201 328.994L75.5872 327.406C75.7636 326.877 75.8778 326.306 76.0231 325.745C76.3241 324.448 76.5733 323.119 76.8016 321.77C77.6632 322.081 80.7668 323.161 82.3653 323.046C83.9638 322.932 85.9672 322.351 86.891 320.97C87.1252 320.643 87.2871 320.269 87.366 319.874C87.4449 319.479 87.439 319.072 87.3487 318.679C87.2584 318.287 87.0858 317.918 86.8423 317.597C86.5987 317.276 86.2898 317.011 85.936 316.818C83.86 315.78 79.9779 317.753 78.4624 319.258C78.369 319.361 77.4244 320.566 76.8847 321.24C77.0092 320.431 77.1338 319.621 77.2376 318.791C77.5386 316.414 77.7566 313.995 77.9953 311.587C78.068 310.85 78.151 310.113 78.2237 309.376C78.5351 309.49 82.1888 310.85 83.9846 310.725C85.5727 310.611 87.5761 310.03 88.4999 308.649C88.7341 308.322 88.896 307.948 88.9749 307.553C89.0538 307.158 89.0479 306.751 88.9576 306.358C88.8673 305.966 88.6947 305.597 88.4512 305.276C88.2076 304.955 87.8987 304.69 87.5449 304.497C85.4689 303.407 81.5972 305.432 80.0713 306.937C79.9571 307.051 78.5662 308.795 78.2341 309.251C78.4105 307.632 78.5974 306.023 78.8465 304.435C79.1661 302.296 79.6273 300.181 80.227 298.103C80.3723 298.103 84.1714 299.588 86.0191 299.463C87.6072 299.349 89.6105 298.757 90.5344 297.387C90.7702 297.06 90.9335 296.686 91.0133 296.291C91.0932 295.896 91.0877 295.488 90.9973 295.095C90.9069 294.702 90.7337 294.332 90.4891 294.012C90.2446 293.691 89.9345 293.426 89.5794 293.235C87.5034 292.135 83.6317 294.159 82.1058 295.674C81.9916 295.788 80.4969 297.667 80.2478 298.02L80.3412 297.657C81.0002 295.587 81.8408 293.579 82.8532 291.657C83.4033 290.619 83.9846 289.581 84.5659 288.647C85.2509 288.99 88.3857 290.515 90.0465 290.578C91.7073 290.64 93.7003 290.277 94.7798 288.969C95.0363 288.671 95.228 288.322 95.3425 287.946C95.4571 287.57 95.4921 287.174 95.4452 286.783C95.3983 286.393 95.2707 286.016 95.0703 285.677C94.87 285.339 94.6014 285.046 94.2815 284.817C92.2782 283.488 88.2611 285.076 86.59 286.415C86.4965 286.488 85.6454 287.329 85.0433 287.952C85.3132 287.526 85.5831 287.08 85.853 286.685C86.891 285.17 87.8667 283.851 88.7801 282.679C89.2991 282.025 89.8181 281.443 90.2437 280.904C91.0845 280.904 94.4788 280.779 95.9631 280.084C97.4474 279.388 99.0771 278.132 99.4196 276.482C99.5632 276.079 99.6138 275.649 99.5676 275.224C99.5214 274.799 99.3797 274.39 99.1531 274.028C98.9264 273.665 98.6207 273.359 98.2588 273.131C97.8969 272.904 97.4882 272.761 97.0634 272.714ZM70.6463 336.81C69.2035 340.132 67.8748 342.841 66.9302 344.72L66.4009 345.758H66.2452C66.2452 345.395 66.1414 344.99 66.0791 344.543C65.7884 342.467 65.3317 339.416 64.6155 335.835C64.3975 334.703 64.138 333.499 63.8578 332.264C64.9796 331.811 66.0748 331.295 67.1378 330.717C68.5819 331.971 70.1922 333.018 71.923 333.831C71.4974 334.838 71.0615 335.855 70.6463 336.81Z" fill="#263238"/>
<path d="M84.4932 287.972C84.4932 287.972 85.2613 285.18 85.2821 284.993C85.5831 282.865 84.9084 278.599 82.739 277.551C82.3785 277.39 81.9884 277.305 81.5935 277.303C81.1986 277.301 80.8076 277.381 80.4453 277.538C80.083 277.695 79.7575 277.926 79.4894 278.216C79.2212 278.506 79.0164 278.849 78.888 279.222C78.3067 280.81 79.0437 282.762 79.926 284.111C80.964 285.73 84.4932 287.972 84.4932 287.972Z" fill="#263238"/>
<path d="M475.331 397.118H53.1248V402.287H475.331V397.118Z" fill="#263238"/>
</svg>
