<svg width="439" height="439" viewBox="0 0 439 439" fill="none" xmlns="http://www.w3.org/2000/svg">
<path d="M218.666 420.386C325.976 420.386 412.967 375.212 412.967 319.487C412.967 263.761 325.976 218.587 218.666 218.587C111.356 218.587 24.3645 263.761 24.3645 319.487C24.3645 375.212 111.356 420.386 218.666 420.386Z" fill="#F5F5F5"/>
<path d="M356.898 357.741C379.243 357.741 397.356 347.969 397.356 335.914C397.356 323.859 379.243 314.087 356.898 314.087C334.554 314.087 316.44 323.859 316.44 335.914C316.44 347.969 334.554 357.741 356.898 357.741Z" fill="#EBEBEB"/>
<g opacity="0.8">
<path d="M64.612 360.068C63.285 360.104 61.9707 359.802 60.7927 359.19L47.7544 351.657C47.2603 351.464 46.8359 351.127 46.5367 350.689C46.2375 350.251 46.0774 349.733 46.0774 349.203C46.0774 348.672 46.2375 348.154 46.5367 347.717C46.8359 347.279 47.2603 346.941 47.7544 346.749L128.267 300.276C129.444 299.666 130.751 299.347 132.078 299.347C133.404 299.347 134.711 299.666 135.888 300.276L148.935 307.801C149.432 307.992 149.859 308.329 150.161 308.768C150.462 309.207 150.624 309.727 150.624 310.259C150.624 310.791 150.462 311.311 150.161 311.75C149.859 312.189 149.432 312.526 148.935 312.717L68.4225 359.146C67.2513 359.772 65.9399 360.089 64.612 360.068ZM132.078 300.276C130.904 300.252 129.744 300.527 128.706 301.075L48.1934 347.513C47.851 347.658 47.5529 347.891 47.3294 348.189C47.1059 348.486 46.9648 348.838 46.9203 349.207C46.9665 349.576 47.1083 349.926 47.3316 350.224C47.5549 350.521 47.852 350.755 48.1934 350.902L61.2317 358.426C62.2781 358.956 63.4347 359.232 64.6076 359.232C65.7806 359.232 66.9371 358.956 67.9835 358.426L148.496 311.997C148.868 311.896 149.197 311.676 149.431 311.369C149.665 311.063 149.792 310.688 149.792 310.303C149.792 309.917 149.665 309.543 149.431 309.236C149.197 308.93 148.868 308.709 148.496 308.608L135.449 301.075C134.412 300.526 133.251 300.251 132.078 300.276Z" fill="#0149AD"/>
</g>
<path d="M159.05 364.019C157.721 364.038 156.409 363.718 155.239 363.088L108.258 335.967C108.207 335.939 108.163 335.901 108.128 335.855C108.093 335.81 108.067 335.757 108.052 335.702C108.037 335.646 108.034 335.588 108.042 335.531C108.05 335.474 108.07 335.419 108.099 335.37C108.158 335.27 108.253 335.197 108.364 335.166C108.476 335.135 108.595 335.148 108.697 335.203L155.678 362.333C156.725 362.861 157.882 363.136 159.054 363.136C160.227 363.136 161.383 362.861 162.43 362.333L313.709 274.99C314.051 274.844 314.349 274.611 314.571 274.313C314.793 274.016 314.932 273.664 314.974 273.295C314.929 272.927 314.789 272.577 314.567 272.279C314.346 271.982 314.05 271.748 313.709 271.601L274.059 248.711C273.971 248.647 273.91 248.553 273.888 248.447C273.865 248.34 273.883 248.229 273.938 248.135C273.992 248.042 274.08 247.971 274.183 247.938C274.287 247.905 274.399 247.911 274.498 247.956L314.148 270.846C314.643 271.038 315.067 271.376 315.366 271.813C315.665 272.251 315.826 272.769 315.826 273.3C315.826 273.83 315.665 274.348 315.366 274.786C315.067 275.224 314.643 275.561 314.148 275.754L162.869 363.088C161.696 363.719 160.381 364.04 159.05 364.019Z" fill="#0149AD"/>
<path d="M263.576 246.042C264.62 246.575 265.775 246.852 266.947 246.852C268.119 246.852 269.275 246.575 270.319 246.042C272.18 244.971 272.18 243.224 270.319 242.153C269.273 241.625 268.118 241.35 266.947 241.35C265.776 241.35 264.621 241.625 263.576 242.153C261.714 243.206 261.714 244.962 263.576 246.042Z" fill="#455A64"/>
<path d="M266.912 249.94C264.528 249.986 262.171 249.424 260.064 248.307C258.15 247.201 257.096 245.673 257.096 244.102C257.096 242.53 258.15 240.994 260.064 239.896C263.839 237.71 269.985 237.719 273.76 239.896C275.666 240.994 276.719 242.53 276.719 244.102C276.719 245.673 275.666 247.201 273.76 248.307C271.653 249.424 269.296 249.986 266.912 249.94ZM260.503 247.544C262.489 248.552 264.685 249.078 266.912 249.078C269.139 249.078 271.335 248.552 273.321 247.544C274.946 246.604 275.841 245.384 275.841 244.102C275.841 242.82 274.963 241.591 273.321 240.651C271.334 239.647 269.139 239.123 266.912 239.123C264.685 239.123 262.49 239.647 260.503 240.651C258.87 241.591 257.974 242.82 257.974 244.102C257.974 245.384 258.852 246.604 260.503 247.544Z" fill="#455A64"/>
<path d="M105.105 337.53C106.15 338.062 107.305 338.34 108.477 338.34C109.649 338.34 110.804 338.062 111.849 337.53C113.71 336.458 113.71 334.711 111.849 333.64C110.804 333.107 109.649 332.83 108.477 332.83C107.305 332.83 106.15 333.107 105.105 333.64C103.244 334.711 103.244 336.458 105.105 337.53Z" fill="#455A64"/>
<path d="M266.912 244.541C266.795 244.541 266.684 244.494 266.601 244.412C266.519 244.33 266.473 244.218 266.473 244.102V98.2132C266.473 98.0967 266.519 97.9851 266.601 97.9027C266.684 97.8204 266.795 97.7742 266.912 97.7742C267.028 97.7764 267.138 97.8234 267.22 97.9052C267.302 97.9871 267.349 98.0974 267.351 98.2132V244.084C267.352 244.143 267.342 244.201 267.32 244.256C267.299 244.311 267.267 244.361 267.226 244.403C267.185 244.446 267.136 244.48 267.083 244.503C267.029 244.527 266.971 244.539 266.912 244.541Z" fill="#0149AD"/>
<path d="M311.093 54.6994L299.679 48.1232C298.151 47.1047 296.114 47.1135 293.858 48.4129L293.041 48.8871C293.267 47.2873 293.382 45.6737 293.384 44.0581C293.403 41.9104 293.152 39.7689 292.637 37.6838L298.52 36.2526L287.229 29.7291C284.13 27.9731 280.082 28.1048 275.657 30.6598C271.232 33.2148 266.974 37.9472 263.839 43.5049C263.804 40.6613 263.36 37.8376 262.522 35.12L267.658 33.1533L256.745 26.8756C252.75 24.2416 247.403 24.2855 241.512 27.6834C229.158 34.8391 219.131 53.9795 219.131 70.4683C219.123 72.2938 219.261 74.1171 219.544 75.9207L217.999 76.7987C210.097 81.3379 203.758 93.4807 203.758 104.017C203.758 109.803 205.707 113.929 208.771 115.712L220.185 122.305L222.073 112.647L238.702 103.042L293.875 71.2058C298.564 68.5104 302.357 61.2932 302.418 55.0331L309.056 58.5977L311.093 54.6994Z" fill="#0149AD"/>
<path opacity="0.1" d="M311.093 54.6994L299.679 48.1232C298.151 47.1047 296.114 47.1135 293.858 48.4129L293.041 48.8871C293.267 47.2873 293.382 45.6737 293.384 44.0581C293.403 41.9104 293.152 39.7689 292.637 37.6838L298.52 36.2526L287.229 29.7291C284.13 27.9731 280.082 28.1048 275.657 30.6598C271.232 33.2148 266.974 37.9472 263.839 43.5049C263.804 40.6613 263.36 37.8376 262.522 35.12L267.658 33.1533L256.745 26.8756C252.75 24.2416 247.403 24.2855 241.512 27.6834C229.158 34.8391 219.131 53.9795 219.131 70.4683C219.123 72.2938 219.261 74.1171 219.544 75.9207L217.999 76.7987C210.097 81.3379 203.758 93.4807 203.758 104.017C203.758 109.803 205.707 113.929 208.771 115.712L220.185 122.305L222.073 112.647L238.702 103.042L293.875 71.2058C298.564 68.5104 302.357 61.2932 302.418 55.0331L309.056 58.5977L311.093 54.6994Z" fill="white"/>
<path d="M287.264 29.7291C284.165 27.9731 280.117 28.1047 275.692 30.6597C273.536 31.9423 271.571 33.5204 269.853 35.3482L284.419 43.8122L293.085 39.8787C292.971 39.1149 292.831 38.3773 292.655 37.6837L298.52 36.2526L287.264 29.7291Z" fill="#0149AD"/>
<path d="M263.031 36.9373C262.882 36.314 262.715 35.7081 262.522 35.1287L266.912 33.4692L267.421 33.0039L256.789 26.8579C252.794 24.2239 247.447 24.2678 241.555 27.6657C235.945 30.9055 230.826 36.6213 226.893 43.4697L244.593 53.6808L263.031 36.9373Z" fill="#0149AD"/>
<path d="M219.544 75.9205L214.855 79.0989C210.584 83.0967 207.395 88.1107 205.584 93.6737L218.912 101.365L230.914 82.5319L219.544 75.9205Z" fill="#0149AD"/>
<path opacity="0.4" d="M287.264 29.7291C284.165 27.9731 280.117 28.1047 275.692 30.6597C273.536 31.9423 271.571 33.5204 269.853 35.3482L284.419 43.8122L293.085 39.8787C292.971 39.1149 292.831 38.3773 292.655 37.6837L298.52 36.2526L287.264 29.7291Z" fill="white"/>
<path opacity="0.4" d="M263.031 36.9373C262.882 36.314 262.715 35.7081 262.522 35.1287L266.912 33.4692L267.421 33.0039L256.789 26.8579C252.794 24.2239 247.447 24.2678 241.555 27.6657C235.945 30.9055 230.826 36.6213 226.893 43.4697L244.593 53.6808L263.031 36.9373Z" fill="white"/>
<path opacity="0.4" d="M219.544 75.9205L214.855 79.0989C210.584 83.0967 207.395 88.1107 205.584 93.6737L218.912 101.365L230.914 82.5319L219.544 75.9205Z" fill="white"/>
<path d="M305.272 55.0066L304.455 55.4807C304.681 53.878 304.796 52.2615 304.798 50.6429C304.798 37.6046 296.896 31.6079 287.08 37.2534C282.541 39.8874 278.405 44.5408 275.271 50.0898C274.832 34.3824 264.989 27.3057 252.908 34.2858C240.572 41.4151 230.528 60.5819 230.528 77.0444C230.51 78.8809 230.639 80.7159 230.914 82.5319L229.369 83.4099C221.467 87.9491 215.128 100.092 215.128 110.628C215.128 121.12 221.502 126.168 229.369 121.62L250.081 109.671L305.272 77.7907C309.996 75.0689 313.815 67.7551 313.815 61.4687C313.815 55.1734 309.996 52.2848 305.272 55.0066Z" fill="#0149AD"/>
<path opacity="0.6" d="M305.272 55.0066L304.455 55.4807C304.681 53.878 304.796 52.2615 304.798 50.6429C304.798 37.6046 296.896 31.6079 287.08 37.2534C282.541 39.8874 278.405 44.5408 275.271 50.0898C274.832 34.3824 264.989 27.3057 252.908 34.2858C240.572 41.4151 230.528 60.5819 230.528 77.0444C230.51 78.8809 230.639 80.7159 230.914 82.5319L229.369 83.4099C221.467 87.9491 215.128 100.092 215.128 110.628C215.128 121.12 221.502 126.168 229.369 121.62L250.081 109.671L305.272 77.7907C309.996 75.0689 313.815 67.7551 313.815 61.4687C313.815 55.1734 309.996 52.2848 305.272 55.0066Z" fill="white"/>
<path d="M137.021 121.743C136.845 120.47 135.818 119.987 134.589 120.716L67.1145 159.673C66.4012 160.139 65.8077 160.767 65.3821 161.505C64.9565 162.244 64.7108 163.072 64.6649 163.923V312.823C64.6649 314.271 65.5956 314.921 66.8072 314.394C66.0751 314.703 65.2847 314.85 64.4905 314.824C63.6962 314.799 62.917 314.601 62.2065 314.245L59.3969 312.621C58.68 312.158 58.0833 311.531 57.6559 310.792C57.2285 310.053 56.9826 309.224 56.9385 308.371V159.48C56.9833 158.627 57.2295 157.796 57.6567 157.056C58.084 156.316 58.6803 155.687 59.3969 155.222L126.871 116.265C127.63 115.875 128.472 115.672 129.325 115.672C130.179 115.672 131.02 115.875 131.779 116.265L134.589 117.88C135.248 118.311 135.807 118.88 136.226 119.546C136.646 120.213 136.917 120.963 137.021 121.743Z" fill="#455A64"/>
<path d="M134.589 120.716L67.1144 159.673C66.4011 160.139 65.8076 160.767 65.382 161.505C64.9564 162.243 64.7107 163.072 64.6648 163.922V312.822C64.6648 314.385 65.7623 315.026 67.1144 314.245L134.589 275.288C135.303 274.822 135.898 274.195 136.325 273.457C136.752 272.718 137 271.89 137.047 271.038V122.138C137.047 120.567 135.941 119.935 134.589 120.716ZM133.509 257.017C133.509 258.351 132.569 259.203 131.41 259.87L70.0557 295.298C68.8968 295.965 67.9485 295.421 67.9485 294.077V178.181C67.9901 177.451 68.2024 176.741 68.5684 176.109C68.9344 175.476 69.4438 174.938 70.0557 174.537L131.41 139.119C132.569 138.443 133.509 138.996 133.509 140.331V257.017Z" fill="#37474F"/>
<path d="M66.8072 314.394C66.0751 314.703 65.2847 314.85 64.4905 314.824C63.6962 314.799 62.917 314.601 62.2065 314.245L59.3969 312.621C58.6805 312.157 58.0841 311.53 57.6568 310.791C57.2295 310.053 56.9833 309.223 56.9385 308.371V159.48C56.966 158.621 57.214 157.783 57.6584 157.048L65.3848 161.508C64.9429 162.238 64.695 163.069 64.6649 163.922V312.823C64.6649 314.271 65.5956 314.921 66.8072 314.394Z" fill="#263238"/>
<path d="M100.856 143.474C101.734 142.956 102.498 143.377 102.498 144.431C102.466 145 102.301 145.555 102.016 146.049C101.73 146.543 101.333 146.963 100.856 147.276C99.978 147.802 99.2053 147.372 99.2053 146.327C99.2361 145.755 99.4017 145.199 99.6886 144.703C99.9754 144.207 100.375 143.786 100.856 143.474Z" fill="black"/>
<path d="M99.7058 291.312C99.2741 291.318 98.849 291.205 98.4766 290.987C98.0134 290.67 97.6436 290.235 97.4057 289.727C97.1679 289.219 97.0708 288.657 97.1245 288.098C97.203 286.679 97.6142 285.298 98.325 284.067C99.0357 282.836 100.026 281.79 101.216 281.013C101.674 280.689 102.21 280.493 102.768 280.445C103.327 280.397 103.888 280.499 104.394 280.741C104.859 281.056 105.23 281.49 105.468 281.999C105.706 282.507 105.802 283.071 105.746 283.629C105.669 285.049 105.259 286.43 104.548 287.661C103.837 288.892 102.846 289.938 101.655 290.715C101.069 291.082 100.397 291.288 99.7058 291.312ZM103.165 281.302C102.629 281.326 102.108 281.489 101.655 281.777C100.593 282.469 99.7084 283.403 99.0738 284.501C98.4393 285.599 98.0723 286.832 98.0025 288.098C97.9004 288.505 97.9336 288.934 98.0969 289.32C98.2602 289.707 98.5449 290.029 98.9079 290.24C99.2709 290.45 99.6924 290.536 100.109 290.486C100.525 290.435 100.914 290.251 101.216 289.96C102.279 289.265 103.164 288.33 103.798 287.231C104.433 286.131 104.799 284.897 104.868 283.629C104.921 283.229 104.868 282.822 104.714 282.449C104.56 282.076 104.31 281.75 103.99 281.504C103.741 281.359 103.454 281.288 103.165 281.302Z" fill="#E6E6E6"/>
<path d="M94.4993 153.483L107.204 146.152C107.959 145.713 108.574 146.02 108.574 146.845C108.54 147.305 108.399 147.751 108.161 148.146C107.923 148.541 107.595 148.875 107.204 149.119L94.4993 156.46C93.7442 156.89 93.1296 156.582 93.1296 155.766C93.163 155.305 93.3044 154.858 93.5423 154.461C93.7803 154.065 94.1081 153.73 94.4993 153.483Z" fill="black"/>
<path d="M133.509 257.017C133.509 258.351 132.569 259.203 131.41 259.87L70.0557 295.298C68.8967 295.965 67.9485 295.421 67.9485 294.077V178.181C67.9901 177.451 68.2024 176.741 68.5684 176.109C68.9344 175.476 69.4438 174.938 70.0557 174.538L131.41 139.119C132.569 138.443 133.509 138.996 133.509 140.331V257.017Z" fill="#0149AD"/>
<path d="M124.966 211.352L121.629 209.772C126.529 193.792 121.559 188.524 112.92 187.822C116.318 189.911 118.047 198.577 115.238 206.769L111.901 205.188C111.252 204.881 110.145 206.067 110.145 207.076L109.882 222.494C109.882 223.205 110.382 223.451 110.997 223.029L124.316 213.81C125.229 213.152 125.616 211.668 124.966 211.352Z" fill="white"/>
<path opacity="0.8" d="M114.79 198.287C114.79 193.318 113.271 189.183 111.067 187.83C111.067 187.83 101.971 188.612 93.2261 201.439C93.2261 201.439 105.667 191.167 114.79 198.287Z" fill="white"/>
<path d="M77.7646 223.012L81.101 224.601C76.2018 240.581 81.18 245.849 89.8108 246.551C86.4129 244.461 84.6832 235.804 87.4928 227.604L90.8292 229.193C91.479 229.5 92.5852 228.315 92.5852 227.305L92.8486 211.879C92.8486 211.176 92.3482 210.931 91.7336 211.352L78.4143 220.571C77.5012 221.256 77.1149 222.713 77.7646 223.012Z" fill="white"/>
<path opacity="0.8" d="M87.9407 236.085C87.9407 241.064 89.4596 245.19 91.6634 246.551C91.6634 246.551 100.759 245.761 109.504 232.942C109.504 232.942 97.0631 243.206 87.9407 236.085Z" fill="white"/>
<path d="M187.549 198.56C187.507 197.785 187.282 197.031 186.893 196.36C186.504 195.689 185.962 195.119 185.311 194.697L183.502 193.652C182.811 193.301 182.047 193.118 181.272 193.118C180.497 193.118 179.733 193.301 179.042 193.652L164.66 201.94C164.011 202.364 163.47 202.935 163.081 203.606C162.693 204.277 162.466 205.029 162.421 205.803V222.406C162.464 223.182 162.69 223.937 163.079 224.609C163.467 225.282 164.009 225.854 164.66 226.278L166.469 227.323C166.62 227.41 166.779 227.484 166.943 227.543L167.136 227.604C167.241 227.604 167.347 227.683 167.461 227.709L167.724 227.762L168.005 227.806H168.321H168.55H169.094C169.232 227.8 169.37 227.785 169.507 227.762H169.612C169.76 227.739 169.907 227.707 170.051 227.666H170.112C170.399 227.585 170.676 227.473 170.938 227.332L185.311 219.035C185.962 218.611 186.505 218.04 186.894 217.367C187.283 216.694 187.508 215.939 187.549 215.163V198.56Z" fill="#0149AD"/>
<path d="M187.549 198.551V215.11C187.508 215.886 187.284 216.642 186.895 217.315C186.506 217.988 185.963 218.559 185.311 218.982L170.938 227.279C170.765 227.378 170.583 227.457 170.393 227.516L170.244 227.56H170.095C169.287 227.657 168.708 227.069 168.708 225.989V209.43C168.748 208.655 168.972 207.902 169.359 207.23C169.747 206.559 170.288 205.989 170.938 205.566L185.311 197.26C186.434 196.62 187.356 197.032 187.514 198.138C187.514 198.024 187.514 197.91 187.453 197.787C187.513 198.038 187.545 198.294 187.549 198.551Z" fill="#0149AD"/>
<path d="M171.385 208.806V223.548C171.385 223.785 171.544 223.873 171.737 223.759L184.512 216.392C184.615 216.322 184.701 216.23 184.763 216.122C184.825 216.014 184.863 215.893 184.872 215.769V201.062C184.872 200.834 184.705 200.746 184.512 200.86L171.737 208.227C171.639 208.292 171.557 208.377 171.497 208.477C171.436 208.578 171.398 208.69 171.385 208.806ZM183.677 215.909L172.571 222.319C172.369 222.433 172.211 222.319 172.211 222.117V209.289C172.217 209.164 172.253 209.042 172.316 208.934C172.378 208.826 172.466 208.734 172.571 208.666L183.677 202.256C183.879 202.142 184.037 202.256 184.037 202.458V215.286C184.031 215.411 183.995 215.533 183.933 215.641C183.87 215.749 183.783 215.841 183.677 215.909Z" fill="white"/>
<path opacity="0.4" d="M187.514 198.182C187.356 197.041 186.426 196.628 185.319 197.304L170.938 205.602C170.278 206.015 169.734 206.589 169.357 207.27L163.08 203.644C163.456 202.963 164 202.389 164.66 201.975L179.033 193.678C179.723 193.323 180.487 193.138 181.263 193.138C182.039 193.138 182.803 193.323 183.493 193.678L185.319 194.723C185.909 195.112 186.409 195.622 186.787 196.218C187.165 196.814 187.413 197.484 187.514 198.182Z" fill="white"/>
<path opacity="0.1" d="M170.534 227.516L170.393 227.569L170.069 227.666C169.783 227.755 169.489 227.814 169.191 227.841C169.044 227.85 168.898 227.85 168.752 227.841C167.972 227.857 167.201 227.672 166.513 227.306L164.704 226.261C164.054 225.836 163.512 225.264 163.123 224.591C162.735 223.919 162.509 223.164 162.465 222.389V205.795C162.476 205.32 162.568 204.851 162.737 204.407C162.806 204.221 162.885 204.04 162.974 203.863L163.124 203.591L169.401 207.217C169 207.884 168.776 208.643 168.752 209.421V226.015C168.752 227.095 169.322 227.683 170.139 227.595H170.279L170.534 227.516Z" fill="black"/>
<path d="M175.828 211.449V216.559C175.828 216.936 176.03 217.015 176.276 216.726L180.991 211.282C181.246 210.992 181.14 210.755 180.754 210.755H176.522C176.338 210.755 176.162 210.828 176.032 210.958C175.901 211.088 175.828 211.265 175.828 211.449Z" fill="white"/>
<path d="M187.55 93.4104C187.507 92.6357 187.282 91.8819 186.893 91.2106C186.504 90.5392 185.962 89.9693 185.311 89.5472L183.502 88.5024C182.811 88.1515 182.047 87.9686 181.272 87.9686C180.497 87.9686 179.733 88.1515 179.042 88.5024L164.669 96.7995C164.02 97.2236 163.479 97.7941 163.09 98.465C162.701 99.1359 162.475 99.8886 162.43 100.663V117.266C162.472 118.04 162.697 118.794 163.086 119.466C163.476 120.137 164.018 120.707 164.669 121.129L166.478 122.182C166.629 122.27 166.787 122.343 166.952 122.402L167.145 122.463L167.47 122.569L167.733 122.613C167.826 122.635 167.919 122.653 168.014 122.665H168.33H168.558H169.103L169.515 122.621H169.621L170.06 122.525H170.121C170.408 122.444 170.684 122.332 170.947 122.191L185.319 113.885C185.97 113.463 186.513 112.893 186.902 112.222C187.291 111.551 187.516 110.797 187.558 110.022L187.55 93.4104Z" fill="#0149AD"/>
<path opacity="0.4" d="M187.514 93.0682C187.356 91.9268 186.426 91.5141 185.319 92.1902L170.938 100.487C170.278 100.9 169.734 101.474 169.357 102.155L163.08 98.5294C163.456 97.8483 164 97.2743 164.66 96.8612L179.033 88.5641C179.724 88.2132 180.488 88.0303 181.263 88.0303C182.038 88.0303 182.802 88.2132 183.493 88.5641L185.319 89.6089C185.909 89.998 186.409 90.5074 186.787 91.1036C187.165 91.6998 187.413 92.3694 187.514 93.0682Z" fill="white"/>
<path d="M187.549 93.4017V109.996C187.508 110.772 187.284 111.528 186.895 112.201C186.506 112.874 185.963 113.445 185.311 113.868L170.938 122.165C170.765 122.263 170.583 122.343 170.393 122.402H170.244H170.095C169.287 122.499 168.708 121.91 168.708 120.83V104.28C168.732 103.505 168.956 102.749 169.357 102.085C169.734 101.402 170.278 100.825 170.938 100.408L185.311 92.1111C186.434 91.4613 187.356 91.8828 187.514 92.9891C187.514 92.8749 187.514 92.7608 187.453 92.6379C187.513 92.8882 187.545 93.1443 187.549 93.4017Z" fill="#0149AD"/>
<path d="M184.819 98.3361C184.755 98.2991 184.682 98.2797 184.608 98.2797C184.534 98.2797 184.462 98.2991 184.398 98.3361L171.851 105.606C171.687 105.715 171.549 105.859 171.447 106.027L178.743 107.871L184.819 98.3361Z" fill="white"/>
<path d="M178.945 109.329L171.438 106.106C171.319 106.293 171.252 106.508 171.245 106.73V115.237C171.245 115.633 171.517 115.791 171.851 115.589L184.38 108.319C184.557 108.202 184.705 108.045 184.81 107.86C184.915 107.675 184.975 107.469 184.986 107.256V98.7486C184.993 98.6754 184.981 98.6017 184.952 98.5342C184.923 98.4667 184.877 98.4076 184.819 98.3623L178.945 109.329Z" fill="white"/>
<path opacity="0.1" d="M170.534 122.367L170.393 122.42L170.069 122.516C169.783 122.606 169.489 122.665 169.191 122.692C169.044 122.701 168.898 122.701 168.752 122.692C167.972 122.707 167.201 122.523 166.513 122.156L164.66 121.164C164.011 120.738 163.47 120.166 163.081 119.494C162.693 118.821 162.466 118.067 162.421 117.292V100.663C162.433 100.191 162.525 99.7251 162.693 99.2843C162.762 99.0984 162.841 98.9166 162.93 98.74L163.08 98.4678L169.357 102.094C168.957 102.758 168.733 103.514 168.708 104.289V120.892C168.708 121.972 169.278 122.56 170.095 122.472H170.235L170.534 122.367Z" fill="black"/>
<path d="M187.55 128.46C187.507 127.685 187.282 126.932 186.893 126.26C186.504 125.589 185.962 125.019 185.311 124.597L183.502 123.552C182.811 123.201 182.047 123.018 181.272 123.018C180.497 123.018 179.733 123.201 179.042 123.552L164.669 131.849C164.02 132.273 163.479 132.844 163.09 133.515C162.701 134.186 162.475 134.938 162.43 135.713V152.315C162.472 153.09 162.697 153.844 163.086 154.515C163.476 155.187 164.018 155.757 164.669 156.179L166.478 157.232C166.629 157.32 166.787 157.393 166.952 157.452L167.145 157.513L167.47 157.619H167.733C167.826 157.641 167.919 157.659 168.014 157.671C168.119 157.671 168.225 157.671 168.33 157.671H168.558H169.103H169.515H169.621L170.06 157.575H170.121C170.408 157.494 170.684 157.382 170.947 157.241L185.319 148.935C185.97 148.513 186.513 147.943 186.902 147.272C187.291 146.601 187.516 145.847 187.558 145.072L187.55 128.46Z" fill="#0149AD"/>
<path opacity="0.4" d="M187.514 128.083C187.356 126.941 186.426 126.529 185.319 127.205L170.938 135.502C170.276 135.913 169.732 136.488 169.357 137.17L163.08 133.544C163.454 132.861 163.999 132.287 164.66 131.876L179.033 123.579C179.723 123.224 180.487 123.038 181.263 123.038C182.039 123.038 182.803 123.224 183.493 123.579L185.319 124.624C185.909 125.013 186.409 125.522 186.787 126.118C187.165 126.715 187.413 127.384 187.514 128.083Z" fill="white"/>
<path d="M173.967 137.741V148.04C173.658 148.132 173.363 148.265 173.089 148.435C172.539 148.791 172.081 149.273 171.753 149.841C171.425 150.409 171.236 151.046 171.201 151.701C171.201 152.904 172.079 153.387 173.089 152.79C173.697 152.399 174.216 151.884 174.611 151.279C175.006 150.674 175.268 149.992 175.38 149.278V139.839L181.43 136.389V143.781C181.121 143.874 180.826 144.007 180.552 144.176C180.053 144.507 179.649 144.962 179.379 145.496C179.11 146.03 178.985 146.626 179.015 147.223C179.015 148.426 179.893 148.918 180.894 148.312C181.443 147.956 181.9 147.475 182.228 146.909C182.557 146.343 182.746 145.708 182.782 145.054V132.762L173.967 137.741Z" fill="white"/>
<path opacity="0.1" d="M170.534 157.417L170.393 157.47L170.069 157.566C169.783 157.656 169.489 157.715 169.191 157.742C169.044 157.751 168.898 157.751 168.752 157.742C167.972 157.757 167.201 157.573 166.513 157.206L164.704 156.161C164.055 155.735 163.514 155.163 163.125 154.491C162.736 153.819 162.51 153.065 162.465 152.289V135.713C162.477 135.241 162.569 134.775 162.737 134.334C162.806 134.148 162.885 133.967 162.974 133.79L163.124 133.518L169.401 137.144C169.001 137.808 168.777 138.564 168.752 139.339V155.942C168.752 157.022 169.322 157.61 170.139 157.522H170.279L170.534 157.417Z" fill="black"/>
<path d="M187.55 163.51C187.507 162.735 187.282 161.982 186.893 161.31C186.504 160.639 185.962 160.069 185.311 159.647L183.502 158.602C182.811 158.251 182.047 158.068 181.272 158.068C180.497 158.068 179.733 158.251 179.042 158.602L164.669 166.899C164.02 167.323 163.479 167.894 163.09 168.565C162.701 169.236 162.475 169.988 162.43 170.762V187.365C162.472 188.14 162.697 188.894 163.086 189.565C163.476 190.237 164.018 190.807 164.669 191.229L166.478 192.282C166.629 192.369 166.787 192.443 166.952 192.502L167.145 192.563L167.47 192.669L167.733 192.712C167.826 192.735 167.919 192.753 168.014 192.765H168.33H168.558H169.103L169.515 192.721H169.621L170.06 192.625H170.121C170.408 192.544 170.684 192.432 170.947 192.291L185.319 183.985C185.97 183.563 186.513 182.993 186.902 182.322C187.291 181.65 187.516 180.897 187.558 180.122L187.55 163.51Z" fill="#0149AD"/>
<path opacity="0.4" d="M187.514 163.133C187.356 161.991 186.426 161.579 185.319 162.255L170.938 170.552C170.278 170.965 169.734 171.539 169.357 172.22L163.08 168.576C163.456 167.895 164 167.321 164.66 166.908L179.033 158.611C179.723 158.256 180.487 158.071 181.263 158.071C182.039 158.071 182.803 158.256 183.493 158.611L185.319 159.656C185.911 160.047 186.412 160.559 186.79 161.158C187.169 161.758 187.416 162.431 187.514 163.133Z" fill="white"/>
<path d="M187.549 163.501V180.104C187.508 180.88 187.283 181.636 186.894 182.308C186.505 182.981 185.962 183.553 185.311 183.976L170.938 192.282C170.765 192.378 170.582 192.454 170.393 192.51L170.244 192.554H170.095C169.287 192.642 168.708 192.054 168.708 190.974V174.38C168.732 173.602 168.956 172.843 169.357 172.176C169.737 171.497 170.28 170.923 170.938 170.508L185.311 162.211C186.434 161.561 187.356 161.974 187.514 163.089C187.514 162.974 187.514 162.852 187.453 162.737C187.513 162.988 187.545 163.244 187.549 163.501Z" fill="#0149AD"/>
<path d="M171.385 173.353V188.919L184.872 181.132V165.565L171.385 173.353ZM184.037 180.658L172.211 187.48V173.844L184.037 167.013V180.658Z" fill="white"/>
<path d="M172.211 187.479V183.528L176.39 176.908L180.736 179.858L179.428 178.41L181.096 176.206L184.038 177.918V180.657L172.211 187.479Z" fill="white"/>
<path d="M181.21 171.21C181.737 170.903 182.167 171.149 182.167 171.763C182.148 172.095 182.052 172.418 181.886 172.707C181.719 172.995 181.488 173.24 181.21 173.423C180.684 173.721 180.253 173.476 180.253 172.87C180.271 172.537 180.367 172.214 180.533 171.926C180.7 171.637 180.932 171.392 181.21 171.21Z" fill="white"/>
<path opacity="0.1" d="M170.534 192.467L170.393 192.519L170.069 192.616C169.783 192.705 169.489 192.764 169.191 192.791C169.044 192.8 168.898 192.8 168.752 192.791C167.972 192.807 167.201 192.623 166.513 192.256L164.704 191.211C164.052 190.791 163.506 190.225 163.111 189.558C162.716 188.89 162.483 188.139 162.43 187.365V170.762C162.442 170.291 162.534 169.825 162.702 169.384C162.77 169.198 162.85 169.016 162.939 168.84L163.088 168.567L169.366 172.194C168.966 172.858 168.742 173.613 168.716 174.389V190.991C168.716 192.071 169.287 192.66 170.104 192.572H170.244L170.534 192.467Z" fill="black"/>
<path d="M187.549 233.61C187.507 232.835 187.282 232.081 186.893 231.41C186.504 230.738 185.962 230.168 185.311 229.746L183.493 228.693C182.802 228.342 182.038 228.159 181.263 228.159C180.488 228.159 179.724 228.342 179.033 228.693L164.66 236.999C163.997 237.407 163.452 237.982 163.08 238.667C162.676 239.33 162.449 240.086 162.421 240.862V257.465C162.464 258.24 162.689 258.993 163.078 259.665C163.467 260.336 164.009 260.906 164.66 261.328L166.469 262.373C166.622 262.459 166.78 262.536 166.943 262.601L167.136 262.663L167.461 262.759C167.549 262.759 167.636 262.759 167.724 262.812L168.005 262.856H168.321H169.094L169.507 262.812H169.612L170.051 262.724H170.112C170.401 262.644 170.678 262.529 170.938 262.382L185.311 254.084C185.962 253.662 186.504 253.092 186.893 252.421C187.282 251.75 187.507 250.996 187.549 250.221V233.61Z" fill="#0149AD"/>
<path opacity="0.4" d="M187.514 233.232C187.356 232.091 186.426 231.678 185.319 232.354L170.938 240.66C170.274 241.068 169.729 241.644 169.357 242.328L163.08 238.702C163.452 238.017 163.997 237.442 164.66 237.034L179.033 228.728C179.724 228.377 180.488 228.194 181.263 228.194C182.038 228.194 182.802 228.377 183.493 228.728L185.319 229.781C185.908 230.169 186.408 230.677 186.787 231.271C187.165 231.866 187.413 232.534 187.514 233.232Z" fill="white"/>
<path d="M187.549 233.601V250.23C187.507 251.005 187.282 251.759 186.893 252.43C186.504 253.101 185.962 253.671 185.311 254.093L170.938 262.39C170.765 262.489 170.583 262.568 170.393 262.627L170.244 262.671H170.095C169.287 262.759 168.708 262.171 168.708 261.091V244.479C168.748 243.705 168.972 242.951 169.359 242.28C169.747 241.609 170.288 241.038 170.938 240.616L185.311 232.31C186.434 231.669 187.356 232.082 187.514 233.188C187.514 233.074 187.514 232.96 187.453 232.837C187.513 233.087 187.545 233.343 187.549 233.601Z" fill="#0149AD"/>
<path d="M177.979 239.369C179.735 238.342 181.228 239.176 181.228 241.248C181.166 242.373 180.84 243.467 180.275 244.442C179.711 245.417 178.924 246.245 177.979 246.858C176.223 247.894 174.74 247.06 174.74 244.988C174.801 243.863 175.126 242.768 175.689 241.792C176.252 240.816 177.036 239.986 177.979 239.369Z" fill="white"/>
<path d="M184.38 250.432C184.38 247.034 181.992 245.524 179.05 247.227L177.215 248.29C175.664 249.3 174.373 250.663 173.447 252.266C172.521 253.869 171.986 255.669 171.886 257.517V258.395L184.38 251.222V250.432Z" fill="white"/>
<path opacity="0.1" d="M170.534 262.522C170.491 262.549 170.443 262.566 170.393 262.575L170.069 262.68C169.782 262.765 169.488 262.824 169.191 262.856H168.752C167.973 262.87 167.203 262.689 166.513 262.329L164.704 261.275C164.054 260.852 163.512 260.282 163.123 259.611C162.735 258.94 162.509 258.186 162.465 257.412V240.862C162.477 240.387 162.569 239.918 162.737 239.475C162.808 239.29 162.887 239.106 162.974 238.93L163.124 238.667L169.401 242.293C169 242.957 168.776 243.713 168.752 244.488V261.091C168.752 262.171 169.322 262.759 170.139 262.671H170.279C170.37 262.632 170.455 262.581 170.534 262.522Z" fill="black"/>
<path d="M362.561 160.674H363.702C368.045 160.674 372.21 158.949 375.281 155.878C378.352 152.807 380.077 148.642 380.077 144.299C380.082 142.071 379.647 139.863 378.798 137.803C377.948 135.742 376.701 133.869 375.127 132.291C373.553 130.713 371.684 129.461 369.625 128.606C367.567 127.752 365.36 127.311 363.132 127.31C358.961 127.31 354.962 128.967 352.013 131.916C349.064 134.865 347.407 138.865 347.407 143.035V145.485C347.402 147.478 347.791 149.452 348.55 151.295C349.31 153.137 350.425 154.812 351.833 156.223C353.241 157.634 354.913 158.753 356.754 159.517C358.595 160.281 360.568 160.674 362.561 160.674Z" fill="#263238"/>
<path d="M390.613 172.439C387.301 172.439 384.125 171.124 381.782 168.783C379.439 166.442 378.122 163.266 378.119 159.954V144.457C381.433 144.457 384.611 145.774 386.954 148.117C389.297 150.46 390.613 153.638 390.613 156.951V172.439Z" fill="#263238"/>
<path d="M334.685 207.831C333.701 209.824 330.751 212.731 327.283 208.982C322.217 203.512 313.876 184.073 313.876 184.073L319.363 181.535L330.54 196.804L334.685 207.831Z" fill="#FFA8A7"/>
<path d="M344.466 173.844C340.12 180.464 328.995 200.5 328.995 200.5L333.517 209.482C333.517 209.482 338.926 202.142 341.77 198.112C345.063 193.459 350.647 184.503 350.647 184.503C350.647 184.503 349.988 171.131 352.745 168.796C354.234 167.477 355.955 166.447 357.82 165.758C353.439 165.942 349.075 166.767 344.466 173.844Z" fill="#FFA8A7"/>
<path d="M323.789 171.781C322.331 169.068 321.971 168.945 321.155 168.348C320.338 167.751 314.965 166.961 312.761 166.776C310.171 166.557 309.249 167.031 309.969 169.27C311.514 174.046 316.194 184.196 317.248 185.583C317.932 186.461 318.073 187.339 320.988 187.646C323.718 187.91 327.134 188.059 328.144 188.12C329.153 188.182 330.54 188.428 329.636 185.486C328.476 182.121 327.133 178.82 325.615 175.6C324.491 173.194 323.789 171.781 323.789 171.781Z" fill="#263238"/>
<path d="M313.876 184.073C312.787 179.279 309.6 174.854 311.4 173.229L312.366 175.354C312.366 175.354 318.336 176.785 321.216 176.566C324.096 176.346 326.484 175.688 327.239 176.215C328.916 177.391 329.39 182.413 324.605 184.24C320.531 185.785 313.876 184.073 313.876 184.073Z" fill="#FFA8A7"/>
<path d="M374.089 329.329V328.24C373.659 329.513 371.666 335.019 368.637 337.775C366.24 339.97 362.956 342.499 362.122 344.94C361.288 347.381 366.688 348.338 368.935 347.943C371.569 347.477 374.915 346.002 376.758 343.746C378.049 342.157 378.866 340.278 379.788 339.022C380.709 337.767 382.843 336.388 383.3 334.939C383.58 334.149 383.256 332.411 382.869 330.945C382.483 329.478 382.132 328.109 381.675 328.24C381.675 328.407 381.675 329.066 381.675 329.066C380.591 329.921 379.245 330.377 377.865 330.356C376.785 330.4 374.081 330.181 374.089 329.329Z" fill="#263238"/>
<path d="M366.468 339.707C367.215 339.04 367.961 338.39 368.637 337.767C370.753 335.844 372.36 332.578 373.29 330.347C373.818 329.075 374.089 327.712 374.089 326.335V321.989H381.71V329.066V329.25H381.666C381.298 330.839 377.803 335.045 375.819 337.793C374.484 339.637 371.956 341.981 368.935 342.385C366.064 342.78 364.607 341.876 366.468 339.707Z" fill="#FFA8A7"/>
<path d="M344.369 321.813V320.725C343.939 322.007 341.946 327.512 338.925 330.269C336.52 332.455 333.236 334.992 332.402 337.433C331.568 339.874 336.968 340.831 339.215 340.436C341.849 339.97 345.194 338.487 347.038 336.23C348.329 334.641 349.145 332.762 350.067 331.515C350.989 330.268 353.123 328.881 353.623 327.433C353.895 326.634 353.571 324.895 353.184 323.429C352.798 321.963 352.447 320.602 351.99 320.725C351.99 320.891 351.99 321.559 351.99 321.559C350.904 322.41 349.56 322.866 348.18 322.849C347.065 322.885 344.36 322.665 344.369 321.813Z" fill="#263238"/>
<path d="M336.748 332.191L338.925 330.26C341.033 328.328 342.639 325.062 343.57 322.832C344.097 321.563 344.369 320.202 344.369 318.828V314.482H351.99V321.55V321.743C351.621 323.323 348.127 327.538 346.143 330.286C344.808 332.121 342.279 334.465 339.259 334.869C336.344 335.273 334.887 334.369 336.748 332.191Z" fill="#FFA8A7"/>
<path d="M380.174 210.913C386.083 223.82 379.963 269.265 379.963 269.265C380.139 271.355 382.527 275.481 383.422 284.692C384.476 295.579 381.772 322.92 381.772 322.92C380.61 323.592 379.301 323.971 377.96 324.025C376.618 324.078 375.284 323.805 374.072 323.227C374.072 323.227 366.811 282.049 365.441 271.223C364.247 261.776 361.929 241.002 361.929 241.002L355.432 271.17C356.381 274.214 357.068 277.334 357.486 280.495C358.101 286.869 351.937 316.493 351.937 316.493C351.937 316.493 349.303 317.458 344.316 316.721C344.316 316.721 342.13 277.378 341.559 269.713C340.594 256.833 344.009 216.638 346.38 209.008L380.174 210.913Z" fill="#0149AD"/>
<path opacity="0.1" d="M361.982 241.002L360.059 229.026C360.059 229.026 351.946 227.341 348.267 223.881C348.267 223.881 352.131 228.684 357.864 230.256L359.98 239.483L356.222 267.421L361.982 241.002Z" fill="black"/>
<path d="M369.77 166.091C377.347 166.618 377.873 170.271 379.77 174.274C381.155 177.358 381.285 180.86 380.13 184.038L374.862 199.297C374.862 199.297 377.329 205.276 380.2 210.913C366.951 218.306 350.418 214.425 346.441 209.025C346.265 207.884 344.975 183.563 345.958 179.674C347.784 172.492 354.879 165.494 358.013 165.749L369.77 166.091Z" fill="#37474F"/>
<path d="M381.789 141.56L378.743 145.397C378.984 145.61 379.265 145.772 379.571 145.872C379.876 145.973 380.199 146.01 380.519 145.983C380.839 145.955 381.15 145.862 381.434 145.71C381.717 145.558 381.966 145.35 382.167 145.098C382.572 144.573 382.759 143.913 382.689 143.253C382.618 142.594 382.296 141.987 381.789 141.56Z" fill="#263238"/>
<path d="M351.683 136.441C350.805 136.88 348.575 141.191 348.794 150.63C348.979 158.628 351.569 160.604 352.877 161.166C354.185 161.728 356.687 161.394 359.128 160.981V165.784C359.128 165.784 355.757 169.709 355.967 171.93C356.178 174.151 360.84 174.652 364.001 172.501C366.045 171.028 367.801 169.191 369.181 167.083V155.459C369.181 155.459 370.823 157.654 373.519 155.871C376.214 154.089 376.319 149.646 374.757 148.057C373.194 146.468 369.805 146.968 369.181 149.163C369.181 149.163 365.222 149.866 359.918 146.45C354.194 142.763 352.429 139.83 351.683 136.441Z" fill="#FFA8A7"/>
<path d="M350.375 145.379L352.613 144.317C352.551 144.168 352.459 144.033 352.342 143.921C352.226 143.809 352.088 143.721 351.937 143.664C351.786 143.606 351.625 143.58 351.464 143.587C351.302 143.593 351.144 143.633 350.998 143.702C350.699 143.849 350.468 144.104 350.352 144.416C350.236 144.728 350.244 145.073 350.375 145.379Z" fill="#263238"/>
<path d="M359.629 144.677L361.718 145.994C361.812 145.862 361.878 145.712 361.912 145.553C361.945 145.395 361.946 145.231 361.914 145.072C361.882 144.914 361.818 144.763 361.725 144.63C361.632 144.497 361.514 144.385 361.376 144.299C361.092 144.127 360.752 144.07 360.427 144.14C360.102 144.21 359.816 144.402 359.629 144.677Z" fill="#263238"/>
<path d="M369.269 146.96L369.129 151.859C368.807 151.866 368.487 151.808 368.189 151.688C367.89 151.567 367.619 151.387 367.393 151.159C367.166 150.931 366.988 150.659 366.87 150.359C366.752 150.06 366.696 149.74 366.705 149.418C366.735 148.757 367.017 148.133 367.495 147.675C367.972 147.218 368.608 146.961 369.269 146.96Z" fill="#263238"/>
<path d="M358.619 148.312C358.601 148.45 358.612 148.59 358.651 148.724C358.69 148.858 358.757 148.982 358.846 149.089C358.936 149.196 359.047 149.283 359.171 149.345C359.296 149.407 359.433 149.442 359.572 149.449C359.711 149.456 359.85 149.434 359.98 149.384C360.111 149.334 360.229 149.258 360.329 149.16C360.428 149.062 360.506 148.945 360.558 148.816C360.609 148.686 360.634 148.548 360.629 148.408C360.639 148.274 360.622 148.14 360.579 148.013C360.537 147.886 360.47 147.768 360.382 147.667C360.293 147.566 360.186 147.483 360.066 147.423C359.946 147.364 359.815 147.328 359.681 147.32C359.409 147.312 359.146 147.412 358.947 147.598C358.748 147.784 358.63 148.04 358.619 148.312Z" fill="#263238"/>
<path d="M357.46 155.406L355.125 156.152C355.162 156.312 355.232 156.463 355.33 156.595C355.428 156.727 355.552 156.838 355.694 156.92C355.836 157.002 355.994 157.055 356.157 157.074C356.321 157.093 356.486 157.078 356.643 157.03C356.804 156.978 356.953 156.894 357.081 156.784C357.209 156.673 357.314 156.539 357.389 156.388C357.465 156.237 357.511 156.073 357.523 155.904C357.535 155.736 357.514 155.566 357.46 155.406Z" fill="#F28F8F"/>
<path d="M350.84 147.899C350.822 148.038 350.834 148.178 350.873 148.312C350.913 148.446 350.98 148.57 351.07 148.677C351.16 148.784 351.271 148.871 351.396 148.932C351.522 148.994 351.658 149.029 351.798 149.035C351.937 149.041 352.076 149.018 352.207 148.968C352.337 148.917 352.455 148.84 352.554 148.742C352.653 148.643 352.73 148.525 352.781 148.395C352.833 148.266 352.856 148.126 352.851 147.987C352.86 147.853 352.843 147.719 352.801 147.592C352.758 147.464 352.691 147.347 352.603 147.246C352.515 147.144 352.407 147.062 352.287 147.002C352.167 146.942 352.036 146.907 351.902 146.898C351.63 146.893 351.366 146.995 351.167 147.182C350.969 147.369 350.851 147.627 350.84 147.899Z" fill="#263238"/>
<path d="M355.757 147.32L355.599 153.378L352.412 152.386L355.757 147.32Z" fill="#F28F8F"/>
<path d="M359.102 160.99C361.675 160.657 367.004 159.138 367.794 157.039C367.457 158.084 366.812 159.003 365.942 159.673C364.352 161.025 359.102 162.553 359.102 162.553V160.99Z" fill="#F28F8F"/>
<path d="M366.381 212.344C367.418 212.107 368.397 211.664 369.261 211.043C370.125 210.421 370.856 209.633 371.412 208.726C371.967 207.818 372.335 206.808 372.495 205.756C372.655 204.704 372.603 203.63 372.342 202.598C372.307 202.458 372.263 202.32 372.21 202.186C372.019 201.638 371.651 201.169 371.166 200.851C370.68 200.534 370.103 200.386 369.524 200.43C370.375 199.868 371.106 199.142 371.674 198.295C372.242 197.448 372.636 196.496 372.834 195.495L374.449 185.925C374.642 184.368 374.501 182.788 374.037 181.289L379.366 175.143C379.366 175.143 379.744 175.416 380.35 175.828C381.151 178.533 381.074 181.423 380.13 184.081L374.862 199.341C374.862 199.341 377.329 205.32 380.2 210.957C375.891 213.273 371.136 214.64 366.255 214.964C361.374 215.288 356.48 214.562 351.902 212.836C356.716 213.587 361.629 213.42 366.381 212.344Z" fill="#263238"/>
<path d="M393.748 204.1C386.873 176.004 381.781 166.618 373.431 166.732C370.999 169.647 371.675 178.445 375.521 183.792C375.521 183.792 384.116 201.914 385.486 208.376C386.689 214.039 388.05 221.159 387.962 226.024C387.941 226.886 387.604 227.712 387.014 228.341C385.442 230.045 385.433 231.414 384.38 233.293C383.581 234.768 382.711 235.313 382.957 235.646C383.283 236 383.731 236.216 384.21 236.252C384.689 236.288 385.164 236.14 385.539 235.84C386.273 235.308 386.929 234.675 387.488 233.961C387.22 235.763 386.7 237.519 385.942 239.176C384.186 243.153 384.608 245.182 389.972 243.768C393.335 242.89 395.451 240.08 395.952 231.994C396.2 229.018 396.229 226.028 396.039 223.047C395.372 215.356 394.854 208.622 393.748 204.1Z" fill="#FFA8A7"/>
</svg>
