<svg width="433" height="433" viewBox="0 0 433 433" fill="none" xmlns="http://www.w3.org/2000/svg">
<path d="M111.714 166.696C112.957 165.946 114.293 165.364 115.689 164.964L116.503 161.033L123.145 160.92L124.098 164.817C125.507 165.166 126.863 165.699 128.133 166.402L131.485 164.202L136.265 168.818L134.187 172.282C134.937 173.525 135.519 174.861 135.919 176.257L139.85 177.071L139.963 183.713L136.066 184.666C135.724 186.077 135.191 187.435 134.481 188.701L136.681 192.053L132.065 196.833L128.601 194.755C127.361 195.505 126.028 196.087 124.635 196.487L123.812 200.418L117.17 200.531L116.217 196.634C114.809 196.292 113.454 195.759 112.19 195.049L108.83 197.249L104.05 192.633L106.137 189.169C105.384 187.931 104.801 186.597 104.405 185.203L100.456 184.371L100.344 177.729L104.241 176.777C104.59 175.37 105.123 174.017 105.825 172.75L103.626 169.39L108.241 164.609L111.705 166.696H111.714ZM115.256 175.538C114.276 176.552 113.618 177.833 113.366 179.22C113.114 180.608 113.279 182.038 113.841 183.332C114.402 184.625 115.335 185.723 116.52 186.486C117.706 187.249 119.091 187.644 120.501 187.62C121.911 187.595 123.282 187.154 124.44 186.35C125.599 185.546 126.493 184.417 127.01 183.105C127.527 181.793 127.643 180.358 127.343 178.98C127.044 177.602 126.342 176.344 125.328 175.365C123.967 174.053 122.142 173.334 120.252 173.367C118.362 173.399 116.562 174.18 115.247 175.538H115.256Z" fill="#E0E0E0"/>
<path d="M53.3804 231.265H40.1133V272.712H53.3804V231.265Z" fill="#F5F5F5"/>
<path d="M73.1944 240.731H59.9272V272.712H73.1944V240.731Z" fill="#F5F5F5"/>
<path d="M91.5364 253.721H78.2693V272.712H91.5364V253.721Z" fill="#F5F5F5"/>
<path d="M378.685 348.279C378.683 344.187 377.583 340.171 375.5 336.649C373.416 333.127 370.425 330.23 366.839 328.258C363.253 326.287 359.203 325.315 355.114 325.444C351.024 325.572 347.043 326.796 343.588 328.989C340.132 331.181 337.329 334.26 335.471 337.906C333.612 341.552 332.766 345.629 333.022 349.713C333.277 353.797 334.625 357.738 336.923 361.123C339.221 364.509 342.387 367.215 346.088 368.959V374.727H366.119C366.119 374.727 366.24 371.488 366.292 368.596C370.024 366.674 373.155 363.762 375.341 360.178C377.527 356.594 378.684 352.477 378.685 348.279Z" fill="#F5F5F5"/>
<path d="M364.586 378.442H347.379C347.209 378.442 347.041 378.409 346.885 378.344C346.728 378.279 346.586 378.184 346.466 378.064C346.346 377.944 346.251 377.802 346.187 377.646C346.122 377.489 346.088 377.321 346.088 377.152C346.088 376.982 346.122 376.814 346.187 376.658C346.251 376.501 346.346 376.359 346.466 376.239C346.586 376.12 346.728 376.024 346.885 375.96C347.041 375.895 347.209 375.861 347.379 375.861H364.586C364.928 375.861 365.257 375.997 365.499 376.239C365.741 376.481 365.876 376.81 365.876 377.152C365.876 377.494 365.741 377.822 365.499 378.064C365.257 378.306 364.928 378.442 364.586 378.442Z" fill="#E0E0E0"/>
<path d="M364.586 379.559H347.379C347.034 379.559 346.704 379.696 346.46 379.94C346.216 380.183 346.08 380.514 346.08 380.858C346.08 381.203 346.216 381.533 346.46 381.777C346.704 382.02 347.034 382.157 347.379 382.157H349.266L351.778 386.929C351.92 387.193 352.131 387.413 352.389 387.566C352.647 387.718 352.942 387.797 353.241 387.795H359.39C359.691 387.798 359.987 387.719 360.247 387.567C360.506 387.414 360.719 387.193 360.862 386.929L363.296 382.175H364.586C364.931 382.175 365.261 382.038 365.505 381.794C365.748 381.55 365.885 381.22 365.885 380.876C365.885 380.531 365.748 380.201 365.505 379.957C365.261 379.713 364.931 379.577 364.586 379.577V379.559Z" fill="#E0E0E0"/>
<path d="M360.542 387.301C360.542 387.301 360.092 387.145 359.364 386.937C357.457 386.385 355.426 386.443 353.553 387.102C353.174 387.266 352.787 387.411 352.393 387.535C352.716 387.265 353.086 387.057 353.484 386.92C354.422 386.531 355.422 386.317 356.437 386.288C357.453 386.255 358.466 386.411 359.425 386.747C359.828 386.861 360.207 387.049 360.542 387.301Z" fill="#FAFAFA"/>
<path d="M363.33 382.2C363.33 382.278 360.221 382.339 356.402 382.339C352.583 382.339 349.474 382.278 349.474 382.2C349.474 382.123 352.583 382.062 356.402 382.062C360.221 382.062 363.33 382.123 363.33 382.2Z" fill="#FAFAFA"/>
<path d="M362.257 384.236C361.701 384.35 361.135 384.408 360.568 384.409C359.52 384.478 358.065 384.539 356.463 384.565C354.861 384.591 353.406 384.565 352.358 384.565C351.778 384.579 351.198 384.536 350.626 384.435C351.201 384.366 351.78 384.343 352.358 384.365L356.463 384.313L360.559 384.244C361.124 384.204 361.691 384.201 362.257 384.236Z" fill="#FAFAFA"/>
<path d="M375.177 341.403C375.385 341.766 375.54 342.157 375.636 342.564C375.969 343.646 376.2 344.756 376.329 345.88C376.778 349.631 376.187 353.433 374.622 356.871C373.056 360.309 370.576 363.25 367.452 365.374C366.519 366.016 365.527 366.57 364.491 367.028C364.118 367.219 363.722 367.362 363.313 367.452C363.313 367.349 364.941 366.725 367.227 365.062C370.221 362.907 372.599 360.008 374.127 356.651C375.655 353.294 376.28 349.596 375.939 345.924C375.763 344.405 375.508 342.896 375.177 341.403Z" fill="white"/>
<path d="M360.316 330.284C359.858 328.716 358.048 327.686 355.839 327.642C352.18 327.949 348.633 329.055 345.447 330.881C343.291 332.15 341.418 333.848 339.943 335.869C338.469 337.89 337.424 340.192 336.874 342.633C336.63 343.534 336.597 344.479 336.779 345.395C336.878 345.872 337.097 346.315 337.416 346.683C337.734 347.051 338.14 347.332 338.597 347.5C339.051 347.607 339.523 347.604 339.975 347.491C340.427 347.378 340.845 347.158 341.195 346.85C341.889 346.226 342.459 345.477 342.875 344.642C343.807 342.729 344.845 340.87 345.984 339.074C347.124 337.24 348.92 335.911 351.007 335.358C352.375 335.055 353.605 335.029 354.991 334.735C356.723 334.362 357.796 334.397 358.992 333.652C359.482 333.251 359.861 332.731 360.093 332.141C360.325 331.551 360.402 330.912 360.316 330.284Z" fill="white"/>
<path d="M341.438 352.601C341.438 353.114 341.286 353.617 341 354.044C340.715 354.471 340.309 354.804 339.834 355.001C339.359 355.197 338.837 355.249 338.333 355.149C337.829 355.048 337.366 354.801 337.003 354.438C336.64 354.074 336.392 353.611 336.292 353.107C336.192 352.603 336.243 352.081 336.44 351.606C336.636 351.132 336.969 350.726 337.397 350.44C337.824 350.155 338.326 350.003 338.84 350.003C339.529 350.003 340.19 350.276 340.677 350.763C341.164 351.251 341.438 351.912 341.438 352.601Z" fill="white"/>
<path d="M362.915 374.796C362.915 374.796 362.854 374.493 362.776 373.93C362.698 373.367 362.577 372.415 362.447 371.332C362.161 369.011 361.772 365.772 361.295 361.806C361.088 359.78 360.75 357.615 360.577 355.198C360.551 354.544 360.784 353.906 361.226 353.423C361.465 353.159 361.793 352.992 362.146 352.952C362.5 352.912 362.857 353.003 363.149 353.207C363.684 353.638 364.034 354.258 364.127 354.939C364.201 355.625 364.112 356.32 363.867 356.965C363.341 358.301 362.312 359.377 361.001 359.961C360.317 360.273 359.571 360.423 358.82 360.399C358.069 360.374 357.333 360.178 356.671 359.823C355.304 359.098 354.266 357.877 353.77 356.411C353.504 355.665 353.409 354.869 353.493 354.081C353.546 353.669 353.694 353.275 353.926 352.93C354.053 352.748 354.22 352.598 354.413 352.49C354.606 352.382 354.822 352.319 355.043 352.306C355.262 352.306 355.48 352.351 355.681 352.439C355.882 352.527 356.063 352.656 356.212 352.817C356.503 353.104 356.736 353.445 356.896 353.822C357.188 354.551 357.333 355.331 357.32 356.116C357.359 356.885 357.238 357.654 356.965 358.373C356.692 359.093 356.274 359.749 355.736 360.299C355.207 360.837 354.538 361.216 353.805 361.393C353.072 361.571 352.304 361.54 351.587 361.304C350.295 360.745 349.23 359.765 348.565 358.524C348.229 357.939 347.962 357.317 347.768 356.671C347.543 356.035 347.472 355.356 347.561 354.688C347.618 354.338 347.781 354.015 348.028 353.761C348.171 353.635 348.349 353.556 348.539 353.536C348.728 353.516 348.919 353.555 349.085 353.648C349.57 354.075 349.879 354.668 349.951 355.311C350.571 357.445 350.98 359.635 351.172 361.849C351.452 365.049 351.286 368.273 350.678 371.427C350.468 372.58 350.178 373.717 349.812 374.831C349.812 374.831 349.864 374.519 350.011 373.965C350.159 373.41 350.349 372.527 350.548 371.41C351.101 368.266 351.223 365.061 350.912 361.884C350.706 359.695 350.289 357.532 349.665 355.424C349.5 354.861 349.345 354.229 348.903 353.96C348.797 353.901 348.675 353.875 348.554 353.888C348.433 353.9 348.319 353.949 348.227 354.029C348.034 354.234 347.91 354.495 347.872 354.774C347.793 355.385 347.865 356.007 348.08 356.584C348.266 357.207 348.525 357.806 348.851 358.368C349.473 359.554 350.481 360.492 351.709 361.027C352.361 361.237 353.06 361.261 353.726 361.096C354.391 360.931 354.997 360.583 355.476 360.091C355.975 359.578 356.363 358.966 356.615 358.296C356.867 357.625 356.977 356.91 356.939 356.194C356.948 355.459 356.813 354.73 356.541 354.047C356.264 353.406 355.718 352.748 355.06 352.765C354.402 352.782 353.96 353.51 353.874 354.211C353.804 354.937 353.893 355.67 354.134 356.359C354.601 357.731 355.573 358.873 356.853 359.554C357.459 359.881 358.132 360.063 358.82 360.087C359.508 360.111 360.192 359.976 360.819 359.693C362.265 359.996 363.114 358.368 363.504 356.913C363.732 356.321 363.818 355.683 363.755 355.051C363.678 354.447 363.367 353.896 362.889 353.518C362.663 353.359 362.386 353.289 362.111 353.321C361.836 353.353 361.583 353.485 361.399 353.692C361.018 354.116 360.817 354.672 360.836 355.242C361.001 357.571 361.313 359.806 361.512 361.806C361.936 365.781 362.283 369.02 362.534 371.332C362.638 372.406 362.724 373.272 362.794 373.93C362.906 374.484 362.915 374.796 362.915 374.796Z" fill="#E0E0E0"/>
<path d="M366.318 57.9702L376.424 58.9574C376.424 58.9574 377.247 50.4706 386.08 51.1634C387.786 51.2666 389.417 51.8994 390.745 52.9737C392.074 54.0479 393.035 55.51 393.493 57.1561C393.897 58.5325 393.97 59.9848 393.707 61.3948C393.444 62.8049 392.851 64.1328 391.977 65.2705C389.986 67.9292 385.915 70.4146 379.256 68.5527L377.065 91.0687L387.102 92.0386L388.401 78.6935C388.401 78.6935 402.69 76.4333 404.231 60.9925C405.669 46.2099 392.229 41.4382 385.335 40.7714C381.04 40.3471 367.859 40.1306 366.318 57.9702Z" fill="#F5F5F5"/>
<path d="M376.588 95.7495L375.666 105.222L385.802 106.209L386.724 96.7362L376.588 95.7495Z" fill="#F5F5F5"/>
<path d="M362.291 57.5804L372.38 58.5676C372.38 58.5676 373.246 50.0808 382.045 50.7736C383.748 50.8799 385.377 51.514 386.704 52.5879C388.031 53.6618 388.99 55.1222 389.449 56.7664C389.861 58.1411 389.942 59.5939 389.685 61.0059C389.427 62.4178 388.839 63.7487 387.968 64.8894C385.976 67.5481 381.975 69.7477 375.281 67.8858L373.064 90.6703L383.058 91.6402L384.357 78.2951C384.357 78.2951 398.698 76.0349 400.196 60.6201C401.634 45.8461 388.722 41.1264 383.049 40.5722C378.711 40.1218 363.833 39.7321 362.291 57.5804Z" fill="#EBEBEB"/>
<path d="M372.545 95.3541L371.623 104.827L381.759 105.813L382.681 96.3408L372.545 95.3541Z" fill="#EBEBEB"/>
<path d="M214.82 33.644C216.093 32.9498 217.453 32.4285 218.864 32.0938L219.86 28.2055L226.502 28.396L227.282 32.3277C228.668 32.7293 229.996 33.3116 231.231 34.0597L234.686 32.0419L239.25 36.8655L237.016 40.1996C237.707 41.4731 238.225 42.8332 238.557 44.2438L242.48 45.2484L242.298 51.8906L238.358 52.67C237.958 54.0573 237.376 55.3853 236.626 56.619L238.67 60.083L233.82 64.6381L230.486 62.4038C229.213 63.0967 227.853 63.6152 226.442 63.9453L225.446 67.8423L218.812 67.6518L218.033 63.7115C216.64 63.3194 215.308 62.7365 214.075 61.9795L210.611 64.0319L206.047 59.2083L208.282 55.8742C207.586 54.5986 207.065 53.2355 206.732 51.8213L202.843 50.8341L203.025 44.1919L206.965 43.4125C207.365 42.0251 207.947 40.6972 208.697 39.4635L206.654 35.9995L211.477 31.4357L214.811 33.67L214.82 33.644ZM217.955 42.6417C216.931 43.6104 216.217 44.8612 215.903 46.2358C215.59 47.6104 215.691 49.0471 216.194 50.364C216.698 51.681 217.58 52.8192 218.73 53.6345C219.881 54.4499 221.247 54.9057 222.656 54.9445C224.065 54.9833 225.455 54.6032 226.648 53.8524C227.841 53.1015 228.785 52.0136 229.36 50.7263C229.935 49.439 230.115 48.0101 229.878 46.6203C229.64 45.2306 228.996 43.9424 228.027 42.9188C226.727 41.5472 224.937 40.7475 223.048 40.6956C221.16 40.6436 219.328 41.3436 217.955 42.6417Z" fill="#E0E0E0"/>
<path d="M175.633 28.7252C176.516 28.1921 177.465 27.7785 178.457 27.4955L179.037 24.6983L183.774 24.6117L184.449 27.3916C185.453 27.6393 186.419 28.0178 187.324 28.5174L189.715 26.9499L193.118 30.2407L191.637 32.6828C192.168 33.5666 192.581 34.5156 192.867 35.506L195.664 36.0862L195.742 40.8146L192.971 41.4987C192.724 42.501 192.342 43.4653 191.836 44.3652L193.404 46.764L190.122 50.1674L187.679 48.6865C186.795 49.2217 185.842 49.6353 184.848 49.9162L184.267 52.7134L179.539 52.8L178.855 50.0201C177.85 49.7762 176.883 49.3975 175.98 48.8943L173.59 50.4618L170.186 47.171L171.676 44.7289C171.139 43.8483 170.725 42.8984 170.446 41.9057L167.64 41.3168L167.562 36.5885L170.333 35.9043C170.584 34.9032 170.966 33.9395 171.468 33.0379L169.9 30.6477L173.2 27.2443L175.651 28.7252H175.633ZM178.153 35.0297C177.456 35.7519 176.988 36.6647 176.81 37.6527C176.631 38.6407 176.75 39.6595 177.15 40.5801C177.551 41.5007 178.216 42.2818 179.06 42.8245C179.905 43.3672 180.892 43.6472 181.896 43.629C182.899 43.6108 183.875 43.2953 184.7 42.7223C185.524 42.1494 186.16 41.3447 186.527 40.4102C186.894 39.4757 186.976 38.4533 186.762 37.4724C186.547 36.4915 186.047 35.5962 185.324 34.8998C184.845 34.4369 184.279 34.073 183.659 33.829C183.04 33.5849 182.378 33.4655 181.712 33.4776C181.046 33.4897 180.389 33.6329 179.778 33.8993C179.167 34.1656 178.615 34.5497 178.153 35.0297Z" fill="#F5F5F5"/>
<path d="M254.604 165.683C255.488 165.153 256.437 164.74 257.427 164.453L258.016 161.656L262.744 161.578L263.429 164.349C264.431 164.596 265.395 164.978 266.295 165.484L268.685 163.916L272.089 167.199L270.608 169.641C271.139 170.527 271.553 171.479 271.837 172.472L274.635 173.053L274.721 177.79L271.941 178.465C271.694 179.469 271.315 180.435 270.816 181.34L272.383 183.73L269.092 187.134L266.65 185.653C265.765 186.185 264.813 186.596 263.818 186.874L263.238 189.68L258.51 189.758L257.826 186.987C256.825 186.736 255.861 186.354 254.959 185.852L252.569 187.42L249.166 184.137L250.646 181.695C250.111 180.811 249.698 179.858 249.417 178.864L246.62 178.283L246.533 173.546L249.313 172.871C249.557 171.866 249.935 170.899 250.439 169.996L248.871 167.606L252.162 164.202L254.604 165.683ZM257.124 171.988C256.428 172.71 255.961 173.623 255.784 174.611C255.606 175.598 255.726 176.616 256.127 177.536C256.527 178.456 257.192 179.237 258.037 179.779C258.881 180.321 259.867 180.601 260.87 180.583C261.874 180.564 262.849 180.249 263.673 179.677C264.498 179.104 265.134 178.3 265.501 177.367C265.868 176.433 265.951 175.411 265.738 174.431C265.524 173.45 265.025 172.555 264.303 171.858C263.823 171.388 263.254 171.018 262.629 170.77C262.004 170.522 261.337 170.401 260.665 170.413C259.993 170.425 259.33 170.57 258.715 170.841C258.1 171.111 257.544 171.501 257.081 171.988H257.124Z" fill="#F5F5F5"/>
<path d="M399.936 405.859C399.936 405.989 317.805 406.085 216.508 406.085C115.212 406.085 33.0637 405.989 33.0637 405.859C33.0637 405.73 115.178 405.634 216.5 405.634C317.822 405.634 399.936 405.738 399.936 405.859Z" fill="#263238"/>
<path d="M39.793 372.267L46.4092 405.73L80.8067 405.704L88.0725 372.822L39.793 372.267Z" fill="#0149AD"/>
<path d="M35.8438 367.184V371.852C35.8449 372.227 35.9199 372.599 36.0646 372.945C36.2093 373.291 36.4207 373.606 36.6869 373.87C36.9531 374.135 37.2688 374.344 37.6159 374.487C37.9631 374.629 38.3349 374.702 38.7102 374.701H88.5052C88.8801 374.702 89.2515 374.629 89.5982 374.487C89.9449 374.344 90.26 374.134 90.5255 373.87C90.7909 373.605 91.0016 373.29 91.1453 372.944C91.289 372.598 91.363 372.227 91.363 371.852V367.184C91.363 366.495 91.0893 365.834 90.6021 365.347C90.1149 364.86 89.454 364.586 88.765 364.586H38.4331C37.7456 364.588 37.087 364.863 36.6016 365.35C36.1163 365.837 35.8437 366.497 35.8438 367.184Z" fill="#0149AD"/>
<g opacity="0.4">
<path d="M40.1653 374.692L40.5723 377.004L86.5223 380.261L87.6827 374.692H40.1653Z" fill="black"/>
</g>
<path d="M83.4825 390.644C83.4825 390.765 74.58 390.869 63.5645 390.869C52.549 390.869 43.6465 390.765 43.6465 390.644C43.6465 390.523 52.5403 390.419 63.5645 390.419C74.5887 390.419 83.4825 390.514 83.4825 390.644Z" fill="white"/>
<path d="M83.7423 393.424C83.7423 393.545 74.8485 393.649 63.8243 393.649C52.8001 393.649 43.9583 393.545 43.9583 393.424C43.9583 393.303 52.8954 393.164 63.8676 393.164C74.8398 393.164 83.7423 393.294 83.7423 393.424Z" fill="white"/>
<path d="M43.3433 364.629C43.3433 364.629 23.9795 342.408 26.1359 341.602C28.2922 340.797 45.491 353.12 45.491 353.12C45.491 353.12 30.7083 320.212 33.6614 317.77C36.6145 315.328 52.2111 346.954 52.2111 346.954C52.2111 346.954 49.795 300.9 52.2111 300.372C54.6273 299.844 63.4691 346.426 63.4691 346.426C63.4691 346.426 76.6496 303.845 80.4081 303.845C84.1665 303.845 76.3812 344.815 76.3812 344.815C76.3812 344.815 91.9692 318.575 94.394 322.057C96.8188 325.538 83.3698 353.917 83.3698 353.917C83.3698 353.917 103.054 337.584 103.833 339.732C104.613 341.879 82.5991 364.629 82.5991 364.629H43.3433Z" fill="#455A64"/>
<path d="M40.6415 331.158C40.7714 331.098 44.2094 338.433 48.3056 347.534C52.4018 356.636 55.632 364.066 55.4934 364.127C55.3548 364.188 51.9255 356.853 47.8293 347.751C43.7331 338.649 40.5029 331.219 40.6415 331.158Z" fill="#263238"/>
<path d="M56.2902 335.255C56.4374 335.255 57.0089 341.706 57.5632 349.691C58.1174 357.675 58.4292 364.144 58.3079 364.153C58.1867 364.162 57.5892 357.71 57.0349 349.725C56.4807 341.741 56.1343 335.263 56.2902 335.255Z" fill="#263238"/>
<path d="M77.8535 314.626C77.8369 314.806 77.7991 314.984 77.7409 315.155C77.6196 315.544 77.4811 316.021 77.3079 316.618C76.9095 317.96 76.3553 319.77 75.6971 321.979C74.3288 326.508 72.4929 332.786 70.6224 339.758C68.7518 346.729 67.2103 353.077 66.1278 357.684L64.8461 363.14C64.6989 363.737 64.5777 364.222 64.4824 364.621C64.451 364.798 64.3956 364.969 64.3179 365.132C64.3182 364.951 64.3385 364.771 64.3785 364.595C64.4478 364.196 64.5344 363.729 64.647 363.096C64.8808 361.797 65.2618 359.918 65.7641 357.606C66.7513 352.973 68.2409 346.599 70.0941 339.619C71.9473 332.639 73.8612 326.378 75.2901 321.875C76.0175 319.615 76.6324 317.805 77.0741 316.549L77.5937 315.12C77.6572 314.944 77.7446 314.778 77.8535 314.626Z" fill="#263238"/>
<path d="M87.1803 338.372C87.3015 338.45 83.5171 344.062 78.7368 350.903C73.9564 357.745 69.9815 363.218 69.8603 363.131C69.739 363.045 73.5234 357.433 78.3038 350.6C83.0841 343.767 87.059 338.286 87.1803 338.372Z" fill="#263238"/>
<path d="M49.8731 364.162C49.2426 363.843 48.6596 363.438 48.1411 362.958C46.8503 361.895 45.6188 360.761 44.452 359.563C43.2808 358.375 42.1764 357.124 41.1438 355.813C40.6719 355.298 40.2806 354.714 39.9834 354.081C40.1046 353.986 42.1138 356.411 44.833 359.182C47.5522 361.953 49.977 364.04 49.8731 364.162Z" fill="#263238"/>
<path d="M61.6332 355.328C61.7804 355.328 62.0835 357.372 62.3173 359.91C62.5511 362.447 62.6204 364.534 62.4732 364.543C62.326 364.551 62.0229 362.508 61.789 359.962C61.5552 357.415 61.4859 355.346 61.6332 355.328Z" fill="#263238"/>
<path d="M39.455 61.8412C40.4099 56.9705 42.3661 52.3513 45.1998 48.2763C48.0335 44.2013 51.6828 40.7595 55.9164 38.1688C60.1501 35.5781 64.8757 33.8952 69.7939 33.2267C74.712 32.5581 79.7155 32.9185 84.487 34.2851C103.851 39.8621 114.97 61.0531 108.536 80.1831C106.47 86.3515 102.753 91.8358 97.7888 96.0395C97.6174 96.1876 97.4381 96.3264 97.2519 96.4552H97.1999C88.855 102.283 78.6618 104.847 68.5526 103.66C65.2765 103.273 62.0804 102.379 59.0786 101.01C51.9407 97.5658 46.1443 91.8547 42.5943 84.7687C39.0443 77.6827 37.9404 69.6207 39.455 61.8412Z" fill="white"/>
<path d="M39.455 61.8411C39.455 61.8411 39.455 62.0316 39.3858 62.4126C39.3165 62.7937 39.2559 63.3652 39.1519 64.0927C38.8901 66.2529 38.8119 68.4315 38.9181 70.605C39.1533 74.0401 39.8614 77.4264 41.0225 80.6679C42.5739 84.9617 44.9247 88.9228 47.9505 92.3416C48.8054 93.312 49.7193 94.2288 50.6871 95.0868C51.6794 96.0144 52.7263 96.8819 53.822 97.6848C54.3676 98.1005 54.9738 98.4469 55.554 98.8366L56.42 99.4081C56.7231 99.59 57.0435 99.7459 57.3553 99.9191L59.2778 100.924C59.9359 101.227 60.6201 101.513 61.3129 101.79C67.3197 103.856 73.7526 104.366 80.0098 103.271C83.3851 102.7 86.6775 101.717 89.813 100.343C91.4346 99.6428 93.0109 98.8417 94.5326 97.9446C95.3034 97.4943 96.0568 97.0093 96.8102 96.5157C97.5494 95.9999 98.242 95.4204 98.88 94.7837C104.418 89.6504 108.149 82.8641 109.514 75.4373C110.242 71.6974 110.327 67.861 109.766 64.0927C109.505 62.2516 109.115 60.4313 108.596 58.6455C108.285 57.7795 107.982 56.9135 107.679 56.0475C107.532 55.6145 107.355 55.192 107.15 54.7832L106.579 53.5448C105.063 50.3154 103.062 47.3367 100.647 44.7116L99.7806 43.733L98.828 42.867C98.1785 42.2954 97.581 41.6719 96.9142 41.135C95.6017 40.0712 94.2155 39.1017 92.766 38.2339C87.3311 34.9394 81.1 33.1908 74.7445 33.1765C73.2976 33.1595 71.8512 33.2376 70.4145 33.4103C69.7092 33.4714 69.0089 33.5813 68.3188 33.7394L66.2664 34.1291C64.9501 34.5274 63.6684 34.8652 62.3954 35.3155L60.5768 36.0602C59.9799 36.2776 59.4008 36.5411 58.8448 36.8483C54.7564 38.8678 51.0843 41.6381 48.0198 45.0147C46.7905 46.4189 45.6674 47.9125 44.6597 49.4832L43.9669 50.5484C43.7203 50.8573 43.4974 51.1845 43.3001 51.527L42.2869 53.5275C42.131 53.8479 41.9664 54.151 41.8279 54.4541L41.4815 55.3201L40.858 56.9655C40.5217 57.8098 40.2496 58.6782 40.0439 59.5635C39.8448 60.2736 39.6975 60.8192 39.5936 61.2002C39.4897 61.5813 39.4291 61.7631 39.4291 61.7631C39.4291 61.7631 39.4291 61.5639 39.5503 61.1916L39.9487 59.5375C40.1438 58.6364 40.4043 57.7508 40.7281 56.8875L41.3343 55.2248C41.4468 54.9304 41.5594 54.6273 41.672 54.3069C41.7846 53.9864 41.9751 53.7007 42.131 53.3802L43.1269 51.3538C43.2977 50.9891 43.4976 50.6387 43.7244 50.3059L44.4086 49.2321C45.4092 47.6422 46.5295 46.131 47.76 44.7116C50.8323 41.2897 54.5225 38.4781 58.6369 36.424C59.1945 36.1149 59.7733 35.8458 60.3689 35.6186L62.1962 34.8652C63.4519 34.4062 64.7942 34.0598 66.1019 33.6528L68.1716 33.2544C68.8711 33.0955 69.5796 32.9798 70.2933 32.908C78.1677 31.9893 86.1256 33.6874 92.9392 37.7403C94.4059 38.6166 95.8094 39.5947 97.1393 40.6674C97.8148 41.1956 98.421 41.8278 99.0791 42.3994L100.04 43.2654L100.906 44.2526C103.353 46.9087 105.379 49.9224 106.916 53.1897L107.497 54.4454C107.706 54.8594 107.885 55.2877 108.034 55.7271C108.337 56.5931 108.648 57.4591 108.96 58.3251C109.488 60.1329 109.885 61.9765 110.147 63.8415C110.766 67.6985 110.711 71.634 109.982 75.4719C108.601 82.996 104.821 89.871 99.209 95.0695C98.5498 95.7067 97.8371 96.2862 97.0787 96.8015C96.3166 97.3038 95.5632 97.7974 94.7751 98.239C90.2525 100.906 85.281 102.726 80.1051 103.608C73.7772 104.698 67.2766 104.167 61.209 102.067C60.5075 101.807 59.8147 101.521 59.1479 101.201L57.1561 100.196C56.8443 100.023 56.5153 99.8671 56.2122 99.6853L55.3461 99.0964C54.7573 98.7067 54.1424 98.3516 53.6141 97.9359C52.5153 97.13 51.4629 96.2626 50.4619 95.3379C49.4907 94.4654 48.574 93.5341 47.7167 92.5494C44.6768 89.0952 42.3253 85.0917 40.7887 80.7545C39.6425 77.4852 38.9576 74.072 38.7536 70.6136C38.6619 68.4324 38.7634 66.2474 39.0567 64.084C39.1779 63.3566 39.2732 62.8023 39.3425 62.404C39.4117 62.0056 39.455 61.8411 39.455 61.8411Z" fill="#263238"/>
<path d="M101.859 103.617C101.911 103.617 101.859 103.071 102.136 102.145C102.504 100.839 103.292 99.6914 104.379 98.8799C105.174 98.2908 106.104 97.9087 107.083 97.7682C108.063 97.6276 109.062 97.7328 109.991 98.0745C111.087 98.4715 112.037 99.1898 112.719 100.136C113.452 101.142 113.847 102.355 113.847 103.6C113.847 104.845 113.452 106.058 112.719 107.064C112.256 107.698 111.672 108.235 111.001 108.642C110.329 109.049 109.584 109.319 108.807 109.436C108.03 109.553 107.238 109.514 106.477 109.322C105.715 109.131 104.999 108.79 104.37 108.319C103.284 107.511 102.496 106.366 102.127 105.063C101.876 104.137 101.902 103.582 101.85 103.591C101.83 103.72 101.83 103.852 101.85 103.981C101.85 104.36 101.893 104.737 101.98 105.106C102.293 106.484 103.077 107.709 104.197 108.57C105.406 109.502 106.911 109.965 108.434 109.873C109.957 109.782 111.396 109.143 112.485 108.075C113.573 107.006 114.239 105.579 114.358 104.058C114.478 102.537 114.043 101.024 113.134 99.7978C112.395 98.7795 111.361 98.012 110.173 97.5982C109.177 97.2416 108.107 97.1419 107.063 97.3084C106.018 97.4749 105.033 97.9022 104.197 98.5508C103.077 99.4119 102.293 100.637 101.98 102.015C101.893 102.384 101.85 102.762 101.85 103.141C101.824 103.299 101.827 103.46 101.859 103.617Z" fill="#263238"/>
<path d="M67.1236 68.414C67.1219 69.0576 66.9295 69.6863 66.5707 70.2206C66.2118 70.755 65.7027 71.171 65.1076 71.4161C64.5124 71.6612 63.858 71.7245 63.2269 71.5979C62.5959 71.4712 62.0165 71.1604 61.562 70.7047C61.1075 70.249 60.7982 69.6688 60.6733 69.0374C60.5483 68.406 60.6133 67.7517 60.86 67.1573C61.1067 66.5628 61.5241 66.0547 62.0594 65.6973C62.5946 65.3399 63.2238 65.1492 63.8675 65.1492C64.2958 65.1492 64.7199 65.2337 65.1156 65.3979C65.5112 65.562 65.8705 65.8027 66.173 66.1059C66.4755 66.4092 66.7151 66.7692 66.8783 67.1652C67.0414 67.5613 67.1248 67.9857 67.1236 68.414Z" fill="#263238"/>
<path d="M77.8448 68.414C77.8448 69.0597 77.6533 69.6909 77.2946 70.2278C76.9359 70.7647 76.426 71.1832 75.8294 71.4303C75.2328 71.6774 74.5764 71.7421 73.9431 71.6161C73.3098 71.4901 72.728 71.1792 72.2714 70.7226C71.8148 70.266 71.5039 69.6842 71.3779 69.0509C71.2519 68.4176 71.3166 67.7612 71.5637 67.1646C71.8108 66.568 72.2293 66.0581 72.7662 65.6994C73.3031 65.3407 73.9343 65.1492 74.58 65.1492C75.0091 65.148 75.4341 65.2317 75.8308 65.3954C76.2274 65.559 76.5877 65.7995 76.8911 66.1029C77.1945 66.4063 77.435 66.7666 77.5986 67.1633C77.7623 67.5599 77.846 67.9849 77.8448 68.414Z" fill="#263238"/>
<path d="M88.5572 68.414C88.5572 69.0597 88.3658 69.6909 88.007 70.2278C87.6483 70.7647 87.1384 71.1832 86.5418 71.4303C85.9452 71.6774 85.2888 71.7421 84.6555 71.6161C84.0222 71.4901 83.4404 71.1792 82.9838 70.7226C82.5272 70.266 82.2163 69.6842 82.0903 69.0509C81.9643 68.4176 82.029 67.7612 82.2761 67.1646C82.5232 66.568 82.9417 66.0581 83.4786 65.6994C84.0155 65.3407 84.6467 65.1492 85.2924 65.1492C85.7215 65.148 86.1465 65.2317 86.5431 65.3954C86.9398 65.559 87.3001 65.7995 87.6035 66.1029C87.9069 66.4063 88.1474 66.7666 88.311 67.1633C88.4747 67.5599 88.5584 67.9849 88.5572 68.414Z" fill="#263238"/>
<path d="M398.992 263.662H317.337C312.597 263.662 308.755 267.505 308.755 272.244V295.73C308.755 300.47 312.597 304.312 317.337 304.312H398.992C403.732 304.312 407.574 300.47 407.574 295.73V272.244C407.574 267.505 403.732 263.662 398.992 263.662Z" fill="white"/>
<path d="M398.992 304.312C399.874 304.268 400.747 304.114 401.59 303.853C402.803 303.452 403.91 302.783 404.829 301.895C405.748 301.008 406.455 299.925 406.899 298.727C407.214 297.91 407.39 297.047 407.418 296.172C407.462 295.263 407.418 294.276 407.418 293.262C407.418 291.23 407.418 289.025 407.418 286.646C407.418 284.267 407.418 281.733 407.418 279.043C407.418 277.692 407.418 276.315 407.418 274.886C407.474 273.44 407.413 271.992 407.237 270.556C406.92 269.048 406.197 267.655 405.147 266.528C404.097 265.4 402.76 264.58 401.279 264.156C399.663 263.832 398.012 263.727 396.368 263.844H391.172H368.734H317.32C316.22 263.843 315.131 264.059 314.114 264.481C313.098 264.902 312.175 265.52 311.399 266.299C310.622 267.078 310.007 268.002 309.589 269.02C309.171 270.037 308.958 271.127 308.963 272.227C308.963 276.667 308.963 281.04 308.963 285.347V294.873C308.909 295.893 309.012 296.915 309.266 297.904C309.815 299.85 311.044 301.534 312.73 302.65C313.547 303.197 314.456 303.59 315.415 303.81C316.371 304.01 317.349 304.089 318.324 304.044L360.317 304.096L388.626 304.165L396.325 304.209H388.626L360.317 304.286L318.324 304.33C317.316 304.377 316.307 304.296 315.319 304.087C314.313 303.858 313.356 303.447 312.496 302.875C310.731 301.699 309.447 299.929 308.876 297.887C308.611 296.861 308.503 295.801 308.556 294.743C308.556 293.695 308.556 292.647 308.556 291.591V272.27C308.553 271.112 308.778 269.964 309.219 268.892C309.66 267.821 310.308 266.847 311.126 266.026C311.944 265.205 312.917 264.554 313.987 264.11C315.057 263.666 316.204 263.437 317.363 263.437H368.778H391.216H398.914C399.755 263.439 400.591 263.555 401.4 263.784C402.94 264.225 404.329 265.08 405.418 266.256C406.506 267.431 407.252 268.882 407.574 270.452C407.709 271.189 407.767 271.937 407.748 272.686V274.842C407.748 276.271 407.748 277.648 407.748 278.999C407.748 281.69 407.748 284.224 407.748 286.603C407.748 288.981 407.748 291.187 407.748 293.219C407.748 294.241 407.748 295.202 407.748 296.137C407.704 297.028 407.517 297.905 407.193 298.735C406.653 300.141 405.758 301.382 404.595 302.338C403.748 303.033 402.775 303.559 401.729 303.888C401.09 304.084 400.43 304.206 399.763 304.252C399.226 304.321 398.992 304.312 398.992 304.312Z" fill="#263238"/>
<path d="M390.471 286.646H345.222C344.416 286.646 343.643 286.326 343.073 285.756C342.503 285.186 342.183 284.412 342.183 283.606C342.185 282.802 342.506 282.031 343.076 281.462C343.646 280.894 344.418 280.575 345.222 280.575H390.471C391.275 280.575 392.047 280.894 392.617 281.462C393.187 282.031 393.508 282.802 393.51 283.606C393.51 284.412 393.19 285.186 392.62 285.756C392.05 286.326 391.277 286.646 390.471 286.646Z" fill="#E0E0E0"/>
<path d="M332.198 276.947H327.028C324.569 276.947 322.576 278.94 322.576 281.398V286.568C322.576 289.026 324.569 291.019 327.028 291.019H332.198C334.656 291.019 336.649 289.026 336.649 286.568V281.398C336.649 278.94 334.656 276.947 332.198 276.947Z" fill="#0149AD"/>
<path d="M324.75 284.186L326.17 282.775L328.907 285.2L333.471 280.619L334.787 282.039L328.699 287.936L324.75 284.186Z" fill="white"/>
<path d="M387.994 160.911H289.616C285.852 160.911 282.801 163.963 282.801 167.727V227.957C282.801 231.721 285.852 234.773 289.616 234.773H387.994C391.758 234.773 394.809 231.721 394.809 227.957V167.727C394.809 163.963 391.758 160.911 387.994 160.911Z" fill="white"/>
<path d="M387.968 234.781C388.046 234.776 388.124 234.776 388.202 234.781C388.431 234.772 388.66 234.749 388.886 234.712C389.789 234.599 390.657 234.295 391.432 233.82C392.696 233.055 393.678 231.9 394.229 230.529C394.948 228.91 394.645 226.823 394.697 224.562C394.697 215.443 394.697 202.263 394.628 185.982C394.628 181.912 394.628 177.643 394.628 173.2V169.831C394.678 168.701 394.632 167.568 394.489 166.445C394.255 165.32 393.733 164.274 392.974 163.41C392.215 162.547 391.245 161.895 390.159 161.518C389.021 161.175 387.828 161.049 386.643 161.145H359.685H289.617C288.108 161.158 286.647 161.676 285.469 162.617C284.303 163.566 283.494 164.882 283.174 166.35C283.041 167.09 282.992 167.842 283.026 168.593V193.317C283.026 205.034 283.026 216.335 283.026 227.091C282.918 228.4 283.157 229.715 283.719 230.902C284.298 232.055 285.201 233.015 286.317 233.664C287.42 234.303 288.681 234.619 289.954 234.573H308.651H335.298L373.87 234.651L384.357 234.695H387.085H388.02C388.02 234.695 387.7 234.695 387.085 234.695H384.357H373.87L335.298 234.764H308.651H293.808H289.954C288.609 234.812 287.277 234.482 286.109 233.811C284.923 233.124 283.966 232.103 283.355 230.876C282.769 229.631 282.516 228.255 282.619 226.883C282.619 216.11 282.619 204.809 282.619 193.109V168.584C282.582 167.801 282.634 167.017 282.775 166.246C283.117 164.673 283.986 163.264 285.238 162.253C286.49 161.242 288.05 160.689 289.66 160.686H359.728H386.687C387.913 160.594 389.146 160.729 390.324 161.085C391.469 161.483 392.491 162.171 393.291 163.081C394.09 163.992 394.641 165.094 394.888 166.281C395.032 167.429 395.078 168.588 395.026 169.745V173.2C395.026 177.643 395.026 181.912 395.026 185.982C395.026 202.263 394.974 215.426 394.957 224.562C394.957 225.697 394.957 226.779 394.957 227.784C394.978 228.741 394.804 229.693 394.446 230.581C393.88 231.974 392.869 233.14 391.571 233.898C390.779 234.374 389.892 234.669 388.973 234.764C388.639 234.797 388.303 234.803 387.968 234.781Z" fill="#263238"/>
<path d="M351.284 203.804H351.276C349.587 203.804 348.219 205.173 348.219 206.861V217.851C348.219 219.539 349.587 220.908 351.276 220.908H351.284C352.973 220.908 354.341 219.539 354.341 217.851V206.861C354.341 205.173 352.973 203.804 351.284 203.804Z" fill="#0149AD"/>
<path d="M300.164 201.328H300.156C298.467 201.328 297.099 202.696 297.099 204.384V217.851C297.099 219.539 298.467 220.908 300.156 220.908H300.164C301.853 220.908 303.221 219.539 303.221 217.851V204.384C303.221 202.696 301.853 201.328 300.164 201.328Z" fill="#0149AD"/>
<path d="M312.947 197.249H312.938C311.25 197.249 309.881 198.617 309.881 200.306V217.86C309.881 219.548 311.25 220.917 312.938 220.917H312.947C314.635 220.917 316.003 219.548 316.003 217.86V200.306C316.003 198.617 314.635 197.249 312.947 197.249Z" fill="#0149AD"/>
<path d="M325.72 198.539H325.711C324.023 198.539 322.654 199.908 322.654 201.596V217.851C322.654 219.539 324.023 220.908 325.711 220.908H325.72C327.408 220.908 328.777 219.539 328.777 217.851V201.596C328.777 199.908 327.408 198.539 325.72 198.539Z" fill="#0149AD"/>
<path d="M338.502 190.979H338.494C336.805 190.979 335.437 192.348 335.437 194.036V217.851C335.437 219.539 336.805 220.908 338.494 220.908H338.502C340.19 220.908 341.559 219.539 341.559 217.851V194.036C341.559 192.348 340.19 190.979 338.502 190.979Z" fill="#0149AD"/>
<path d="M364.067 191.126H364.058C362.37 191.126 361.001 192.495 361.001 194.183V217.86C361.001 219.548 362.37 220.917 364.058 220.917H364.067C365.755 220.917 367.124 219.548 367.124 217.86V194.183C367.124 192.495 365.755 191.126 364.067 191.126Z" fill="#0149AD"/>
<path d="M376.84 200.912C376.438 200.912 376.04 200.991 375.668 201.145C375.297 201.3 374.959 201.526 374.675 201.81C374.391 202.095 374.166 202.433 374.013 202.805C373.86 203.177 373.782 203.575 373.783 203.977V217.833C373.783 218.644 374.105 219.422 374.678 219.995C375.252 220.568 376.029 220.89 376.84 220.89C377.651 220.89 378.428 220.568 379.002 219.995C379.575 219.422 379.897 218.644 379.897 217.833V203.977C379.898 203.575 379.82 203.177 379.667 202.805C379.514 202.433 379.289 202.095 379.005 201.81C378.721 201.526 378.383 201.3 378.012 201.145C377.64 200.991 377.242 200.912 376.84 200.912Z" fill="#0149AD"/>
<path d="M321.693 172.871H298.069C296.672 172.871 295.54 174.003 295.54 175.4V175.945C295.54 177.342 296.672 178.474 298.069 178.474H321.693C323.09 178.474 324.222 177.342 324.222 175.945V175.4C324.222 174.003 323.09 172.871 321.693 172.871Z" fill="#E0E0E0"/>
<path d="M37.6797 144.483H104.483C105.719 144.483 106.904 144.974 107.777 145.848C108.651 146.722 109.142 147.907 109.142 149.142V208.507C109.142 209.552 108.727 210.554 107.988 211.293C107.249 212.032 106.247 212.447 105.202 212.447H36.9696C35.9246 212.447 34.9223 212.032 34.1834 211.293C33.4444 210.554 33.0293 209.552 33.0293 208.507V149.142C33.0293 147.908 33.519 146.725 34.3908 145.851C35.2627 144.978 36.4456 144.486 37.6797 144.483Z" fill="white"/>
<path d="M37.6797 144.483H104.483C105.719 144.483 106.904 144.974 107.777 145.848C108.651 146.722 109.142 147.907 109.142 149.142V159.976H33.0293V149.142C33.0293 147.908 33.519 146.725 34.3908 145.851C35.2627 144.978 36.4456 144.486 37.6797 144.483Z" fill="#E0E0E0"/>
<path d="M45.491 153.048C45.479 153.593 45.3064 154.123 44.9947 154.571C44.6831 155.018 44.2462 155.364 43.7389 155.565C43.2316 155.765 42.6764 155.811 42.1429 155.698C41.6094 155.584 41.1213 155.315 40.7398 154.926C40.3583 154.536 40.1003 154.042 39.9982 153.506C39.8961 152.97 39.9544 152.416 40.1658 151.913C40.3772 151.411 40.7323 150.981 41.1866 150.679C41.641 150.377 42.1743 150.216 42.7198 150.216C43.0878 150.22 43.4516 150.296 43.7903 150.44C44.1289 150.584 44.4357 150.794 44.6932 151.057C44.9506 151.32 45.1536 151.631 45.2905 151.973C45.4274 152.315 45.4955 152.68 45.491 153.048Z" fill="white"/>
<path d="M54.0039 153.048C53.992 153.593 53.8194 154.123 53.5077 154.571C53.196 155.018 52.7592 155.364 52.2519 155.565C51.7446 155.765 51.1894 155.811 50.6559 155.698C50.1224 155.584 49.6343 155.315 49.2527 154.926C48.8712 154.536 48.6132 154.042 48.5111 153.506C48.409 152.97 48.4673 152.416 48.6787 151.913C48.8902 151.411 49.2453 150.981 49.6996 150.679C50.1539 150.377 50.6872 150.216 51.2327 150.216C51.6008 150.22 51.9646 150.296 52.3032 150.44C52.6418 150.584 52.9487 150.794 53.2061 151.057C53.4636 151.32 53.6666 151.631 53.8035 151.973C53.9404 152.315 54.0085 152.68 54.0039 153.048Z" fill="white"/>
<path d="M62.5166 153.048C62.5047 153.593 62.332 154.123 62.0204 154.571C61.7087 155.018 61.2719 155.364 60.7646 155.565C60.2572 155.765 59.7021 155.811 59.1686 155.698C58.635 155.584 58.147 155.315 57.7654 154.926C57.3839 154.536 57.1259 154.042 57.0238 153.506C56.9217 152.97 56.98 152.416 57.1914 151.913C57.4029 151.411 57.758 150.981 58.2123 150.679C58.6666 150.377 59.1999 150.216 59.7454 150.216C60.1135 150.22 60.4772 150.296 60.8159 150.44C61.1545 150.584 61.4614 150.794 61.7188 151.057C61.9763 151.32 62.1792 151.631 62.3161 151.973C62.453 152.315 62.5212 152.68 62.5166 153.048Z" fill="white"/>
<path d="M90.3239 167.502H51.8388C49.2226 167.502 47.1018 169.623 47.1018 172.239V199.804C47.1018 202.42 49.2226 204.541 51.8388 204.541H90.3239C92.9401 204.541 95.0609 202.42 95.0609 199.804V172.239C95.0609 169.623 92.9401 167.502 90.3239 167.502Z" fill="#0149AD"/>
<path d="M65.7036 185.653V179.963C65.7091 179.648 65.796 179.34 65.9559 179.069C66.1157 178.797 66.3431 178.571 66.6159 178.414C66.8887 178.256 67.1976 178.171 67.5127 178.168C67.8278 178.165 68.1384 178.244 68.4142 178.396L73.3417 181.236L78.2606 184.086C78.5397 184.244 78.7717 184.474 78.9331 184.752C79.0945 185.03 79.1795 185.345 79.1795 185.666C79.1795 185.987 79.0945 186.303 78.9331 186.58C78.7717 186.858 78.5397 187.088 78.2606 187.247L73.3417 190.087L68.4142 192.927C68.1399 193.076 67.8322 193.153 67.5201 193.15C67.208 193.147 66.9018 193.064 66.6305 192.91C66.3592 192.756 66.1317 192.535 65.9696 192.268C65.8074 192.001 65.7158 191.698 65.7036 191.386V185.653Z" fill="white"/>
<path d="M105.202 212.447C105.202 212.447 105.444 212.447 105.912 212.361C106.605 212.221 107.248 211.898 107.774 211.425C108.199 211.044 108.535 210.574 108.76 210.049C108.984 209.524 109.091 208.956 109.073 208.386C109.073 207.017 109.073 205.441 109.073 203.666C109.073 196.547 109.029 186.277 109.003 173.581C109.003 167.225 109.003 160.271 109.003 152.797V149.974C109.034 149.504 109.034 149.032 109.003 148.562C108.95 148.106 108.821 147.661 108.622 147.246C108.324 146.609 107.879 146.051 107.324 145.619C106.768 145.187 106.118 144.893 105.427 144.761C104.948 144.688 104.464 144.659 103.981 144.674H91.6141H65.2618H38.7881C38.2101 144.657 37.6315 144.677 37.0561 144.735C36.4858 144.817 35.9376 145.013 35.4439 145.311C34.9502 145.608 34.5209 146.001 34.181 146.467C33.8352 146.923 33.5848 147.444 33.4449 147.999C33.3118 148.566 33.2622 149.15 33.2977 149.731V156.859C33.2977 161.581 33.2977 166.229 33.2977 170.801C33.2977 179.937 33.2977 188.753 33.2977 197.154C33.2977 199.249 33.2977 201.328 33.2977 203.371V207.927C33.2682 208.409 33.3061 208.893 33.4103 209.364C33.631 210.288 34.1985 211.091 34.9951 211.607C35.3838 211.867 35.819 212.049 36.2767 212.144C36.7409 212.214 37.2106 212.24 37.6797 212.222H43.3H64.084L94.1688 212.291L102.344 212.335H94.1688L64.084 212.612H43.3H37.6104C37.1122 212.638 36.6127 212.609 36.1209 212.525C35.6181 212.422 35.1393 212.225 34.7093 211.945C33.844 211.363 33.2265 210.48 32.9773 209.468C32.8685 208.965 32.8278 208.449 32.856 207.935V197.188C32.856 188.788 32.856 179.972 32.856 170.836V149.766C32.8224 149.147 32.8749 148.526 33.0119 147.921C33.2512 146.997 33.7561 146.164 34.4641 145.523C35.1721 144.883 36.0521 144.464 36.9955 144.319C37.6085 144.26 38.2246 144.24 38.8401 144.258H103.92C104.427 144.243 104.934 144.275 105.436 144.354C105.938 144.455 106.422 144.63 106.873 144.873C107.766 145.37 108.479 146.137 108.908 147.064C109.122 147.518 109.263 148.003 109.324 148.502C109.354 148.986 109.354 149.472 109.324 149.957V152.78C109.324 160.245 109.324 167.199 109.324 173.564C109.324 186.259 109.272 196.53 109.255 203.649C109.255 205.381 109.255 207 109.255 208.368C109.266 208.956 109.148 209.538 108.91 210.075C108.672 210.612 108.32 211.091 107.878 211.477C107.336 211.951 106.673 212.266 105.964 212.386C105.785 212.404 105.605 212.404 105.427 212.386C105.355 212.416 105.279 212.436 105.202 212.447Z" fill="#263238"/>
<path d="M257.306 65.634H343.04C344.276 65.634 345.461 66.1249 346.334 66.9986C347.208 67.8724 347.699 69.0574 347.699 70.2931V129.181C347.699 129.699 347.597 130.211 347.399 130.689C347.201 131.167 346.911 131.601 346.545 131.967C346.179 132.333 345.745 132.623 345.267 132.821C344.789 133.02 344.276 133.121 343.759 133.121H256.596C256.078 133.121 255.566 133.02 255.088 132.821C254.61 132.623 254.176 132.333 253.81 131.967C253.444 131.601 253.153 131.167 252.955 130.689C252.757 130.211 252.656 129.699 252.656 129.181V70.2931C252.656 69.0589 253.145 67.8752 254.017 67.0017C254.889 66.1282 256.072 65.6363 257.306 65.634Z" fill="white"/>
<path d="M257.306 65.634H343.04C344.275 65.634 345.461 66.1249 346.334 66.9986C347.208 67.8724 347.699 69.0574 347.699 70.2931V81.0488H252.647V70.2845C252.649 69.0503 253.141 67.8675 254.014 66.9956C254.888 66.1237 256.072 65.634 257.306 65.634Z" fill="#E0E0E0"/>
<path d="M265.299 74.1469C265.299 74.7036 265.134 75.2477 264.825 75.7105C264.516 76.1734 264.076 76.5341 263.562 76.7472C263.047 76.9602 262.482 77.0159 261.936 76.9073C261.39 76.7987 260.888 76.5307 260.495 76.137C260.101 75.7434 259.833 75.2419 259.724 74.696C259.616 74.15 259.671 73.5841 259.884 73.0698C260.097 72.5556 260.458 72.116 260.921 71.8067C261.384 71.4975 261.928 71.3324 262.485 71.3324C263.231 71.3324 263.947 71.6289 264.475 72.1567C265.003 72.6846 265.299 73.4004 265.299 74.1469Z" fill="white"/>
<path d="M273.933 74.1469C273.933 74.7036 273.768 75.2477 273.459 75.7106C273.15 76.1734 272.71 76.5341 272.196 76.7472C271.681 76.9602 271.116 77.0159 270.57 76.9073C270.024 76.7987 269.522 76.5307 269.129 76.1371C268.735 75.7434 268.467 75.2419 268.358 74.696C268.25 74.15 268.305 73.5841 268.518 73.0698C268.731 72.5556 269.092 72.116 269.555 71.8067C270.018 71.4975 270.562 71.3324 271.119 71.3324C271.489 71.3313 271.855 71.4033 272.197 71.5443C272.539 71.6854 272.85 71.8926 273.111 72.1542C273.373 72.4158 273.58 72.7265 273.721 73.0685C273.862 73.4105 273.934 73.777 273.933 74.1469Z" fill="white"/>
<path d="M282.567 74.1469C282.567 74.7039 282.402 75.2484 282.092 75.7115C281.783 76.1745 281.343 76.5352 280.828 76.748C280.313 76.9607 279.747 77.016 279.2 76.9067C278.654 76.7974 278.153 76.5285 277.76 76.134C277.366 75.7395 277.099 75.2372 276.991 74.6907C276.884 74.1441 276.941 73.578 277.155 73.0638C277.369 72.5497 277.731 72.1107 278.195 71.8025C278.659 71.4943 279.204 71.3307 279.761 71.3324C280.131 71.3324 280.496 71.4053 280.837 71.5468C281.178 71.6884 281.488 71.8958 281.748 72.1573C282.009 72.4187 282.216 72.7291 282.356 73.0705C282.497 73.4119 282.568 73.7777 282.567 74.1469Z" fill="white"/>
<path d="M292.041 89.7263H264.615C262.707 89.7263 261.16 91.2733 261.16 93.1816V120.608C261.16 122.516 262.707 124.063 264.615 124.063H292.041C293.95 124.063 295.497 122.516 295.497 120.608V93.1816C295.497 91.2733 293.95 89.7263 292.041 89.7263Z" fill="#0149AD"/>
<path d="M337.74 96.81H305.923C305.692 96.8101 305.463 96.7639 305.25 96.6742C305.037 96.5844 304.844 96.453 304.683 96.2875C304.522 96.1221 304.395 95.926 304.31 95.7108C304.226 95.4957 304.185 95.2658 304.191 95.0347C304.191 94.5754 304.374 94.1348 304.699 93.81C305.023 93.4852 305.464 93.3027 305.923 93.3027H337.74C338.203 93.3026 338.649 93.4837 338.98 93.8073C339.312 94.1309 339.504 94.5714 339.515 95.0347C339.515 95.5056 339.328 95.9571 338.995 96.2901C338.662 96.623 338.211 96.81 337.74 96.81Z" fill="#E0E0E0"/>
<path d="M337.74 104.925H305.923C305.464 104.925 305.023 104.742 304.698 104.417C304.374 104.092 304.191 103.652 304.191 103.193C304.191 102.733 304.374 102.293 304.698 101.968C305.023 101.643 305.464 101.461 305.923 101.461H337.74C338.203 101.46 338.649 101.642 338.98 101.965C339.312 102.289 339.504 102.729 339.515 103.193C339.504 103.656 339.312 104.096 338.98 104.42C338.649 104.744 338.203 104.925 337.74 104.925Z" fill="#E0E0E0"/>
<path d="M337.74 113.039H305.923C305.692 113.039 305.463 112.993 305.25 112.903C305.037 112.813 304.844 112.682 304.683 112.516C304.522 112.351 304.395 112.155 304.31 111.94C304.226 111.725 304.185 111.495 304.191 111.264C304.191 110.804 304.374 110.364 304.699 110.039C305.023 109.714 305.464 109.532 305.923 109.532H337.74C338.203 109.531 338.649 109.712 338.98 110.036C339.312 110.36 339.504 110.8 339.515 111.264C339.515 111.734 339.328 112.186 338.995 112.519C338.662 112.852 338.211 113.039 337.74 113.039Z" fill="#E0E0E0"/>
<path d="M322.152 121.153H305.923C305.692 121.153 305.463 121.107 305.25 121.017C305.037 120.928 304.844 120.796 304.683 120.631C304.522 120.465 304.395 120.269 304.31 120.054C304.226 119.839 304.185 119.609 304.191 119.378C304.191 118.919 304.374 118.478 304.699 118.153C305.023 117.829 305.464 117.646 305.923 117.646H322.152C322.611 117.646 323.052 117.829 323.377 118.153C323.702 118.478 323.884 118.919 323.884 119.378C323.89 119.609 323.849 119.839 323.765 120.054C323.68 120.269 323.554 120.465 323.392 120.631C323.231 120.796 323.038 120.928 322.825 121.017C322.612 121.107 322.383 121.153 322.152 121.153Z" fill="#E0E0E0"/>
<path d="M343.802 133.087C344.072 133.063 344.341 133.026 344.607 132.974C345.389 132.8 346.098 132.392 346.643 131.805C347.038 131.373 347.334 130.858 347.509 130.298C347.676 129.61 347.734 128.9 347.682 128.194C347.682 126.647 347.682 124.866 347.682 122.851C347.682 114.806 347.638 103.175 347.613 88.8169C347.613 85.223 347.613 81.4559 347.613 77.5589C347.613 75.5902 347.613 73.5897 347.613 71.5575C347.709 70.554 347.591 69.5414 347.266 68.5871C346.977 67.8837 346.511 67.267 345.913 66.7966C345.315 66.3263 344.606 66.0183 343.854 65.9025C343.334 65.8384 342.81 65.8182 342.287 65.8419H258.657C257.984 65.8196 257.31 65.8369 256.639 65.8939C255.661 66.0378 254.759 66.5046 254.076 67.2201C253.394 67.9356 252.97 68.8588 252.872 69.8428C252.872 70.475 252.872 71.1851 252.872 71.852V95.6929C252.872 106.033 252.872 116.009 252.872 125.509C253.019 127.813 252.292 130.497 254.18 131.978C254.595 132.34 255.087 132.603 255.617 132.749C256.16 132.87 256.716 132.917 257.271 132.888H273.725H297.237L331.271 132.966H340.52H342.927H343.75C343.75 132.966 343.473 132.966 342.927 132.966H340.52L331.271 133.009L297.237 133.078H273.725H260.631H257.237C256.655 133.108 256.073 133.058 255.505 132.931C254.916 132.764 254.371 132.469 253.911 132.065C253.446 131.665 253.074 131.168 252.822 130.608C252.571 130.048 252.446 129.44 252.456 128.826C252.456 127.648 252.456 126.471 252.456 125.284C252.456 115.758 252.456 105.808 252.456 95.4678V79.9231C252.456 77.2471 252.456 74.5625 252.456 71.852C252.456 71.1678 252.456 70.5183 252.456 69.7995C252.568 68.7237 253.033 67.7152 253.779 66.9318C254.525 66.1483 255.51 65.6341 256.579 65.4695C257.272 65.4024 257.969 65.3821 258.666 65.4089H288.612H318.42H342.209C342.752 65.3849 343.297 65.4081 343.837 65.4782C344.653 65.6078 345.421 65.9462 346.068 66.4606C346.714 66.9751 347.216 67.6479 347.526 68.4139C347.73 68.9104 347.85 69.4371 347.881 69.9727C347.881 70.5097 347.881 71.0033 347.881 71.5229C347.881 73.5551 347.881 75.5555 347.881 77.5243C347.881 81.4386 347.881 85.2057 347.881 88.7823C347.881 103.141 347.82 114.762 347.803 122.816C347.803 124.825 347.803 126.606 347.803 128.159C347.853 128.878 347.789 129.6 347.613 130.298C347.424 130.869 347.114 131.392 346.703 131.831C346.14 132.423 345.408 132.828 344.607 132.992C344.344 133.059 344.074 133.091 343.802 133.087Z" fill="#263238"/>
<g opacity="0.3">
<path d="M261.16 114.312V120.72C261.16 121.602 261.51 122.448 262.134 123.072C262.757 123.695 263.603 124.046 264.485 124.046H292.111C293.009 124.046 293.87 123.689 294.505 123.054C295.14 122.419 295.497 121.558 295.497 120.66V110.363L287.512 102.924C287.296 102.724 287.041 102.569 286.764 102.468C286.486 102.368 286.192 102.324 285.897 102.339C285.602 102.354 285.314 102.429 285.048 102.557C284.783 102.686 284.546 102.867 284.351 103.089L278.09 110.268L271.924 107.384C271.374 107.125 270.76 107.033 270.158 107.119C269.556 107.205 268.993 107.466 268.538 107.869L261.16 114.312Z" fill="black"/>
</g>
<g opacity="0.3">
<path d="M276.696 101.928C278.408 101.928 279.796 100.54 279.796 98.8278C279.796 97.1156 278.408 95.7275 276.696 95.7275C274.984 95.7275 273.595 97.1156 273.595 98.8278C273.595 100.54 274.984 101.928 276.696 101.928Z" fill="black"/>
</g>
<path d="M145.211 177.054C147.523 175.062 150.805 174.508 153.161 172.568C155.516 170.628 156.625 167.502 156.798 164.453C156.811 161.399 156.364 158.36 155.473 155.438L180.665 187.056C178.664 190.52 176.508 194.053 173.373 196.582C170.238 199.111 165.891 200.453 162.115 199.085C158.339 197.716 155.776 193.023 157.517 189.429C154.131 192.572 148.251 192.633 144.951 189.429C141.652 186.225 141.704 180.067 145.211 177.054Z" fill="#263238"/>
<path d="M218.007 84.6774C224.112 89.1459 225.125 93.5885 225.368 95.9354C225.437 96.6368 225.316 97.5202 224.649 97.7367C224.316 97.8118 223.968 97.7815 223.653 97.6501L203.216 91.4408" fill="#263238"/>
<path d="M161.535 164.401C156.945 156.157 152.364 147.835 149.255 138.924C146.146 130.012 144.544 120.4 146.059 111.082C146.285 109.661 148.718 100.014 150.147 99.8756C151.16 99.7804 150.216 108.536 150.892 109.289C157.343 116.615 160.608 126.315 161.717 136.014C162.717 145.453 162.656 154.975 161.535 164.401Z" fill="#263238"/>
<path d="M171.243 214.508L153.663 129.242C148.337 106.171 157.326 83.8372 180.509 79.1521L182.683 78.849C193.214 77.351 203.922 79.8743 212.677 85.9164C221.431 91.9586 227.588 101.076 229.923 111.454C234.426 131.476 239.154 153.654 240.557 164.54C243.467 187.056 221.505 193.759 221.505 193.759C221.505 193.759 225.619 216.5 226.84 223.055L192.849 227.385L184.666 228.121L171.243 214.508Z" fill="#FFBF9D"/>
<path d="M221.497 193.759C221.497 193.759 207.433 196.608 190.979 189.256C190.979 189.256 200.418 205.173 222.579 199.959L221.497 193.759Z" fill="#FF9A6C"/>
<path d="M225.809 133.364C225.939 134.195 225.74 135.043 225.255 135.73C224.77 136.417 224.037 136.888 223.211 137.044C222.807 137.136 222.389 137.145 221.981 137.072C221.573 136.998 221.185 136.844 220.837 136.618C220.49 136.392 220.192 136.099 219.96 135.756C219.728 135.412 219.568 135.026 219.487 134.62C219.36 133.788 219.56 132.94 220.044 132.252C220.528 131.564 221.26 131.091 222.085 130.93C222.49 130.839 222.909 130.831 223.317 130.904C223.725 130.978 224.115 131.133 224.462 131.36C224.809 131.587 225.107 131.881 225.339 132.225C225.57 132.57 225.73 132.957 225.809 133.364Z" fill="#263238"/>
<path d="M226.571 122.106C226.234 122.582 223.549 121.127 220.094 121.63C216.638 122.132 214.352 124.228 213.91 123.847C213.703 123.682 213.997 122.868 214.993 121.907C216.343 120.659 218.046 119.86 219.869 119.62C221.649 119.354 223.467 119.657 225.065 120.486C226.277 121.145 226.745 121.846 226.571 122.106Z" fill="#263238"/>
<path d="M196.019 137.59C196.146 138.42 195.947 139.268 195.462 139.954C194.978 140.64 194.246 141.112 193.421 141.271C193.017 141.36 192.598 141.368 192.19 141.294C191.783 141.22 191.394 141.065 191.047 140.838C190.7 140.611 190.402 140.317 190.17 139.974C189.938 139.63 189.778 139.244 189.697 138.837C189.574 138.001 189.78 137.149 190.273 136.462C190.766 135.775 191.507 135.307 192.339 135.157C192.74 135.073 193.154 135.07 193.557 135.147C193.96 135.225 194.343 135.381 194.685 135.607C195.028 135.833 195.322 136.125 195.55 136.465C195.779 136.806 195.939 137.188 196.019 137.59Z" fill="#263238"/>
<path d="M192.806 127.674C192.468 128.151 189.775 126.696 186.32 127.189C182.864 127.683 180.578 129.787 180.145 129.406C179.929 129.25 180.223 128.436 181.219 127.475C182.569 126.226 184.272 125.425 186.095 125.18C187.875 124.911 189.694 125.214 191.291 126.046C192.503 126.748 192.971 127.458 192.806 127.674Z" fill="#263238"/>
<path d="M208.974 152.477C208.931 152.277 211.027 151.611 214.439 150.667C215.305 150.45 216.119 150.156 216.171 149.532C216.223 148.909 215.781 147.965 215.209 147.003L211.642 140.647C206.662 131.589 202.921 124.098 203.285 123.899C203.648 123.699 207.987 130.879 212.975 139.937L216.439 146.345C216.916 147.298 217.652 148.354 217.392 149.74C217.307 150.07 217.148 150.376 216.927 150.635C216.707 150.895 216.43 151.101 216.119 151.238C215.651 151.441 215.159 151.584 214.655 151.663C211.183 152.347 209.009 152.667 208.974 152.477Z" fill="#263238"/>
<path d="M192.391 116.702C192.044 117.655 188.563 117.196 184.467 117.689C180.371 118.183 177.054 119.3 176.508 118.443C176.266 118.036 176.846 117.144 178.18 116.226C179.965 115.095 181.986 114.387 184.088 114.158C186.189 113.928 188.315 114.182 190.304 114.901C191.784 115.507 192.538 116.252 192.391 116.702Z" fill="#263238"/>
<path d="M226.225 116.399C225.636 117.265 222.7 116.927 219.297 117.421C215.894 117.914 213.14 118.928 212.369 118.209C212.014 117.854 212.369 116.997 213.478 116.061C215.063 114.897 216.917 114.152 218.867 113.898C220.818 113.644 222.801 113.887 224.632 114.606C225.965 115.221 226.485 115.966 226.225 116.399Z" fill="#263238"/>
<path d="M157.863 145.635C157.456 145.523 141.764 143.254 144.431 158.565C147.099 173.875 161.942 168.004 161.873 167.588C161.803 167.173 157.863 145.635 157.863 145.635Z" fill="#FFBF9D"/>
<path d="M156.183 162.609C156.114 162.565 155.949 162.843 155.534 163.128C154.948 163.509 154.236 163.646 153.55 163.509C151.818 163.206 150.017 160.868 149.463 158.123C149.201 156.817 149.227 155.469 149.541 154.174C149.604 153.672 149.787 153.192 150.075 152.776C150.363 152.36 150.747 152.02 151.195 151.784C151.49 151.638 151.827 151.604 152.145 151.687C152.463 151.769 152.74 151.964 152.927 152.234C153.213 152.632 153.161 152.953 153.247 152.962C153.334 152.97 153.533 152.65 153.299 152.035C153.149 151.666 152.877 151.36 152.529 151.169C152.052 150.923 151.498 150.877 150.987 151.039C149.818 151.325 148.952 152.598 148.614 153.897C148.198 155.336 148.138 156.855 148.441 158.322C149.073 161.388 151.16 164.003 153.481 164.254C153.915 164.298 154.353 164.243 154.763 164.093C155.172 163.943 155.542 163.702 155.845 163.388C156.226 162.981 156.244 162.626 156.183 162.609Z" fill="#FF9A6C"/>
<path d="M215.409 87.9509C217.634 86.1323 208.741 79.4815 202.15 77.8447C192.2 75.342 177.703 75.342 169.667 79.3256C160.002 84.0972 152.459 90.7221 149.047 100.976C145.635 111.229 145.696 122.366 147.939 132.905C148.623 136.127 149.575 139.435 151.801 141.851C154.555 144.838 157.915 145.947 159.725 150.909C160.314 152.537 160.773 154.252 162.167 155.282C165.51 157.742 168.42 154.321 169.476 151.23C171.736 144.622 170.801 137.374 169.831 130.498C169.147 125.579 168.428 120.564 166.194 116.139C164.982 113.732 163.336 111.541 162.262 109.064C161.189 106.587 160.721 103.643 161.942 101.27C162.231 100.747 162.567 100.251 162.946 99.7892C164.737 97.5363 167.095 95.8009 169.778 94.7614C172.462 93.7219 175.373 93.4157 178.214 93.8744C187.376 95.3379 202.912 97.1825 206.212 93.5626C210.966 88.3666 211.78 85.3616 211.78 85.3616L215.409 87.9509Z" fill="#263238"/>
<path d="M198.591 156.581C199.111 156.451 199.777 159.959 203.25 161.881C206.723 163.804 210.377 162.747 210.499 163.198C210.585 163.405 209.797 164.064 208.221 164.375C206.178 164.804 204.05 164.498 202.211 163.509C200.449 162.552 199.129 160.946 198.53 159.032C198.115 157.551 198.314 156.607 198.591 156.581Z" fill="#263238"/>
<path d="M147.133 146.943C146.796 146.735 146.354 146.761 146.034 146.544C124.825 132.688 136.135 113.506 135.434 108.371C134.455 101.253 127.64 111.731 124.886 102.63C121.179 90.5748 133.355 82.902 148.545 74.6404C154.91 71.1764 171.399 67.4526 186.528 67.8336C200.029 68.18 210.386 75.8181 216.604 82.0187C216.604 82.0187 219.903 82.9367 220.882 84.1491C223.939 87.9681 223.22 89.8993 223.22 89.8993C223.22 89.8993 191.767 80.2434 171.26 104.266C150.753 128.289 158.27 144.397 151.922 145.774L147.133 146.943Z" fill="#455A64"/>
<path d="M155.776 84.149C155.405 84.4303 155.014 84.685 154.607 84.9111C154.217 85.145 153.741 85.4307 153.23 85.7771C152.719 86.1235 152.087 86.5219 151.498 87.0155C149.978 88.1211 148.531 89.3245 147.168 90.6181C145.519 92.2144 143.988 93.9278 142.587 95.7448C141.209 97.577 139.967 99.5076 138.872 101.521C137.986 103.172 137.208 104.879 136.542 106.63C136.23 107.375 136.031 108.068 135.823 108.666C135.615 109.263 135.46 109.791 135.338 110.224C135.234 110.681 135.089 111.127 134.905 111.558C134.959 111.093 135.046 110.633 135.165 110.181C135.26 109.739 135.39 109.202 135.581 108.596C135.771 107.99 135.953 107.271 136.248 106.518C136.874 104.733 137.63 102.997 138.508 101.322C140.657 97.2059 143.489 93.4842 146.882 90.315C148.266 89.0237 149.739 87.8315 151.29 86.747C151.939 86.2707 152.572 85.8811 153.109 85.5606C153.646 85.2402 154.13 84.9458 154.537 84.6946C154.933 84.4768 155.348 84.2942 155.776 84.149Z" fill="#263238"/>
<path d="M217.453 82.2699C217.356 82.2639 217.26 82.2465 217.167 82.2179L216.301 82.0447C215.573 81.8715 214.499 81.6637 213.114 81.3952C211.728 81.1267 210.022 80.8756 208.022 80.6937C205.767 80.4613 203.499 80.3774 201.232 80.4426C195.329 80.5958 189.492 81.7344 183.964 83.8113C180.719 85.0263 177.594 86.5397 174.629 88.3319C171.437 90.275 168.451 92.5383 165.718 95.0867C162.992 97.6438 160.545 100.483 158.417 103.556C156.47 106.443 154.794 109.505 153.412 112.701C151.128 118.148 149.483 123.841 148.51 129.666C147.644 134.637 147.263 138.707 147.021 141.513C146.908 142.899 146.822 143.99 146.761 144.76C146.761 145.107 146.7 145.384 146.683 145.626C146.692 145.721 146.692 145.817 146.683 145.912C146.667 145.818 146.667 145.721 146.683 145.626C146.683 145.41 146.683 145.133 146.683 144.76C146.683 144.016 146.761 142.925 146.856 141.513C147.055 138.69 147.384 134.585 148.216 129.614C149.146 123.767 150.762 118.049 153.031 112.58C154.408 109.353 156.09 106.264 158.054 103.357C160.191 100.25 162.656 97.3811 165.406 94.8009C170.735 89.8183 177.01 85.9574 183.86 83.4476C189.438 81.3733 195.326 80.2578 201.276 80.1482C203.552 80.1035 205.829 80.2106 208.091 80.4686C210.092 80.6764 211.798 80.9882 213.192 81.248C214.586 81.5078 215.643 81.7849 216.361 81.9841L217.175 82.2006C217.271 82.2107 217.364 82.234 217.453 82.2699Z" fill="#263238"/>
<path d="M155.577 137.581C154.228 138.099 152.752 138.187 151.351 137.833C149.924 137.629 148.592 136.998 147.532 136.023C148.79 136.594 150.097 137.052 151.437 137.391C152.809 137.579 154.194 137.643 155.577 137.581Z" fill="#263238"/>
<path d="M161.137 122.556C160.592 122.644 160.036 122.624 159.5 122.496C158.191 122.282 156.926 121.852 155.759 121.223C154.588 120.598 153.529 119.785 152.624 118.815C152.223 118.439 151.9 117.989 151.671 117.49C154.164 120.198 157.5 121.984 161.137 122.556Z" fill="#263238"/>
<path d="M171.918 103.322C170.803 102.004 169.596 100.765 168.307 99.6159C166.929 98.5805 165.483 97.6402 163.977 96.8014C165.696 97.2438 167.284 98.0899 168.61 99.2695C170.023 100.335 171.158 101.725 171.918 103.322Z" fill="#263238"/>
<path d="M184.501 93.8397C183.844 92.405 183.107 91.0085 182.293 89.6569C181.354 88.3917 180.348 87.1776 179.279 86.0197C181.973 87.8291 183.841 90.6312 184.475 93.8137L184.501 93.8397Z" fill="#263238"/>
<path d="M205.095 88.6696C205.033 87.0963 204.686 85.5472 204.073 84.0971C203.333 82.7101 202.34 81.4736 201.146 80.4513C201.146 80.3993 201.683 80.6158 202.375 81.1787C203.259 81.9279 203.975 82.8551 204.476 83.8996C204.978 84.9441 205.253 86.0825 205.285 87.2407C205.338 87.7254 205.273 88.2156 205.095 88.6696Z" fill="#263238"/>
<path d="M218.232 89.3711C218.216 88.1457 218.127 86.9224 217.963 85.7079C217.645 84.5315 217.257 83.3749 216.803 82.2439C217.602 83.2264 218.15 84.3888 218.399 85.6307C218.648 86.8726 218.591 88.1564 218.232 89.3711Z" fill="#263238"/>
<path d="M198.582 227.455C198.539 227.455 198.582 226.779 198.539 225.549C198.464 223.826 198.232 222.113 197.846 220.431C197.261 217.936 196.467 215.494 195.473 213.131C194.382 210.446 192.988 207.571 191.611 204.471C190.33 201.731 189.262 198.897 188.416 195.993V195.828L188.563 195.75C190.403 194.795 192.022 193.464 193.317 191.845L193.404 191.732L193.534 191.801C194.886 192.546 196.406 192.934 197.95 192.927H198.028V192.997C198.541 193.906 199.148 194.759 199.838 195.543C200.314 196.097 200.6 196.409 200.583 196.409C200.565 196.409 200.496 196.357 200.349 196.235C200.202 196.114 199.994 195.915 199.743 195.655C199 194.896 198.351 194.05 197.812 193.135L197.924 193.204C196.326 193.248 194.744 192.875 193.334 192.122H193.551C192.25 193.806 190.602 195.191 188.719 196.183L188.823 195.941C189.689 198.814 190.76 201.621 192.027 204.341C193.404 207.398 194.789 210.282 195.863 213.001C196.85 215.39 197.621 217.862 198.167 220.388C198.528 222.097 198.714 223.838 198.721 225.584C198.725 226.058 198.704 226.532 198.66 227.004C198.656 227.157 198.63 227.309 198.582 227.455Z" fill="#FF9A6C"/>
<path d="M129.614 229.637L164.912 208.446C164.912 208.446 192.295 226.485 210.161 219.869C222.224 215.409 222.224 199.085 222.224 199.085L256.908 199.206L287.607 293.201L295.462 405.686H141.842L135.65 273.656L129.614 229.637Z" fill="#0149AD"/>
<g opacity="0.3">
<path d="M140.422 378.104C151.152 387.197 165.172 391.657 179.158 393.103C193.144 394.549 207.242 393.181 221.237 391.821C245.398 389.466 270.053 390.089 294.215 387.769C293.531 381.707 292.924 366.656 292.24 360.62L140.422 371.514V378.104Z" fill="black"/>
</g>
<path d="M127.839 332.656C127.839 332.656 124.513 331.054 122.868 332.717C121.728 333.96 120.771 335.36 120.027 336.874C120.027 336.874 114.684 335.272 112.467 339.706C112.467 339.706 108.475 342.226 110.839 347.179C110.839 347.179 106.57 353.137 109.973 358.29C110.354 358.907 110.824 359.465 111.367 359.944C111.367 359.944 112.97 366.153 115.109 367.193C117.248 368.232 124.886 370.561 125.145 367.063C125.405 363.564 124.037 363.884 124.037 363.884C124.037 363.884 133.069 368.777 137.07 372.38C141.071 375.982 151.584 381.317 158.071 381.3C164.557 381.282 161.786 367.34 161.786 367.34L127.839 332.656Z" fill="#FFBF9D"/>
<path d="M272.617 266.555C272.192 268.676 271.846 280.125 271.846 280.125L279.337 327.504C264.554 330.569 191.871 345.309 191.871 345.309L185.09 381.04C185.09 381.04 299.402 378.927 312.15 367.045C324.897 355.164 318.428 307.101 318.428 302.433C318.428 297.765 315.285 266.875 315.285 266.875L272.617 266.555Z" fill="#FFBF9D"/>
<path d="M113.688 347.915C114.088 348.033 114.477 348.187 114.849 348.374L117.949 349.786L122.522 351.925L123.838 352.549L124.522 352.869C124.811 352.981 125.051 353.193 125.198 353.466C125.236 353.554 125.256 353.648 125.256 353.744C125.256 353.839 125.236 353.933 125.198 354.021C125.123 354.18 125.003 354.313 124.851 354.402C124.587 354.556 124.29 354.645 123.985 354.662C123.434 354.738 122.877 354.758 122.322 354.722C120.079 354.575 118.088 353.856 116.26 353.562C115.405 353.37 114.518 353.37 113.662 353.562C113.3 353.659 112.96 353.826 112.663 354.055C112.366 354.284 112.117 354.57 111.93 354.895C111.403 355.88 111.169 356.995 111.255 358.108C111.285 358.523 111.285 358.94 111.255 359.355C111.146 358.951 111.082 358.535 111.064 358.117C110.917 356.958 111.119 355.782 111.645 354.739C111.84 354.373 112.106 354.049 112.427 353.786C112.748 353.523 113.118 353.326 113.515 353.207C114.424 352.998 115.369 352.998 116.278 353.207C118.174 353.492 120.175 354.194 122.34 354.332C122.866 354.368 123.393 354.35 123.916 354.281C124.409 354.281 124.912 353.977 124.782 353.7C124.652 353.423 124.063 353.224 123.639 352.999L122.331 352.358L117.776 350.072L114.736 348.539C114.368 348.365 114.017 348.156 113.688 347.915Z" fill="#FF9A6C"/>
<path d="M128.012 345.309C127.272 344.95 126.552 344.551 125.856 344.114C122.397 342.184 118.638 340.849 114.736 340.165C113.92 340.063 113.111 339.915 112.312 339.723C113.139 339.663 113.971 339.707 114.788 339.853C116.775 340.11 118.729 340.577 120.616 341.247C122.503 341.917 124.312 342.788 126.012 343.845C126.74 344.243 127.412 344.735 128.012 345.309Z" fill="#FF9A6C"/>
<path d="M127.129 339.151C125.924 338.803 124.748 338.36 123.613 337.826C122.798 337.503 121.958 337.248 121.101 337.064C120.736 337.028 120.375 336.95 120.028 336.831C120.028 336.77 120.452 336.683 121.153 336.744C122.046 336.842 122.92 337.063 123.751 337.402C124.961 337.807 126.1 338.397 127.129 339.151Z" fill="#FF9A6C"/>
<path d="M124.791 364.257C124.268 364.333 123.737 364.31 123.223 364.188C121.979 363.978 120.761 363.629 119.595 363.148C118.429 362.684 117.292 362.149 116.191 361.546C115.709 361.324 115.263 361.032 114.866 360.68C114.935 360.542 117.066 361.598 119.759 362.698C120.907 363.158 122.084 363.54 123.284 363.841C123.797 363.934 124.302 364.073 124.791 364.257Z" fill="#FF9A6C"/>
<path d="M118.841 362.395C118.954 362.395 118.746 363.261 117.975 364.014C117.204 364.768 116.33 364.88 116.304 364.776C116.278 364.672 116.988 364.335 117.672 363.685C118.356 363.036 118.72 362.343 118.841 362.395Z" fill="#FF9A6C"/>
<path d="M255.963 199.18C255.963 199.18 282.965 198.08 296.735 217.045C310.08 235.439 320.558 273.656 320.558 273.656L269.005 280.523L261.367 230.815L255.963 199.18Z" fill="#0149AD"/>
<path d="M299.394 349.206C299.307 349.206 298.952 347.517 297.887 344.945C297.601 344.242 297.281 343.554 296.925 342.884C296.57 342.148 296.111 341.403 295.644 340.615C294.575 338.933 293.358 337.351 292.007 335.887C290.63 334.444 289.129 333.126 287.521 331.946C286.759 331.427 286.048 330.916 285.33 330.526C284.686 330.124 284.021 329.757 283.338 329.426C280.835 328.196 279.155 327.737 279.19 327.642C279.591 327.707 279.985 327.808 280.367 327.945C280.829 328.072 281.283 328.226 281.727 328.404C282.247 328.612 282.844 328.82 283.459 329.14C284.159 329.455 284.841 329.808 285.503 330.197C286.239 330.587 286.966 331.063 287.737 331.609C291.066 333.934 293.874 336.927 295.981 340.398C296.44 341.204 296.899 341.966 297.237 342.719C297.584 343.403 297.894 344.106 298.164 344.824C298.441 345.473 298.614 346.088 298.787 346.625C298.96 347.162 299.073 347.621 299.16 348.002C299.282 348.393 299.361 348.797 299.394 349.206Z" fill="#FF9A6C"/>
<path d="M261.367 230.798C261.367 230.798 261.48 231.023 261.662 231.447C261.843 231.871 262.112 232.556 262.441 233.352C263.073 235.015 263.913 237.448 264.779 240.514C266.93 248.525 268.633 256.649 269.88 264.849C271.43 274.435 272.53 283.156 273.344 289.469C273.725 292.587 274.037 295.133 274.21 296.943C274.305 297.809 274.383 298.475 274.435 298.978C274.476 299.212 274.493 299.45 274.487 299.688C274.419 299.459 274.373 299.224 274.349 298.986L274.037 296.969C273.786 295.159 273.422 292.639 272.989 289.504C272.123 283.208 270.971 274.496 269.421 264.918C267.871 255.34 266.148 246.732 264.459 240.601C263.645 237.535 262.848 235.084 262.268 233.413L261.566 231.482C261.48 231.26 261.414 231.031 261.367 230.798Z" fill="#263238"/>
<path d="M169.675 238.86L164.419 294.622L156.365 280.419L114.866 285.356C115.291 287.477 130.065 339.368 136.43 353.77C142.795 368.171 160.6 393.805 180.535 384.599C200.47 375.394 199.18 302.892 199.18 294.622C199.18 286.351 195.188 237.024 195.188 237.024" fill="#FFBF9D"/>
<path d="M195.205 237.024C195.205 237.024 195.248 237.37 195.309 238.046C195.37 238.721 195.456 239.735 195.569 241.051C195.785 243.701 196.106 247.598 196.521 252.603C196.937 257.609 197.387 263.766 197.924 270.893C198.178 274.461 198.444 278.269 198.721 282.316C198.972 286.36 199.292 290.638 199.353 295.141C199.431 304.148 199.353 314.011 198.712 324.585C198.184 335.847 196.823 347.055 194.642 358.117C193.482 364.124 191.582 369.965 188.987 375.506C187.635 378.391 185.711 380.972 183.332 383.092C182.706 383.606 182.033 384.061 181.323 384.452C180.604 384.823 179.863 385.153 179.106 385.439C178.353 385.742 177.565 385.941 176.785 386.175C175.992 386.369 175.188 386.517 174.378 386.617C172.744 386.82 171.092 386.82 169.459 386.617C167.817 386.394 166.203 385.999 164.644 385.439C161.52 384.254 158.598 382.592 155.984 380.512C150.701 376.2 146.15 371.061 142.509 365.296C140.434 362.137 138.579 358.838 136.958 355.424C135.373 352.02 134.083 348.496 132.862 345.032C130.42 338.104 128.22 331.176 126.107 324.386C123.994 317.597 122.002 310.954 120.097 304.468C118.192 297.982 116.33 291.625 114.684 285.416L114.632 285.2H114.857L156.356 280.289H156.469L156.529 280.385L164.54 294.544L164.245 294.613C165.908 277.293 167.242 263.376 168.168 253.755C168.636 248.958 169.034 245.234 169.251 242.705C169.381 241.449 169.476 240.488 169.545 239.83C169.615 239.172 169.658 238.86 169.658 238.86C169.658 238.86 169.658 239.189 169.589 239.839C169.519 240.488 169.45 241.449 169.338 242.705C169.112 245.242 168.775 248.966 168.342 253.772C167.476 263.394 166.159 277.336 164.557 294.639V295.133L164.306 294.7L156.235 280.506L156.408 280.593L114.918 285.555L115.091 285.312C116.728 291.487 118.607 297.852 120.512 304.364C122.418 310.877 124.427 317.527 126.574 324.282C128.722 331.037 130.904 337.965 133.329 344.902C134.55 348.366 135.841 351.83 137.408 355.242C139.008 358.637 140.84 361.918 142.89 365.062C146.499 370.785 151.008 375.888 156.244 380.174C158.823 382.23 161.707 383.872 164.791 385.041C166.32 385.586 167.902 385.972 169.511 386.193C171.11 386.392 172.727 386.392 174.326 386.193C175.115 386.095 175.899 385.953 176.673 385.768C177.435 385.534 178.214 385.335 178.95 385.049C179.689 384.77 180.412 384.449 181.115 384.088C181.798 383.705 182.447 383.265 183.055 382.772C185.386 380.689 187.271 378.155 188.597 375.324C191.182 369.82 193.076 364.017 194.235 358.048C196.416 347 197.78 335.807 198.314 324.559C198.937 314.003 199.067 304.139 199.007 295.115C198.963 290.621 198.643 286.343 198.409 282.299C198.175 278.254 197.881 274.444 197.647 270.876C197.127 263.749 196.686 257.609 196.313 252.586C195.941 247.563 195.655 243.675 195.447 241.025C195.352 239.709 195.274 238.704 195.231 238.02C195.188 237.336 195.205 237.024 195.205 237.024Z" fill="#FF9A6C"/>
<path d="M164.298 293.176C164.305 293.399 164.29 293.622 164.254 293.842C164.194 294.267 164.168 294.916 164.012 295.722C163.633 298.025 163.054 300.291 162.28 302.494C161.123 305.756 159.716 308.923 158.071 311.968C156.252 315.432 154.053 319.095 151.775 322.966C149.609 326.585 147.654 330.326 145.921 334.172C144.513 337.308 143.433 340.582 142.699 343.94C142.216 346.218 141.966 348.54 141.955 350.868C141.955 351.691 141.998 352.323 141.998 352.756C142.015 352.978 142.015 353.201 141.998 353.423C141.944 353.208 141.915 352.987 141.911 352.765C141.911 352.332 141.773 351.691 141.782 350.868C141.73 348.544 141.933 346.221 142.388 343.94C143.08 340.546 144.137 337.236 145.54 334.068C147.255 330.199 149.207 326.439 151.385 322.81C153.663 318.93 155.871 315.267 157.707 311.838C159.35 308.797 160.765 305.639 161.942 302.39C162.739 300.211 163.362 297.973 163.804 295.696C163.986 294.89 164.046 294.258 164.124 293.825C164.163 293.604 164.221 293.387 164.298 293.176Z" fill="#FF9A6C"/>
<path d="M129.614 229.637C128.48 229.862 109.012 238.86 109.142 268.85C109.246 291.236 115.247 312.712 115.247 312.712L162.15 290.629L129.614 229.637Z" fill="#0149AD"/>
<path d="M195.205 237.024C195.205 237.024 200.73 231.317 200.73 223.861C200.574 218.772 199.607 213.741 197.863 208.957C197.863 208.957 196.937 201.163 196.348 198.089L198.868 193.334C198.868 193.334 205.744 196.348 206.887 191.905L202.843 186.363C201.936 185.124 200.64 184.225 199.162 183.808L193.1 182.076C192.042 181.778 190.932 181.714 189.846 181.887C188.761 182.061 187.726 182.468 186.813 183.081L179.66 187.922L184.103 178.751L191.559 177.175C191.559 177.175 202.159 181.756 204.168 175.737L195.283 170.541L178.37 170.836C178.37 170.836 174.499 175.564 173.641 176.993C172.784 178.422 169.987 183.358 169.987 183.358L165.752 172.412C165.752 172.412 165.882 165.423 165.752 159.604C165.57 153.178 161.795 151.03 157.958 153.178C157.577 153.386 155.854 170.593 156.711 174.611C157.568 178.63 164.973 208.446 164.973 208.446C164.973 208.446 167.571 215.236 168.567 217.236C170.014 220.2 170.738 223.464 170.68 226.762C170.853 229.932 169.649 239.752 169.649 239.752" fill="#FFBF9D"/>
<path d="M169.589 239.804C169.589 239.804 169.589 239.613 169.589 239.25C169.589 238.886 169.684 238.314 169.762 237.604C169.909 236.158 170.134 234.019 170.333 231.239C170.471 229.699 170.517 228.152 170.472 226.606C170.467 224.762 170.246 222.925 169.814 221.133C169.578 220.142 169.263 219.172 168.87 218.232C168.42 217.279 167.926 216.275 167.493 215.227C166.627 213.122 165.761 210.897 164.817 208.507C163.596 203.562 162.219 198.115 160.807 192.217C160.08 189.261 159.329 186.207 158.556 183.055C158.166 181.47 157.776 179.868 157.369 178.24C157.17 177.417 156.971 176.603 156.772 175.772C156.668 175.356 156.555 174.949 156.469 174.525C156.382 174.1 156.356 173.659 156.322 173.217C156.21 169.658 156.317 166.094 156.642 162.548C156.781 160.729 156.936 158.894 157.136 157.032C157.24 156.105 157.343 155.178 157.491 154.234C157.491 154.001 157.56 153.767 157.612 153.524C157.609 153.464 157.609 153.403 157.612 153.342V153.247V153.187L157.681 153.083C157.707 153.041 157.747 153.011 157.794 152.996H157.88L158.045 152.918C158.479 152.691 158.938 152.517 159.413 152.399C160.39 152.135 161.427 152.196 162.366 152.572C163.296 152.986 164.072 153.683 164.583 154.564C165.536 156.337 165.985 158.338 165.882 160.348C165.882 164.32 165.882 168.362 165.882 172.472V172.386C167.225 175.85 168.662 179.565 170.117 183.341H169.71L173.416 176.906C174.854 174.776 176.491 172.81 178.119 170.784L178.179 170.706H178.396L181.565 170.645L195.309 170.42H195.378H195.43L204.315 175.616L204.471 175.711L204.376 175.798C204.184 176.401 203.865 176.955 203.441 177.424C203.017 177.893 202.497 178.266 201.916 178.517C200.773 178.958 199.544 179.136 198.323 179.037C195.964 178.853 193.651 178.289 191.473 177.365H191.602L184.146 178.941L184.293 178.829L179.842 188L179.539 187.731L186.848 182.847C188.086 182.062 189.521 181.641 190.988 181.635C191.704 181.638 192.417 181.735 193.109 181.92L195.101 182.483L199.024 183.592C200.352 183.929 201.555 184.641 202.488 185.644C204.133 187.74 205.562 189.818 207.043 191.81L207.095 191.879V191.966C206.889 192.792 206.371 193.506 205.649 193.958C204.937 194.359 204.127 194.552 203.311 194.512C201.768 194.458 200.249 194.115 198.834 193.499L199.041 193.43C198.175 195.162 197.309 196.668 196.521 198.175V198.071C197.197 201.96 197.604 205.597 198.011 208.957C199.453 212.932 200.373 217.077 200.747 221.289C200.925 222.993 200.888 224.712 200.635 226.407C200.395 227.813 199.997 229.187 199.448 230.503C198.696 232.302 197.718 233.999 196.539 235.552C196.132 236.08 195.811 236.461 195.586 236.712C195.475 236.84 195.356 236.961 195.231 237.076L195.551 236.686C195.777 236.435 196.08 236.037 196.478 235.509C197.623 233.942 198.577 232.244 199.318 230.451C199.846 229.137 200.23 227.769 200.462 226.372C200.694 224.693 200.72 222.992 200.54 221.306C200.137 217.123 199.203 213.008 197.76 209.061C197.335 205.701 196.894 202.064 196.227 198.201V198.149V198.097L198.738 193.343L198.808 193.213L198.946 193.274C200.32 193.853 201.786 194.182 203.276 194.244C204.028 194.275 204.774 194.098 205.432 193.733C206.076 193.322 206.537 192.68 206.723 191.94V192.096C205.242 190.113 203.77 187.991 202.176 185.965C201.292 185.015 200.152 184.341 198.894 184.025L194.971 182.925C193.678 182.47 192.329 182.193 190.962 182.102C189.569 182.11 188.207 182.509 187.03 183.254L179.747 188.147L179.115 188.571L179.444 187.887L183.886 178.708V178.612H183.99L191.438 177.028H191.507H191.576C193.725 177.9 196 178.42 198.314 178.569C199.468 178.666 200.628 178.501 201.709 178.084C202.232 177.858 202.7 177.522 203.083 177.099C203.465 176.676 203.752 176.176 203.926 175.633L204.021 175.902L195.136 170.706H195.248L181.505 170.94L178.335 171L178.508 170.914C176.898 172.923 175.235 174.923 173.841 176.976C172.585 179.167 171.347 181.306 170.143 183.401L169.909 183.808L169.745 183.367L165.518 172.42V172.377C165.518 168.272 165.518 164.231 165.518 160.253C165.624 158.316 165.196 156.387 164.28 154.676C163.819 153.868 163.112 153.228 162.262 152.849C161.408 152.508 160.466 152.453 159.578 152.693C159.129 152.801 158.696 152.964 158.287 153.178L158.132 153.256H158.054C158.123 153.412 157.915 153.048 157.976 153.152C158.036 153.256 158.071 153.273 158.071 153.256V153.325C158.067 153.38 158.067 153.435 158.071 153.49C158.019 153.715 157.984 153.949 157.95 154.174C157.811 155.1 157.707 156.036 157.603 156.962C157.395 158.807 157.231 160.643 157.092 162.461C156.771 165.988 156.658 169.53 156.755 173.07C156.777 173.491 156.826 173.911 156.902 174.326C156.98 174.741 157.092 175.192 157.188 175.573C157.395 176.439 157.595 177.218 157.794 178.032C158.181 179.672 158.57 181.277 158.963 182.847C159.725 186.011 160.467 189.068 161.188 192.018C162.617 197.907 163.942 203.363 165.137 208.316C166.003 210.689 166.869 212.941 167.735 215.036C168.168 216.093 168.645 217.071 169.104 218.05C169.521 219.005 169.86 219.993 170.117 221.003C170.543 222.811 170.756 224.662 170.749 226.519C170.784 228.075 170.726 229.63 170.576 231.179C170.342 233.95 170.1 236.089 169.926 237.535C169.834 238.245 169.765 238.791 169.719 239.172C169.623 239.622 169.589 239.804 169.589 239.804Z" fill="#FF9A6C"/>
<path d="M197.283 184.051C196.629 184.203 195.998 184.439 195.404 184.752C194.043 185.659 192.752 186.667 191.542 187.766C190.052 188.996 188.693 190.087 187.697 190.858C187.182 191.314 186.619 191.712 186.017 192.044C186.452 191.514 186.946 191.034 187.489 190.615C188.433 189.749 189.766 188.649 191.256 187.411C192.485 186.295 193.826 185.308 195.257 184.467C195.861 184.09 196.58 183.943 197.283 184.051Z" fill="#FF9A6C"/>
<path d="M148.848 252.006C148.969 251.963 152.104 260.605 155.854 271.309C159.604 282.013 162.557 290.716 162.435 290.759C162.314 290.803 159.188 282.16 155.429 271.456C151.671 260.752 148.735 252.006 148.848 252.006Z" fill="#263238"/>
</svg>
