<svg width="369" height="230" viewBox="0 0 369 230" fill="none" xmlns="http://www.w3.org/2000/svg">
<path d="M116.396 54.0051C125.702 53.9348 135.007 53.8775 144.313 53.8439C148.635 53.8279 152.956 53.8061 157.277 53.7704C161.45 53.7359 165.622 53.7179 169.795 53.7099C171.385 53.7042 172.974 53.693 174.564 53.6761C176.796 53.6534 179.026 53.6504 181.258 53.6519C181.911 53.6407 182.564 53.6295 183.236 53.618C187.718 53.6491 191.05 54.6492 194.816 57.117C196.333 58.673 196.333 58.673 197.306 60.2289C197.792 60.9317 197.792 60.9317 198.288 61.6487C199.317 63.6172 199.404 64.8676 199.367 67.0751C199.365 67.7041 199.362 68.3331 199.36 68.9811C199.169 70.8419 198.708 72.2306 197.928 73.9213C197.617 74.0631 196.994 75.6191 196.683 75.7884C196.683 75.1536 196.683 76.4046 196.683 75.7884C195.725 76.7439 195.725 76.7439 194.427 77.6944C194.008 78.0097 193.589 78.325 193.158 78.6499C189.212 81.0185 185.441 80.9392 180.976 80.9088C180.277 80.9089 179.578 80.9091 178.859 80.9093C176.555 80.9084 174.252 80.8988 171.948 80.889C170.349 80.8867 168.75 80.8849 167.15 80.8837C163.375 80.8794 159.599 80.8696 155.823 80.8571C151.523 80.8432 147.223 80.8363 142.923 80.8301C134.08 80.8171 125.238 80.7943 116.396 80.7674C116.396 71.9359 116.396 63.1043 116.396 54.0051Z" fill="url(#paint0_linear_739_242)"/>
<path d="M116.396 0.0774365C126.097 0.0633559 135.797 0.0519041 145.498 0.0451897C150.003 0.0419884 154.508 0.0376283 159.012 0.0304846C162.941 0.0242569 166.87 0.0202601 170.799 0.0188778C172.877 0.0180705 174.955 0.015857 177.033 0.0116323C179.36 0.00709147 181.687 0.00649318 184.014 0.00678069C184.693 0.00454306 185.373 0.00230544 186.073 0C192.237 0.00820128 198.176 0.281117 204.074 2.17797C204.569 2.33697 205.065 2.49597 205.576 2.65979C214.679 5.75272 223.212 10.3598 230.291 16.8817C230.963 17.4171 231.636 17.9494 232.314 18.4765C243.95 28.7903 251.814 45.402 252.807 60.9252C253.059 72.5791 251.982 82.5633 248.107 93.551C247.94 94.0279 247.774 94.5048 247.602 94.9962C246.471 97.9956 245.011 100.323 243.018 102.827C242.183 103.927 241.535 105.002 240.891 106.22C239.48 108.784 237.591 110.812 235.582 112.923C235.004 113.532 235.004 113.532 234.415 114.154C228.277 120.536 221.431 126.402 213.032 129.546C210.273 129.527 209.46 128.484 207.57 126.582C207.157 126.145 206.745 125.708 206.32 125.258C205.886 124.817 205.452 124.375 205.005 123.921C203.621 122.508 202.252 121.08 200.884 119.652C199.504 118.231 198.12 116.814 196.736 115.397C195.875 114.514 195.018 113.628 194.163 112.739C193.777 112.338 193.39 111.938 192.992 111.525C192.652 111.171 192.312 110.816 191.962 110.451C191.094 109.547 191.094 109.547 189.837 108.994C189.837 108.583 189.837 108.172 189.837 107.749C190.453 107.591 191.069 107.433 191.704 107.27C203.601 104.187 212.325 99.6987 219.089 89.0777C219.43 88.5473 219.772 88.017 220.124 87.4707C225.656 78.6012 226.851 68.0827 224.729 57.842C221.227 46.0974 213.797 37.8977 203.522 31.5319C196.033 27.6749 187.803 27.3808 179.562 27.3343C178.532 27.3251 178.532 27.3251 177.481 27.3157C175.231 27.2961 172.982 27.2806 170.733 27.2652C169.165 27.2524 167.597 27.2393 166.029 27.226C162.337 27.1953 158.645 27.1671 154.953 27.1401C150.746 27.1092 146.539 27.0751 142.332 27.0407C133.687 26.9701 125.042 26.904 116.396 26.8397C116.396 18.0082 116.396 9.17662 116.396 0.0774365Z" fill="url(#paint1_linear_739_242)"/>
<path d="M116.396 108.372C129.002 108.167 138.867 108.216 150.004 114.595C150.6 114.929 151.195 115.263 151.808 115.607C159.465 120.17 165.624 126.499 170.543 133.889C170.543 134.3 170.543 134.711 170.543 135.134C152.674 135.134 134.806 135.134 116.396 135.134C116.396 126.302 116.396 117.471 116.396 108.372Z" fill="url(#paint2_linear_739_242)"/>
<path d="M2.41845 176.584H15.7822C19.4972 176.584 21.1427 178.254 21.1427 181.695V183.141C21.1427 186.033 19.9958 187.728 17.5275 188.227L21.6912 193.388C21.8907 193.637 21.766 194.036 21.3671 194.036H18.0261C17.6272 194.036 17.5026 193.937 17.328 193.712L13.3638 188.651H5.4602V193.488C5.4602 193.862 5.28568 194.036 4.91169 194.036H2.21899C1.845 194.036 1.67047 193.862 1.67047 193.488V177.332C1.67047 176.833 1.9198 176.584 2.41845 176.584ZM5.4602 185.36H15.0093C16.7047 185.36 17.328 184.762 17.328 183.266V182.218C17.328 180.698 16.6798 180.074 15.0093 180.074H5.78432C5.55993 180.074 5.4602 180.149 5.4602 180.348V185.36ZM37.0564 176.584H38.5274C39.8239 176.584 40.5719 176.958 41.3947 178.479L49.6473 193.463C49.8218 193.812 49.747 194.036 49.3481 194.036H46.1817C45.8576 194.036 45.708 193.962 45.6082 193.737L43.9627 190.695H32.0201L30.3995 193.737C30.2748 193.962 30.1501 194.036 29.826 194.036H26.5599C26.1609 194.036 26.0861 193.812 26.2607 193.463L34.4385 178.479C35.2363 176.958 36.0093 176.584 37.0564 176.584ZM33.7653 187.454H42.1925L38.328 180.299C38.2532 180.174 38.1534 180.124 38.0288 180.124H37.8792C37.7545 180.124 37.6797 180.174 37.6049 180.299L33.7653 187.454ZM55.5715 176.584H58.2642C58.6382 176.584 58.8127 176.758 58.8127 177.132V183.64H62.2783C63.9737 183.64 64.3975 183.49 65.0458 182.642L69.384 176.908C69.5586 176.658 69.6832 176.584 70.1071 176.584H73.2236C73.5976 176.584 73.7223 176.933 73.5228 177.182L68.6859 183.44C68.1374 184.163 67.6637 184.712 67.19 185.111C67.8632 185.534 68.4615 186.108 69.0848 186.906L74.196 193.388C74.3955 193.588 74.2957 194.036 73.8719 194.036H70.7055C70.3065 194.036 70.1569 193.962 69.9824 193.712L65.3699 187.803C64.7217 186.956 64.223 186.781 62.6024 186.781H58.8127V193.488C58.8127 193.862 58.6382 194.036 58.2642 194.036H55.5715C55.1975 194.036 55.023 193.862 55.023 193.488V177.132C55.023 176.758 55.1975 176.584 55.5715 176.584ZM80.0929 176.584H82.7856C83.1596 176.584 83.3341 176.758 83.3341 177.132V193.488C83.3341 193.862 83.1596 194.036 82.7856 194.036H80.0929C79.7189 194.036 79.5444 193.862 79.5444 193.488V177.132C79.5444 176.758 79.7189 176.584 80.0929 176.584ZM90.6676 176.584H105.004C108.37 176.584 109.741 177.855 109.741 180.698V181.894C109.741 183.315 109.192 184.363 108.17 185.036C109.317 185.709 109.866 186.781 109.866 188.277V189.723C109.866 192.54 108.594 194.036 105.453 194.036H90.6676C90.1689 194.036 89.9196 193.787 89.9196 193.288V177.332C89.9196 176.833 90.1689 176.584 90.6676 176.584ZM93.7093 186.706V190.197C93.7093 190.446 93.8091 190.546 94.0334 190.546H104.256C105.527 190.546 106.101 190.072 106.101 188.975V188.152C106.101 187.08 105.552 186.706 103.932 186.706H93.7093ZM93.7093 183.689H103.932C105.552 183.689 106.076 183.34 106.076 182.368V181.62C106.076 180.573 105.502 180.074 104.231 180.074H94.0334C93.8091 180.074 93.7093 180.174 93.7093 180.423V183.689ZM122.854 176.584H133.824C134.173 176.584 134.373 176.758 134.373 177.132V179.551C134.373 179.9 134.173 180.099 133.824 180.099H122.879C120.311 180.099 119.638 180.822 119.638 183.44V183.565H133.675C134.024 183.565 134.223 183.739 134.223 184.113V186.332C134.223 186.706 134.024 186.881 133.675 186.881H119.638V187.18C119.638 189.798 120.311 190.521 122.879 190.521H133.824C134.173 190.521 134.373 190.72 134.373 191.069V193.488C134.373 193.862 134.173 194.036 133.824 194.036H122.854C117.793 194.036 115.873 192.216 115.873 187.454V183.166C115.873 178.404 117.793 176.584 122.854 176.584ZM152.837 176.584H164.48C169.891 176.584 172.11 178.753 172.11 183.615V187.005C172.11 191.867 169.891 194.036 164.48 194.036H152.837C152.338 194.036 152.089 193.787 152.089 193.288V177.332C152.089 176.833 152.338 176.584 152.837 176.584ZM155.879 180.423V190.197C155.879 190.421 155.978 190.521 156.203 190.521H164.381C167.323 190.521 168.32 189.623 168.32 186.681V183.939C168.32 180.997 167.323 180.099 164.381 180.099H156.203C155.978 180.099 155.879 180.199 155.879 180.423ZM176.147 176.584H179.638C179.937 176.584 180.086 176.658 180.236 176.883L186.793 185.584L193.375 176.883C193.55 176.658 193.699 176.584 193.974 176.584H197.315C197.614 176.584 197.714 176.833 197.539 177.082L188.588 188.701V193.488C188.588 193.837 188.389 194.036 188.015 194.036H185.347C184.973 194.036 184.774 193.837 184.774 193.488V188.701L175.898 177.082C175.723 176.833 175.848 176.584 176.147 176.584ZM208.174 176.584H209.645C210.941 176.584 211.689 176.958 212.512 178.479L220.765 193.463C220.939 193.812 220.864 194.036 220.465 194.036H217.299C216.975 194.036 216.825 193.962 216.726 193.737L215.08 190.695H203.137L201.517 193.737C201.392 193.962 201.267 194.036 200.943 194.036H197.677C197.278 194.036 197.203 193.812 197.378 193.463L205.556 178.479C206.354 176.958 207.127 176.584 208.174 176.584ZM204.883 187.454H213.31L209.445 180.299C209.37 180.174 209.271 180.124 209.146 180.124H208.996C208.872 180.124 208.797 180.174 208.722 180.299L204.883 187.454ZM228.359 176.584H230.603C232.398 176.584 232.698 176.958 233.495 178.055L242.67 190.222C242.745 190.346 242.845 190.396 242.995 190.396H243.219C243.344 190.396 243.418 190.321 243.418 190.147V177.132C243.418 176.758 243.593 176.584 243.967 176.584H246.635C247.009 176.584 247.183 176.758 247.183 177.132V191.443C247.183 193.413 246.51 194.036 244.939 194.036H242.72C240.925 194.036 240.626 193.662 239.853 192.565L230.653 180.398C230.553 180.274 230.479 180.224 230.329 180.224H230.105C229.955 180.224 229.905 180.299 229.905 180.473V193.488C229.905 193.862 229.706 194.036 229.357 194.036H226.689C226.315 194.036 226.14 193.862 226.14 193.488V179.177C226.14 177.207 226.789 176.584 228.359 176.584ZM263.328 176.584H264.799C266.095 176.584 266.843 176.958 267.666 178.479L275.919 193.463C276.093 193.812 276.019 194.036 275.62 194.036H272.453C272.129 194.036 271.98 193.962 271.88 193.737L270.234 190.695H258.292L256.671 193.737C256.546 193.962 256.422 194.036 256.098 194.036H252.831C252.433 194.036 252.358 193.812 252.532 193.463L260.71 178.479C261.508 176.958 262.281 176.584 263.328 176.584ZM260.037 187.454H268.464L264.6 180.299C264.525 180.174 264.425 180.124 264.3 180.124H264.151C264.026 180.124 263.951 180.174 263.876 180.299L260.037 187.454ZM283.464 176.584H286.281C287.752 176.584 288.301 176.883 288.949 178.479L294.06 190.446C294.135 190.596 294.259 190.67 294.409 190.67H294.708C294.883 190.67 295.007 190.596 295.057 190.446L300.143 178.479C300.767 176.883 301.29 176.584 302.786 176.584H305.554C307.274 176.584 307.748 177.232 307.748 179.177V193.488C307.748 193.862 307.548 194.036 307.174 194.036H304.556C304.207 194.036 304.008 193.862 304.008 193.488V180.473C304.008 180.299 303.958 180.224 303.833 180.224H303.609C303.41 180.224 303.31 180.274 303.26 180.423L298.448 191.593C297.7 193.463 296.877 194.036 295.257 194.036H293.836C292.215 194.036 291.417 193.463 290.644 191.593L285.782 180.423C285.708 180.274 285.633 180.224 285.458 180.224H285.234C285.084 180.224 285.009 180.299 285.009 180.473V193.488C285.009 193.862 284.835 194.036 284.461 194.036H281.843C281.469 194.036 281.295 193.862 281.295 193.488V179.177C281.295 177.207 281.743 176.584 283.464 176.584ZM314.862 176.584H317.555C317.929 176.584 318.103 176.758 318.103 177.132V193.488C318.103 193.862 317.929 194.036 317.555 194.036H314.862C314.488 194.036 314.313 193.862 314.313 193.488V177.132C314.313 176.758 314.488 176.584 314.862 176.584ZM331.47 176.584H342.69C343.064 176.584 343.238 176.758 343.238 177.132V179.576C343.238 179.95 343.064 180.124 342.69 180.124H331.595C329.027 180.124 328.279 180.897 328.279 183.54V187.08C328.279 189.723 329.027 190.496 331.595 190.496H342.69C343.064 190.496 343.238 190.67 343.238 191.044V193.488C343.238 193.862 343.064 194.036 342.69 194.036H331.47C326.409 194.036 324.489 192.241 324.489 187.454V183.166C324.489 178.379 326.409 176.584 331.47 176.584ZM353.25 176.584H366.464C366.814 176.584 367.013 176.758 367.013 177.132V179.551C367.013 179.9 366.814 180.099 366.464 180.099H353.973C353.076 180.099 352.652 180.523 352.652 181.445V182.293C352.652 183.191 353.051 183.565 353.973 183.565H363.298C366.091 183.565 367.661 185.16 367.661 187.953V189.972C367.661 192.54 366.115 194.036 363.248 194.036H349.436C349.062 194.036 348.887 193.862 348.887 193.488V191.069C348.887 190.72 349.062 190.521 349.436 190.521H362.525C363.398 190.521 363.847 190.097 363.847 189.175V188.152C363.847 187.255 363.473 186.881 362.55 186.881H353.2C350.408 186.881 348.862 185.285 348.862 182.493V180.648C348.862 178.08 350.383 176.584 353.25 176.584Z" fill="url(#paint3_linear_739_242)"/>
<path d="M81.9413 214.991L77.4353 221.421V226.43H75.6808V221.429L71.0511 214.991H72.9756L76.5928 220.015L80.1405 214.991H81.9413ZM86.3346 226.584C85.4741 226.584 84.7244 226.422 84.0854 226.097C83.4516 225.773 82.9596 225.286 82.6092 224.637C82.2639 223.987 82.0913 223.183 82.0913 222.225C82.0913 221.277 82.2614 220.481 82.6014 219.837C82.9467 219.188 83.4362 218.701 84.07 218.376C84.7037 218.051 85.4586 217.889 86.3346 217.889C87.6743 217.889 88.7151 218.255 89.4571 218.987C90.1991 219.713 90.5701 220.793 90.5701 222.225C90.5701 223.168 90.3949 223.967 90.0445 224.621C89.6941 225.27 89.1995 225.76 88.5605 226.09C87.9268 226.419 87.1848 226.584 86.3346 226.584ZM86.3346 225.224C88.0144 225.224 88.8542 224.227 88.8542 222.233C88.8542 221.197 88.6378 220.442 88.205 219.968C87.7722 219.489 87.1487 219.249 86.3346 219.249C85.5204 219.249 84.8944 219.486 84.4564 219.96C84.0236 220.435 83.8072 221.187 83.8072 222.217C83.8072 224.222 84.6496 225.224 86.3346 225.224ZM96.5422 226.569C95.5323 226.569 94.7414 226.298 94.1694 225.757C93.5975 225.211 93.3115 224.361 93.3115 223.207V218.02H95.0273V223.114C95.0273 223.82 95.1871 224.327 95.5065 224.637C95.8312 224.946 96.2923 225.1 96.89 225.1C97.3383 225.1 97.7789 225.015 98.2117 224.845C98.6497 224.67 99.0284 224.415 99.3479 224.08V218.02H101.064V226.43H99.6416L99.5334 225.533H99.4484C99.0516 225.868 98.6033 226.126 98.1035 226.306C97.6037 226.481 97.0833 226.569 96.5422 226.569ZM104.382 218.02H105.797L105.928 219.095H106.029C106.333 218.729 106.724 218.443 107.203 218.237C107.688 218.031 108.193 217.928 108.718 217.928C109.017 217.928 109.298 217.953 109.561 218.005V219.543C109.308 219.497 108.999 219.474 108.633 219.474C108.18 219.474 107.719 219.561 107.25 219.736C106.781 219.912 106.397 220.172 106.098 220.517V226.43H104.382V218.02ZM125.507 214.991H127.253L122.732 226.43H120.22L115.698 214.991H117.569L121.526 225.123L125.507 214.991ZM129.435 226.43V218.02H131.151V226.43H129.435ZM130.293 216.382C129.927 216.382 129.649 216.302 129.458 216.142C129.273 215.983 129.18 215.753 129.18 215.454C129.18 215.15 129.273 214.919 129.458 214.759C129.649 214.594 129.927 214.511 130.293 214.511C130.659 214.511 130.935 214.594 131.12 214.759C131.311 214.919 131.406 215.15 131.406 215.454C131.406 215.753 131.311 215.983 131.12 216.142C130.935 216.302 130.659 216.382 130.293 216.382ZM137.046 226.584C135.99 226.584 135.032 226.461 134.171 226.213V224.969C135.093 225.227 136.054 225.355 137.054 225.355C137.827 225.355 138.383 225.252 138.724 225.046C139.064 224.835 139.234 224.528 139.234 224.126C139.234 223.91 139.195 223.732 139.118 223.593C139.04 223.449 138.909 223.33 138.724 223.238C138.538 223.14 138.283 223.065 137.958 223.013L136.467 222.782C135.601 222.642 134.975 222.38 134.589 221.993C134.207 221.607 134.017 221.089 134.017 220.44C134.017 219.651 134.341 219.03 134.99 218.577C135.645 218.118 136.642 217.889 137.982 217.889C138.404 217.889 138.824 217.917 139.241 217.974C139.664 218.026 140.053 218.103 140.408 218.206V219.443C139.625 219.226 138.819 219.118 137.989 219.118C137.139 219.118 136.539 219.229 136.188 219.45C135.838 219.672 135.663 219.979 135.663 220.37C135.663 220.664 135.753 220.903 135.933 221.089C136.114 221.269 136.436 221.401 136.899 221.483L138.391 221.715C139.252 221.849 139.883 222.096 140.285 222.457C140.687 222.818 140.888 223.341 140.888 224.026C140.888 224.557 140.743 225.013 140.455 225.394C140.171 225.775 139.741 226.069 139.164 226.275C138.592 226.481 137.886 226.584 137.046 226.584ZM143.556 226.43V218.02H145.272V226.43H143.556ZM144.414 216.382C144.048 216.382 143.77 216.302 143.579 216.142C143.394 215.983 143.301 215.753 143.301 215.454C143.301 215.15 143.394 214.919 143.579 214.759C143.77 214.594 144.048 214.511 144.414 214.511C144.78 214.511 145.055 214.594 145.241 214.759C145.431 214.919 145.527 215.15 145.527 215.454C145.527 215.753 145.431 215.983 145.241 216.142C145.055 216.302 144.78 216.382 144.414 216.382ZM152.373 226.584C151.512 226.584 150.762 226.422 150.124 226.097C149.49 225.773 148.998 225.286 148.647 224.637C148.302 223.987 148.129 223.183 148.129 222.225C148.129 221.277 148.299 220.481 148.64 219.837C148.985 219.188 149.474 218.701 150.108 218.376C150.742 218.051 151.497 217.889 152.373 217.889C153.712 217.889 154.753 218.255 155.495 218.987C156.237 219.713 156.608 220.793 156.608 222.225C156.608 223.168 156.433 223.967 156.083 224.621C155.732 225.27 155.238 225.76 154.599 226.09C153.965 226.419 153.223 226.584 152.373 226.584ZM152.373 225.224C154.052 225.224 154.892 224.227 154.892 222.233C154.892 221.197 154.676 220.442 154.243 219.968C153.81 219.489 153.187 219.249 152.373 219.249C151.559 219.249 150.933 219.486 150.495 219.96C150.062 220.435 149.845 221.187 149.845 222.217C149.845 224.222 150.688 225.224 152.373 225.224ZM159.458 218.02H160.88L160.988 218.94H161.089C161.485 218.605 161.941 218.348 162.457 218.167C162.972 217.982 163.51 217.889 164.072 217.889C165.077 217.889 165.863 218.165 166.429 218.716C167.001 219.267 167.287 220.128 167.287 221.298V226.43H165.572V221.367C165.572 220.651 165.409 220.138 165.085 219.829C164.76 219.515 164.283 219.358 163.655 219.358C163.206 219.358 162.761 219.443 162.318 219.613C161.88 219.778 161.498 220.03 161.174 220.37V226.43H159.458V218.02ZM171.307 224.405C171.694 224.405 171.988 224.521 172.189 224.752C172.39 224.984 172.49 225.332 172.49 225.796C172.49 226.352 172.405 226.901 172.235 227.442C172.065 227.983 171.833 228.478 171.539 228.926H170.558C170.754 228.462 170.906 228.04 171.014 227.659C171.127 227.277 171.197 226.904 171.222 226.538C170.898 226.512 170.64 226.404 170.45 226.213C170.264 226.023 170.171 225.773 170.171 225.464C170.171 225.139 170.272 224.881 170.473 224.691C170.679 224.5 170.957 224.405 171.307 224.405ZM185.895 226.577C184.746 226.577 183.746 226.358 182.896 225.92C182.051 225.482 181.397 224.825 180.933 223.949C180.474 223.073 180.245 221.993 180.245 220.71C180.245 219.427 180.477 218.348 180.941 217.472C181.41 216.596 182.067 215.939 182.912 215.501C183.757 215.063 184.751 214.844 185.895 214.844C187.049 214.844 188.049 215.063 188.894 215.501C189.739 215.939 190.391 216.598 190.849 217.479C191.313 218.355 191.545 219.432 191.545 220.71C191.545 221.988 191.311 223.065 190.842 223.941C190.378 224.817 189.724 225.476 188.878 225.92C188.033 226.358 187.039 226.577 185.895 226.577ZM185.895 225.147C187.116 225.147 188.064 224.789 188.739 224.072C189.414 223.351 189.752 222.246 189.752 220.757C189.752 219.231 189.412 218.103 188.732 217.371C188.057 216.64 187.111 216.274 185.895 216.274C184.684 216.274 183.739 216.634 183.058 217.356C182.378 218.072 182.038 219.175 182.038 220.664C182.038 222.199 182.376 223.33 183.051 224.057C183.726 224.783 184.674 225.147 185.895 225.147ZM197.615 226.569C196.605 226.569 195.814 226.298 195.242 225.757C194.67 225.211 194.384 224.361 194.384 223.207V218.02H196.1V223.114C196.1 223.82 196.26 224.327 196.579 224.637C196.904 224.946 197.365 225.1 197.963 225.1C198.411 225.1 198.851 225.015 199.284 224.845C199.722 224.67 200.101 224.415 200.42 224.08V218.02H202.136V226.43H200.714L200.606 225.533H200.521C200.124 225.868 199.676 226.126 199.176 226.306C198.676 226.481 198.156 226.569 197.615 226.569ZM205.455 218.02H206.869L207.001 219.095H207.101C207.405 218.729 207.797 218.443 208.276 218.237C208.76 218.031 209.265 217.928 209.791 217.928C210.09 217.928 210.37 217.953 210.633 218.005V219.543C210.381 219.497 210.072 219.474 209.706 219.474C209.252 219.474 208.791 219.561 208.322 219.736C207.853 219.912 207.469 220.172 207.171 220.517V226.43H205.455V218.02ZM219.785 225.069H226.44V226.43H218.054V214.991H226.363V216.351H219.785V219.883H225.567V221.251H219.785V225.069ZM233.146 222.171L236.616 226.43H234.645L232.126 223.323L229.598 226.43H227.674L231.121 222.194L227.743 218.02H229.714L232.164 221.043L234.607 218.02H236.516L233.146 222.171ZM238.813 218.02H240.259L240.367 218.971H240.452C240.787 218.631 241.186 218.366 241.65 218.175C242.114 217.984 242.621 217.889 243.173 217.889C243.92 217.889 244.579 218.033 245.151 218.322C245.728 218.61 246.182 219.066 246.512 219.69C246.847 220.313 247.014 221.104 247.014 222.063C247.014 223.536 246.607 224.66 245.793 225.433C244.979 226.2 243.801 226.584 242.261 226.584C241.756 226.584 241.179 226.538 240.529 226.445V229.83H238.813V218.02ZM242.176 225.239C243.232 225.239 244.015 224.99 244.525 224.49C245.041 223.99 245.298 223.222 245.298 222.186C245.298 220.259 244.453 219.296 242.763 219.296C242.33 219.296 241.921 219.376 241.534 219.535C241.148 219.695 240.813 219.945 240.529 220.285V225.054C241.009 225.178 241.557 225.239 242.176 225.239ZM257.292 222.735H251.194C251.225 223.343 251.356 223.835 251.588 224.211C251.82 224.582 252.168 224.856 252.631 225.031C253.095 225.206 253.69 225.294 254.417 225.294C255.138 225.294 255.937 225.183 256.813 224.961V226.236C255.901 226.468 255.022 226.584 254.177 226.584C252.611 226.584 251.436 226.231 250.653 225.525C249.875 224.814 249.486 223.719 249.486 222.241C249.486 221.313 249.643 220.525 249.957 219.875C250.272 219.226 250.725 218.734 251.318 218.399C251.915 218.059 252.634 217.889 253.474 217.889C254.711 217.889 255.656 218.268 256.31 219.025C256.965 219.778 257.292 220.865 257.292 222.287V222.735ZM253.451 219.025C252.729 219.025 252.178 219.244 251.797 219.682C251.415 220.115 251.212 220.787 251.186 221.7H255.677C255.656 220.787 255.46 220.115 255.089 219.682C254.718 219.244 254.172 219.025 253.451 219.025ZM259.999 218.02H261.413L261.545 219.095H261.645C261.949 218.729 262.341 218.443 262.82 218.237C263.304 218.031 263.809 217.928 264.335 217.928C264.634 217.928 264.915 217.953 265.177 218.005V219.543C264.925 219.497 264.616 219.474 264.25 219.474C263.796 219.474 263.335 219.561 262.866 219.736C262.398 219.912 262.014 220.172 261.715 220.517V226.43H259.999V218.02ZM271.815 225.178C271.98 225.178 272.147 225.167 272.317 225.147C272.487 225.126 272.699 225.09 272.951 225.038V226.399C272.425 226.522 271.902 226.584 271.382 226.584C270.346 226.584 269.558 226.332 269.017 225.827C268.476 225.322 268.205 224.559 268.205 223.539V219.404H266.528V218.02H268.205L268.499 214.991H269.921V218.02H272.835V219.404H269.921V223.222C269.921 223.918 270.076 224.418 270.385 224.722C270.694 225.026 271.171 225.178 271.815 225.178ZM275.267 226.43V218.02H276.983V226.43H275.267ZM276.125 216.382C275.759 216.382 275.481 216.302 275.29 216.142C275.105 215.983 275.012 215.753 275.012 215.454C275.012 215.15 275.105 214.919 275.29 214.759C275.481 214.594 275.759 214.511 276.125 214.511C276.491 214.511 276.766 214.594 276.952 214.759C277.142 214.919 277.238 215.15 277.238 215.454C277.238 215.753 277.142 215.983 276.952 216.142C276.766 216.302 276.491 216.382 276.125 216.382ZM282.878 226.584C281.822 226.584 280.863 226.461 280.003 226.213V224.969C280.925 225.227 281.886 225.355 282.886 225.355C283.659 225.355 284.215 225.252 284.555 225.046C284.895 224.835 285.065 224.528 285.065 224.126C285.065 223.91 285.027 223.732 284.949 223.593C284.872 223.449 284.741 223.33 284.555 223.238C284.37 223.14 284.115 223.065 283.79 223.013L282.298 222.782C281.433 222.642 280.807 222.38 280.42 221.993C280.039 221.607 279.848 221.089 279.848 220.44C279.848 219.651 280.173 219.03 280.822 218.577C281.476 218.118 282.473 217.889 283.813 217.889C284.236 217.889 284.656 217.917 285.073 217.974C285.495 218.026 285.885 218.103 286.24 218.206V219.443C285.457 219.226 284.65 219.118 283.821 219.118C282.971 219.118 282.37 219.229 282.02 219.45C281.67 219.672 281.494 219.979 281.494 220.37C281.494 220.664 281.585 220.903 281.765 221.089C281.945 221.269 282.267 221.401 282.731 221.483L284.223 221.715C285.083 221.849 285.714 222.096 286.116 222.457C286.518 222.818 286.719 223.341 286.719 224.026C286.719 224.557 286.575 225.013 286.286 225.394C286.003 225.775 285.573 226.069 284.996 226.275C284.424 226.481 283.718 226.584 282.878 226.584ZM296.722 222.735H290.624C290.655 223.343 290.786 223.835 291.018 224.211C291.25 224.582 291.598 224.856 292.062 225.031C292.525 225.206 293.121 225.294 293.847 225.294C294.569 225.294 295.367 225.183 296.243 224.961V226.236C295.331 226.468 294.453 226.584 293.608 226.584C292.041 226.584 290.866 226.231 290.083 225.525C289.305 224.814 288.916 223.719 288.916 222.241C288.916 221.313 289.073 220.525 289.387 219.875C289.702 219.226 290.155 218.734 290.748 218.399C291.345 218.059 292.064 217.889 292.904 217.889C294.141 217.889 295.086 218.268 295.741 219.025C296.395 219.778 296.722 220.865 296.722 222.287V222.735ZM292.881 219.025C292.16 219.025 291.608 219.244 291.227 219.682C290.846 220.115 290.642 220.787 290.616 221.7H295.107C295.086 220.787 294.891 220.115 294.52 219.682C294.149 219.244 293.602 219.025 292.881 219.025Z" fill="black"/>
<defs>
<linearGradient id="paint0_linear_739_242" x1="140.959" y1="50.3943" x2="152.348" y2="97.6782" gradientUnits="userSpaceOnUse">
<stop stop-color="#002C69"/>
<stop offset="1" stop-color="#0057CF"/>
</linearGradient>
<linearGradient id="paint1_linear_739_242" x1="156.787" y1="-15.297" x2="268.042" y2="144.769" gradientUnits="userSpaceOnUse">
<stop stop-color="#002C69"/>
<stop offset="1" stop-color="#0057CF"/>
</linearGradient>
<linearGradient id="paint2_linear_739_242" x1="132.425" y1="105.151" x2="148.172" y2="148.583" gradientUnits="userSpaceOnUse">
<stop stop-color="#002C69"/>
<stop offset="1" stop-color="#0057CF"/>
</linearGradient>
<linearGradient id="paint3_linear_739_242" x1="109.231" y1="167.494" x2="112.491" y2="222.275" gradientUnits="userSpaceOnUse">
<stop stop-color="#002C69"/>
<stop offset="1" stop-color="#0057CF"/>
</linearGradient>
</defs>
</svg>
